<?xml version="1.0" encoding="UTF-8"?>

<svg xmlns="http://www.w3.org/2000/svg" version="1.1"
    xmlns:freecad="http://www.freecadweb.org/wiki/index.php?title=Svg_Namespace"
	width="210mm"
	height="297mm"
	viewBox="0 0 210 297">
	<!-- Working space 0 0 210 297 -->
	<defs>
		<radialGradient
			id="radialGradient3661"
			gradientUnits="userSpaceOnUse"
			cy="29.149"
			cx="282.65"
			gradientTransform="matrix(.14777 .23089 -.24680 .15795 -26.318 -62.617)"
			r="19.571">
				<stop stop-color="#71b2f8" offset="0"/>
				<stop stop-color="#002795" offset="1"/>
		</radialGradient>
		<radialGradient
			id="radialGradient3817"
			gradientUnits="userSpaceOnUse"
			cy="33.9"
			cx="270.58"
			gradientTransform="matrix(.26631 .065024 -.17931 .73438 -60.668 -36.938)"
			r="19.571">
				<stop stop-color="#ff6d0f" offset="0"/>
				<stop stop-color="#ff1000" offset="1"/>
		</radialGradient>
	</defs>
	<!-- Set display:none to hide FreeCAD Logo -->
	<g
		style="display:inline"
		id="freecad-logo"
		transform="translate(184, 272) scale(1)"
		fill-rule="evenodd"
		stroke-width=".45621">
		<path d="m0.22811 0.22835v13.256h2.9558v-5.1876h2.09v-2.0452h-2.09v-2.2075h5.1486v-3.8087l-8.1044-0.0075z"
			stroke="#370700"
			fill="url(#radialGradient3817)"/>
		<path d="m13.386 4.1792-1.7193 0.98645-0.75925-0.26348-0.72439-1.8513-1.1395 0.05988-0.51976 1.9144-0.72743 0.34835-1.8143-0.79367-0.76632 0.85156 0.98645 1.7193-0.26957 0.75702-1.8513 0.72439 0.065967 1.1417 1.9144 0.51976 0.34835 0.72743-0.79976 1.8121 0.85156 0.76632 1.7193-0.98645 0.76311 0.27179 0.7183 1.8491 1.1478-0.06375 0.51367-1.9166 0.72743-0.34835 1.8182 0.80198 0.76632-0.85156-0.98645-1.7193 0.2657-0.76533 1.8491-0.7183-0.05766-1.1456-1.9166-0.51367-0.34835-0.72743 0.7959-1.8204-0.85156-0.76632zm-2.5751 2.8195 0.35295 0.20478 0.30579 0.27725 0.24481 0.33087 0.17611 0.36787 0.10354 0.39656 0.01715 0.4064-0.0587 0.4063-0.13396 0.38571-0.2131 0.35681-0.26894 0.30192-0.33087 0.24481-0.36787 0.17611-0.39656 0.10354-0.40863 0.02325-0.4063-0.0587-0.38571-0.13396-0.35681-0.2131-0.2997-0.27503-0.24703-0.32478-0.17611-0.36787-0.10132-0.40264-0.02324-0.40863 0.05869-0.4063 0.13396-0.38571 0.21087-0.35072 0.27116-0.30801 0.33087-0.24481 0.36787-0.17611 0.40264-0.10132 0.40641-0.01715 0.4063 0.05869 0.38571 0.13396z" 
		stroke="#000137"
		fill="url(#radialGradient3661)"/>
	</g>
<g id="View"
   transform="rotate(0,70,180) translate(70,180) scale(0.5,0.5)"
  >
<g   fill="none"
   stroke="rgb(0, 0, 0)"
   stroke-linecap="butt"
   stroke-linejoin="miter"
   stroke-width="0.700000"
   transform="scale(1,-1)"
  >
<path id= "1" d=" M 135 225 L 75 225 " />
<path id= "2" d=" M 75 225 L 75 -15 " />
<path id= "3" d=" M 75 -15 L 35 -15 " />
<path id= "4" d=" M 35 -15 L 35 -75 " />
<path id= "5" d=" M 35 -75 L 135 -75 " />
<path id= "6" d=" M 135 -55 L 135 -75 " />
<path id= "7" d=" M 135 -55 L 155 -55 " />
<path id= "8" d=" M 155 -55 L 155 205 " />
<path id= "9" d=" M 155 205 L 135 205 " />
<path id= "10" d=" M 135 225 L 135 205 " />
</g>
</g>



<g> 
  <line x1="87.500000" y1="219.500000" x2="87.500000" y2="233.553095" style="stroke:rgb(0,0,255);stroke-width:0.50" />
<line x1="147.500000" y1="209.500000" x2="147.500000" y2="233.553095" style="stroke:rgb(0,0,255);stroke-width:0.50" />
<line x1="87.500000" y1="232.553095" x2="147.500000" y2="232.553095" style="stroke:rgb(0,0,255);stroke-width:0.50" /> 
  <polygon points="147.500000,232.553095 144.500000,231.553095 143.500000,232.553095 144.500000,233.553095" style="fill:rgb(0,0,255);stroke:rgb(0,0,255);stroke-width:0" /><polygon points="87.500000,232.553095 90.500000,233.553095 91.500000,232.553095 90.500000,231.553095" style="fill:rgb(0,0,255);stroke:rgb(0,0,255);stroke-width:0" /> 
  <text x="117.500000" y="230.553095" font-family="inherit" font-size="3.6" fill="rgb(0,0,255)" text-anchor="middle" transform="rotate(0.000000 117.500000,230.553095)" >120</text> </g>


<g> 
  <line x1="147.500000" y1="209.500000" x2="147.500000" y2="224.713677" style="stroke:rgb(0,0,255);stroke-width:0.50" />
<line x1="137.500000" y1="219.500000" x2="137.500000" y2="224.713677" style="stroke:rgb(0,0,255);stroke-width:0.50" />
<line x1="147.500000" y1="223.713677" x2="137.500000" y2="223.713677" style="stroke:rgb(0,0,255);stroke-width:0.50" /> 
  <polygon points="137.500000,223.713677 134.500000,222.713677 133.500000,223.713677 134.500000,224.713677" style="fill:rgb(0,0,255);stroke:rgb(0,0,255);stroke-width:0" /><polygon points="147.500000,223.713677 150.500000,224.713677 151.500000,223.713677 150.500000,222.713677" style="fill:rgb(0,0,255);stroke:rgb(0,0,255);stroke-width:0" /> 
  <text x="142.500000" y="221.713677" font-family="inherit" font-size="3.6" fill="rgb(0,0,255)" text-anchor="middle" transform="rotate(0.000000 142.500000,221.713677)" >20</text> </g>


<g> 
  <line x1="135.500000" y1="207.500000" x2="126.844182" y2="207.500000" style="stroke:rgb(0,0,255);stroke-width:0.50" />
<line x1="135.500000" y1="217.500000" x2="126.844182" y2="217.500000" style="stroke:rgb(0,0,255);stroke-width:0.50" />
<line x1="127.844182" y1="207.500000" x2="127.844182" y2="217.500000" style="stroke:rgb(0,0,255);stroke-width:0.50" /> 
  <polygon points="127.844182,217.500000 126.844182,220.500000 127.844182,221.500000 128.844182,220.500000" style="fill:rgb(0,0,255);stroke:rgb(0,0,255);stroke-width:0" /><polygon points="127.844182,207.500000 128.844182,204.500000 127.844182,203.500000 126.844182,204.500000" style="fill:rgb(0,0,255);stroke:rgb(0,0,255);stroke-width:0" /> 
  <text x="125.844182" y="212.500000" font-family="inherit" font-size="3.6" fill="rgb(0,0,255)" text-anchor="middle" transform="rotate(-90.000000 125.844182,212.500000)" >20</text> </g>


<g> 
  <line x1="85.500000" y1="187.500000" x2="69.988169" y2="187.500000" style="stroke:rgb(0,0,255);stroke-width:0.50" />
<line x1="85.500000" y1="217.500000" x2="69.988169" y2="217.500000" style="stroke:rgb(0,0,255);stroke-width:0.50" />
<line x1="70.988169" y1="187.500000" x2="70.988169" y2="217.500000" style="stroke:rgb(0,0,255);stroke-width:0.50" /> 
  <polygon points="70.988169,217.500000 71.988169,214.500000 70.988169,213.500000 69.988169,214.500000" style="fill:rgb(0,0,255);stroke:rgb(0,0,255);stroke-width:0" /><polygon points="70.988169,187.500000 69.988169,190.500000 70.988169,191.500000 71.988169,190.500000" style="fill:rgb(0,0,255);stroke:rgb(0,0,255);stroke-width:0" /> 
  <text x="68.988169" y="202.500000" font-family="inherit" font-size="3.6" fill="rgb(0,0,255)" text-anchor="middle" transform="rotate(-90.000000 68.988169,202.500000)" >60</text> </g>


<g> 
  <line x1="89.500000" y1="217.500000" x2="182.176115" y2="217.500000" style="stroke:rgb(0,0,255);stroke-width:0.50" />
<line x1="119.500000" y1="67.500000" x2="182.176115" y2="67.500000" style="stroke:rgb(0,0,255);stroke-width:0.50" />
<line x1="181.176115" y1="217.500000" x2="181.176115" y2="67.500000" style="stroke:rgb(0,0,255);stroke-width:0.50" /> 
  <polygon points="181.176115,67.500000 180.176115,70.500000 181.176115,71.500000 182.176115,70.500000" style="fill:rgb(0,0,255);stroke:rgb(0,0,255);stroke-width:0" /><polygon points="181.176115,217.500000 182.176115,214.500000 181.176115,213.500000 180.176115,214.500000" style="fill:rgb(0,0,255);stroke:rgb(0,0,255);stroke-width:0" /> 
  <text x="179.176115" y="142.500000" font-family="inherit" font-size="3.6" fill="rgb(0,0,255)" text-anchor="middle" transform="rotate(-90.000000 179.176115,142.500000)" >300</text> </g>


<g> 
  <line x1="147.500000" y1="79.500000" x2="147.500000" y2="89.632920" style="stroke:rgb(0,0,255);stroke-width:0.50" />
<line x1="137.500000" y1="79.500000" x2="137.500000" y2="89.632920" style="stroke:rgb(0,0,255);stroke-width:0.50" />
<line x1="147.500000" y1="88.632920" x2="137.500000" y2="88.632920" style="stroke:rgb(0,0,255);stroke-width:0.50" /> 
  <polygon points="137.500000,88.632920 134.500000,87.632920 133.500000,88.632920 134.500000,89.632920" style="fill:rgb(0,0,255);stroke:rgb(0,0,255);stroke-width:0" /><polygon points="147.500000,88.632920 150.500000,89.632920 151.500000,88.632920 150.500000,87.632920" style="fill:rgb(0,0,255);stroke:rgb(0,0,255);stroke-width:0" /> 
  <text x="142.500000" y="86.632920" font-family="inherit" font-size="3.6" fill="rgb(0,0,255)" text-anchor="middle" transform="rotate(0.000000 142.500000,86.632920)" >20</text> </g>


<g> 
  <line x1="135.500000" y1="67.500000" x2="127.224463" y2="67.500000" style="stroke:rgb(0,0,255);stroke-width:0.50" />
<line x1="135.500000" y1="77.500000" x2="127.224463" y2="77.500000" style="stroke:rgb(0,0,255);stroke-width:0.50" />
<line x1="128.224463" y1="67.500000" x2="128.224463" y2="77.500000" style="stroke:rgb(0,0,255);stroke-width:0.50" /> 
  <polygon points="128.224463,77.500000 127.224463,80.500000 128.224463,81.500000 129.224463,80.500000" style="fill:rgb(0,0,255);stroke:rgb(0,0,255);stroke-width:0" /><polygon points="128.224463,67.500000 129.224463,64.500000 128.224463,63.500000 127.224463,64.500000" style="fill:rgb(0,0,255);stroke:rgb(0,0,255);stroke-width:0" /> 
  <text x="126.224463" y="72.500000" font-family="inherit" font-size="3.6" fill="rgb(0,0,255)" text-anchor="middle" transform="rotate(-90.000000 126.224463,72.500000)" >20</text> </g>


<g> 
  <line x1="115.500000" y1="67.500000" x2="103.436951" y2="67.500000" style="stroke:rgb(0,0,255);stroke-width:0.50" />
<line x1="115.500000" y1="187.500000" x2="103.436951" y2="187.500000" style="stroke:rgb(0,0,255);stroke-width:0.50" />
<line x1="104.436951" y1="67.500000" x2="104.436951" y2="187.500000" style="stroke:rgb(0,0,255);stroke-width:0.50" /> 
  <polygon points="104.436951,187.500000 105.436951,184.500000 104.436951,183.500000 103.436951,184.500000" style="fill:rgb(0,0,255);stroke:rgb(0,0,255);stroke-width:0" /><polygon points="104.436951,67.500000 103.436951,70.500000 104.436951,71.500000 105.436951,70.500000" style="fill:rgb(0,0,255);stroke:rgb(0,0,255);stroke-width:0" /> 
  <text x="102.436951" y="127.500000" font-family="inherit" font-size="3.6" fill="rgb(0,0,255)" text-anchor="middle" transform="rotate(-90.000000 102.436951,127.500000)" >240</text> </g>


<g> 
  <line x1="87.500000" y1="189.500000" x2="87.500000" y2="201.401638" style="stroke:rgb(0,0,255);stroke-width:0.50" />
<line x1="107.500000" y1="189.500000" x2="107.500000" y2="201.401638" style="stroke:rgb(0,0,255);stroke-width:0.50" />
<line x1="87.500000" y1="200.401638" x2="107.500000" y2="200.401638" style="stroke:rgb(0,0,255);stroke-width:0.50" /> 
  <polygon points="107.500000,200.401638 104.500000,199.401638 103.500000,200.401638 104.500000,201.401638" style="fill:rgb(0,0,255);stroke:rgb(0,0,255);stroke-width:0" /><polygon points="87.500000,200.401638 90.500000,201.401638 91.500000,200.401638 90.500000,199.401638" style="fill:rgb(0,0,255);stroke:rgb(0,0,255);stroke-width:0" /> 
  <text x="97.500000" y="198.401638" font-family="inherit" font-size="3.6" fill="rgb(0,0,255)" text-anchor="middle" transform="rotate(0.000000 97.500000,198.401638)" >40</text> </g>


</svg>

