<?xml version="1.0" encoding="UTF-8" standalone="no"?>

<svg
	xmlns="http://www.w3.org/2000/svg" version="1.1"
	xmlns:freecad="http://www.freecadweb.org/wiki/index.php?title=Svg_Namespace"
	width="210mm"
	height="297mm"
	viewBox="0 0 210 297">
	<!-- Working space 20 10 200 287 -->
	<!-- Title block 20 227 200 287 -->
	<g>
		<rect
			id="drawing-border"
			style="fill:none;stroke:#000000;stroke-width:0.35;stroke-linecap:miter;stroke-miterlimit:4"
			width="180"
			height="277"
			x="20"
			y="10" />
			<!-- width-30, height-20 -->
		<g
			transform="translate(0,0)">
			<!-- A4 Portrait based for other formats width-210, height-297 -->
			<!--        page       rect   translation
			               w    h    rw   rh   tx   ty
			        A4-P  210  297  180  277    0    0
			        A3-L  420  297  390  277  210    0
			        A2-L  594  420  564  400  384  123
			        A1-L  841  594  811  574  631  297
			        A0-L 1189  841 1159  821  979  544
			-->
			<g
				id="titleblock-structure"
				style="fill:none;stroke:#000000;stroke-width:0.35;stroke-linecap:miter;stroke-miterlimit:4">
				<rect width="180" height="60" x="20" y="227" />
				<path d="m 20,239 h 180" />
				<path d="m 80,227 v 12" />
				<path d="m 140,239 v 48" />
				<path d="m 160,239 v 12" />
				<path d="m 180,239 v 12" />
				<path d="m 140,251 h 60" />
				<path d="m 140,275 h 60" />
				<path d="m 180,275 v 12" />
			</g>
			<g
				id="titleblock-text-non-editable"
				style="font-size:3px;text-anchor:start;fill:#000000;font-family:osifont"
				xml:space="preserve">
				<text x="21" y="230">Created by:</text>
				<text x="81" y="230">Title:</text>
				<text x="21" y="242">Supplementary information:</text>
				<text x="141" y="242">Size:</text>
				<text x="161" y="242">Sheet:</text>
				<text x="181" y="242">Scale:</text>
				<text x="141" y="254">Part number:</text>
				<text x="141" y="266">Drawing number:</text>
				<text x="141" y="278">Date:</text>
				<text x="181" y="278">Revision:</text>
			</g>
			<g
				id="titleblock-text-editable"
				style="font-size:5px;text-anchor:middle;fill:#000000;font-family:osifont"
				xml:space="preserve">
				<text freecad:editable="AUTHOR NAME" x="50" y="236"><tspan>Stefan Katerkamp</tspan></text>
				<text freecad:editable="DRAWING TITLE" x="140" y="236"><tspan>Enclosure Bottom Sheet</tspan></text>
				<text freecad:editable="SI-1" x="80" y="248"><tspan></tspan></text>
				<text freecad:editable="SI-2" x="80" y="255"><tspan></tspan></text>
				<text freecad:editable="FreeCAD DRAWING" x="80" y="262"><tspan>Ks MINI Enclosure</tspan></text>
				<text freecad:editable="SI-4" x="80" y="269"><tspan></tspan></text>
				<text freecad:editable="SI-5" x="80" y="276"><tspan></tspan></text>
				<text freecad:editable="SI-6" x="80" y="283"><tspan></tspan></text>
				<text freecad:editable="FC-SI" x="150" y="248"><tspan>A4</tspan></text>
				<text freecad:editable="FC-SH" x="170" y="248"><tspan>3</tspan></text>
				<text freecad:editable="FC-SC" x="190" y="248"><tspan>1:4</tspan></text>
				<text freecad:editable="PN" x="170" y="260"><tspan></tspan></text>
				<text freecad:editable="DN" x="170" y="272"><tspan></tspan></text>
				<text freecad:editable="FC-DATE" x="160" y="284"><tspan>17.01.2020</tspan></text>
				<text freecad:editable="FC-REV" x="190" y="284"><tspan>REV A</tspan></text>
			</g>
			<!-- Set display:none to hide FreeCAD Logo -->
			<g
				style="display:inline"
				id="freecad-logo"
				transform="translate(128.5,276)"
				fill-rule="evenodd"
				stroke="#000"
				stroke-width="0.35"
				fill="none">
					<path d="m0.1524 0.15254v8.8549h1.9744v-3.4652h1.396v-1.3661h-1.396v-1.4745h3.4391v-2.5441l-5.4135-0.005z"/>
					<path d="m7.7927 3.4504-0.50715-0.176-0.48387-1.2366-0.76115 0.04-0.34718 1.2787-0.4859 0.23269-1.2119-0.53015-0.51188 0.56882 0.65892 1.1485-0.18006 0.50567-1.2366 0.48387 0.044064 0.76263 1.2787 0.34718 0.23269 0.4859-0.53421 1.2104 0.56882 0.51188 1.1485-0.65891 0.50973 0.18155 0.4798 1.2351 0.7667-0.04258 0.34311-1.2802 0.4859-0.23269 1.2145 0.5357 0.51188-0.56882-0.65891-1.1485 0.17748-0.51122 1.2351-0.4798-0.03851-0.76521-1.2802-0.34311-0.23269-0.4859 0.53163-1.216-0.56881-0.51184zm-0.5715 1.2244 0.23576 0.13679 0.20426 0.18519 0.16353 0.22101 0.11763 0.24572 0.06916 0.26489 0.01146 0.27146-0.03921 0.27139-0.08948 0.25764-0.14234 0.23834-0.17964 0.20167-0.22101 0.16353-0.24572 0.11763-0.26489 0.06916-0.27295 0.01553-0.2719-0.04-0.2576-0.089-0.2383-0.143-0.2002-0.183-0.165-0.217-0.1177-0.246-0.0676-0.269-0.0156-0.273 0.039206-0.2714 0.089484-0.25764 0.14085-0.23427 0.18113-0.20574 0.22101-0.16352 0.24572-0.11763 0.26895-0.06768 0.27147-0.01146 0.27139 0.03921 0.25764 0.08948z"/>
			</g>
		</g>
	</g>
<g id="View005"
   transform="rotate(0,120,100) translate(120,100) scale(0.25,0.25)"
  >
<g   fill="none"
   stroke="rgb(0, 0, 0)"
   stroke-linecap="butt"
   stroke-linejoin="miter"
   stroke-width="1.400000"
   transform="scale(1,-1)"
  >
<path id= "1" d=" M -205 -246 L 31 -246 " />
<path id= "2" d=" M 31 -246 L 31 225 " />
<path id= "3" d=" M 31 225 L -205 225 " />
<path id= "4" d=" M -205 225 L -205 205 " />
<path id= "5" d=" M -205 205 L -225 205 " />
<path id= "6" d=" M -225 205 L -225 -230 " />
<path id= "7" d=" M -225 -230 L -205 -230 " />
<path id= "8" d=" M -205 -230 L -205 -246 " />
</g>
</g>



<g> 
  <line x1="127.750000" y1="163.500000" x2="127.750000" y2="193.190059" style="stroke:rgb(0,0,255);stroke-width:0.50" />
<line x1="63.750000" y1="159.500000" x2="63.750000" y2="193.190059" style="stroke:rgb(0,0,255);stroke-width:0.50" />
<line x1="127.750000" y1="192.190059" x2="63.750000" y2="192.190059" style="stroke:rgb(0,0,255);stroke-width:0.50" /> 
  <polygon points="63.750000,192.190059 66.750000,193.190059 67.750000,192.190059 66.750000,191.190059" style="fill:rgb(0,0,255);stroke:rgb(0,0,255);stroke-width:0" /><polygon points="127.750000,192.190059 124.750000,191.190059 123.750000,192.190059 124.750000,193.190059" style="fill:rgb(0,0,255);stroke:rgb(0,0,255);stroke-width:0" /> 
  <text x="95.750000" y="190.190059" font-family="inherit" font-size="3.6" fill="rgb(0,0,255)" text-anchor="middle" transform="rotate(0.000000 95.750000,190.190059)" >256</text> </g>


<g> 
  <line x1="129.750000" y1="161.500000" x2="158.779631" y2="161.500000" style="stroke:rgb(0,0,255);stroke-width:0.50" />
<line x1="129.750000" y1="43.750000" x2="158.779631" y2="43.750000" style="stroke:rgb(0,0,255);stroke-width:0.50" />
<line x1="157.779631" y1="161.500000" x2="157.779631" y2="43.750000" style="stroke:rgb(0,0,255);stroke-width:0.50" /> 
  <polygon points="157.779631,43.750000 156.779631,46.750000 157.779631,47.750000 158.779631,46.750000" style="fill:rgb(0,0,255);stroke:rgb(0,0,255);stroke-width:0" /><polygon points="157.779631,161.500000 158.779631,158.500000 157.779631,157.500000 156.779631,158.500000" style="fill:rgb(0,0,255);stroke:rgb(0,0,255);stroke-width:0" /> 
  <text x="155.779631" y="102.625000" font-family="inherit" font-size="3.6" fill="rgb(0,0,255)" text-anchor="middle" transform="rotate(-90.000000 155.779631,102.625000)" >471</text> </g>


<g> 
  <line x1="61.750000" y1="48.750000" x2="53.352835" y2="48.750000" style="stroke:rgb(0,0,255);stroke-width:0.50" />
<line x1="66.750000" y1="43.750000" x2="53.352835" y2="43.750000" style="stroke:rgb(0,0,255);stroke-width:0.50" />
<line x1="54.352835" y1="48.750000" x2="54.352835" y2="43.750000" style="stroke:rgb(0,0,255);stroke-width:0.50" /> 
  <polygon points="54.352835,43.750000 55.352835,40.750000 54.352835,39.750000 53.352835,40.750000" style="fill:rgb(0,0,255);stroke:rgb(0,0,255);stroke-width:0" /><polygon points="54.352835,48.750000 53.352835,51.750000 54.352835,52.750000 55.352835,51.750000" style="fill:rgb(0,0,255);stroke:rgb(0,0,255);stroke-width:0" /> 
  <text x="52.352835" y="46.250000" font-family="inherit" font-size="3.6" fill="rgb(0,0,255)" text-anchor="middle" transform="rotate(-90.000000 52.352835,46.250000)" >20</text> </g>


<g> 
  <line x1="63.750000" y1="46.750000" x2="63.750000" y2="28.327069" style="stroke:rgb(0,0,255);stroke-width:0.50" />
<line x1="68.750000" y1="46.750000" x2="68.750000" y2="28.327069" style="stroke:rgb(0,0,255);stroke-width:0.50" />
<line x1="63.750000" y1="29.327069" x2="68.750000" y2="29.327069" style="stroke:rgb(0,0,255);stroke-width:0.50" /> 
  <polygon points="68.750000,29.327069 71.750000,30.327069 72.750000,29.327069 71.750000,28.327069" style="fill:rgb(0,0,255);stroke:rgb(0,0,255);stroke-width:0" /><polygon points="63.750000,29.327069 60.750000,28.327069 59.750000,29.327069 60.750000,30.327069" style="fill:rgb(0,0,255);stroke:rgb(0,0,255);stroke-width:0" /> 
  <text x="66.250000" y="27.327069" font-family="inherit" font-size="3.6" fill="rgb(0,0,255)" text-anchor="middle" transform="rotate(0.000000 66.250000,27.327069)" >20</text> </g>


<g> 
  <line x1="66.750000" y1="161.500000" x2="36.538648" y2="161.500000" style="stroke:rgb(0,0,255);stroke-width:0.50" />
<line x1="66.750000" y1="157.500000" x2="36.538648" y2="157.500000" style="stroke:rgb(0,0,255);stroke-width:0.50" />
<line x1="37.538648" y1="161.500000" x2="37.538648" y2="157.500000" style="stroke:rgb(0,0,255);stroke-width:0.50" /> 
  <polygon points="37.538648,157.500000 38.538648,154.500000 37.538648,153.500000 36.538648,154.500000" style="fill:rgb(0,0,255);stroke:rgb(0,0,255);stroke-width:0" /><polygon points="37.538648,161.500000 36.538648,164.500000 37.538648,165.500000 38.538648,164.500000" style="fill:rgb(0,0,255);stroke:rgb(0,0,255);stroke-width:0" /> 
  <text x="35.538648" y="159.500000" font-family="inherit" font-size="3.6" fill="rgb(0,0,255)" text-anchor="middle" transform="rotate(-90.000000 35.538648,159.500000)" >16</text> </g>


<g> 
  <line x1="63.750000" y1="159.500000" x2="63.750000" y2="176.375872" style="stroke:rgb(0,0,255);stroke-width:0.50" />
<line x1="68.750000" y1="159.500000" x2="68.750000" y2="176.375872" style="stroke:rgb(0,0,255);stroke-width:0.50" />
<line x1="63.750000" y1="175.375872" x2="68.750000" y2="175.375872" style="stroke:rgb(0,0,255);stroke-width:0.50" /> 
  <polygon points="68.750000,175.375872 71.750000,176.375872 72.750000,175.375872 71.750000,174.375872" style="fill:rgb(0,0,255);stroke:rgb(0,0,255);stroke-width:0" /><polygon points="63.750000,175.375872 60.750000,174.375872 59.750000,175.375872 60.750000,176.375872" style="fill:rgb(0,0,255);stroke:rgb(0,0,255);stroke-width:0" /> 
  <text x="66.250000" y="173.375872" font-family="inherit" font-size="3.6" fill="rgb(0,0,255)" text-anchor="middle" transform="rotate(0.000000 66.250000,173.375872)" >20</text> </g>


</svg>

