<?xml version="1.0" encoding="UTF-8"?>

<svg xmlns="http://www.w3.org/2000/svg" version="1.1"
    xmlns:freecad="http://www.freecadweb.org/wiki/index.php?title=Svg_Namespace"
	width="210mm"
	height="297mm"
	viewBox="0 0 210 297">
	<!-- Working space 0 0 210 297 -->
	<defs>
		<radialGradient
			id="radialGradient3661"
			gradientUnits="userSpaceOnUse"
			cy="29.149"
			cx="282.65"
			gradientTransform="matrix(.14777 .23089 -.24680 .15795 -26.318 -62.617)"
			r="19.571">
				<stop stop-color="#71b2f8" offset="0"/>
				<stop stop-color="#002795" offset="1"/>
		</radialGradient>
		<radialGradient
			id="radialGradient3817"
			gradientUnits="userSpaceOnUse"
			cy="33.9"
			cx="270.58"
			gradientTransform="matrix(.26631 .065024 -.17931 .73438 -60.668 -36.938)"
			r="19.571">
				<stop stop-color="#ff6d0f" offset="0"/>
				<stop stop-color="#ff1000" offset="1"/>
		</radialGradient>
	</defs>
	<!-- Set display:none to hide FreeCAD Logo -->
	<g
		style="display:inline"
		id="freecad-logo"
		transform="translate(184, 272) scale(1)"
		fill-rule="evenodd"
		stroke-width=".45621">
		<path d="m0.22811 0.22835v13.256h2.9558v-5.1876h2.09v-2.0452h-2.09v-2.2075h5.1486v-3.8087l-8.1044-0.0075z"
			stroke="#370700"
			fill="url(#radialGradient3817)"/>
		<path d="m13.386 4.1792-1.7193 0.98645-0.75925-0.26348-0.72439-1.8513-1.1395 0.05988-0.51976 1.9144-0.72743 0.34835-1.8143-0.79367-0.76632 0.85156 0.98645 1.7193-0.26957 0.75702-1.8513 0.72439 0.065967 1.1417 1.9144 0.51976 0.34835 0.72743-0.79976 1.8121 0.85156 0.76632 1.7193-0.98645 0.76311 0.27179 0.7183 1.8491 1.1478-0.06375 0.51367-1.9166 0.72743-0.34835 1.8182 0.80198 0.76632-0.85156-0.98645-1.7193 0.2657-0.76533 1.8491-0.7183-0.05766-1.1456-1.9166-0.51367-0.34835-0.72743 0.7959-1.8204-0.85156-0.76632zm-2.5751 2.8195 0.35295 0.20478 0.30579 0.27725 0.24481 0.33087 0.17611 0.36787 0.10354 0.39656 0.01715 0.4064-0.0587 0.4063-0.13396 0.38571-0.2131 0.35681-0.26894 0.30192-0.33087 0.24481-0.36787 0.17611-0.39656 0.10354-0.40863 0.02325-0.4063-0.0587-0.38571-0.13396-0.35681-0.2131-0.2997-0.27503-0.24703-0.32478-0.17611-0.36787-0.10132-0.40264-0.02324-0.40863 0.05869-0.4063 0.13396-0.38571 0.21087-0.35072 0.27116-0.30801 0.33087-0.24481 0.36787-0.17611 0.40264-0.10132 0.40641-0.01715 0.4063 0.05869 0.38571 0.13396z" 
		stroke="#000137"
		fill="url(#radialGradient3661)"/>
	</g>
<g id="View"
   transform="rotate(0,113.75,145.375) translate(113.75,145.375) scale(0.25,0.25)"
  >
<g   fill="none"
   stroke="rgb(0, 0, 0)"
   stroke-linecap="butt"
   stroke-linejoin="miter"
   stroke-width="1.400000"
   transform="scale(1,-1)"
  >
<path id= "1" d=" M -215 -236.5 L -217.5 -236.5 " />
<path id= "2" d=" M -217.5 -236.5 L -220.92 -233.08 " />
<path d="M-220.389 -231.8 A0.75 0.75 0 0 1 -220.92 -233.08" /><path id= "4" d=" M -220.389 -231.8 L -217.85 -231.8 " />
<path d="M-217.85 -231.8 A0.25 0.25 0 0 1 -217.6 -231.55" /><path id= "6" d=" M -217.6 -230.75 L -217.6 -231.55 " />
<path d="M-217.6 -230.75 A0.75 0.75 0 0 1 -218.35 -230" /><path id= "8" d=" M -218.35 -230 L -223 -230 " />
<path d="M-223 -230 A2 2 0 0 1 -225 -232" /><path id= "10" d=" M -225 -232 L -225 -236.65 " />
<path d="M-225 -236.65 A0.75 0.75 0 0 1 -224.25 -237.4" /><path id= "12" d=" M -224.25 -237.4 L -223.45 -237.4 " />
<path d="M-223.45 -237.4 A0.25 0.25 0 0 1 -223.2 -237.15" /><path id= "14" d=" M -223.2 -237.15 L -223.2 -234.611 " />
<path d="M-221.92 -234.08 A0.75 0.75 0 0 1 -223.2 -234.611" /><path id= "16" d=" M -221.92 -234.08 L -218.5 -237.5 " />
<path id= "17" d=" M -218.5 -237.5 L -218.5 -240 " />
<path id= "18" d=" M -218.5 -240 L -218.5 -242.5 " />
<path id= "19" d=" M -218.5 -242.5 L -221.92 -245.92 " />
<path d="M-223.2 -245.389 A0.75 0.75 0 0 1 -221.92 -245.92" /><path id= "21" d=" M -223.2 -245.389 L -223.2 -242.85 " />
<path d="M-223.2 -242.85 A0.25 0.25 0 0 1 -223.45 -242.6" /><path id= "23" d=" M -223.45 -242.6 L -224.25 -242.6 " />
<path d="M-224.25 -242.6 A0.75 0.75 0 0 1 -225 -243.35" /><path id= "25" d=" M -225 -248 L -225 -243.35 " />
<path d="M-225 -248 A2 2 0 0 1 -223 -250" /><path id= "27" d=" M -218.35 -250 L -223 -250 " />
<path d="M-218.35 -250 A0.75 0.75 0 0 1 -217.6 -249.25" /><path id= "29" d=" M -217.6 -248.45 L -217.6 -249.25 " />
<path d="M-217.6 -248.45 A0.25 0.25 0 0 1 -217.85 -248.2" /><path id= "31" d=" M -220.389 -248.2 L -217.85 -248.2 " />
<path d="M-220.92 -246.92 A0.75 0.75 0 0 1 -220.389 -248.2" /><path id= "33" d=" M -217.5 -243.5 L -220.92 -246.92 " />
<path id= "34" d=" M -217.5 -243.5 L -215 -243.5 " />
<path id= "35" d=" M -215 -243.5 L -212.5 -243.5 " />
<path id= "36" d=" M -212.5 -243.5 L -209.08 -246.92 " />
<path d="M-209.611 -248.2 A0.75 0.75 0 0 1 -209.08 -246.92" /><path id= "38" d=" M -212.15 -248.2 L -209.611 -248.2 " />
<path d="M-212.15 -248.2 A0.25 0.25 0 0 1 -212.4 -248.45" /><path id= "40" d=" M -212.4 -248.45 L -212.4 -249.25 " />
<path d="M-212.4 -249.25 A0.75 0.75 0 0 1 -211.65 -250" /><path id= "42" d=" M -211.65 -250 L -207 -250 " />
<path d="M-207 -250 A2 2 0 0 1 -205 -248" /><path id= "44" d=" M -205 -248 L -205 -243.35 " />
<path d="M-205 -243.35 A0.75 0.75 0 0 1 -205.75 -242.6" /><path id= "46" d=" M -206.55 -242.6 L -205.75 -242.6 " />
<path d="M-206.55 -242.6 A0.25 0.25 0 0 1 -206.8 -242.85" /><path id= "48" d=" M -206.8 -245.389 L -206.8 -242.85 " />
<path d="M-208.08 -245.92 A0.75 0.75 0 0 1 -206.8 -245.389" /><path id= "50" d=" M -211.5 -242.5 L -208.08 -245.92 " />
<path id= "51" d=" M -211.5 -242.5 L -211.5 -240 " />
<path id= "52" d=" M -211.5 -240 L -211.5 -237.5 " />
<path id= "53" d=" M -211.5 -237.5 L -208.08 -234.08 " />
<path d="M-206.8 -234.611 A0.75 0.75 0 0 1 -208.08 -234.08" /><path id= "55" d=" M -206.8 -234.611 L -206.8 -237.15 " />
<path d="M-206.8 -237.15 A0.25 0.25 0 0 1 -206.55 -237.4" /><path id= "57" d=" M -206.55 -237.4 L -205.75 -237.4 " />
<path d="M-205.75 -237.4 A0.75 0.75 0 0 1 -205 -236.65" /><path id= "59" d=" M -205 -232 L -205 -236.65 " />
<path d="M-205 -232 A2 2 0 0 1 -207 -230" /><path id= "61" d=" M -211.65 -230 L -207 -230 " />
<path d="M-211.65 -230 A0.75 0.75 0 0 1 -212.4 -230.75" /><path id= "63" d=" M -212.4 -230.75 L -212.4 -231.55 " />
<path d="M-212.4 -231.55 A0.25 0.25 0 0 1 -212.15 -231.8" /><path id= "65" d=" M -209.611 -231.8 L -212.15 -231.8 " />
<path d="M-209.08 -233.08 A0.75 0.75 0 0 1 -209.611 -231.8" /><path id= "67" d=" M -212.5 -236.5 L -209.08 -233.08 " />
<path id= "68" d=" M -215 -236.5 L -212.5 -236.5 " />
<circle cx ="-215" cy ="-240" r ="2.15" /><path id= "70" d=" M -215 218.5 L -217.5 218.5 " />
<path id= "71" d=" M -217.5 218.5 L -220.92 221.92 " />
<path d="M-220.389 223.2 A0.75 0.75 0 0 1 -220.92 221.92" /><path id= "73" d=" M -220.389 223.2 L -217.85 223.2 " />
<path d="M-217.85 223.2 A0.25 0.25 0 0 1 -217.6 223.45" /><path id= "75" d=" M -217.6 224.25 L -217.6 223.45 " />
<path d="M-217.6 224.25 A0.75 0.75 0 0 1 -218.35 225" /><path id= "77" d=" M -218.35 225 L -223 225 " />
<path d="M-223 225 A2 2 0 0 1 -225 223" /><path id= "79" d=" M -225 223 L -225 218.35 " />
<path d="M-225 218.35 A0.75 0.75 0 0 1 -224.25 217.6" /><path id= "81" d=" M -224.25 217.6 L -223.45 217.6 " />
<path d="M-223.45 217.6 A0.25 0.25 0 0 1 -223.2 217.85" /><path id= "83" d=" M -223.2 217.85 L -223.2 220.389 " />
<path d="M-221.92 220.92 A0.75 0.75 0 0 1 -223.2 220.389" /><path id= "85" d=" M -221.92 220.92 L -218.5 217.5 " />
<path id= "86" d=" M -218.5 217.5 L -218.5 215 " />
<path id= "87" d=" M -218.5 215 L -218.5 212.5 " />
<path id= "88" d=" M -218.5 212.5 L -221.92 209.08 " />
<path d="M-223.2 209.611 A0.75 0.75 0 0 1 -221.92 209.08" /><path id= "90" d=" M -223.2 209.611 L -223.2 212.15 " />
<path d="M-223.2 212.15 A0.25 0.25 0 0 1 -223.45 212.4" /><path id= "92" d=" M -223.45 212.4 L -224.25 212.4 " />
<path d="M-224.25 212.4 A0.75 0.75 0 0 1 -225 211.65" /><path id= "94" d=" M -225 207 L -225 211.65 " />
<path d="M-225 207 A2 2 0 0 1 -223 205" /><path id= "96" d=" M -218.35 205 L -223 205 " />
<path d="M-218.35 205 A0.75 0.75 0 0 1 -217.6 205.75" /><path id= "98" d=" M -217.6 206.55 L -217.6 205.75 " />
<path d="M-217.6 206.55 A0.25 0.25 0 0 1 -217.85 206.8" /><path id= "100" d=" M -220.389 206.8 L -217.85 206.8 " />
<path d="M-220.92 208.08 A0.75 0.75 0 0 1 -220.389 206.8" /><path id= "102" d=" M -217.5 211.5 L -220.92 208.08 " />
<path id= "103" d=" M -217.5 211.5 L -215 211.5 " />
<path id= "104" d=" M -215 211.5 L -212.5 211.5 " />
<path id= "105" d=" M -212.5 211.5 L -209.08 208.08 " />
<path d="M-209.611 206.8 A0.75 0.75 0 0 1 -209.08 208.08" /><path id= "107" d=" M -212.15 206.8 L -209.611 206.8 " />
<path d="M-212.15 206.8 A0.25 0.25 0 0 1 -212.4 206.55" /><path id= "109" d=" M -212.4 206.55 L -212.4 205.75 " />
<path d="M-212.4 205.75 A0.75 0.75 0 0 1 -211.65 205" /><path id= "111" d=" M -211.65 205 L -207 205 " />
<path d="M-207 205 A2 2 0 0 1 -205 207" /><path id= "113" d=" M -205 207 L -205 211.65 " />
<path d="M-205 211.65 A0.75 0.75 0 0 1 -205.75 212.4" /><path id= "115" d=" M -206.55 212.4 L -205.75 212.4 " />
<path d="M-206.55 212.4 A0.25 0.25 0 0 1 -206.8 212.15" /><path id= "117" d=" M -206.8 209.611 L -206.8 212.15 " />
<path d="M-208.08 209.08 A0.75 0.75 0 0 1 -206.8 209.611" /><path id= "119" d=" M -211.5 212.5 L -208.08 209.08 " />
<path id= "120" d=" M -211.5 212.5 L -211.5 215 " />
<path id= "121" d=" M -211.5 215 L -211.5 217.5 " />
<path id= "122" d=" M -211.5 217.5 L -208.08 220.92 " />
<path d="M-206.8 220.389 A0.75 0.75 0 0 1 -208.08 220.92" /><path id= "124" d=" M -206.8 220.389 L -206.8 217.85 " />
<path d="M-206.8 217.85 A0.25 0.25 0 0 1 -206.55 217.6" /><path id= "126" d=" M -206.55 217.6 L -205.75 217.6 " />
<path d="M-205.75 217.6 A0.75 0.75 0 0 1 -205 218.35" /><path id= "128" d=" M -205 223 L -205 218.35 " />
<path d="M-205 223 A2 2 0 0 1 -207 225" /><path id= "130" d=" M -211.65 225 L -207 225 " />
<path d="M-211.65 225 A0.75 0.75 0 0 1 -212.4 224.25" /><path id= "132" d=" M -212.4 224.25 L -212.4 223.45 " />
<path d="M-212.4 223.45 A0.25 0.25 0 0 1 -212.15 223.2" /><path id= "134" d=" M -209.611 223.2 L -212.15 223.2 " />
<path d="M-209.08 221.92 A0.75 0.75 0 0 1 -209.611 223.2" /><path id= "136" d=" M -212.5 218.5 L -209.08 221.92 " />
<path id= "137" d=" M -215 218.5 L -212.5 218.5 " />
<circle cx ="-215" cy ="215" r ="2.15" /><path id= "139" d=" M 145 218.5 L 142.5 218.5 " />
<path id= "140" d=" M 142.5 218.5 L 139.08 221.92 " />
<path d="M139.611 223.2 A0.75 0.75 0 0 1 139.08 221.92" /><path id= "142" d=" M 139.611 223.2 L 142.15 223.2 " />
<path d="M142.15 223.2 A0.25 0.25 0 0 1 142.4 223.45" /><path id= "144" d=" M 142.4 224.25 L 142.4 223.45 " />
<path d="M142.4 224.25 A0.75 0.75 0 0 1 141.65 225" /><path id= "146" d=" M 141.65 225 L 137 225 " />
<path d="M137 225 A2 2 0 0 1 135 223" /><path id= "148" d=" M 135 223 L 135 218.35 " />
<path d="M135 218.35 A0.75 0.75 0 0 1 135.75 217.6" /><path id= "150" d=" M 135.75 217.6 L 136.55 217.6 " />
<path d="M136.55 217.6 A0.25 0.25 0 0 1 136.8 217.85" /><path id= "152" d=" M 136.8 217.85 L 136.8 220.389 " />
<path d="M138.08 220.92 A0.75 0.75 0 0 1 136.8 220.389" /><path id= "154" d=" M 138.08 220.92 L 141.5 217.5 " />
<path id= "155" d=" M 141.5 217.5 L 141.5 215 " />
<path id= "156" d=" M 141.5 215 L 141.5 212.5 " />
<path id= "157" d=" M 141.5 212.5 L 138.08 209.08 " />
<path d="M136.8 209.611 A0.75 0.75 0 0 1 138.08 209.08" /><path id= "159" d=" M 136.8 209.611 L 136.8 212.15 " />
<path d="M136.8 212.15 A0.25 0.25 0 0 1 136.55 212.4" /><path id= "161" d=" M 136.55 212.4 L 135.75 212.4 " />
<path d="M135.75 212.4 A0.75 0.75 0 0 1 135 211.65" /><path id= "163" d=" M 135 207 L 135 211.65 " />
<path d="M135 207 A2 2 0 0 1 137 205" /><path id= "165" d=" M 141.65 205 L 137 205 " />
<path d="M141.65 205 A0.75 0.75 0 0 1 142.4 205.75" /><path id= "167" d=" M 142.4 206.55 L 142.4 205.75 " />
<path d="M142.4 206.55 A0.25 0.25 0 0 1 142.15 206.8" /><path id= "169" d=" M 139.611 206.8 L 142.15 206.8 " />
<path d="M139.08 208.08 A0.75 0.75 0 0 1 139.611 206.8" /><path id= "171" d=" M 142.5 211.5 L 139.08 208.08 " />
<path id= "172" d=" M 142.5 211.5 L 145 211.5 " />
<path id= "173" d=" M 145 211.5 L 147.5 211.5 " />
<path id= "174" d=" M 147.5 211.5 L 150.92 208.08 " />
<path d="M150.389 206.8 A0.75 0.75 0 0 1 150.92 208.08" /><path id= "176" d=" M 147.85 206.8 L 150.389 206.8 " />
<path d="M147.85 206.8 A0.25 0.25 0 0 1 147.6 206.55" /><path id= "178" d=" M 147.6 206.55 L 147.6 205.75 " />
<path d="M147.6 205.75 A0.75 0.75 0 0 1 148.35 205" /><path id= "180" d=" M 148.35 205 L 153 205 " />
<path d="M153 205 A2 2 0 0 1 155 207" /><path id= "182" d=" M 155 207 L 155 211.65 " />
<path d="M155 211.65 A0.75 0.75 0 0 1 154.25 212.4" /><path id= "184" d=" M 153.45 212.4 L 154.25 212.4 " />
<path d="M153.45 212.4 A0.25 0.25 0 0 1 153.2 212.15" /><path id= "186" d=" M 153.2 209.611 L 153.2 212.15 " />
<path d="M151.92 209.08 A0.75 0.75 0 0 1 153.2 209.611" /><path id= "188" d=" M 148.5 212.5 L 151.92 209.08 " />
<path id= "189" d=" M 148.5 212.5 L 148.5 215 " />
<path id= "190" d=" M 148.5 215 L 148.5 217.5 " />
<path id= "191" d=" M 148.5 217.5 L 151.92 220.92 " />
<path d="M153.2 220.389 A0.75 0.75 0 0 1 151.92 220.92" /><path id= "193" d=" M 153.2 220.389 L 153.2 217.85 " />
<path d="M153.2 217.85 A0.25 0.25 0 0 1 153.45 217.6" /><path id= "195" d=" M 153.45 217.6 L 154.25 217.6 " />
<path d="M154.25 217.6 A0.75 0.75 0 0 1 155 218.35" /><path id= "197" d=" M 155 223 L 155 218.35 " />
<path d="M155 223 A2 2 0 0 1 153 225" /><path id= "199" d=" M 148.35 225 L 153 225 " />
<path d="M148.35 225 A0.75 0.75 0 0 1 147.6 224.25" /><path id= "201" d=" M 147.6 224.25 L 147.6 223.45 " />
<path d="M147.6 223.45 A0.25 0.25 0 0 1 147.85 223.2" /><path id= "203" d=" M 150.389 223.2 L 147.85 223.2 " />
<path d="M150.92 221.92 A0.75 0.75 0 0 1 150.389 223.2" /><path id= "205" d=" M 147.5 218.5 L 150.92 221.92 " />
<path id= "206" d=" M 145 218.5 L 147.5 218.5 " />
<circle cx ="145" cy ="215" r ="2.15" /><path id= "208" d=" M 145 -61.5 L 142.5 -61.5 " />
<path id= "209" d=" M 142.5 -61.5 L 139.08 -58.0803 " />
<path d="M139.611 -56.8 A0.75 0.75 0 0 1 139.08 -58.0803" /><path id= "211" d=" M 139.611 -56.8 L 142.15 -56.8 " />
<path d="M142.15 -56.8 A0.25 0.25 0 0 1 142.4 -56.55" /><path id= "213" d=" M 142.4 -55.75 L 142.4 -56.55 " />
<path d="M142.4 -55.75 A0.75 0.75 0 0 1 141.65 -55" /><path id= "215" d=" M 141.65 -55 L 137 -55 " />
<path d="M137 -55 A2 2 0 0 1 135 -57" /><path id= "217" d=" M 135 -57 L 135 -61.65 " />
<path d="M135 -61.65 A0.75 0.75 0 0 1 135.75 -62.4" /><path id= "219" d=" M 135.75 -62.4 L 136.55 -62.4 " />
<path d="M136.55 -62.4 A0.25 0.25 0 0 1 136.8 -62.15" /><path id= "221" d=" M 136.8 -62.15 L 136.8 -59.6107 " />
<path d="M138.08 -59.0803 A0.75 0.75 0 0 1 136.8 -59.6107" /><path id= "223" d=" M 138.08 -59.0803 L 141.5 -62.5 " />
<path id= "224" d=" M 141.5 -62.5 L 141.5 -65 " />
<path id= "225" d=" M 141.5 -65 L 141.5 -67.5 " />
<path id= "226" d=" M 141.5 -67.5 L 138.08 -70.9197 " />
<path d="M136.8 -70.3893 A0.75 0.75 0 0 1 138.08 -70.9197" /><path id= "228" d=" M 136.8 -70.3893 L 136.8 -67.85 " />
<path d="M136.8 -67.85 A0.25 0.25 0 0 1 136.55 -67.6" /><path id= "230" d=" M 136.55 -67.6 L 135.75 -67.6 " />
<path d="M135.75 -67.6 A0.75 0.75 0 0 1 135 -68.35" /><path id= "232" d=" M 135 -73 L 135 -68.35 " />
<path d="M135 -73 A2 2 0 0 1 137 -75" /><path id= "234" d=" M 141.65 -75 L 137 -75 " />
<path d="M141.65 -75 A0.75 0.75 0 0 1 142.4 -74.25" /><path id= "236" d=" M 142.4 -73.45 L 142.4 -74.25 " />
<path d="M142.4 -73.45 A0.25 0.25 0 0 1 142.15 -73.2" /><path id= "238" d=" M 139.611 -73.2 L 142.15 -73.2 " />
<path d="M139.08 -71.9197 A0.75 0.75 0 0 1 139.611 -73.2" /><path id= "240" d=" M 142.5 -68.5 L 139.08 -71.9197 " />
<path id= "241" d=" M 142.5 -68.5 L 145 -68.5 " />
<path id= "242" d=" M 145 -68.5 L 147.5 -68.5 " />
<path id= "243" d=" M 147.5 -68.5 L 150.92 -71.9197 " />
<path d="M150.389 -73.2 A0.75 0.75 0 0 1 150.92 -71.9197" /><path id= "245" d=" M 147.85 -73.2 L 150.389 -73.2 " />
<path d="M147.85 -73.2 A0.25 0.25 0 0 1 147.6 -73.45" /><path id= "247" d=" M 147.6 -73.45 L 147.6 -74.25 " />
<path d="M147.6 -74.25 A0.75 0.75 0 0 1 148.35 -75" /><path id= "249" d=" M 148.35 -75 L 153 -75 " />
<path d="M153 -75 A2 2 0 0 1 155 -73" /><path id= "251" d=" M 155 -73 L 155 -68.35 " />
<path d="M155 -68.35 A0.75 0.75 0 0 1 154.25 -67.6" /><path id= "253" d=" M 153.45 -67.6 L 154.25 -67.6 " />
<path d="M153.45 -67.6 A0.25 0.25 0 0 1 153.2 -67.85" /><path id= "255" d=" M 153.2 -70.3893 L 153.2 -67.85 " />
<path d="M151.92 -70.9197 A0.75 0.75 0 0 1 153.2 -70.3893" /><path id= "257" d=" M 148.5 -67.5 L 151.92 -70.9197 " />
<path id= "258" d=" M 148.5 -67.5 L 148.5 -65 " />
<path id= "259" d=" M 148.5 -65 L 148.5 -62.5 " />
<path id= "260" d=" M 148.5 -62.5 L 151.92 -59.0803 " />
<path d="M153.2 -59.6107 A0.75 0.75 0 0 1 151.92 -59.0803" /><path id= "262" d=" M 153.2 -59.6107 L 153.2 -62.15 " />
<path d="M153.2 -62.15 A0.25 0.25 0 0 1 153.45 -62.4" /><path id= "264" d=" M 153.45 -62.4 L 154.25 -62.4 " />
<path d="M154.25 -62.4 A0.75 0.75 0 0 1 155 -61.65" /><path id= "266" d=" M 155 -57 L 155 -61.65 " />
<path d="M155 -57 A2 2 0 0 1 153 -55" /><path id= "268" d=" M 148.35 -55 L 153 -55 " />
<path d="M148.35 -55 A0.75 0.75 0 0 1 147.6 -55.75" /><path id= "270" d=" M 147.6 -55.75 L 147.6 -56.55 " />
<path d="M147.6 -56.55 A0.25 0.25 0 0 1 147.85 -56.8" /><path id= "272" d=" M 150.389 -56.8 L 147.85 -56.8 " />
<path d="M150.92 -58.0803 A0.75 0.75 0 0 1 150.389 -56.8" /><path id= "274" d=" M 147.5 -61.5 L 150.92 -58.0803 " />
<path id= "275" d=" M 145 -61.5 L 147.5 -61.5 " />
<circle cx ="145" cy ="-65" r ="2.15" /></g>
</g>



<g id="View001"
   transform="rotate(0,113.75,145.375) translate(113.75,145.375) scale(0.25,0.25)"
  >
<g   fill="none"
   stroke="rgb(0, 0, 0)"
   stroke-linecap="butt"
   stroke-linejoin="miter"
   stroke-width="1.400000"
   transform="scale(1,-1)"
  >
<path id= "1" d=" M -205 225 L 135 225 " />
<path id= "2" d=" M -205 225 L 135 225 " />
<path d="M-205,225 Q-205,224.994 -205,224.987  Q-205,224.969 -205,224.95  Q-205,224.919 -205,224.888  Q-205,224.845 -205,224.802  Q-205,224.748 -205,224.693  Q-205,224.629 -205,224.564  Q-205,224.489 -205,224.414  Q-205,224.331 -205,224.247  Q-205,224.156 -205,224.064  Q-205,223.966 -205,223.868  Q-205,223.764 -205,223.661  Q-205,223.553 -205,223.445  Q-205,223.225 -205,223 " /><path d="M135,225 Q135,224.994 135,224.987  Q135,224.969 135,224.95  Q135,224.919 135,224.888  Q135,224.845 135,224.802  Q135,224.748 135,224.693  Q135,224.629 135,224.564  Q135,224.489 135,224.414  Q135,224.331 135,224.247  Q135,224.156 135,224.064  Q135,223.966 135,223.868  Q135,223.764 135,223.661  Q135,223.553 135,223.445  Q135,223.225 135,223 " /><path id= "5" d=" M -205 223 L -205 218.35 " />
<path id= "6" d=" M 135 223 L 135 218.35 " />
<path id= "7" d=" M -205 217.6 L 135 217.6 " />
<path d="M-205,218.35 C-205,218.153 -205,217.959 -205,217.82  C-205,217.801 -205,217.782 -205,217.764  C-205,217.73 -205,217.7 -205,217.674  C-205,217.664 -205,217.653 -205,217.642  C-205,217.634 -205,217.627 -205,217.619  C-205,217.614 -205,217.609 -205,217.605  C-205,217.603 -205,217.602 -205,217.6 " /><path d="M135,218.35 C135,218.153 135,217.959 135,217.82  C135,217.801 135,217.782 135,217.764  C135,217.73 135,217.7 135,217.674  C135,217.664 135,217.653 135,217.642  C135,217.634 135,217.627 135,217.619  C135,217.614 135,217.609 135,217.605  C135,217.603 135,217.602 135,217.6 " /><path id= "10" d=" M -205 217.5 L 135 217.5 " />
<path id= "11" d=" M -205 217.6 L -205 217.5 " />
<path id= "12" d=" M 135 217.6 L 135 217.5 " />
<path id= "13" d=" M -205 217.5 L -205 215 " />
<path id= "14" d=" M 135 217.5 L 135 215 " />
<path id= "15" d=" M -205 212.5 L 135 212.5 " />
<path id= "16" d=" M -205 215 L -205 212.5 " />
<path id= "17" d=" M 135 215 L 135 212.5 " />
<path id= "18" d=" M -205 212.5 L -205 212.4 " />
<path id= "19" d=" M 135 212.5 L 135 212.4 " />
<path id= "20" d=" M -205 212.4 L 135 212.4 " />
<path d="M-205,212.4 C-205,212.398 -205,212.397 -205,212.395  C-205,212.391 -205,212.386 -205,212.381  C-205,212.373 -205,212.366 -205,212.358  C-205,212.347 -205,212.336 -205,212.326  C-205,212.312 -205,212.299 -205,212.285  C-205,212.254 -205,212.219 -205,212.18  C-205,212.041 -205,211.847 -205,211.65 " /><path d="M135,212.4 C135,212.398 135,212.397 135,212.395  C135,212.391 135,212.386 135,212.381  C135,212.373 135,212.366 135,212.358  C135,212.347 135,212.336 135,212.326  C135,212.312 135,212.299 135,212.285  C135,212.254 135,212.219 135,212.18  C135,212.041 135,211.847 135,211.65 " /><path id= "23" d=" M -205 207 L -205 211.65 " />
<path id= "24" d=" M 135 207 L 135 211.65 " />
<path id= "25" d=" M -205 205 L 135 205 " />
<path d="M-205,207 C-205,206.775 -205,206.553 -205,206.339  C-205,206.27 -205,206.201 -205,206.132  C-205,206.067 -205,206.001 -205,205.936  C-205,205.875 -205,205.814 -205,205.753  C-205,205.697 -205,205.642 -205,205.586  C-205,205.536 -205,205.486 -205,205.436  C-205,205.393 -205,205.35 -205,205.307  C-205,205.27 -205,205.234 -205,205.198  C-205,205.169 -205,205.141 -205,205.112  C-205,205.092 -205,205.071 -205,205.05  C-205,205.038 -205,205.025 -205,205.013  C-205,205.008 -205,205.004 -205,205 " /><path d="M135,207 C135,206.775 135,206.553 135,206.339  C135,206.27 135,206.201 135,206.132  C135,206.067 135,206.001 135,205.936  C135,205.875 135,205.814 135,205.753  C135,205.697 135,205.642 135,205.586  C135,205.536 135,205.486 135,205.436  C135,205.393 135,205.35 135,205.307  C135,205.27 135,205.234 135,205.198  C135,205.169 135,205.141 135,205.112  C135,205.092 135,205.071 135,205.05  C135,205.038 135,205.025 135,205.013  C135,205.008 135,205.004 135,205 " /><path id= "28" d=" M -205 225 L 135 225 " />
<path id= "29" d=" M 35 -250 L -205 -250 " />
<path id= "30" d=" M 35 -250 L -205 -250 " />
<path d="M35,-250 Q35,-249.994 35,-249.987  Q35,-249.969 35,-249.95  Q35,-249.919 35,-249.888  Q35,-249.845 35,-249.802  Q35,-249.748 35,-249.693  Q35,-249.629 35,-249.564  Q35,-249.489 35,-249.414  Q35,-249.331 35,-249.247  Q35,-249.156 35,-249.064  Q35,-248.966 35,-248.868  Q35,-248.764 35,-248.661  Q35,-248.553 35,-248.445  Q35,-248.225 35,-248 " /><path d="M-205,-250 Q-205,-249.994 -205,-249.987  Q-205,-249.969 -205,-249.95  Q-205,-249.919 -205,-249.888  Q-205,-249.845 -205,-249.802  Q-205,-249.748 -205,-249.693  Q-205,-249.629 -205,-249.564  Q-205,-249.489 -205,-249.414  Q-205,-249.331 -205,-249.247  Q-205,-249.156 -205,-249.064  Q-205,-248.966 -205,-248.868  Q-205,-248.764 -205,-248.661  Q-205,-248.553 -205,-248.445  Q-205,-248.225 -205,-248 " /><path id= "33" d=" M 35 -248 L 35 -243.35 " />
<path id= "34" d=" M -205 -248 L -205 -243.35 " />
<path id= "35" d=" M 35 -242.6 L -205 -242.6 " />
<path d="M35,-243.35 C35,-243.153 35,-242.959 35,-242.82  C35,-242.801 35,-242.782 35,-242.764  C35,-242.73 35,-242.7 35,-242.674  C35,-242.664 35,-242.653 35,-242.642  C35,-242.634 35,-242.627 35,-242.619  C35,-242.614 35,-242.609 35,-242.605  C35,-242.603 35,-242.602 35,-242.6 " /><path d="M-205,-243.35 C-205,-243.153 -205,-242.959 -205,-242.82  C-205,-242.801 -205,-242.782 -205,-242.764  C-205,-242.73 -205,-242.7 -205,-242.674  C-205,-242.664 -205,-242.653 -205,-242.642  C-205,-242.634 -205,-242.627 -205,-242.619  C-205,-242.614 -205,-242.609 -205,-242.605  C-205,-242.603 -205,-242.602 -205,-242.6 " /><path id= "38" d=" M 35 -242.5 L -205 -242.5 " />
<path id= "39" d=" M 35 -242.6 L 35 -242.5 " />
<path id= "40" d=" M -205 -242.6 L -205 -242.5 " />
<path id= "41" d=" M 35 -242.5 L 35 -240 " />
<path id= "42" d=" M -205 -242.5 L -205 -240 " />
<path id= "43" d=" M 35 -237.5 L -205 -237.5 " />
<path id= "44" d=" M 35 -240 L 35 -237.5 " />
<path id= "45" d=" M -205 -240 L -205 -237.5 " />
<path id= "46" d=" M 35 -237.5 L 35 -237.4 " />
<path id= "47" d=" M -205 -237.5 L -205 -237.4 " />
<path id= "48" d=" M 35 -237.4 L -205 -237.4 " />
<path d="M35,-237.4 C35,-237.398 35,-237.397 35,-237.395  C35,-237.391 35,-237.386 35,-237.381  C35,-237.373 35,-237.366 35,-237.358  C35,-237.347 35,-237.336 35,-237.326  C35,-237.312 35,-237.299 35,-237.285  C35,-237.254 35,-237.219 35,-237.18  C35,-237.041 35,-236.847 35,-236.65 " /><path d="M-205,-237.4 C-205,-237.398 -205,-237.397 -205,-237.395  C-205,-237.391 -205,-237.386 -205,-237.381  C-205,-237.373 -205,-237.366 -205,-237.358  C-205,-237.347 -205,-237.336 -205,-237.326  C-205,-237.312 -205,-237.299 -205,-237.285  C-205,-237.254 -205,-237.219 -205,-237.18  C-205,-237.041 -205,-236.847 -205,-236.65 " /><path id= "51" d=" M 35 -232 L 35 -236.65 " />
<path id= "52" d=" M -205 -232 L -205 -236.65 " />
<path id= "53" d=" M 27.6 -230 L 22.4 -230 " />
<path id= "54" d=" M 17 -230 L -205 -230 " />
<path d="M35,-232 C35,-231.775 35,-231.553 35,-231.339  C35,-231.27 35,-231.201 35,-231.132  C35,-231.067 35,-231.001 35,-230.936  C35,-230.875 35,-230.814 35,-230.753  C35,-230.697 35,-230.642 35,-230.586  C35,-230.536 35,-230.486 35,-230.436  C35,-230.393 35,-230.35 35,-230.307  C35,-230.27 35,-230.234 35,-230.198  C35,-230.169 35,-230.141 35,-230.112  C35,-230.092 35,-230.071 35,-230.05  C35,-230.038 35,-230.025 35,-230.013  C35,-230.008 35,-230.004 35,-230 " /><path d="M-205,-232 C-205,-231.775 -205,-231.553 -205,-231.339  C-205,-231.27 -205,-231.201 -205,-231.132  C-205,-231.067 -205,-231.001 -205,-230.936  C-205,-230.875 -205,-230.814 -205,-230.753  C-205,-230.697 -205,-230.642 -205,-230.586  C-205,-230.536 -205,-230.486 -205,-230.436  C-205,-230.393 -205,-230.35 -205,-230.307  C-205,-230.27 -205,-230.234 -205,-230.198  C-205,-230.169 -205,-230.141 -205,-230.112  C-205,-230.092 -205,-230.071 -205,-230.05  C-205,-230.038 -205,-230.025 -205,-230.013  C-205,-230.008 -205,-230.004 -205,-230 " /><path id= "57" d=" M 35 -250 L -205 -250 " />
<path id= "58" d=" M -205 -55 L 135 -55 " />
<path id= "59" d=" M -205 -55 L 135 -55 " />
<path d="M-205,-55 Q-205,-55.0063 -205,-55.0126  Q-205,-55.0314 -205,-55.0501  Q-205,-55.0812 -205,-55.1122  Q-205,-55.1551 -205,-55.1981  Q-205,-55.2523 -205,-55.3066  Q-205,-55.3714 -205,-55.4363  Q-205,-55.5111 -205,-55.5858  Q-205,-55.6694 -205,-55.753  Q-205,-55.8445 -205,-55.9359  Q-205,-56.0341 -205,-56.1322  Q-205,-56.2358 -205,-56.3394  Q-205,-56.4472 -205,-56.555  Q-205,-56.7753 -205,-57 " /><path d="M135,-55 Q135,-55.0063 135,-55.0126  Q135,-55.0314 135,-55.0501  Q135,-55.0812 135,-55.1122  Q135,-55.1551 135,-55.1981  Q135,-55.2523 135,-55.3066  Q135,-55.3714 135,-55.4363  Q135,-55.5111 135,-55.5858  Q135,-55.6694 135,-55.753  Q135,-55.8445 135,-55.9359  Q135,-56.0341 135,-56.1322  Q135,-56.2358 135,-56.3394  Q135,-56.4472 135,-56.555  Q135,-56.7753 135,-57 " /><path id= "62" d=" M -205 -57 L -205 -61.65 " />
<path id= "63" d=" M 135 -57 L 135 -61.65 " />
<path id= "64" d=" M -205 -62.4 L 135 -62.4 " />
<path d="M-205,-61.65 C-205,-61.8468 -205,-62.0407 -205,-62.1803  C-205,-62.199 -205,-62.2177 -205,-62.2364  C-205,-62.2703 -205,-62.3001 -205,-62.3257  C-205,-62.3365 -205,-62.3472 -205,-62.3579  C-205,-62.3657 -205,-62.3734 -205,-62.3812  C-205,-62.3859 -205,-62.3906 -205,-62.3953  C-205,-62.3969 -205,-62.3984 -205,-62.4 " /><path d="M135,-61.65 C135,-61.8468 135,-62.0407 135,-62.1803  C135,-62.199 135,-62.2177 135,-62.2364  C135,-62.2703 135,-62.3001 135,-62.3257  C135,-62.3365 135,-62.3472 135,-62.3579  C135,-62.3657 135,-62.3734 135,-62.3812  C135,-62.3859 135,-62.3906 135,-62.3953  C135,-62.3969 135,-62.3984 135,-62.4 " /><path id= "67" d=" M -205 -62.5 L 135 -62.5 " />
<path id= "68" d=" M 135 -62.4 L 135 -62.5 " />
<path id= "69" d=" M 135 -62.5 L 135 -65 " />
<path id= "70" d=" M -205 -67.5 L 135 -67.5 " />
<path id= "71" d=" M 135 -65 L 135 -67.5 " />
<path id= "72" d=" M 135 -67.5 L 135 -67.6 " />
<path id= "73" d=" M -205 -67.6 L 135 -67.6 " />
<path d="M-205,-67.6 C-205,-67.6016 -205,-67.6031 -205,-67.6047  C-205,-67.6094 -205,-67.6141 -205,-67.6188  C-205,-67.6266 -205,-67.6343 -205,-67.6421  C-205,-67.6528 -205,-67.6635 -205,-67.6743  C-205,-67.6878 -205,-67.7014 -205,-67.715  C-205,-67.746 -205,-67.7809 -205,-67.8197  C-205,-67.9593 -205,-68.1532 -205,-68.35 " /><path d="M135,-67.6 C135,-67.6016 135,-67.6031 135,-67.6047  C135,-67.6094 135,-67.6141 135,-67.6188  C135,-67.6266 135,-67.6343 135,-67.6421  C135,-67.6528 135,-67.6635 135,-67.6743  C135,-67.6878 135,-67.7014 135,-67.715  C135,-67.746 135,-67.7809 135,-67.8197  C135,-67.9593 135,-68.1532 135,-68.35 " /><path id= "76" d=" M -205 -73 L -205 -68.35 " />
<path id= "77" d=" M 135 -73 L 135 -68.35 " />
<path id= "78" d=" M -205 -75 L 17 -75 " />
<path id= "79" d=" M 22.4 -75 L 27.6 -75 " />
<path id= "80" d=" M 35 -75 L 135 -75 " />
<path d="M-205,-73 C-205,-73.2247 -205,-73.4473 -205,-73.6606  C-205,-73.7296 -205,-73.7987 -205,-73.8678  C-205,-73.9332 -205,-73.9986 -205,-74.0641  C-205,-74.125 -205,-74.186 -205,-74.247  C-205,-74.3027 -205,-74.3585 -205,-74.4142  C-205,-74.464 -205,-74.5138 -205,-74.5637  C-205,-74.6069 -205,-74.6502 -205,-74.6934  C-205,-74.7296 -205,-74.7658 -205,-74.8019  C-205,-74.8305 -205,-74.8592 -205,-74.8878  C-205,-74.9085 -205,-74.9292 -205,-74.9499  C-205,-74.9624 -205,-74.9749 -205,-74.9874  C-205,-74.9916 -205,-74.9958 -205,-75 " /><path d="M135,-73 C135,-73.2247 135,-73.4473 135,-73.6606  C135,-73.7296 135,-73.7987 135,-73.8678  C135,-73.9332 135,-73.9986 135,-74.0641  C135,-74.125 135,-74.186 135,-74.247  C135,-74.3027 135,-74.3585 135,-74.4142  C135,-74.464 135,-74.5138 135,-74.5637  C135,-74.6069 135,-74.6502 135,-74.6934  C135,-74.7296 135,-74.7658 135,-74.8019  C135,-74.8305 135,-74.8592 135,-74.8878  C135,-74.9085 135,-74.9292 135,-74.9499  C135,-74.9624 135,-74.9749 135,-74.9874  C135,-74.9916 135,-74.9958 135,-75 " /><path id= "83" d=" M -205 -55 L 135 -55 " />
<path id= "84" d=" M -225 -230 L -225 205 " />
<path id= "85" d=" M -225 -230 L -225 205 " />
<path d="M-225,-230 Q-224.994,-230 -224.987,-230  Q-224.969,-230 -224.95,-230  Q-224.919,-230 -224.888,-230  Q-224.845,-230 -224.802,-230  Q-224.748,-230 -224.693,-230  Q-224.629,-230 -224.564,-230  Q-224.489,-230 -224.414,-230  Q-224.331,-230 -224.247,-230  Q-224.156,-230 -224.064,-230  Q-223.966,-230 -223.868,-230  Q-223.764,-230 -223.661,-230  Q-223.553,-230 -223.445,-230  Q-223.225,-230 -223,-230 " /><path d="M-225,205 Q-224.994,205 -224.987,205  Q-224.969,205 -224.95,205  Q-224.919,205 -224.888,205  Q-224.845,205 -224.802,205  Q-224.748,205 -224.693,205  Q-224.629,205 -224.564,205  Q-224.489,205 -224.414,205  Q-224.331,205 -224.247,205  Q-224.156,205 -224.064,205  Q-223.966,205 -223.868,205  Q-223.764,205 -223.661,205  Q-223.553,205 -223.445,205  Q-223.225,205 -223,205 " /><path id= "88" d=" M -223 -230 L -218.35 -230 " />
<path id= "89" d=" M -223 205 L -218.35 205 " />
<path id= "90" d=" M -217.6 -230 L -217.6 205 " />
<path d="M-218.35,-230 C-218.153,-230 -217.959,-230 -217.82,-230  C-217.801,-230 -217.782,-230 -217.764,-230  C-217.73,-230 -217.7,-230 -217.674,-230  C-217.664,-230 -217.653,-230 -217.642,-230  C-217.634,-230 -217.627,-230 -217.619,-230  C-217.614,-230 -217.609,-230 -217.605,-230  C-217.603,-230 -217.602,-230 -217.6,-230 " /><path d="M-218.35,205 C-218.153,205 -217.959,205 -217.82,205  C-217.801,205 -217.782,205 -217.764,205  C-217.73,205 -217.7,205 -217.674,205  C-217.664,205 -217.653,205 -217.642,205  C-217.634,205 -217.627,205 -217.619,205  C-217.614,205 -217.609,205 -217.605,205  C-217.603,205 -217.602,205 -217.6,205 " /><path id= "93" d=" M -217.5 -230 L -217.5 205 " />
<path id= "94" d=" M -217.6 -230 L -217.5 -230 " />
<path id= "95" d=" M -217.6 205 L -217.5 205 " />
<path id= "96" d=" M -217.5 -230 L -215 -230 " />
<path id= "97" d=" M -217.5 205 L -215 205 " />
<path id= "98" d=" M -212.5 -230 L -212.5 205 " />
<path id= "99" d=" M -215 -230 L -212.5 -230 " />
<path id= "100" d=" M -215 205 L -212.5 205 " />
<path id= "101" d=" M -212.5 -230 L -212.4 -230 " />
<path id= "102" d=" M -212.5 205 L -212.4 205 " />
<path id= "103" d=" M -212.4 -230 L -212.4 205 " />
<path d="M-212.4,-230 C-212.398,-230 -212.397,-230 -212.395,-230  C-212.391,-230 -212.386,-230 -212.381,-230  C-212.373,-230 -212.366,-230 -212.358,-230  C-212.347,-230 -212.336,-230 -212.326,-230  C-212.312,-230 -212.299,-230 -212.285,-230  C-212.254,-230 -212.219,-230 -212.18,-230  C-212.041,-230 -211.847,-230 -211.65,-230 " /><path d="M-212.4,205 C-212.398,205 -212.397,205 -212.395,205  C-212.391,205 -212.386,205 -212.381,205  C-212.373,205 -212.366,205 -212.358,205  C-212.347,205 -212.336,205 -212.326,205  C-212.312,205 -212.299,205 -212.285,205  C-212.254,205 -212.219,205 -212.18,205  C-212.041,205 -211.847,205 -211.65,205 " /><path id= "106" d=" M -207 -230 L -211.65 -230 " />
<path id= "107" d=" M -207 205 L -211.65 205 " />
<path id= "108" d=" M -205 -230 L -205 -75 " />
<path id= "109" d=" M -205 -67.6 L -205 -62.4 " />
<path id= "110" d=" M -205 -55 L -205 70 " />
<path id= "111" d=" M -205 77.4 L -205 82.6 " />
<path id= "112" d=" M -205 90 L -205 205 " />
<path d="M-207,-230 C-206.775,-230 -206.553,-230 -206.339,-230  C-206.27,-230 -206.201,-230 -206.132,-230  C-206.067,-230 -206.001,-230 -205.936,-230  C-205.875,-230 -205.814,-230 -205.753,-230  C-205.697,-230 -205.642,-230 -205.586,-230  C-205.536,-230 -205.486,-230 -205.436,-230  C-205.393,-230 -205.35,-230 -205.307,-230  C-205.27,-230 -205.234,-230 -205.198,-230  C-205.169,-230 -205.141,-230 -205.112,-230  C-205.092,-230 -205.071,-230 -205.05,-230  C-205.038,-230 -205.025,-230 -205.013,-230  C-205.008,-230 -205.004,-230 -205,-230 " /><path d="M-207,205 C-206.775,205 -206.553,205 -206.339,205  C-206.27,205 -206.201,205 -206.132,205  C-206.067,205 -206.001,205 -205.936,205  C-205.875,205 -205.814,205 -205.753,205  C-205.697,205 -205.642,205 -205.586,205  C-205.536,205 -205.486,205 -205.436,205  C-205.393,205 -205.35,205 -205.307,205  C-205.27,205 -205.234,205 -205.198,205  C-205.169,205 -205.141,205 -205.112,205  C-205.092,205 -205.071,205 -205.05,205  C-205.038,205 -205.025,205 -205.013,205  C-205.008,205 -205.004,205 -205,205 " /><path id= "115" d=" M -225 -230 L -225 205 " />
<path id= "116" d=" M 135 -55 L 135 70 " />
<path id= "117" d=" M 135 90 L 135 205 " />
<path id= "118" d=" M 135 -55 L 135 70 " />
<path id= "119" d=" M 135 77.4 L 135 82.6 " />
<path id= "120" d=" M 135 90 L 135 205 " />
<path d="M135,-55 Q135.006,-55 135.013,-55  Q135.031,-55 135.05,-55  Q135.081,-55 135.112,-55  Q135.155,-55 135.198,-55  Q135.252,-55 135.307,-55  Q135.371,-55 135.436,-55  Q135.511,-55 135.586,-55  Q135.669,-55 135.753,-55  Q135.844,-55 135.936,-55  Q136.034,-55 136.132,-55  Q136.236,-55 136.339,-55  Q136.447,-55 136.555,-55  Q136.775,-55 137,-55 " /><path d="M135,205 Q135.006,205 135.013,205  Q135.031,205 135.05,205  Q135.081,205 135.112,205  Q135.155,205 135.198,205  Q135.252,205 135.307,205  Q135.371,205 135.436,205  Q135.511,205 135.586,205  Q135.669,205 135.753,205  Q135.844,205 135.936,205  Q136.034,205 136.132,205  Q136.236,205 136.339,205  Q136.447,205 136.555,205  Q136.775,205 137,205 " /><path id= "123" d=" M 137 -55 L 141.65 -55 " />
<path id= "124" d=" M 137 205 L 141.65 205 " />
<path id= "125" d=" M 142.4 -55 L 142.4 205 " />
<path d="M141.65,-55 C141.847,-55 142.041,-55 142.18,-55  C142.199,-55 142.218,-55 142.236,-55  C142.27,-55 142.3,-55 142.326,-55  C142.336,-55 142.347,-55 142.358,-55  C142.366,-55 142.373,-55 142.381,-55  C142.386,-55 142.391,-55 142.395,-55  C142.397,-55 142.398,-55 142.4,-55 " /><path d="M141.65,205 C141.847,205 142.041,205 142.18,205  C142.199,205 142.218,205 142.236,205  C142.27,205 142.3,205 142.326,205  C142.336,205 142.347,205 142.358,205  C142.366,205 142.373,205 142.381,205  C142.386,205 142.391,205 142.395,205  C142.397,205 142.398,205 142.4,205 " /><path id= "128" d=" M 142.5 -55 L 142.5 205 " />
<path id= "129" d=" M 142.4 -55 L 142.5 -55 " />
<path id= "130" d=" M 142.4 205 L 142.5 205 " />
<path id= "131" d=" M 142.5 -55 L 145 -55 " />
<path id= "132" d=" M 142.5 205 L 145 205 " />
<path id= "133" d=" M 147.5 -55 L 147.5 205 " />
<path id= "134" d=" M 145 -55 L 147.5 -55 " />
<path id= "135" d=" M 145 205 L 147.5 205 " />
<path id= "136" d=" M 147.5 -55 L 147.6 -55 " />
<path id= "137" d=" M 147.5 205 L 147.6 205 " />
<path id= "138" d=" M 147.6 -55 L 147.6 205 " />
<path d="M147.6,-55 C147.602,-55 147.603,-55 147.605,-55  C147.609,-55 147.614,-55 147.619,-55  C147.627,-55 147.634,-55 147.642,-55  C147.653,-55 147.664,-55 147.674,-55  C147.688,-55 147.701,-55 147.715,-55  C147.746,-55 147.781,-55 147.82,-55  C147.959,-55 148.153,-55 148.35,-55 " /><path d="M147.6,205 C147.602,205 147.603,205 147.605,205  C147.609,205 147.614,205 147.619,205  C147.627,205 147.634,205 147.642,205  C147.653,205 147.664,205 147.674,205  C147.688,205 147.701,205 147.715,205  C147.746,205 147.781,205 147.82,205  C147.959,205 148.153,205 148.35,205 " /><path id= "141" d=" M 153 -55 L 148.35 -55 " />
<path id= "142" d=" M 153 205 L 148.35 205 " />
<path id= "143" d=" M 155 -55 L 155 205 " />
<path d="M153,-55 C153.225,-55 153.447,-55 153.661,-55  C153.73,-55 153.799,-55 153.868,-55  C153.933,-55 153.999,-55 154.064,-55  C154.125,-55 154.186,-55 154.247,-55  C154.303,-55 154.358,-55 154.414,-55  C154.464,-55 154.514,-55 154.564,-55  C154.607,-55 154.65,-55 154.693,-55  C154.73,-55 154.766,-55 154.802,-55  C154.831,-55 154.859,-55 154.888,-55  C154.908,-55 154.929,-55 154.95,-55  C154.962,-55 154.975,-55 154.987,-55  C154.992,-55 154.996,-55 155,-55 " /><path d="M153,205 C153.225,205 153.447,205 153.661,205  C153.73,205 153.799,205 153.868,205  C153.933,205 153.999,205 154.064,205  C154.125,205 154.186,205 154.247,205  C154.303,205 154.358,205 154.414,205  C154.464,205 154.514,205 154.564,205  C154.607,205 154.65,205 154.693,205  C154.73,205 154.766,205 154.802,205  C154.831,205 154.859,205 154.888,205  C154.908,205 154.929,205 154.95,205  C154.962,205 154.975,205 154.987,205  C154.992,205 154.996,205 155,205 " /><path id= "146" d=" M 135 -55 L 135 70 " />
<path id= "147" d=" M 135 90 L 135 205 " />
<path id= "148" d=" M 15 -230 L 15 -75 " />
<path d="M15,-230 Q15.0063,-230 15.0126,-230  Q15.0314,-230 15.0501,-230  Q15.0812,-230 15.1122,-230  Q15.1551,-230 15.1981,-230  Q15.2523,-230 15.3066,-230  Q15.3714,-230 15.4363,-230  Q15.5111,-230 15.5858,-230  Q15.6694,-230 15.753,-230  Q15.8445,-230 15.9359,-230  Q16.0341,-230 16.1322,-230  Q16.2358,-230 16.3394,-230  Q16.4472,-230 16.555,-230  Q16.7753,-230 17,-230 " /><path d="M15,-75 Q15.0063,-75 15.0126,-75  Q15.0314,-75 15.0501,-75  Q15.0812,-75 15.1122,-75  Q15.1551,-75 15.1981,-75  Q15.2523,-75 15.3066,-75  Q15.3714,-75 15.4363,-75  Q15.5111,-75 15.5858,-75  Q15.6694,-75 15.753,-75  Q15.8445,-75 15.9359,-75  Q16.0341,-75 16.1322,-75  Q16.2358,-75 16.3394,-75  Q16.4472,-75 16.555,-75  Q16.7753,-75 17,-75 " /><path id= "151" d=" M 21.65 -230 L 17 -230 " />
<path id= "152" d=" M 21.65 -75 L 17 -75 " />
<path id= "153" d=" M 22.4 -230 L 22.4 -75 " />
<path d="M21.65,-230 C21.8468,-230 22.0407,-230 22.1803,-230  C22.199,-230 22.2177,-230 22.2364,-230  C22.2703,-230 22.3001,-230 22.3257,-230  C22.3365,-230 22.3472,-230 22.3579,-230  C22.3657,-230 22.3734,-230 22.3812,-230  C22.3859,-230 22.3906,-230 22.3953,-230  C22.3969,-230 22.3984,-230 22.4,-230 " /><path d="M21.65,-75 C21.8468,-75 22.0407,-75 22.1803,-75  C22.199,-75 22.2177,-75 22.2364,-75  C22.2703,-75 22.3001,-75 22.3257,-75  C22.3365,-75 22.3472,-75 22.3579,-75  C22.3657,-75 22.3734,-75 22.3812,-75  C22.3859,-75 22.3906,-75 22.3953,-75  C22.3969,-75 22.3984,-75 22.4,-75 " /><path id= "156" d=" M 22.5 -230 L 22.5 -75 " />
<path id= "157" d=" M 27.5 -230 L 27.5 -75 " />
<path id= "158" d=" M 27.6 -230 L 27.6 -75 " />
<path id= "159" d=" M 27.6 -230 L 27.6 -75 " />
<path d="M27.6,-230 C27.6016,-230 27.6031,-230 27.6047,-230  C27.6094,-230 27.6141,-230 27.6188,-230  C27.6266,-230 27.6343,-230 27.6421,-230  C27.6528,-230 27.6635,-230 27.6743,-230  C27.6878,-230 27.7014,-230 27.715,-230  C27.746,-230 27.7809,-230 27.8197,-230  C27.9593,-230 28.1532,-230 28.35,-230 " /><path d="M27.6,-75 C27.6016,-75 27.6031,-75 27.6047,-75  C27.6094,-75 27.6141,-75 27.6188,-75  C27.6266,-75 27.6343,-75 27.6421,-75  C27.6528,-75 27.6635,-75 27.6743,-75  C27.6878,-75 27.7014,-75 27.715,-75  C27.746,-75 27.7809,-75 27.8197,-75  C27.9593,-75 28.1532,-75 28.35,-75 " /><path id= "162" d=" M 28.35 -230 L 33 -230 " />
<path id= "163" d=" M 28.35 -75 L 33 -75 " />
<path id= "164" d=" M 35 -230 L 35 -75 " />
<path d="M33,-230 C33.2247,-230 33.4473,-230 33.6606,-230  C33.7296,-230 33.7987,-230 33.8678,-230  C33.9332,-230 33.9986,-230 34.0641,-230  C34.125,-230 34.186,-230 34.247,-230  C34.3027,-230 34.3585,-230 34.4142,-230  C34.464,-230 34.5138,-230 34.5637,-230  C34.6069,-230 34.6502,-230 34.6934,-230  C34.7296,-230 34.7658,-230 34.8019,-230  C34.8305,-230 34.8592,-230 34.8878,-230  C34.9085,-230 34.9292,-230 34.9499,-230  C34.9624,-230 34.9749,-230 34.9874,-230  C34.9916,-230 34.9958,-230 35,-230 " /><path d="M33,-75 C33.2247,-75 33.4473,-75 33.6606,-75  C33.7296,-75 33.7987,-75 33.8678,-75  C33.9332,-75 33.9986,-75 34.0641,-75  C34.125,-75 34.186,-75 34.247,-75  C34.3027,-75 34.3585,-75 34.4142,-75  C34.464,-75 34.5138,-75 34.5637,-75  C34.6069,-75 34.6502,-75 34.6934,-75  C34.7296,-75 34.7658,-75 34.8019,-75  C34.8305,-75 34.8592,-75 34.8878,-75  C34.9085,-75 34.9292,-75 34.9499,-75  C34.9624,-75 34.9749,-75 34.9874,-75  C34.9916,-75 34.9958,-75 35,-75 " /><path id= "167" d=" M -205 90 L 135 90 " />
<path id= "168" d=" M -205 90 L 135 90 " />
<path d="M-205,90 Q-205,89.9937 -205,89.9874  Q-205,89.9686 -205,89.9499  Q-205,89.9188 -205,89.8878  Q-205,89.8449 -205,89.8019  Q-205,89.7477 -205,89.6934  Q-205,89.6286 -205,89.5637  Q-205,89.4889 -205,89.4142  Q-205,89.3306 -205,89.247  Q-205,89.1555 -205,89.0641  Q-205,88.9659 -205,88.8678  Q-205,88.7642 -205,88.6606  Q-205,88.5528 -205,88.445  Q-205,88.2247 -205,88 " /><path d="M135,90 Q135,89.9937 135,89.9874  Q135,89.9686 135,89.9499  Q135,89.9188 135,89.8878  Q135,89.8449 135,89.8019  Q135,89.7477 135,89.6934  Q135,89.6286 135,89.5637  Q135,89.4889 135,89.4142  Q135,89.3306 135,89.247  Q135,89.1555 135,89.0641  Q135,88.9659 135,88.8678  Q135,88.7642 135,88.6606  Q135,88.5528 135,88.445  Q135,88.2247 135,88 " /><path id= "171" d=" M -205 88 L -205 83.35 " />
<path id= "172" d=" M 135 88 L 135 83.35 " />
<path id= "173" d=" M -205 82.6 L 135 82.6 " />
<path d="M-205,83.35 C-205,83.1532 -205,82.9593 -205,82.8197  C-205,82.801 -205,82.7823 -205,82.7636  C-205,82.7297 -205,82.6999 -205,82.6743  C-205,82.6635 -205,82.6528 -205,82.6421  C-205,82.6343 -205,82.6266 -205,82.6188  C-205,82.6141 -205,82.6094 -205,82.6047  C-205,82.6031 -205,82.6016 -205,82.6 " /><path d="M135,83.35 C135,83.1532 135,82.9593 135,82.8197  C135,82.801 135,82.7823 135,82.7636  C135,82.7297 135,82.6999 135,82.6743  C135,82.6635 135,82.6528 135,82.6421  C135,82.6343 135,82.6266 135,82.6188  C135,82.6141 135,82.6094 135,82.6047  C135,82.6031 135,82.6016 135,82.6 " /><path id= "176" d=" M -205 82.5 L 135 82.5 " />
<path id= "177" d=" M 135 82.6 L 135 82.5 " />
<path id= "178" d=" M 135 82.5 L 135 80 " />
<path id= "179" d=" M -205 77.5 L 135 77.5 " />
<path id= "180" d=" M 135 80 L 135 77.5 " />
<path id= "181" d=" M 135 77.5 L 135 77.4 " />
<path id= "182" d=" M -205 77.4 L 135 77.4 " />
<path d="M-205,77.4 C-205,77.3984 -205,77.3969 -205,77.3953  C-205,77.3906 -205,77.3859 -205,77.3812  C-205,77.3734 -205,77.3657 -205,77.3579  C-205,77.3472 -205,77.3365 -205,77.3257  C-205,77.3122 -205,77.2986 -205,77.285  C-205,77.254 -205,77.2191 -205,77.1803  C-205,77.0407 -205,76.8468 -205,76.65 " /><path d="M135,77.4 C135,77.3984 135,77.3969 135,77.3953  C135,77.3906 135,77.3859 135,77.3812  C135,77.3734 135,77.3657 135,77.3579  C135,77.3472 135,77.3365 135,77.3257  C135,77.3122 135,77.2986 135,77.285  C135,77.254 135,77.2191 135,77.1803  C135,77.0407 135,76.8468 135,76.65 " /><path id= "185" d=" M -205 72 L -205 76.65 " />
<path id= "186" d=" M 135 72 L 135 76.65 " />
<path id= "187" d=" M -205 70 L 135 70 " />
<path d="M-205,72 C-205,71.7753 -205,71.5527 -205,71.3394  C-205,71.2704 -205,71.2013 -205,71.1322  C-205,71.0668 -205,71.0014 -205,70.9359  C-205,70.875 -205,70.814 -205,70.753  C-205,70.6973 -205,70.6415 -205,70.5858  C-205,70.536 -205,70.4862 -205,70.4363  C-205,70.3931 -205,70.3498 -205,70.3066  C-205,70.2704 -205,70.2342 -205,70.1981  C-205,70.1695 -205,70.1408 -205,70.1122  C-205,70.0915 -205,70.0708 -205,70.0501  C-205,70.0376 -205,70.0251 -205,70.0126  C-205,70.0084 -205,70.0042 -205,70 " /><path d="M135,72 C135,71.7753 135,71.5527 135,71.3394  C135,71.2704 135,71.2013 135,71.1322  C135,71.0668 135,71.0014 135,70.9359  C135,70.875 135,70.814 135,70.753  C135,70.6973 135,70.6415 135,70.5858  C135,70.536 135,70.4862 135,70.4363  C135,70.3931 135,70.3498 135,70.3066  C135,70.2704 135,70.2342 135,70.1981  C135,70.1695 135,70.1408 135,70.1122  C135,70.0915 135,70.0708 135,70.0501  C135,70.0376 135,70.0251 135,70.0126  C135,70.0084 135,70.0042 135,70 " /><path id= "190" d=" M -205 90 L 135 90 " />
</g>
</g>



<g transform="scale(0.250000,0.250000)" stroke="rgb(0,0,255)"  stroke-width="1.280000" > <path d="M 250.000000,646.500000 L 244.000000,646.500000 M 236.000000,646.500000 L 219.817495,646.500000 "/>
<path d="M 250.000000,646.500000 L 244.000000,646.500000 M 236.000000,646.500000 L 219.817495,646.500000 "/> </g> 


<g transform="scale(0.250000,0.250000)" stroke="rgb(0,0,255)"  stroke-width="1.280000" > <path d="M 250.000000,501.500000 L 244.000000,501.500000 M 236.000000,501.500000 L 221.485575,501.500000 "/>
<path d="M 250.000000,501.500000 L 244.000000,501.500000 M 236.000000,501.500000 L 218.300495,501.500000 "/> </g> 


<g> 
  <line x1="55.888750" y1="202.875000" x2="44.894828" y2="202.875000" style="stroke:rgb(0,0,255);stroke-width:0.50" />
<line x1="52.954374" y1="161.625000" x2="44.894828" y2="161.625000" style="stroke:rgb(0,0,255);stroke-width:0.50" />
<line x1="45.894828" y1="202.875000" x2="45.894828" y2="161.625000" style="stroke:rgb(0,0,255);stroke-width:0.50" /> 
  <polygon points="45.894828,161.625000 44.894828,164.625000 45.894828,165.625000 46.894828,164.625000" style="fill:rgb(0,0,255);stroke:rgb(0,0,255);stroke-width:0" /><polygon points="45.894828,202.875000 46.894828,199.875000 45.894828,198.875000 44.894828,199.875000" style="fill:rgb(0,0,255);stroke:rgb(0,0,255);stroke-width:0" /> 
  <text x="43.894828" y="182.250000" font-family="inherit" font-size="3.6" fill="rgb(0,0,255)" text-anchor="middle" transform="rotate(-90.000000 43.894828,182.250000)" >165</text> </g>


<g> 
  <line x1="55.888750" y1="94.125000" x2="44.156754" y2="94.125000" style="stroke:rgb(0,0,255);stroke-width:0.50" />
<line x1="53.371394" y1="125.375000" x2="44.156754" y2="125.375000" style="stroke:rgb(0,0,255);stroke-width:0.50" />
<line x1="45.156754" y1="94.125000" x2="45.156754" y2="125.375000" style="stroke:rgb(0,0,255);stroke-width:0.50" /> 
  <polygon points="45.156754,125.375000 46.156754,122.375000 45.156754,121.375000 44.156754,122.375000" style="fill:rgb(0,0,255);stroke:rgb(0,0,255);stroke-width:0" /><polygon points="45.156754,94.125000 44.156754,97.125000 45.156754,98.125000 46.156754,97.125000" style="fill:rgb(0,0,255);stroke:rgb(0,0,255);stroke-width:0" /> 
  <text x="43.156754" y="109.750000" font-family="inherit" font-size="3.6" fill="rgb(0,0,255)" text-anchor="middle" transform="rotate(-90.000000 43.156754,109.750000)" >125</text> </g>


<g transform="scale(0.250000,0.250000)" stroke="rgb(0,0,255)"  stroke-width="1.280000" > <path d="M 480.000000,656.500000 L 480.000000,650.500000 M 480.000000,642.500000 L 480.000000,619.607087 "/>
<path d="M 480.000000,656.500000 L 480.000000,650.500000 M 480.000000,642.500000 L 480.000000,619.094261 "/> </g> 


<g> 
  <line x1="147.500000" y1="157.513750" x2="147.500000" y2="154.324568" style="stroke:rgb(0,0,255);stroke-width:0.50" />
<line x1="120.000000" y1="156.773565" x2="120.000000" y2="156.324568" style="stroke:rgb(0,0,255);stroke-width:0.50" />
<line x1="147.500000" y1="155.324568" x2="120.000000" y2="155.324568" style="stroke:rgb(0,0,255);stroke-width:0.50" /> 
  <polygon points="120.000000,155.324568 123.000000,156.324568 124.000000,155.324568 123.000000,154.324568" style="fill:rgb(0,0,255);stroke:rgb(0,0,255);stroke-width:0" /><polygon points="147.500000,155.324568 144.500000,154.324568 143.500000,155.324568 144.500000,156.324568" style="fill:rgb(0,0,255);stroke:rgb(0,0,255);stroke-width:0" /> 
  <text x="133.750000" y="153.324568" font-family="inherit" font-size="3.6" fill="rgb(0,0,255)" text-anchor="middle" transform="rotate(0.000000 133.750000,153.324568)" >110</text> </g>


<g> 
  <line x1="154.496750" y1="159.125000" x2="180.318263" y2="159.125000" style="stroke:rgb(0,0,255);stroke-width:0.50" />
<line x1="154.496750" y1="94.125000" x2="180.318263" y2="94.125000" style="stroke:rgb(0,0,255);stroke-width:0.50" />
<line x1="179.318263" y1="159.125000" x2="179.318263" y2="94.125000" style="stroke:rgb(0,0,255);stroke-width:0.50" /> 
  <polygon points="179.318263,94.125000 178.318263,97.125000 179.318263,98.125000 180.318263,97.125000" style="fill:rgb(0,0,255);stroke:rgb(0,0,255);stroke-width:0" /><polygon points="179.318263,159.125000 180.318263,156.125000 179.318263,155.125000 178.318263,156.125000" style="fill:rgb(0,0,255);stroke:rgb(0,0,255);stroke-width:0" /> 
  <text x="177.318263" y="126.625000" font-family="inherit" font-size="3.6" fill="rgb(0,0,255)" text-anchor="middle" transform="rotate(-90.000000 177.318263,126.625000)" >260</text> </g>


<g> 
  <line x1="62.500000" y1="87.513750" x2="62.500000" y2="70.400560" style="stroke:rgb(0,0,255);stroke-width:0.50" />
<line x1="147.500000" y1="87.513750" x2="147.500000" y2="70.400560" style="stroke:rgb(0,0,255);stroke-width:0.50" />
<line x1="62.500000" y1="71.400560" x2="147.500000" y2="71.400560" style="stroke:rgb(0,0,255);stroke-width:0.50" /> 
  <polygon points="147.500000,71.400560 144.500000,70.400560 143.500000,71.400560 144.500000,72.400560" style="fill:rgb(0,0,255);stroke:rgb(0,0,255);stroke-width:0" /><polygon points="62.500000,71.400560 65.500000,72.400560 66.500000,71.400560 65.500000,70.400560" style="fill:rgb(0,0,255);stroke:rgb(0,0,255);stroke-width:0" /> 
  <text x="105.000000" y="69.400560" font-family="inherit" font-size="3.6" fill="rgb(0,0,255)" text-anchor="middle" transform="rotate(0.000000 105.000000,69.400560)" >340</text> </g>


<g> 
  <line x1="62.500000" y1="209.486250" x2="62.500000" y2="222.108728" style="stroke:rgb(0,0,255);stroke-width:0.50" />
<line x1="122.500000" y1="209.375000" x2="122.500000" y2="222.108728" style="stroke:rgb(0,0,255);stroke-width:0.50" />
<line x1="62.500000" y1="221.108728" x2="122.500000" y2="221.108728" style="stroke:rgb(0,0,255);stroke-width:0.50" /> 
  <polygon points="122.500000,221.108728 119.500000,220.108728 118.500000,221.108728 119.500000,222.108728" style="fill:rgb(0,0,255);stroke:rgb(0,0,255);stroke-width:0" /><polygon points="62.500000,221.108728 65.500000,222.108728 66.500000,221.108728 65.500000,220.108728" style="fill:rgb(0,0,255);stroke:rgb(0,0,255);stroke-width:0" /> 
  <text x="92.500000" y="219.108728" font-family="inherit" font-size="3.6" fill="rgb(0,0,255)" text-anchor="middle" transform="rotate(0.000000 92.500000,219.108728)" >240</text> </g>


<g> 
  <line x1="124.496850" y1="202.875000" x2="135.158546" y2="202.875000" style="stroke:rgb(0,0,255);stroke-width:0.50" />
<line x1="124.496850" y1="164.125000" x2="135.158546" y2="164.125000" style="stroke:rgb(0,0,255);stroke-width:0.50" />
<line x1="134.158546" y1="202.875000" x2="134.158546" y2="164.125000" style="stroke:rgb(0,0,255);stroke-width:0.50" /> 
  <polygon points="134.158546,164.125000 133.158546,167.125000 134.158546,168.125000 135.158546,167.125000" style="fill:rgb(0,0,255);stroke:rgb(0,0,255);stroke-width:0" /><polygon points="134.158546,202.875000 135.158546,199.875000 134.158546,198.875000 133.158546,199.875000" style="fill:rgb(0,0,255);stroke:rgb(0,0,255);stroke-width:0" /> 
  <text x="132.158546" y="183.500000" font-family="inherit" font-size="3.6" fill="rgb(0,0,255)" text-anchor="middle" transform="rotate(-90.000000 132.158546,183.500000)" >155</text> </g>


<g> 
  <line x1="55.783000" y1="94.125000" x2="28.645276" y2="94.125000" style="stroke:rgb(0,0,255);stroke-width:0.50" />
<line x1="55.888750" y1="202.875000" x2="28.645276" y2="202.875000" style="stroke:rgb(0,0,255);stroke-width:0.50" />
<line x1="29.645276" y1="94.125000" x2="29.645276" y2="202.875000" style="stroke:rgb(0,0,255);stroke-width:0.50" /> 
  <polygon points="29.645276,202.875000 30.645276,199.875000 29.645276,198.875000 28.645276,199.875000" style="fill:rgb(0,0,255);stroke:rgb(0,0,255);stroke-width:0" /><polygon points="29.645276,94.125000 28.645276,97.125000 29.645276,98.125000 30.645276,97.125000" style="fill:rgb(0,0,255);stroke:rgb(0,0,255);stroke-width:0" /> 
  <text x="27.645276" y="148.500000" font-family="inherit" font-size="3.6" fill="rgb(0,0,255)" text-anchor="middle" transform="rotate(-90.000000 27.645276,148.500000)" >435</text> </g>


</svg>

