<?xml version="1.0" encoding="UTF-8"?>

<svg xmlns="http://www.w3.org/2000/svg" version="1.1"
    xmlns:freecad="http://www.freecadweb.org/wiki/index.php?title=Svg_Namespace"
	width="210mm"
	height="297mm"
	viewBox="0 0 210 297">
	<!-- Working space 0 0 210 297 -->
	<defs>
		<radialGradient
			id="radialGradient3661"
			gradientUnits="userSpaceOnUse"
			cy="29.149"
			cx="282.65"
			gradientTransform="matrix(.14777 .23089 -.24680 .15795 -26.318 -62.617)"
			r="19.571">
				<stop stop-color="#71b2f8" offset="0"/>
				<stop stop-color="#002795" offset="1"/>
		</radialGradient>
		<radialGradient
			id="radialGradient3817"
			gradientUnits="userSpaceOnUse"
			cy="33.9"
			cx="270.58"
			gradientTransform="matrix(.26631 .065024 -.17931 .73438 -60.668 -36.938)"
			r="19.571">
				<stop stop-color="#ff6d0f" offset="0"/>
				<stop stop-color="#ff1000" offset="1"/>
		</radialGradient>
	</defs>
	<!-- Set display:none to hide FreeCAD Logo -->
	<g
		style="display:inline"
		id="freecad-logo"
		transform="translate(184, 272) scale(1)"
		fill-rule="evenodd"
		stroke-width=".45621">
		<path d="m0.22811 0.22835v13.256h2.9558v-5.1876h2.09v-2.0452h-2.09v-2.2075h5.1486v-3.8087l-8.1044-0.0075z"
			stroke="#370700"
			fill="url(#radialGradient3817)"/>
		<path d="m13.386 4.1792-1.7193 0.98645-0.75925-0.26348-0.72439-1.8513-1.1395 0.05988-0.51976 1.9144-0.72743 0.34835-1.8143-0.79367-0.76632 0.85156 0.98645 1.7193-0.26957 0.75702-1.8513 0.72439 0.065967 1.1417 1.9144 0.51976 0.34835 0.72743-0.79976 1.8121 0.85156 0.76632 1.7193-0.98645 0.76311 0.27179 0.7183 1.8491 1.1478-0.06375 0.51367-1.9166 0.72743-0.34835 1.8182 0.80198 0.76632-0.85156-0.98645-1.7193 0.2657-0.76533 1.8491-0.7183-0.05766-1.1456-1.9166-0.51367-0.34835-0.72743 0.7959-1.8204-0.85156-0.76632zm-2.5751 2.8195 0.35295 0.20478 0.30579 0.27725 0.24481 0.33087 0.17611 0.36787 0.10354 0.39656 0.01715 0.4064-0.0587 0.4063-0.13396 0.38571-0.2131 0.35681-0.26894 0.30192-0.33087 0.24481-0.36787 0.17611-0.39656 0.10354-0.40863 0.02325-0.4063-0.0587-0.38571-0.13396-0.35681-0.2131-0.2997-0.27503-0.24703-0.32478-0.17611-0.36787-0.10132-0.40264-0.02324-0.40863 0.05869-0.4063 0.13396-0.38571 0.21087-0.35072 0.27116-0.30801 0.33087-0.24481 0.36787-0.17611 0.40264-0.10132 0.40641-0.01715 0.4063 0.05869 0.38571 0.13396z" 
		stroke="#000137"
		fill="url(#radialGradient3661)"/>
	</g>
<g id="View002"
   transform="rotate(0,113.75,145.375) translate(113.75,145.375) scale(0.25,0.25)"
  >
<g   fill="none"
   stroke="rgb(0, 0, 0)"
   stroke-linecap="butt"
   stroke-linejoin="miter"
   stroke-width="1.400000"
   transform="scale(1,-1)"
  >
<path id= "1" d=" M -215 -236.5 L -217.5 -236.5 " />
<path id= "2" d=" M -217.5 -236.5 L -220.92 -233.08 " />
<path d="M-220.389 -231.8 A0.75 0.75 0 0 1 -220.92 -233.08" /><path id= "4" d=" M -220.389 -231.8 L -217.85 -231.8 " />
<path d="M-217.85 -231.8 A0.25 0.25 0 0 1 -217.6 -231.55" /><path id= "6" d=" M -217.6 -230.75 L -217.6 -231.55 " />
<path d="M-217.6 -230.75 A0.75 0.75 0 0 1 -218.35 -230" /><path id= "8" d=" M -218.35 -230 L -223 -230 " />
<path d="M-223 -230 A2 2 0 0 1 -225 -232" /><path id= "10" d=" M -225 -232 L -225 -236.65 " />
<path d="M-225 -236.65 A0.75 0.75 0 0 1 -224.25 -237.4" /><path id= "12" d=" M -224.25 -237.4 L -223.45 -237.4 " />
<path d="M-223.45 -237.4 A0.25 0.25 0 0 1 -223.2 -237.15" /><path id= "14" d=" M -223.2 -237.15 L -223.2 -234.611 " />
<path d="M-221.92 -234.08 A0.75 0.75 0 0 1 -223.2 -234.611" /><path id= "16" d=" M -221.92 -234.08 L -218.5 -237.5 " />
<path id= "17" d=" M -218.5 -237.5 L -218.5 -240 " />
<path id= "18" d=" M -218.5 -240 L -218.5 -242.5 " />
<path id= "19" d=" M -218.5 -242.5 L -221.92 -245.92 " />
<path d="M-223.2 -245.389 A0.75 0.75 0 0 1 -221.92 -245.92" /><path id= "21" d=" M -223.2 -245.389 L -223.2 -242.85 " />
<path d="M-223.2 -242.85 A0.25 0.25 0 0 1 -223.45 -242.6" /><path id= "23" d=" M -223.45 -242.6 L -224.25 -242.6 " />
<path d="M-224.25 -242.6 A0.75 0.75 0 0 1 -225 -243.35" /><path id= "25" d=" M -225 -248 L -225 -243.35 " />
<path d="M-225 -248 A2 2 0 0 1 -223 -250" /><path id= "27" d=" M -218.35 -250 L -223 -250 " />
<path d="M-218.35 -250 A0.75 0.75 0 0 1 -217.6 -249.25" /><path id= "29" d=" M -217.6 -248.45 L -217.6 -249.25 " />
<path d="M-217.6 -248.45 A0.25 0.25 0 0 1 -217.85 -248.2" /><path id= "31" d=" M -220.389 -248.2 L -217.85 -248.2 " />
<path d="M-220.92 -246.92 A0.75 0.75 0 0 1 -220.389 -248.2" /><path id= "33" d=" M -217.5 -243.5 L -220.92 -246.92 " />
<path id= "34" d=" M -217.5 -243.5 L -215 -243.5 " />
<path id= "35" d=" M -215 -243.5 L -212.5 -243.5 " />
<path id= "36" d=" M -212.5 -243.5 L -209.08 -246.92 " />
<path d="M-209.611 -248.2 A0.75 0.75 0 0 1 -209.08 -246.92" /><path id= "38" d=" M -212.15 -248.2 L -209.611 -248.2 " />
<path d="M-212.15 -248.2 A0.25 0.25 0 0 1 -212.4 -248.45" /><path id= "40" d=" M -212.4 -248.45 L -212.4 -249.25 " />
<path d="M-212.4 -249.25 A0.75 0.75 0 0 1 -211.65 -250" /><path id= "42" d=" M -211.65 -250 L -207 -250 " />
<path d="M-207 -250 A2 2 0 0 1 -205 -248" /><path id= "44" d=" M -205 -248 L -205 -243.35 " />
<path d="M-205 -243.35 A0.75 0.75 0 0 1 -205.75 -242.6" /><path id= "46" d=" M -206.55 -242.6 L -205.75 -242.6 " />
<path d="M-206.55 -242.6 A0.25 0.25 0 0 1 -206.8 -242.85" /><path id= "48" d=" M -206.8 -245.389 L -206.8 -242.85 " />
<path d="M-208.08 -245.92 A0.75 0.75 0 0 1 -206.8 -245.389" /><path id= "50" d=" M -211.5 -242.5 L -208.08 -245.92 " />
<path id= "51" d=" M -211.5 -242.5 L -211.5 -240 " />
<path id= "52" d=" M -211.5 -240 L -211.5 -237.5 " />
<path id= "53" d=" M -211.5 -237.5 L -208.08 -234.08 " />
<path d="M-206.8 -234.611 A0.75 0.75 0 0 1 -208.08 -234.08" /><path id= "55" d=" M -206.8 -234.611 L -206.8 -237.15 " />
<path d="M-206.8 -237.15 A0.25 0.25 0 0 1 -206.55 -237.4" /><path id= "57" d=" M -206.55 -237.4 L -205.75 -237.4 " />
<path d="M-205.75 -237.4 A0.75 0.75 0 0 1 -205 -236.65" /><path id= "59" d=" M -205 -232 L -205 -236.65 " />
<path d="M-205 -232 A2 2 0 0 1 -207 -230" /><path id= "61" d=" M -211.65 -230 L -207 -230 " />
<path d="M-211.65 -230 A0.75 0.75 0 0 1 -212.4 -230.75" /><path id= "63" d=" M -212.4 -230.75 L -212.4 -231.55 " />
<path d="M-212.4 -231.55 A0.25 0.25 0 0 1 -212.15 -231.8" /><path id= "65" d=" M -209.611 -231.8 L -212.15 -231.8 " />
<path d="M-209.08 -233.08 A0.75 0.75 0 0 1 -209.611 -231.8" /><path id= "67" d=" M -212.5 -236.5 L -209.08 -233.08 " />
<path id= "68" d=" M -215 -236.5 L -212.5 -236.5 " />
<circle cx ="-215" cy ="-240" r ="2.15" /><path id= "70" d=" M -215 218.5 L -217.5 218.5 " />
<path id= "71" d=" M -217.5 218.5 L -220.92 221.92 " />
<path d="M-220.389 223.2 A0.75 0.75 0 0 1 -220.92 221.92" /><path id= "73" d=" M -220.389 223.2 L -217.85 223.2 " />
<path d="M-217.85 223.2 A0.25 0.25 0 0 1 -217.6 223.45" /><path id= "75" d=" M -217.6 224.25 L -217.6 223.45 " />
<path d="M-217.6 224.25 A0.75 0.75 0 0 1 -218.35 225" /><path id= "77" d=" M -218.35 225 L -223 225 " />
<path d="M-223 225 A2 2 0 0 1 -225 223" /><path id= "79" d=" M -225 223 L -225 218.35 " />
<path d="M-225 218.35 A0.75 0.75 0 0 1 -224.25 217.6" /><path id= "81" d=" M -224.25 217.6 L -223.45 217.6 " />
<path d="M-223.45 217.6 A0.25 0.25 0 0 1 -223.2 217.85" /><path id= "83" d=" M -223.2 217.85 L -223.2 220.389 " />
<path d="M-221.92 220.92 A0.75 0.75 0 0 1 -223.2 220.389" /><path id= "85" d=" M -221.92 220.92 L -218.5 217.5 " />
<path id= "86" d=" M -218.5 217.5 L -218.5 215 " />
<path id= "87" d=" M -218.5 215 L -218.5 212.5 " />
<path id= "88" d=" M -218.5 212.5 L -221.92 209.08 " />
<path d="M-223.2 209.611 A0.75 0.75 0 0 1 -221.92 209.08" /><path id= "90" d=" M -223.2 209.611 L -223.2 212.15 " />
<path d="M-223.2 212.15 A0.25 0.25 0 0 1 -223.45 212.4" /><path id= "92" d=" M -223.45 212.4 L -224.25 212.4 " />
<path d="M-224.25 212.4 A0.75 0.75 0 0 1 -225 211.65" /><path id= "94" d=" M -225 207 L -225 211.65 " />
<path d="M-225 207 A2 2 0 0 1 -223 205" /><path id= "96" d=" M -218.35 205 L -223 205 " />
<path d="M-218.35 205 A0.75 0.75 0 0 1 -217.6 205.75" /><path id= "98" d=" M -217.6 206.55 L -217.6 205.75 " />
<path d="M-217.6 206.55 A0.25 0.25 0 0 1 -217.85 206.8" /><path id= "100" d=" M -220.389 206.8 L -217.85 206.8 " />
<path d="M-220.92 208.08 A0.75 0.75 0 0 1 -220.389 206.8" /><path id= "102" d=" M -217.5 211.5 L -220.92 208.08 " />
<path id= "103" d=" M -217.5 211.5 L -215 211.5 " />
<path id= "104" d=" M -215 211.5 L -212.5 211.5 " />
<path id= "105" d=" M -212.5 211.5 L -209.08 208.08 " />
<path d="M-209.611 206.8 A0.75 0.75 0 0 1 -209.08 208.08" /><path id= "107" d=" M -212.15 206.8 L -209.611 206.8 " />
<path d="M-212.15 206.8 A0.25 0.25 0 0 1 -212.4 206.55" /><path id= "109" d=" M -212.4 206.55 L -212.4 205.75 " />
<path d="M-212.4 205.75 A0.75 0.75 0 0 1 -211.65 205" /><path id= "111" d=" M -211.65 205 L -207 205 " />
<path d="M-207 205 A2 2 0 0 1 -205 207" /><path id= "113" d=" M -205 207 L -205 211.65 " />
<path d="M-205 211.65 A0.75 0.75 0 0 1 -205.75 212.4" /><path id= "115" d=" M -206.55 212.4 L -205.75 212.4 " />
<path d="M-206.55 212.4 A0.25 0.25 0 0 1 -206.8 212.15" /><path id= "117" d=" M -206.8 209.611 L -206.8 212.15 " />
<path d="M-208.08 209.08 A0.75 0.75 0 0 1 -206.8 209.611" /><path id= "119" d=" M -211.5 212.5 L -208.08 209.08 " />
<path id= "120" d=" M -211.5 212.5 L -211.5 215 " />
<path id= "121" d=" M -211.5 215 L -211.5 217.5 " />
<path id= "122" d=" M -211.5 217.5 L -208.08 220.92 " />
<path d="M-206.8 220.389 A0.75 0.75 0 0 1 -208.08 220.92" /><path id= "124" d=" M -206.8 220.389 L -206.8 217.85 " />
<path d="M-206.8 217.85 A0.25 0.25 0 0 1 -206.55 217.6" /><path id= "126" d=" M -206.55 217.6 L -205.75 217.6 " />
<path d="M-205.75 217.6 A0.75 0.75 0 0 1 -205 218.35" /><path id= "128" d=" M -205 223 L -205 218.35 " />
<path d="M-205 223 A2 2 0 0 1 -207 225" /><path id= "130" d=" M -211.65 225 L -207 225 " />
<path d="M-211.65 225 A0.75 0.75 0 0 1 -212.4 224.25" /><path id= "132" d=" M -212.4 224.25 L -212.4 223.45 " />
<path d="M-212.4 223.45 A0.25 0.25 0 0 1 -212.15 223.2" /><path id= "134" d=" M -209.611 223.2 L -212.15 223.2 " />
<path d="M-209.08 221.92 A0.75 0.75 0 0 1 -209.611 223.2" /><path id= "136" d=" M -212.5 218.5 L -209.08 221.92 " />
<path id= "137" d=" M -215 218.5 L -212.5 218.5 " />
<circle cx ="-215" cy ="215" r ="2.15" /><path id= "139" d=" M 145 218.5 L 142.5 218.5 " />
<path id= "140" d=" M 142.5 218.5 L 139.08 221.92 " />
<path d="M139.611 223.2 A0.75 0.75 0 0 1 139.08 221.92" /><path id= "142" d=" M 139.611 223.2 L 142.15 223.2 " />
<path d="M142.15 223.2 A0.25 0.25 0 0 1 142.4 223.45" /><path id= "144" d=" M 142.4 224.25 L 142.4 223.45 " />
<path d="M142.4 224.25 A0.75 0.75 0 0 1 141.65 225" /><path id= "146" d=" M 141.65 225 L 137 225 " />
<path d="M137 225 A2 2 0 0 1 135 223" /><path id= "148" d=" M 135 223 L 135 218.35 " />
<path d="M135 218.35 A0.75 0.75 0 0 1 135.75 217.6" /><path id= "150" d=" M 135.75 217.6 L 136.55 217.6 " />
<path d="M136.55 217.6 A0.25 0.25 0 0 1 136.8 217.85" /><path id= "152" d=" M 136.8 217.85 L 136.8 220.389 " />
<path d="M138.08 220.92 A0.75 0.75 0 0 1 136.8 220.389" /><path id= "154" d=" M 138.08 220.92 L 141.5 217.5 " />
<path id= "155" d=" M 141.5 217.5 L 141.5 215 " />
<path id= "156" d=" M 141.5 215 L 141.5 212.5 " />
<path id= "157" d=" M 141.5 212.5 L 138.08 209.08 " />
<path d="M136.8 209.611 A0.75 0.75 0 0 1 138.08 209.08" /><path id= "159" d=" M 136.8 209.611 L 136.8 212.15 " />
<path d="M136.8 212.15 A0.25 0.25 0 0 1 136.55 212.4" /><path id= "161" d=" M 136.55 212.4 L 135.75 212.4 " />
<path d="M135.75 212.4 A0.75 0.75 0 0 1 135 211.65" /><path id= "163" d=" M 135 207 L 135 211.65 " />
<path d="M135 207 A2 2 0 0 1 137 205" /><path id= "165" d=" M 141.65 205 L 137 205 " />
<path d="M141.65 205 A0.75 0.75 0 0 1 142.4 205.75" /><path id= "167" d=" M 142.4 206.55 L 142.4 205.75 " />
<path d="M142.4 206.55 A0.25 0.25 0 0 1 142.15 206.8" /><path id= "169" d=" M 139.611 206.8 L 142.15 206.8 " />
<path d="M139.08 208.08 A0.75 0.75 0 0 1 139.611 206.8" /><path id= "171" d=" M 142.5 211.5 L 139.08 208.08 " />
<path id= "172" d=" M 142.5 211.5 L 145 211.5 " />
<path id= "173" d=" M 145 211.5 L 147.5 211.5 " />
<path id= "174" d=" M 147.5 211.5 L 150.92 208.08 " />
<path d="M150.389 206.8 A0.75 0.75 0 0 1 150.92 208.08" /><path id= "176" d=" M 147.85 206.8 L 150.389 206.8 " />
<path d="M147.85 206.8 A0.25 0.25 0 0 1 147.6 206.55" /><path id= "178" d=" M 147.6 206.55 L 147.6 205.75 " />
<path d="M147.6 205.75 A0.75 0.75 0 0 1 148.35 205" /><path id= "180" d=" M 148.35 205 L 153 205 " />
<path d="M153 205 A2 2 0 0 1 155 207" /><path id= "182" d=" M 155 207 L 155 211.65 " />
<path d="M155 211.65 A0.75 0.75 0 0 1 154.25 212.4" /><path id= "184" d=" M 153.45 212.4 L 154.25 212.4 " />
<path d="M153.45 212.4 A0.25 0.25 0 0 1 153.2 212.15" /><path id= "186" d=" M 153.2 209.611 L 153.2 212.15 " />
<path d="M151.92 209.08 A0.75 0.75 0 0 1 153.2 209.611" /><path id= "188" d=" M 148.5 212.5 L 151.92 209.08 " />
<path id= "189" d=" M 148.5 212.5 L 148.5 215 " />
<path id= "190" d=" M 148.5 215 L 148.5 217.5 " />
<path id= "191" d=" M 148.5 217.5 L 151.92 220.92 " />
<path d="M153.2 220.389 A0.75 0.75 0 0 1 151.92 220.92" /><path id= "193" d=" M 153.2 220.389 L 153.2 217.85 " />
<path d="M153.2 217.85 A0.25 0.25 0 0 1 153.45 217.6" /><path id= "195" d=" M 153.45 217.6 L 154.25 217.6 " />
<path d="M154.25 217.6 A0.75 0.75 0 0 1 155 218.35" /><path id= "197" d=" M 155 223 L 155 218.35 " />
<path d="M155 223 A2 2 0 0 1 153 225" /><path id= "199" d=" M 148.35 225 L 153 225 " />
<path d="M148.35 225 A0.75 0.75 0 0 1 147.6 224.25" /><path id= "201" d=" M 147.6 224.25 L 147.6 223.45 " />
<path d="M147.6 223.45 A0.25 0.25 0 0 1 147.85 223.2" /><path id= "203" d=" M 150.389 223.2 L 147.85 223.2 " />
<path d="M150.92 221.92 A0.75 0.75 0 0 1 150.389 223.2" /><path id= "205" d=" M 147.5 218.5 L 150.92 221.92 " />
<path id= "206" d=" M 145 218.5 L 147.5 218.5 " />
<circle cx ="145" cy ="215" r ="2.15" /><path id= "208" d=" M 145 -61.5 L 142.5 -61.5 " />
<path id= "209" d=" M 142.5 -61.5 L 139.08 -58.0803 " />
<path d="M139.611 -56.8 A0.75 0.75 0 0 1 139.08 -58.0803" /><path id= "211" d=" M 139.611 -56.8 L 142.15 -56.8 " />
<path d="M142.15 -56.8 A0.25 0.25 0 0 1 142.4 -56.55" /><path id= "213" d=" M 142.4 -55.75 L 142.4 -56.55 " />
<path d="M142.4 -55.75 A0.75 0.75 0 0 1 141.65 -55" /><path id= "215" d=" M 141.65 -55 L 137 -55 " />
<path d="M137 -55 A2 2 0 0 1 135 -57" /><path id= "217" d=" M 135 -57 L 135 -61.65 " />
<path d="M135 -61.65 A0.75 0.75 0 0 1 135.75 -62.4" /><path id= "219" d=" M 135.75 -62.4 L 136.55 -62.4 " />
<path d="M136.55 -62.4 A0.25 0.25 0 0 1 136.8 -62.15" /><path id= "221" d=" M 136.8 -62.15 L 136.8 -59.6107 " />
<path d="M138.08 -59.0803 A0.75 0.75 0 0 1 136.8 -59.6107" /><path id= "223" d=" M 138.08 -59.0803 L 141.5 -62.5 " />
<path id= "224" d=" M 141.5 -62.5 L 141.5 -65 " />
<path id= "225" d=" M 141.5 -65 L 141.5 -67.5 " />
<path id= "226" d=" M 141.5 -67.5 L 138.08 -70.9197 " />
<path d="M136.8 -70.3893 A0.75 0.75 0 0 1 138.08 -70.9197" /><path id= "228" d=" M 136.8 -70.3893 L 136.8 -67.85 " />
<path d="M136.8 -67.85 A0.25 0.25 0 0 1 136.55 -67.6" /><path id= "230" d=" M 136.55 -67.6 L 135.75 -67.6 " />
<path d="M135.75 -67.6 A0.75 0.75 0 0 1 135 -68.35" /><path id= "232" d=" M 135 -73 L 135 -68.35 " />
<path d="M135 -73 A2 2 0 0 1 137 -75" /><path id= "234" d=" M 141.65 -75 L 137 -75 " />
<path d="M141.65 -75 A0.75 0.75 0 0 1 142.4 -74.25" /><path id= "236" d=" M 142.4 -73.45 L 142.4 -74.25 " />
<path d="M142.4 -73.45 A0.25 0.25 0 0 1 142.15 -73.2" /><path id= "238" d=" M 139.611 -73.2 L 142.15 -73.2 " />
<path d="M139.08 -71.9197 A0.75 0.75 0 0 1 139.611 -73.2" /><path id= "240" d=" M 142.5 -68.5 L 139.08 -71.9197 " />
<path id= "241" d=" M 142.5 -68.5 L 145 -68.5 " />
<path id= "242" d=" M 145 -68.5 L 147.5 -68.5 " />
<path id= "243" d=" M 147.5 -68.5 L 150.92 -71.9197 " />
<path d="M150.389 -73.2 A0.75 0.75 0 0 1 150.92 -71.9197" /><path id= "245" d=" M 147.85 -73.2 L 150.389 -73.2 " />
<path d="M147.85 -73.2 A0.25 0.25 0 0 1 147.6 -73.45" /><path id= "247" d=" M 147.6 -73.45 L 147.6 -74.25 " />
<path d="M147.6 -74.25 A0.75 0.75 0 0 1 148.35 -75" /><path id= "249" d=" M 148.35 -75 L 153 -75 " />
<path d="M153 -75 A2 2 0 0 1 155 -73" /><path id= "251" d=" M 155 -73 L 155 -68.35 " />
<path d="M155 -68.35 A0.75 0.75 0 0 1 154.25 -67.6" /><path id= "253" d=" M 153.45 -67.6 L 154.25 -67.6 " />
<path d="M153.45 -67.6 A0.25 0.25 0 0 1 153.2 -67.85" /><path id= "255" d=" M 153.2 -70.3893 L 153.2 -67.85 " />
<path d="M151.92 -70.9197 A0.75 0.75 0 0 1 153.2 -70.3893" /><path id= "257" d=" M 148.5 -67.5 L 151.92 -70.9197 " />
<path id= "258" d=" M 148.5 -67.5 L 148.5 -65 " />
<path id= "259" d=" M 148.5 -65 L 148.5 -62.5 " />
<path id= "260" d=" M 148.5 -62.5 L 151.92 -59.0803 " />
<path d="M153.2 -59.6107 A0.75 0.75 0 0 1 151.92 -59.0803" /><path id= "262" d=" M 153.2 -59.6107 L 153.2 -62.15 " />
<path d="M153.2 -62.15 A0.25 0.25 0 0 1 153.45 -62.4" /><path id= "264" d=" M 153.45 -62.4 L 154.25 -62.4 " />
<path d="M154.25 -62.4 A0.75 0.75 0 0 1 155 -61.65" /><path id= "266" d=" M 155 -57 L 155 -61.65 " />
<path d="M155 -57 A2 2 0 0 1 153 -55" /><path id= "268" d=" M 148.35 -55 L 153 -55 " />
<path d="M148.35 -55 A0.75 0.75 0 0 1 147.6 -55.75" /><path id= "270" d=" M 147.6 -55.75 L 147.6 -56.55 " />
<path d="M147.6 -56.55 A0.25 0.25 0 0 1 147.85 -56.8" /><path id= "272" d=" M 150.389 -56.8 L 147.85 -56.8 " />
<path d="M150.92 -58.0803 A0.75 0.75 0 0 1 150.389 -56.8" /><path id= "274" d=" M 147.5 -61.5 L 150.92 -58.0803 " />
<path id= "275" d=" M 145 -61.5 L 147.5 -61.5 " />
<circle cx ="145" cy ="-65" r ="2.15" /></g>
</g>



<g id="View003"
   transform="rotate(0,113.75,145.375) translate(113.75,145.375) scale(0.25,0.25)"
  >
<g   fill="none"
   stroke="rgb(0, 0, 0)"
   stroke-linecap="butt"
   stroke-linejoin="miter"
   stroke-width="1.400000"
   transform="scale(1,-1)"
  >
<path id= "1" d=" M -205 -135 L 15 -135 " />
<path id= "2" d=" M -205 -135 L 15 -135 " />
<path d="M-205,-135 Q-205,-135.006 -205,-135.013  Q-205,-135.031 -205,-135.05  Q-205,-135.081 -205,-135.112  Q-205,-135.155 -205,-135.198  Q-205,-135.252 -205,-135.307  Q-205,-135.371 -205,-135.436  Q-205,-135.511 -205,-135.586  Q-205,-135.669 -205,-135.753  Q-205,-135.844 -205,-135.936  Q-205,-136.034 -205,-136.132  Q-205,-136.236 -205,-136.339  Q-205,-136.447 -205,-136.555  Q-205,-136.775 -205,-137 " /><path d="M15,-135 Q15,-135.006 15,-135.013  Q15,-135.031 15,-135.05  Q15,-135.081 15,-135.112  Q15,-135.155 15,-135.198  Q15,-135.252 15,-135.307  Q15,-135.371 15,-135.436  Q15,-135.511 15,-135.586  Q15,-135.669 15,-135.753  Q15,-135.844 15,-135.936  Q15,-136.034 15,-136.132  Q15,-136.236 15,-136.339  Q15,-136.447 15,-136.555  Q15,-136.775 15,-137 " /><path id= "5" d=" M -205 -137 L -205 -141.65 " />
<path id= "6" d=" M 15 -137 L 15 -141.65 " />
<path id= "7" d=" M -205 -142.4 L 15 -142.4 " />
<path d="M-205,-141.65 C-205,-141.847 -205,-142.041 -205,-142.18  C-205,-142.199 -205,-142.218 -205,-142.236  C-205,-142.27 -205,-142.3 -205,-142.326  C-205,-142.336 -205,-142.347 -205,-142.358  C-205,-142.366 -205,-142.373 -205,-142.381  C-205,-142.386 -205,-142.391 -205,-142.395  C-205,-142.397 -205,-142.398 -205,-142.4 " /><path d="M15,-141.65 C15,-141.847 15,-142.041 15,-142.18  C15,-142.199 15,-142.218 15,-142.236  C15,-142.27 15,-142.3 15,-142.326  C15,-142.336 15,-142.347 15,-142.358  C15,-142.366 15,-142.373 15,-142.381  C15,-142.386 15,-142.391 15,-142.395  C15,-142.397 15,-142.398 15,-142.4 " /><path id= "10" d=" M -205 -142.5 L 15 -142.5 " />
<path id= "11" d=" M -205 -147.5 L 15 -147.5 " />
<path id= "12" d=" M -205 -147.6 L 15 -147.6 " />
<path d="M-205,-147.6 C-205,-147.602 -205,-147.603 -205,-147.605  C-205,-147.609 -205,-147.614 -205,-147.619  C-205,-147.627 -205,-147.634 -205,-147.642  C-205,-147.653 -205,-147.664 -205,-147.674  C-205,-147.688 -205,-147.701 -205,-147.715  C-205,-147.746 -205,-147.781 -205,-147.82  C-205,-147.959 -205,-148.153 -205,-148.35 " /><path d="M15,-147.6 C15,-147.602 15,-147.603 15,-147.605  C15,-147.609 15,-147.614 15,-147.619  C15,-147.627 15,-147.634 15,-147.642  C15,-147.653 15,-147.664 15,-147.674  C15,-147.688 15,-147.701 15,-147.715  C15,-147.746 15,-147.781 15,-147.82  C15,-147.959 15,-148.153 15,-148.35 " /><path id= "15" d=" M -205 -153 L -205 -148.35 " />
<path id= "16" d=" M 15 -153 L 15 -148.35 " />
<path id= "17" d=" M -205 -155 L 15 -155 " />
<path d="M-205,-153 C-205,-153.225 -205,-153.447 -205,-153.661  C-205,-153.73 -205,-153.799 -205,-153.868  C-205,-153.933 -205,-153.999 -205,-154.064  C-205,-154.125 -205,-154.186 -205,-154.247  C-205,-154.303 -205,-154.358 -205,-154.414  C-205,-154.464 -205,-154.514 -205,-154.564  C-205,-154.607 -205,-154.65 -205,-154.693  C-205,-154.73 -205,-154.766 -205,-154.802  C-205,-154.831 -205,-154.859 -205,-154.888  C-205,-154.908 -205,-154.929 -205,-154.95  C-205,-154.962 -205,-154.975 -205,-154.987  C-205,-154.992 -205,-154.996 -205,-155 " /><path d="M15,-153 C15,-153.225 15,-153.447 15,-153.661  C15,-153.73 15,-153.799 15,-153.868  C15,-153.933 15,-153.999 15,-154.064  C15,-154.125 15,-154.186 15,-154.247  C15,-154.303 15,-154.358 15,-154.414  C15,-154.464 15,-154.514 15,-154.564  C15,-154.607 15,-154.65 15,-154.693  C15,-154.73 15,-154.766 15,-154.802  C15,-154.831 15,-154.859 15,-154.888  C15,-154.908 15,-154.929 15,-154.95  C15,-154.962 15,-154.975 15,-154.987  C15,-154.992 15,-154.996 15,-155 " /><path id= "20" d=" M -205 -135 L 15 -135 " />
<path id= "21" d=" M -205 -135 L 15 -135 " />
<path id= "22" d=" M -205 80 L 15 80 " />
<path id= "23" d=" M -205 80 L 15 80 " />
<path d="M-205,80 Q-205,79.9937 -205,79.9874  Q-205,79.9686 -205,79.9499  Q-205,79.9188 -205,79.8878  Q-205,79.8449 -205,79.8019  Q-205,79.7477 -205,79.6934  Q-205,79.6286 -205,79.5637  Q-205,79.4889 -205,79.4142  Q-205,79.3306 -205,79.247  Q-205,79.1555 -205,79.0641  Q-205,78.9659 -205,78.8678  Q-205,78.7642 -205,78.6606  Q-205,78.5528 -205,78.445  Q-205,78.2247 -205,78 " /><path d="M15,80 Q15,79.9937 15,79.9874  Q15,79.9686 15,79.9499  Q15,79.9188 15,79.8878  Q15,79.8449 15,79.8019  Q15,79.7477 15,79.6934  Q15,79.6286 15,79.5637  Q15,79.4889 15,79.4142  Q15,79.3306 15,79.247  Q15,79.1555 15,79.0641  Q15,78.9659 15,78.8678  Q15,78.7642 15,78.6606  Q15,78.5528 15,78.445  Q15,78.2247 15,78 " /><path id= "26" d=" M -205 78 L -205 73.35 " />
<path id= "27" d=" M 15 78 L 15 73.35 " />
<path id= "28" d=" M -205 72.6 L 15 72.6 " />
<path d="M-205,73.35 C-205,73.1532 -205,72.9593 -205,72.8197  C-205,72.801 -205,72.7823 -205,72.7636  C-205,72.7297 -205,72.6999 -205,72.6743  C-205,72.6635 -205,72.6528 -205,72.6421  C-205,72.6343 -205,72.6266 -205,72.6188  C-205,72.6141 -205,72.6094 -205,72.6047  C-205,72.6031 -205,72.6016 -205,72.6 " /><path d="M15,73.35 C15,73.1532 15,72.9593 15,72.8197  C15,72.801 15,72.7823 15,72.7636  C15,72.7297 15,72.6999 15,72.6743  C15,72.6635 15,72.6528 15,72.6421  C15,72.6343 15,72.6266 15,72.6188  C15,72.6141 15,72.6094 15,72.6047  C15,72.6031 15,72.6016 15,72.6 " /><path id= "31" d=" M -205 72.5 L 15 72.5 " />
<path id= "32" d=" M -205 67.5 L 15 67.5 " />
<path id= "33" d=" M -205 67.4 L 15 67.4 " />
<path d="M-205,67.4 C-205,67.3984 -205,67.3969 -205,67.3953  C-205,67.3906 -205,67.3859 -205,67.3812  C-205,67.3734 -205,67.3657 -205,67.3579  C-205,67.3472 -205,67.3365 -205,67.3257  C-205,67.3122 -205,67.2986 -205,67.285  C-205,67.254 -205,67.2191 -205,67.1803  C-205,67.0407 -205,66.8468 -205,66.65 " /><path d="M15,67.4 C15,67.3984 15,67.3969 15,67.3953  C15,67.3906 15,67.3859 15,67.3812  C15,67.3734 15,67.3657 15,67.3579  C15,67.3472 15,67.3365 15,67.3257  C15,67.3122 15,67.2986 15,67.285  C15,67.254 15,67.2191 15,67.1803  C15,67.0407 15,66.8468 15,66.65 " /><path id= "36" d=" M -205 62 L -205 66.65 " />
<path id= "37" d=" M 15 62 L 15 66.65 " />
<path id= "38" d=" M -205 60 L 15 60 " />
<path d="M-205,62 C-205,61.7753 -205,61.5527 -205,61.3394  C-205,61.2704 -205,61.2013 -205,61.1322  C-205,61.0668 -205,61.0014 -205,60.9359  C-205,60.875 -205,60.814 -205,60.753  C-205,60.6973 -205,60.6415 -205,60.5858  C-205,60.536 -205,60.4862 -205,60.4363  C-205,60.3931 -205,60.3498 -205,60.3066  C-205,60.2704 -205,60.2342 -205,60.1981  C-205,60.1695 -205,60.1408 -205,60.1122  C-205,60.0915 -205,60.0708 -205,60.0501  C-205,60.0376 -205,60.0251 -205,60.0126  C-205,60.0084 -205,60.0042 -205,60 " /><path d="M15,62 C15,61.7753 15,61.5527 15,61.3394  C15,61.2704 15,61.2013 15,61.1322  C15,61.0668 15,61.0014 15,60.9359  C15,60.875 15,60.814 15,60.753  C15,60.6973 15,60.6415 15,60.5858  C15,60.536 15,60.4862 15,60.4363  C15,60.3931 15,60.3498 15,60.3066  C15,60.2704 15,60.2342 15,60.1981  C15,60.1695 15,60.1408 15,60.1122  C15,60.0915 15,60.0708 15,60.0501  C15,60.0376 15,60.0251 15,60.0126  C15,60.0084 15,60.0042 15,60 " /><path id= "41" d=" M -205 80 L 15 80 " />
<path id= "42" d=" M -225 -230 L -225 205 " />
<path id= "43" d=" M -225 -230 L -225 205 " />
<path d="M-225,-230 Q-224.994,-230 -224.987,-230  Q-224.969,-230 -224.95,-230  Q-224.919,-230 -224.888,-230  Q-224.845,-230 -224.802,-230  Q-224.748,-230 -224.693,-230  Q-224.629,-230 -224.564,-230  Q-224.489,-230 -224.414,-230  Q-224.331,-230 -224.247,-230  Q-224.156,-230 -224.064,-230  Q-223.966,-230 -223.868,-230  Q-223.764,-230 -223.661,-230  Q-223.553,-230 -223.445,-230  Q-223.225,-230 -223,-230 " /><path d="M-225,205 Q-224.994,205 -224.987,205  Q-224.969,205 -224.95,205  Q-224.919,205 -224.888,205  Q-224.845,205 -224.802,205  Q-224.748,205 -224.693,205  Q-224.629,205 -224.564,205  Q-224.489,205 -224.414,205  Q-224.331,205 -224.247,205  Q-224.156,205 -224.064,205  Q-223.966,205 -223.868,205  Q-223.764,205 -223.661,205  Q-223.553,205 -223.445,205  Q-223.225,205 -223,205 " /><path id= "46" d=" M -223 -230 L -218.35 -230 " />
<path id= "47" d=" M -223 205 L -218.35 205 " />
<path id= "48" d=" M -217.6 -230 L -217.6 205 " />
<path d="M-218.35,-230 C-218.153,-230 -217.959,-230 -217.82,-230  C-217.801,-230 -217.782,-230 -217.764,-230  C-217.73,-230 -217.7,-230 -217.674,-230  C-217.664,-230 -217.653,-230 -217.642,-230  C-217.634,-230 -217.627,-230 -217.619,-230  C-217.614,-230 -217.609,-230 -217.605,-230  C-217.603,-230 -217.602,-230 -217.6,-230 " /><path d="M-218.35,205 C-218.153,205 -217.959,205 -217.82,205  C-217.801,205 -217.782,205 -217.764,205  C-217.73,205 -217.7,205 -217.674,205  C-217.664,205 -217.653,205 -217.642,205  C-217.634,205 -217.627,205 -217.619,205  C-217.614,205 -217.609,205 -217.605,205  C-217.603,205 -217.602,205 -217.6,205 " /><path id= "51" d=" M -217.5 -230 L -217.5 205 " />
<path id= "52" d=" M -217.6 -230 L -217.5 -230 " />
<path id= "53" d=" M -217.6 205 L -217.5 205 " />
<path id= "54" d=" M -217.5 -230 L -215 -230 " />
<path id= "55" d=" M -217.5 205 L -215 205 " />
<path id= "56" d=" M -212.5 -230 L -212.5 205 " />
<path id= "57" d=" M -215 -230 L -212.5 -230 " />
<path id= "58" d=" M -215 205 L -212.5 205 " />
<path id= "59" d=" M -212.5 -230 L -212.4 -230 " />
<path id= "60" d=" M -212.5 205 L -212.4 205 " />
<path id= "61" d=" M -212.4 -230 L -212.4 205 " />
<path id= "62" d=" M -212.4 -230 L -212.4 205 " />
<path d="M-212.4,-230 C-212.398,-230 -212.397,-230 -212.395,-230  C-212.391,-230 -212.386,-230 -212.381,-230  C-212.373,-230 -212.366,-230 -212.358,-230  C-212.347,-230 -212.336,-230 -212.326,-230  C-212.312,-230 -212.299,-230 -212.285,-230  C-212.254,-230 -212.219,-230 -212.18,-230  C-212.041,-230 -211.847,-230 -211.65,-230 " /><path d="M-212.4,205 C-212.398,205 -212.397,205 -212.395,205  C-212.391,205 -212.386,205 -212.381,205  C-212.373,205 -212.366,205 -212.358,205  C-212.347,205 -212.336,205 -212.326,205  C-212.312,205 -212.299,205 -212.285,205  C-212.254,205 -212.219,205 -212.18,205  C-212.041,205 -211.847,205 -211.65,205 " /><path id= "65" d=" M -207 -230 L -211.65 -230 " />
<path id= "66" d=" M -207 205 L -211.65 205 " />
<path id= "67" d=" M -205 -230 L -205 -155 " />
<path id= "68" d=" M -205 -147.6 L -205 -142.4 " />
<path id= "69" d=" M -205 -135 L -205 60 " />
<path id= "70" d=" M -205 67.4 L -205 72.6 " />
<path id= "71" d=" M -205 80 L -205 205 " />
<path d="M-207,-230 C-206.775,-230 -206.553,-230 -206.339,-230  C-206.27,-230 -206.201,-230 -206.132,-230  C-206.067,-230 -206.001,-230 -205.936,-230  C-205.875,-230 -205.814,-230 -205.753,-230  C-205.697,-230 -205.642,-230 -205.586,-230  C-205.536,-230 -205.486,-230 -205.436,-230  C-205.393,-230 -205.35,-230 -205.307,-230  C-205.27,-230 -205.234,-230 -205.198,-230  C-205.169,-230 -205.141,-230 -205.112,-230  C-205.092,-230 -205.071,-230 -205.05,-230  C-205.038,-230 -205.025,-230 -205.013,-230  C-205.008,-230 -205.004,-230 -205,-230 " /><path d="M-207,205 C-206.775,205 -206.553,205 -206.339,205  C-206.27,205 -206.201,205 -206.132,205  C-206.067,205 -206.001,205 -205.936,205  C-205.875,205 -205.814,205 -205.753,205  C-205.697,205 -205.642,205 -205.586,205  C-205.536,205 -205.486,205 -205.436,205  C-205.393,205 -205.35,205 -205.307,205  C-205.27,205 -205.234,205 -205.198,205  C-205.169,205 -205.141,205 -205.112,205  C-205.092,205 -205.071,205 -205.05,205  C-205.038,205 -205.025,205 -205.013,205  C-205.008,205 -205.004,205 -205,205 " /><path id= "74" d=" M -225 -230 L -225 205 " />
<path id= "75" d=" M -225 -230 L -225 205 " />
<path id= "76" d=" M 135 -55 L 135 205 " />
<path id= "77" d=" M 135 -55 L 135 205 " />
<path d="M135,-55 Q135.006,-55 135.013,-55  Q135.031,-55 135.05,-55  Q135.081,-55 135.112,-55  Q135.155,-55 135.198,-55  Q135.252,-55 135.307,-55  Q135.371,-55 135.436,-55  Q135.511,-55 135.586,-55  Q135.669,-55 135.753,-55  Q135.844,-55 135.936,-55  Q136.034,-55 136.132,-55  Q136.236,-55 136.339,-55  Q136.447,-55 136.555,-55  Q136.775,-55 137,-55 " /><path d="M135,205 Q135.006,205 135.013,205  Q135.031,205 135.05,205  Q135.081,205 135.112,205  Q135.155,205 135.198,205  Q135.252,205 135.307,205  Q135.371,205 135.436,205  Q135.511,205 135.586,205  Q135.669,205 135.753,205  Q135.844,205 135.936,205  Q136.034,205 136.132,205  Q136.236,205 136.339,205  Q136.447,205 136.555,205  Q136.775,205 137,205 " /><path id= "80" d=" M 137 -55 L 141.65 -55 " />
<path id= "81" d=" M 137 205 L 141.65 205 " />
<path id= "82" d=" M 142.4 -55 L 142.4 205 " />
<path d="M141.65,-55 C141.847,-55 142.041,-55 142.18,-55  C142.199,-55 142.218,-55 142.236,-55  C142.27,-55 142.3,-55 142.326,-55  C142.336,-55 142.347,-55 142.358,-55  C142.366,-55 142.373,-55 142.381,-55  C142.386,-55 142.391,-55 142.395,-55  C142.397,-55 142.398,-55 142.4,-55 " /><path d="M141.65,205 C141.847,205 142.041,205 142.18,205  C142.199,205 142.218,205 142.236,205  C142.27,205 142.3,205 142.326,205  C142.336,205 142.347,205 142.358,205  C142.366,205 142.373,205 142.381,205  C142.386,205 142.391,205 142.395,205  C142.397,205 142.398,205 142.4,205 " /><path id= "85" d=" M 142.5 -55 L 142.5 205 " />
<path id= "86" d=" M 142.4 -55 L 142.5 -55 " />
<path id= "87" d=" M 142.4 205 L 142.5 205 " />
<path id= "88" d=" M 142.5 -55 L 145 -55 " />
<path id= "89" d=" M 142.5 205 L 145 205 " />
<path id= "90" d=" M 147.5 -55 L 147.5 205 " />
<path id= "91" d=" M 145 -55 L 147.5 -55 " />
<path id= "92" d=" M 145 205 L 147.5 205 " />
<path id= "93" d=" M 147.5 -55 L 147.6 -55 " />
<path id= "94" d=" M 147.5 205 L 147.6 205 " />
<path id= "95" d=" M 147.6 -55 L 147.6 205 " />
<path d="M147.6,-55 C147.602,-55 147.603,-55 147.605,-55  C147.609,-55 147.614,-55 147.619,-55  C147.627,-55 147.634,-55 147.642,-55  C147.653,-55 147.664,-55 147.674,-55  C147.688,-55 147.701,-55 147.715,-55  C147.746,-55 147.781,-55 147.82,-55  C147.959,-55 148.153,-55 148.35,-55 " /><path d="M147.6,205 C147.602,205 147.603,205 147.605,205  C147.609,205 147.614,205 147.619,205  C147.627,205 147.634,205 147.642,205  C147.653,205 147.664,205 147.674,205  C147.688,205 147.701,205 147.715,205  C147.746,205 147.781,205 147.82,205  C147.959,205 148.153,205 148.35,205 " /><path id= "98" d=" M 153 -55 L 148.35 -55 " />
<path id= "99" d=" M 153 205 L 148.35 205 " />
<path id= "100" d=" M 155 -55 L 155 205 " />
<path d="M153,-55 C153.225,-55 153.447,-55 153.661,-55  C153.73,-55 153.799,-55 153.868,-55  C153.933,-55 153.999,-55 154.064,-55  C154.125,-55 154.186,-55 154.247,-55  C154.303,-55 154.358,-55 154.414,-55  C154.464,-55 154.514,-55 154.564,-55  C154.607,-55 154.65,-55 154.693,-55  C154.73,-55 154.766,-55 154.802,-55  C154.831,-55 154.859,-55 154.888,-55  C154.908,-55 154.929,-55 154.95,-55  C154.962,-55 154.975,-55 154.987,-55  C154.992,-55 154.996,-55 155,-55 " /><path d="M153,205 C153.225,205 153.447,205 153.661,205  C153.73,205 153.799,205 153.868,205  C153.933,205 153.999,205 154.064,205  C154.125,205 154.186,205 154.247,205  C154.303,205 154.358,205 154.414,205  C154.464,205 154.514,205 154.564,205  C154.607,205 154.65,205 154.693,205  C154.73,205 154.766,205 154.802,205  C154.831,205 154.859,205 154.888,205  C154.908,205 154.929,205 154.95,205  C154.962,205 154.975,205 154.987,205  C154.992,205 154.996,205 155,205 " /><path id= "103" d=" M 135 -55 L 135 205 " />
<path id= "104" d=" M 135 -55 L 135 205 " />
<path id= "105" d=" M 35 -250 L -205 -250 " />
<path id= "106" d=" M 35 -250 L -205 -250 " />
<path d="M35,-250 Q35,-249.994 35,-249.987  Q35,-249.969 35,-249.95  Q35,-249.919 35,-249.888  Q35,-249.845 35,-249.802  Q35,-249.748 35,-249.693  Q35,-249.629 35,-249.564  Q35,-249.489 35,-249.414  Q35,-249.331 35,-249.247  Q35,-249.156 35,-249.064  Q35,-248.966 35,-248.868  Q35,-248.764 35,-248.661  Q35,-248.553 35,-248.445  Q35,-248.225 35,-248 " /><path d="M-205,-250 Q-205,-249.994 -205,-249.987  Q-205,-249.969 -205,-249.95  Q-205,-249.919 -205,-249.888  Q-205,-249.845 -205,-249.802  Q-205,-249.748 -205,-249.693  Q-205,-249.629 -205,-249.564  Q-205,-249.489 -205,-249.414  Q-205,-249.331 -205,-249.247  Q-205,-249.156 -205,-249.064  Q-205,-248.966 -205,-248.868  Q-205,-248.764 -205,-248.661  Q-205,-248.553 -205,-248.445  Q-205,-248.225 -205,-248 " /><path id= "109" d=" M 35 -248 L 35 -243.35 " />
<path id= "110" d=" M -205 -248 L -205 -243.35 " />
<path id= "111" d=" M 35 -242.6 L -205 -242.6 " />
<path d="M35,-243.35 C35,-243.153 35,-242.959 35,-242.82  C35,-242.801 35,-242.782 35,-242.764  C35,-242.73 35,-242.7 35,-242.674  C35,-242.664 35,-242.653 35,-242.642  C35,-242.634 35,-242.627 35,-242.619  C35,-242.614 35,-242.609 35,-242.605  C35,-242.603 35,-242.602 35,-242.6 " /><path d="M-205,-243.35 C-205,-243.153 -205,-242.959 -205,-242.82  C-205,-242.801 -205,-242.782 -205,-242.764  C-205,-242.73 -205,-242.7 -205,-242.674  C-205,-242.664 -205,-242.653 -205,-242.642  C-205,-242.634 -205,-242.627 -205,-242.619  C-205,-242.614 -205,-242.609 -205,-242.605  C-205,-242.603 -205,-242.602 -205,-242.6 " /><path id= "114" d=" M 35 -242.5 L -205 -242.5 " />
<path id= "115" d=" M 35 -242.6 L 35 -242.5 " />
<path id= "116" d=" M -205 -242.6 L -205 -242.5 " />
<path id= "117" d=" M 35 -242.5 L 35 -240 " />
<path id= "118" d=" M -205 -242.5 L -205 -240 " />
<path id= "119" d=" M 35 -237.5 L -205 -237.5 " />
<path id= "120" d=" M 35 -240 L 35 -237.5 " />
<path id= "121" d=" M -205 -240 L -205 -237.5 " />
<path id= "122" d=" M 35 -237.5 L 35 -237.4 " />
<path id= "123" d=" M -205 -237.5 L -205 -237.4 " />
<path id= "124" d=" M 35 -237.4 L -205 -237.4 " />
<path id= "125" d=" M 35 -237.4 L -205 -237.4 " />
<path d="M35,-237.4 C35,-237.398 35,-237.397 35,-237.395  C35,-237.391 35,-237.386 35,-237.381  C35,-237.373 35,-237.366 35,-237.358  C35,-237.347 35,-237.336 35,-237.326  C35,-237.312 35,-237.299 35,-237.285  C35,-237.254 35,-237.219 35,-237.18  C35,-237.041 35,-236.847 35,-236.65 " /><path d="M-205,-237.4 C-205,-237.398 -205,-237.397 -205,-237.395  C-205,-237.391 -205,-237.386 -205,-237.381  C-205,-237.373 -205,-237.366 -205,-237.358  C-205,-237.347 -205,-237.336 -205,-237.326  C-205,-237.312 -205,-237.299 -205,-237.285  C-205,-237.254 -205,-237.219 -205,-237.18  C-205,-237.041 -205,-236.847 -205,-236.65 " /><path id= "128" d=" M 35 -232 L 35 -236.65 " />
<path id= "129" d=" M -205 -232 L -205 -236.65 " />
<path id= "130" d=" M 27.6 -230 L 22.4 -230 " />
<path id= "131" d=" M 17 -230 L -205 -230 " />
<path d="M35,-232 C35,-231.775 35,-231.553 35,-231.339  C35,-231.27 35,-231.201 35,-231.132  C35,-231.067 35,-231.001 35,-230.936  C35,-230.875 35,-230.814 35,-230.753  C35,-230.697 35,-230.642 35,-230.586  C35,-230.536 35,-230.486 35,-230.436  C35,-230.393 35,-230.35 35,-230.307  C35,-230.27 35,-230.234 35,-230.198  C35,-230.169 35,-230.141 35,-230.112  C35,-230.092 35,-230.071 35,-230.05  C35,-230.038 35,-230.025 35,-230.013  C35,-230.008 35,-230.004 35,-230 " /><path d="M-205,-232 C-205,-231.775 -205,-231.553 -205,-231.339  C-205,-231.27 -205,-231.201 -205,-231.132  C-205,-231.067 -205,-231.001 -205,-230.936  C-205,-230.875 -205,-230.814 -205,-230.753  C-205,-230.697 -205,-230.642 -205,-230.586  C-205,-230.536 -205,-230.486 -205,-230.436  C-205,-230.393 -205,-230.35 -205,-230.307  C-205,-230.27 -205,-230.234 -205,-230.198  C-205,-230.169 -205,-230.141 -205,-230.112  C-205,-230.092 -205,-230.071 -205,-230.05  C-205,-230.038 -205,-230.025 -205,-230.013  C-205,-230.008 -205,-230.004 -205,-230 " /><path id= "134" d=" M 35 -250 L -205 -250 " />
<path id= "135" d=" M 35 -250 L -205 -250 " />
<path id= "136" d=" M -205 225 L 135 225 " />
<path id= "137" d=" M -205 225 L 135 225 " />
<path d="M-205,225 Q-205,224.994 -205,224.987  Q-205,224.969 -205,224.95  Q-205,224.919 -205,224.888  Q-205,224.845 -205,224.802  Q-205,224.748 -205,224.693  Q-205,224.629 -205,224.564  Q-205,224.489 -205,224.414  Q-205,224.331 -205,224.247  Q-205,224.156 -205,224.064  Q-205,223.966 -205,223.868  Q-205,223.764 -205,223.661  Q-205,223.553 -205,223.445  Q-205,223.225 -205,223 " /><path d="M135,225 Q135,224.994 135,224.987  Q135,224.969 135,224.95  Q135,224.919 135,224.888  Q135,224.845 135,224.802  Q135,224.748 135,224.693  Q135,224.629 135,224.564  Q135,224.489 135,224.414  Q135,224.331 135,224.247  Q135,224.156 135,224.064  Q135,223.966 135,223.868  Q135,223.764 135,223.661  Q135,223.553 135,223.445  Q135,223.225 135,223 " /><path id= "140" d=" M -205 223 L -205 218.35 " />
<path id= "141" d=" M 135 223 L 135 218.35 " />
<path id= "142" d=" M -205 217.6 L 135 217.6 " />
<path d="M-205,218.35 C-205,218.153 -205,217.959 -205,217.82  C-205,217.801 -205,217.782 -205,217.764  C-205,217.73 -205,217.7 -205,217.674  C-205,217.664 -205,217.653 -205,217.642  C-205,217.634 -205,217.627 -205,217.619  C-205,217.614 -205,217.609 -205,217.605  C-205,217.603 -205,217.602 -205,217.6 " /><path d="M135,218.35 C135,218.153 135,217.959 135,217.82  C135,217.801 135,217.782 135,217.764  C135,217.73 135,217.7 135,217.674  C135,217.664 135,217.653 135,217.642  C135,217.634 135,217.627 135,217.619  C135,217.614 135,217.609 135,217.605  C135,217.603 135,217.602 135,217.6 " /><path id= "145" d=" M -205 217.5 L 135 217.5 " />
<path id= "146" d=" M -205 217.6 L -205 217.5 " />
<path id= "147" d=" M 135 217.6 L 135 217.5 " />
<path id= "148" d=" M -205 217.5 L -205 215 " />
<path id= "149" d=" M 135 217.5 L 135 215 " />
<path id= "150" d=" M -205 212.5 L 135 212.5 " />
<path id= "151" d=" M -205 215 L -205 212.5 " />
<path id= "152" d=" M 135 215 L 135 212.5 " />
<path id= "153" d=" M -205 212.5 L -205 212.4 " />
<path id= "154" d=" M 135 212.5 L 135 212.4 " />
<path id= "155" d=" M -205 212.4 L 135 212.4 " />
<path id= "156" d=" M -205 212.4 L 135 212.4 " />
<path d="M-205,212.4 C-205,212.398 -205,212.397 -205,212.395  C-205,212.391 -205,212.386 -205,212.381  C-205,212.373 -205,212.366 -205,212.358  C-205,212.347 -205,212.336 -205,212.326  C-205,212.312 -205,212.299 -205,212.285  C-205,212.254 -205,212.219 -205,212.18  C-205,212.041 -205,211.847 -205,211.65 " /><path d="M135,212.4 C135,212.398 135,212.397 135,212.395  C135,212.391 135,212.386 135,212.381  C135,212.373 135,212.366 135,212.358  C135,212.347 135,212.336 135,212.326  C135,212.312 135,212.299 135,212.285  C135,212.254 135,212.219 135,212.18  C135,212.041 135,211.847 135,211.65 " /><path id= "159" d=" M -205 207 L -205 211.65 " />
<path id= "160" d=" M 135 207 L 135 211.65 " />
<path id= "161" d=" M -205 205 L 17 205 " />
<path id= "162" d=" M 22.4 205 L 27.6 205 " />
<path id= "163" d=" M 35 205 L 135 205 " />
<path d="M-205,207 C-205,206.775 -205,206.553 -205,206.339  C-205,206.27 -205,206.201 -205,206.132  C-205,206.067 -205,206.001 -205,205.936  C-205,205.875 -205,205.814 -205,205.753  C-205,205.697 -205,205.642 -205,205.586  C-205,205.536 -205,205.486 -205,205.436  C-205,205.393 -205,205.35 -205,205.307  C-205,205.27 -205,205.234 -205,205.198  C-205,205.169 -205,205.141 -205,205.112  C-205,205.092 -205,205.071 -205,205.05  C-205,205.038 -205,205.025 -205,205.013  C-205,205.008 -205,205.004 -205,205 " /><path d="M135,207 C135,206.775 135,206.553 135,206.339  C135,206.27 135,206.201 135,206.132  C135,206.067 135,206.001 135,205.936  C135,205.875 135,205.814 135,205.753  C135,205.697 135,205.642 135,205.586  C135,205.536 135,205.486 135,205.436  C135,205.393 135,205.35 135,205.307  C135,205.27 135,205.234 135,205.198  C135,205.169 135,205.141 135,205.112  C135,205.092 135,205.071 135,205.05  C135,205.038 135,205.025 135,205.013  C135,205.008 135,205.004 135,205 " /><path id= "166" d=" M -205 225 L 135 225 " />
<path id= "167" d=" M -205 225 L 135 225 " />
<path id= "168" d=" M 15 -230 L 15 -155 " />
<path id= "169" d=" M 15 -147.6 L 15 -142.4 " />
<path id= "170" d=" M 15 -135 L 15 60 " />
<path id= "171" d=" M 15 67.4 L 15 72.6 " />
<path id= "172" d=" M 15 80 L 15 205 " />
<path d="M15,-230 Q15.0063,-230 15.0126,-230  Q15.0314,-230 15.0501,-230  Q15.0812,-230 15.1122,-230  Q15.1551,-230 15.1981,-230  Q15.2523,-230 15.3066,-230  Q15.3714,-230 15.4363,-230  Q15.5111,-230 15.5858,-230  Q15.6694,-230 15.753,-230  Q15.8445,-230 15.9359,-230  Q16.0341,-230 16.1322,-230  Q16.2358,-230 16.3394,-230  Q16.4472,-230 16.555,-230  Q16.7753,-230 17,-230 " /><path d="M15,205 Q15.0063,205 15.0126,205  Q15.0314,205 15.0501,205  Q15.0812,205 15.1122,205  Q15.1551,205 15.1981,205  Q15.2523,205 15.3066,205  Q15.3714,205 15.4363,205  Q15.5111,205 15.5858,205  Q15.6694,205 15.753,205  Q15.8445,205 15.9359,205  Q16.0341,205 16.1322,205  Q16.2358,205 16.3394,205  Q16.4472,205 16.555,205  Q16.7753,205 17,205 " /><path id= "175" d=" M 21.65 -230 L 17 -230 " />
<path id= "176" d=" M 21.65 205 L 17 205 " />
<path id= "177" d=" M 22.4 -230 L 22.4 205 " />
<path d="M21.65,-230 C21.8468,-230 22.0407,-230 22.1803,-230  C22.199,-230 22.2177,-230 22.2364,-230  C22.2703,-230 22.3001,-230 22.3257,-230  C22.3365,-230 22.3472,-230 22.3579,-230  C22.3657,-230 22.3734,-230 22.3812,-230  C22.3859,-230 22.3906,-230 22.3953,-230  C22.3969,-230 22.3984,-230 22.4,-230 " /><path d="M21.65,205 C21.8468,205 22.0407,205 22.1803,205  C22.199,205 22.2177,205 22.2364,205  C22.2703,205 22.3001,205 22.3257,205  C22.3365,205 22.3472,205 22.3579,205  C22.3657,205 22.3734,205 22.3812,205  C22.3859,205 22.3906,205 22.3953,205  C22.3969,205 22.3984,205 22.4,205 " /><path id= "180" d=" M 22.5 -230 L 22.5 205 " />
<path id= "181" d=" M 27.5 -230 L 27.5 205 " />
<path id= "182" d=" M 27.6 -230 L 27.6 205 " />
<path id= "183" d=" M 27.6 -230 L 27.6 205 " />
<path d="M27.6,-230 C27.6016,-230 27.6031,-230 27.6047,-230  C27.6094,-230 27.6141,-230 27.6188,-230  C27.6266,-230 27.6343,-230 27.6421,-230  C27.6528,-230 27.6635,-230 27.6743,-230  C27.6878,-230 27.7014,-230 27.715,-230  C27.746,-230 27.7809,-230 27.8197,-230  C27.9593,-230 28.1532,-230 28.35,-230 " /><path d="M27.6,205 C27.6016,205 27.6031,205 27.6047,205  C27.6094,205 27.6141,205 27.6188,205  C27.6266,205 27.6343,205 27.6421,205  C27.6528,205 27.6635,205 27.6743,205  C27.6878,205 27.7014,205 27.715,205  C27.746,205 27.7809,205 27.8197,205  C27.9593,205 28.1532,205 28.35,205 " /><path id= "186" d=" M 28.35 -230 L 33 -230 " />
<path id= "187" d=" M 28.35 205 L 33 205 " />
<path id= "188" d=" M 35 -230 L 35 -75 " />
<path id= "189" d=" M 35 -67.6 L 35 -62.4 " />
<path id= "190" d=" M 35 -55 L 35 205 " />
<path d="M33,-230 C33.2247,-230 33.4473,-230 33.6606,-230  C33.7296,-230 33.7987,-230 33.8678,-230  C33.9332,-230 33.9986,-230 34.0641,-230  C34.125,-230 34.186,-230 34.247,-230  C34.3027,-230 34.3585,-230 34.4142,-230  C34.464,-230 34.5138,-230 34.5637,-230  C34.6069,-230 34.6502,-230 34.6934,-230  C34.7296,-230 34.7658,-230 34.8019,-230  C34.8305,-230 34.8592,-230 34.8878,-230  C34.9085,-230 34.9292,-230 34.9499,-230  C34.9624,-230 34.9749,-230 34.9874,-230  C34.9916,-230 34.9958,-230 35,-230 " /><path d="M33,205 C33.2247,205 33.4473,205 33.6606,205  C33.7296,205 33.7987,205 33.8678,205  C33.9332,205 33.9986,205 34.0641,205  C34.125,205 34.186,205 34.247,205  C34.3027,205 34.3585,205 34.4142,205  C34.464,205 34.5138,205 34.5637,205  C34.6069,205 34.6502,205 34.6934,205  C34.7296,205 34.7658,205 34.8019,205  C34.8305,205 34.8592,205 34.8878,205  C34.9085,205 34.9292,205 34.9499,205  C34.9624,205 34.9749,205 34.9874,205  C34.9916,205 34.9958,205 35,205 " /><path id= "193" d=" M 35 -55 L 135 -55 " />
<path id= "194" d=" M 35 -55 L 135 -55 " />
<path d="M35,-55 Q35,-55.0063 35,-55.0126  Q35,-55.0314 35,-55.0501  Q35,-55.0812 35,-55.1122  Q35,-55.1551 35,-55.1981  Q35,-55.2523 35,-55.3066  Q35,-55.3714 35,-55.4363  Q35,-55.5111 35,-55.5858  Q35,-55.6694 35,-55.753  Q35,-55.8445 35,-55.9359  Q35,-56.0341 35,-56.1322  Q35,-56.2358 35,-56.3394  Q35,-56.4472 35,-56.555  Q35,-56.7753 35,-57 " /><path d="M135,-55 Q135,-55.0063 135,-55.0126  Q135,-55.0314 135,-55.0501  Q135,-55.0812 135,-55.1122  Q135,-55.1551 135,-55.1981  Q135,-55.2523 135,-55.3066  Q135,-55.3714 135,-55.4363  Q135,-55.5111 135,-55.5858  Q135,-55.6694 135,-55.753  Q135,-55.8445 135,-55.9359  Q135,-56.0341 135,-56.1322  Q135,-56.2358 135,-56.3394  Q135,-56.4472 135,-56.555  Q135,-56.7753 135,-57 " /><path id= "197" d=" M 35 -57 L 35 -61.65 " />
<path id= "198" d=" M 135 -57 L 135 -61.65 " />
<path id= "199" d=" M 35 -62.4 L 135 -62.4 " />
<path d="M35,-61.65 C35,-61.8468 35,-62.0407 35,-62.1803  C35,-62.199 35,-62.2177 35,-62.2364  C35,-62.2703 35,-62.3001 35,-62.3257  C35,-62.3365 35,-62.3472 35,-62.3579  C35,-62.3657 35,-62.3734 35,-62.3812  C35,-62.3859 35,-62.3906 35,-62.3953  C35,-62.3969 35,-62.3984 35,-62.4 " /><path d="M135,-61.65 C135,-61.8468 135,-62.0407 135,-62.1803  C135,-62.199 135,-62.2177 135,-62.2364  C135,-62.2703 135,-62.3001 135,-62.3257  C135,-62.3365 135,-62.3472 135,-62.3579  C135,-62.3657 135,-62.3734 135,-62.3812  C135,-62.3859 135,-62.3906 135,-62.3953  C135,-62.3969 135,-62.3984 135,-62.4 " /><path id= "202" d=" M 35 -62.5 L 135 -62.5 " />
<path id= "203" d=" M 135 -62.4 L 135 -62.5 " />
<path id= "204" d=" M 135 -62.5 L 135 -65 " />
<path id= "205" d=" M 35 -67.5 L 135 -67.5 " />
<path id= "206" d=" M 135 -65 L 135 -67.5 " />
<path id= "207" d=" M 135 -67.5 L 135 -67.6 " />
<path id= "208" d=" M 35 -67.6 L 135 -67.6 " />
<path d="M35,-67.6 C35,-67.6016 35,-67.6031 35,-67.6047  C35,-67.6094 35,-67.6141 35,-67.6188  C35,-67.6266 35,-67.6343 35,-67.6421  C35,-67.6528 35,-67.6635 35,-67.6743  C35,-67.6878 35,-67.7014 35,-67.715  C35,-67.746 35,-67.7809 35,-67.8197  C35,-67.9593 35,-68.1532 35,-68.35 " /><path d="M135,-67.6 C135,-67.6016 135,-67.6031 135,-67.6047  C135,-67.6094 135,-67.6141 135,-67.6188  C135,-67.6266 135,-67.6343 135,-67.6421  C135,-67.6528 135,-67.6635 135,-67.6743  C135,-67.6878 135,-67.7014 135,-67.715  C135,-67.746 135,-67.7809 135,-67.8197  C135,-67.9593 135,-68.1532 135,-68.35 " /><path id= "211" d=" M 35 -73 L 35 -68.35 " />
<path id= "212" d=" M 135 -73 L 135 -68.35 " />
<path id= "213" d=" M 35 -75 L 135 -75 " />
<path d="M35,-73 C35,-73.2247 35,-73.4473 35,-73.6606  C35,-73.7296 35,-73.7987 35,-73.8678  C35,-73.9332 35,-73.9986 35,-74.0641  C35,-74.125 35,-74.186 35,-74.247  C35,-74.3027 35,-74.3585 35,-74.4142  C35,-74.464 35,-74.5138 35,-74.5637  C35,-74.6069 35,-74.6502 35,-74.6934  C35,-74.7296 35,-74.7658 35,-74.8019  C35,-74.8305 35,-74.8592 35,-74.8878  C35,-74.9085 35,-74.9292 35,-74.9499  C35,-74.9624 35,-74.9749 35,-74.9874  C35,-74.9916 35,-74.9958 35,-75 " /><path d="M135,-73 C135,-73.2247 135,-73.4473 135,-73.6606  C135,-73.7296 135,-73.7987 135,-73.8678  C135,-73.9332 135,-73.9986 135,-74.0641  C135,-74.125 135,-74.186 135,-74.247  C135,-74.3027 135,-74.3585 135,-74.4142  C135,-74.464 135,-74.5138 135,-74.5637  C135,-74.6069 135,-74.6502 135,-74.6934  C135,-74.7296 135,-74.7658 135,-74.8019  C135,-74.8305 135,-74.8592 135,-74.8878  C135,-74.9085 135,-74.9292 135,-74.9499  C135,-74.9624 135,-74.9749 135,-74.9874  C135,-74.9916 135,-74.9958 135,-75 " /><path id= "216" d=" M 35 -55 L 135 -55 " />
</g>
</g>



<g transform="scale(0.250000,0.250000)" stroke="rgb(0,0,255)"  stroke-width="1.280000" > <path d="M 470.000000,511.500000 L 464.000000,511.500000 M 456.000000,511.500000 L 432.000000,511.500000 M 424.000000,511.500000 L 418.000000,511.500000 M 410.000000,511.500000 L 386.000000,511.500000 M 378.000000,511.500000 L 372.000000,511.500000 M 364.000000,511.500000 L 340.000000,511.500000 M 332.000000,511.500000 L 326.000000,511.500000 M 318.000000,511.500000 L 294.000000,511.500000 M 286.000000,511.500000 L 280.000000,511.500000 M 272.000000,511.500000 L 248.000000,511.500000 M 240.000000,511.500000 L 234.000000,511.500000 M 226.000000,511.500000 L 214.991168,511.500000 "/>
<path d="M 470.000000,511.500000 L 464.000000,511.500000 M 456.000000,511.500000 L 432.000000,511.500000 M 424.000000,511.500000 L 418.000000,511.500000 M 410.000000,511.500000 L 386.000000,511.500000 M 378.000000,511.500000 L 372.000000,511.500000 M 364.000000,511.500000 L 340.000000,511.500000 M 332.000000,511.500000 L 326.000000,511.500000 M 318.000000,511.500000 L 294.000000,511.500000 M 286.000000,511.500000 L 280.000000,511.500000 M 272.000000,511.500000 L 248.000000,511.500000 M 240.000000,511.500000 L 234.000000,511.500000 M 226.000000,511.500000 L 214.991168,511.500000 "/> </g> 


<g transform="scale(0.250000,0.250000)" stroke="rgb(0,0,255)"  stroke-width="1.280000" > <path d="M 470.000000,726.500000 L 464.000000,726.500000 M 456.000000,726.500000 L 432.000000,726.500000 M 424.000000,726.500000 L 418.000000,726.500000 M 410.000000,726.500000 L 386.000000,726.500000 M 378.000000,726.500000 L 372.000000,726.500000 M 364.000000,726.500000 L 340.000000,726.500000 M 332.000000,726.500000 L 326.000000,726.500000 M 318.000000,726.500000 L 294.000000,726.500000 M 286.000000,726.500000 L 280.000000,726.500000 M 272.000000,726.500000 L 248.000000,726.500000 M 240.000000,726.500000 L 234.000000,726.500000 M 226.000000,726.500000 L 217.030260,726.500000 "/>
<path d="M 470.000000,726.500000 L 464.000000,726.500000 M 456.000000,726.500000 L 432.000000,726.500000 M 424.000000,726.500000 L 418.000000,726.500000 M 410.000000,726.500000 L 386.000000,726.500000 M 378.000000,726.500000 L 372.000000,726.500000 M 364.000000,726.500000 L 340.000000,726.500000 M 332.000000,726.500000 L 326.000000,726.500000 M 318.000000,726.500000 L 294.000000,726.500000 M 286.000000,726.500000 L 280.000000,726.500000 M 272.000000,726.500000 L 248.000000,726.500000 M 240.000000,726.500000 L 234.000000,726.500000 M 226.000000,726.500000 L 217.030260,726.500000 "/> </g> 


<g> 
  <line x1="55.888750" y1="202.875000" x2="42.765835" y2="202.875000" style="stroke:rgb(0,0,255);stroke-width:0.50" />
<line x1="52.257565" y1="181.625000" x2="42.765835" y2="181.625000" style="stroke:rgb(0,0,255);stroke-width:0.50" />
<line x1="43.765835" y1="202.875000" x2="43.765835" y2="181.625000" style="stroke:rgb(0,0,255);stroke-width:0.50" /> 
  <polygon points="43.765835,181.625000 42.765835,184.625000 43.765835,185.625000 44.765835,184.625000" style="fill:rgb(0,0,255);stroke:rgb(0,0,255);stroke-width:0" /><polygon points="43.765835,202.875000 44.765835,199.875000 43.765835,198.875000 42.765835,199.875000" style="fill:rgb(0,0,255);stroke:rgb(0,0,255);stroke-width:0" /> 
  <text x="41.765835" y="192.250000" font-family="inherit" font-size="3.6" fill="rgb(0,0,255)" text-anchor="middle" transform="rotate(-90.000000 41.765835,192.250000)" >85</text> </g>


<g> 
  <line x1="55.783000" y1="94.125000" x2="47.559392" y2="94.125000" style="stroke:rgb(0,0,255);stroke-width:0.50" />
<line x1="51.747792" y1="127.875000" x2="47.559392" y2="127.875000" style="stroke:rgb(0,0,255);stroke-width:0.50" />
<line x1="48.559392" y1="94.125000" x2="48.559392" y2="127.875000" style="stroke:rgb(0,0,255);stroke-width:0.50" /> 
  <polygon points="48.559392,127.875000 49.559392,124.875000 48.559392,123.875000 47.559392,124.875000" style="fill:rgb(0,0,255);stroke:rgb(0,0,255);stroke-width:0" /><polygon points="48.559392,94.125000 47.559392,97.125000 48.559392,98.125000 49.559392,97.125000" style="fill:rgb(0,0,255);stroke:rgb(0,0,255);stroke-width:0" /> 
  <text x="46.559392" y="111.000000" font-family="inherit" font-size="3.6" fill="rgb(0,0,255)" text-anchor="middle" transform="rotate(-90.000000 46.559392,111.000000)" >135</text> </g>


<g> 
  <line x1="55.888750" y1="94.125000" x2="33.890226" y2="94.125000" style="stroke:rgb(0,0,255);stroke-width:0.50" />
<line x1="55.646500" y1="202.875000" x2="33.890226" y2="202.875000" style="stroke:rgb(0,0,255);stroke-width:0.50" />
<line x1="34.890226" y1="94.125000" x2="34.890226" y2="202.875000" style="stroke:rgb(0,0,255);stroke-width:0.50" /> 
  <polygon points="34.890226,202.875000 35.890226,199.875000 34.890226,198.875000 33.890226,199.875000" style="fill:rgb(0,0,255);stroke:rgb(0,0,255);stroke-width:0" /><polygon points="34.890226,94.125000 33.890226,97.125000 34.890226,98.125000 35.890226,97.125000" style="fill:rgb(0,0,255);stroke:rgb(0,0,255);stroke-width:0" /> 
  <text x="32.890226" y="148.500000" font-family="inherit" font-size="3.6" fill="rgb(0,0,255)" text-anchor="middle" transform="rotate(-90.000000 32.890226,148.500000)" >435</text> </g>


<g> 
  <line x1="147.500000" y1="166.121850" x2="147.500000" y2="173.515226" style="stroke:rgb(0,0,255);stroke-width:0.50" />
<line x1="122.500000" y1="166.121850" x2="122.500000" y2="173.515226" style="stroke:rgb(0,0,255);stroke-width:0.50" />
<line x1="147.500000" y1="172.515226" x2="122.500000" y2="172.515226" style="stroke:rgb(0,0,255);stroke-width:0.50" /> 
  <polygon points="122.500000,172.515226 125.500000,173.515226 126.500000,172.515226 125.500000,171.515226" style="fill:rgb(0,0,255);stroke:rgb(0,0,255);stroke-width:0" /><polygon points="147.500000,172.515226 144.500000,171.515226 143.500000,172.515226 144.500000,173.515226" style="fill:rgb(0,0,255);stroke:rgb(0,0,255);stroke-width:0" /> 
  <text x="135.000000" y="170.515226" font-family="inherit" font-size="3.6" fill="rgb(0,0,255)" text-anchor="middle" transform="rotate(0.000000 135.000000,170.515226)" >100</text> </g>


<g transform="scale(0.250000,0.250000)" stroke="rgb(0,0,255)"  stroke-width="1.280000" > <path d="M 480.000000,811.500000 L 480.000000,805.500000 M 480.000000,797.500000 L 480.000000,773.500000 M 480.000000,765.500000 L 480.000000,759.500000 M 480.000000,751.500000 L 480.000000,727.500000 M 480.000000,719.500000 L 480.000000,713.500000 M 480.000000,705.500000 L 480.000000,681.500000 M 480.000000,673.500000 L 480.000000,667.500000 M 480.000000,659.500000 L 480.000000,635.500000 M 480.000000,627.500000 L 480.000000,621.500000 M 480.000000,613.500000 L 480.000000,589.500000 M 480.000000,581.500000 L 480.000000,575.500000 M 480.000000,567.500000 L 480.000000,543.500000 M 480.000000,535.500000 L 480.000000,529.500000 M 480.000000,521.500000 L 480.000000,497.500000 M 480.000000,489.500000 L 480.000000,483.500000 M 480.000000,475.500000 L 480.000000,451.500000 M 480.000000,443.500000 L 480.000000,437.500000 M 480.000000,429.500000 L 480.000000,405.500000 M 480.000000,397.500000 L 480.000000,391.500000 M 480.000000,383.500000 L 480.000000,359.500000 M 480.000000,351.500000 L 480.000000,345.500000 M 480.000000,337.500000 L 480.000000,334.113995 "/>
<path d="M 480.000000,811.500000 L 480.000000,805.500000 M 480.000000,797.500000 L 480.000000,773.500000 M 480.000000,765.500000 L 480.000000,759.500000 M 480.000000,751.500000 L 480.000000,727.500000 M 480.000000,719.500000 L 480.000000,713.500000 M 480.000000,705.500000 L 480.000000,681.500000 M 480.000000,673.500000 L 480.000000,667.500000 M 480.000000,659.500000 L 480.000000,635.500000 M 480.000000,627.500000 L 480.000000,621.500000 M 480.000000,613.500000 L 480.000000,589.500000 M 480.000000,581.500000 L 480.000000,575.500000 M 480.000000,567.500000 L 480.000000,543.500000 M 480.000000,535.500000 L 480.000000,529.500000 M 480.000000,521.500000 L 480.000000,497.500000 M 480.000000,489.500000 L 480.000000,483.500000 M 480.000000,475.500000 L 480.000000,451.500000 M 480.000000,443.500000 L 480.000000,437.500000 M 480.000000,429.500000 L 480.000000,405.500000 M 480.000000,397.500000 L 480.000000,391.500000 M 480.000000,383.500000 L 480.000000,359.500000 M 480.000000,351.500000 L 480.000000,345.500000 M 480.000000,337.500000 L 480.000000,334.571686 "/> </g> 


<g> 
  <line x1="62.500000" y1="87.513750" x2="62.500000" y2="79.453391" style="stroke:rgb(0,0,255);stroke-width:0.50" />
<line x1="120.000000" y1="81.642921" x2="120.000000" y2="79.453391" style="stroke:rgb(0,0,255);stroke-width:0.50" />
<line x1="62.500000" y1="80.453391" x2="120.000000" y2="80.453391" style="stroke:rgb(0,0,255);stroke-width:0.50" /> 
  <polygon points="120.000000,80.453391 117.000000,79.453391 116.000000,80.453391 117.000000,81.453391" style="fill:rgb(0,0,255);stroke:rgb(0,0,255);stroke-width:0" /><polygon points="62.500000,80.453391 65.500000,81.453391 66.500000,80.453391 65.500000,79.453391" style="fill:rgb(0,0,255);stroke:rgb(0,0,255);stroke-width:0" /> 
  <text x="91.250000" y="78.453391" font-family="inherit" font-size="3.6" fill="rgb(0,0,255)" text-anchor="middle" transform="rotate(0.000000 91.250000,78.453391)" >230</text> </g>


<g> 
  <line x1="147.500000" y1="87.271500" x2="147.500000" y2="79.344638" style="stroke:rgb(0,0,255);stroke-width:0.50" />
<line x1="120.000000" y1="81.642921" x2="120.000000" y2="79.344638" style="stroke:rgb(0,0,255);stroke-width:0.50" />
<line x1="147.500000" y1="80.344638" x2="120.000000" y2="80.344638" style="stroke:rgb(0,0,255);stroke-width:0.50" /> 
  <polygon points="120.000000,80.344638 123.000000,81.344638 124.000000,80.344638 123.000000,79.344638" style="fill:rgb(0,0,255);stroke:rgb(0,0,255);stroke-width:0" /><polygon points="147.500000,80.344638 144.500000,79.344638 143.500000,80.344638 144.500000,81.344638" style="fill:rgb(0,0,255);stroke:rgb(0,0,255);stroke-width:0" /> 
  <text x="133.750000" y="78.344638" font-family="inherit" font-size="3.6" fill="rgb(0,0,255)" text-anchor="middle" transform="rotate(0.000000 133.750000,78.344638)" >110</text> </g>


<g transform="scale(0.250000,0.250000)" stroke="rgb(0,0,255)"  stroke-width="1.280000" > <path d="M 590.000000,646.500000 L 584.000000,646.500000 M 576.000000,646.500000 L 552.000000,646.500000 M 544.000000,646.500000 L 538.000000,646.500000 M 530.000000,646.500000 L 506.000000,646.500000 M 498.000000,646.500000 L 492.000000,646.500000 M 484.000000,646.500000 L 460.000000,646.500000 M 452.000000,646.500000 L 446.000000,646.500000 M 438.000000,646.500000 L 436.386994,646.500000 "/>
<path d="M 590.000000,646.500000 L 584.000000,646.500000 M 576.000000,646.500000 L 552.000000,646.500000 M 544.000000,646.500000 L 538.000000,646.500000 M 530.000000,646.500000 L 506.000000,646.500000 M 498.000000,646.500000 L 492.000000,646.500000 M 484.000000,646.500000 L 460.000000,646.500000 M 452.000000,646.500000 L 446.000000,646.500000 "/> </g> 


<g> 
  <line x1="124.496850" y1="202.875000" x2="161.279470" y2="202.875000" style="stroke:rgb(0,0,255);stroke-width:0.50" />
<line x1="113.500000" y1="161.625000" x2="161.279470" y2="161.625000" style="stroke:rgb(0,0,255);stroke-width:0.50" />
<line x1="160.279470" y1="202.875000" x2="160.279470" y2="161.625000" style="stroke:rgb(0,0,255);stroke-width:0.50" /> 
  <polygon points="160.279470,161.625000 159.279470,164.625000 160.279470,165.625000 161.279470,164.625000" style="fill:rgb(0,0,255);stroke:rgb(0,0,255);stroke-width:0" /><polygon points="160.279470,202.875000 161.279470,199.875000 160.279470,198.875000 159.279470,199.875000" style="fill:rgb(0,0,255);stroke:rgb(0,0,255);stroke-width:0" /> 
  <text x="158.279470" y="182.250000" font-family="inherit" font-size="3.6" fill="rgb(0,0,255)" text-anchor="middle" transform="rotate(-90.000000 158.279470,182.250000)" >165</text> </g>


</svg>

