<?xml version="1.0" encoding="UTF-8" standalone="no"?>

<svg
	xmlns="http://www.w3.org/2000/svg" version="1.1"
	xmlns:freecad="http://www.freecadweb.org/wiki/index.php?title=Svg_Namespace"
	width="210mm"
	height="297mm"
	viewBox="0 0 210 297">
	<!-- Working space 20 10 200 287 -->
	<!-- Title block 20 227 200 287 -->
	<g>
		<rect
			id="drawing-border"
			style="fill:none;stroke:#000000;stroke-width:0.35;stroke-linecap:miter;stroke-miterlimit:4"
			width="180"
			height="277"
			x="20"
			y="10" />
			<!-- width-30, height-20 -->
		<g
			transform="translate(0,0)">
			<!-- A4 Portrait based for other formats width-210, height-297 -->
			<!--        page       rect   translation
			               w    h    rw   rh   tx   ty
			        A4-P  210  297  180  277    0    0
			        A3-L  420  297  390  277  210    0
			        A2-L  594  420  564  400  384  123
			        A1-L  841  594  811  574  631  297
			        A0-L 1189  841 1159  821  979  544
			-->
			<g
				id="titleblock-structure"
				style="fill:none;stroke:#000000;stroke-width:0.35;stroke-linecap:miter;stroke-miterlimit:4">
				<rect width="180" height="60" x="20" y="227" />
				<path d="m 20,239 h 180" />
				<path d="m 80,227 v 12" />
				<path d="m 140,239 v 48" />
				<path d="m 160,239 v 12" />
				<path d="m 180,239 v 12" />
				<path d="m 140,251 h 60" />
				<path d="m 140,275 h 60" />
				<path d="m 180,275 v 12" />
			</g>
			<g
				id="titleblock-text-non-editable"
				style="font-size:3px;text-anchor:start;fill:#000000;font-family:osifont"
				xml:space="preserve">
				<text x="21" y="230">Created by:</text>
				<text x="81" y="230">Title:</text>
				<text x="21" y="242">Supplementary information:</text>
				<text x="141" y="242">Size:</text>
				<text x="161" y="242">Sheet:</text>
				<text x="181" y="242">Scale:</text>
				<text x="141" y="254">Part number:</text>
				<text x="141" y="266">Drawing number:</text>
				<text x="141" y="278">Date:</text>
				<text x="181" y="278">Revision:</text>
			</g>
			<g
				id="titleblock-text-editable"
				style="font-size:5px;text-anchor:middle;fill:#000000;font-family:osifont"
				xml:space="preserve">
				<text freecad:editable="AUTHOR NAME" x="50" y="236"><tspan>Stefan Katerkamp</tspan></text>
				<text freecad:editable="DRAWING TITLE" x="140" y="236"><tspan>Frame Top Side</tspan></text>
				<text freecad:editable="SI-1" x="80" y="248"><tspan></tspan></text>
				<text freecad:editable="SI-2" x="80" y="255"><tspan></tspan></text>
				<text freecad:editable="FreeCAD DRAWING" x="80" y="262"><tspan>Ks MINI Enclosure</tspan></text>
				<text freecad:editable="SI-4" x="80" y="269"><tspan></tspan></text>
				<text freecad:editable="SI-5" x="80" y="276"><tspan></tspan></text>
				<text freecad:editable="SI-6" x="80" y="283"><tspan></tspan></text>
				<text freecad:editable="FC-SI" x="150" y="248"><tspan>A4</tspan></text>
				<text freecad:editable="FC-SH" x="170" y="248"><tspan>2</tspan></text>
				<text freecad:editable="FC-SC" x="190" y="248"><tspan>1:4</tspan></text>
				<text freecad:editable="PN" x="170" y="260"><tspan></tspan></text>
				<text freecad:editable="DN" x="170" y="272"><tspan></tspan></text>
				<text freecad:editable="FC-DATE" x="160" y="284"><tspan>17.01.2020</tspan></text>
				<text freecad:editable="FC-REV" x="190" y="284"><tspan>REV A</tspan></text>
			</g>
			<!-- Set display:none to hide FreeCAD Logo -->
			<g
				style="display:inline"
				id="freecad-logo"
				transform="translate(128.5,276)"
				fill-rule="evenodd"
				stroke="#000"
				stroke-width="0.35"
				fill="none">
					<path d="m0.1524 0.15254v8.8549h1.9744v-3.4652h1.396v-1.3661h-1.396v-1.4745h3.4391v-2.5441l-5.4135-0.005z"/>
					<path d="m7.7927 3.4504-0.50715-0.176-0.48387-1.2366-0.76115 0.04-0.34718 1.2787-0.4859 0.23269-1.2119-0.53015-0.51188 0.56882 0.65892 1.1485-0.18006 0.50567-1.2366 0.48387 0.044064 0.76263 1.2787 0.34718 0.23269 0.4859-0.53421 1.2104 0.56882 0.51188 1.1485-0.65891 0.50973 0.18155 0.4798 1.2351 0.7667-0.04258 0.34311-1.2802 0.4859-0.23269 1.2145 0.5357 0.51188-0.56882-0.65891-1.1485 0.17748-0.51122 1.2351-0.4798-0.03851-0.76521-1.2802-0.34311-0.23269-0.4859 0.53163-1.216-0.56881-0.51184zm-0.5715 1.2244 0.23576 0.13679 0.20426 0.18519 0.16353 0.22101 0.11763 0.24572 0.06916 0.26489 0.01146 0.27146-0.03921 0.27139-0.08948 0.25764-0.14234 0.23834-0.17964 0.20167-0.22101 0.16353-0.24572 0.11763-0.26489 0.06916-0.27295 0.01553-0.2719-0.04-0.2576-0.089-0.2383-0.143-0.2002-0.183-0.165-0.217-0.1177-0.246-0.0676-0.269-0.0156-0.273 0.039206-0.2714 0.089484-0.25764 0.14085-0.23427 0.18113-0.20574 0.22101-0.16352 0.24572-0.11763 0.26895-0.06768 0.27147-0.01146 0.27139 0.03921 0.25764 0.08948z"/>
			</g>
		</g>
	</g>
<g id="View"
   transform="rotate(0,120,100) translate(120,100) scale(0.25,0.25)"
  >
<g   fill="none"
   stroke="rgb(0, 0, 0)"
   stroke-linecap="butt"
   stroke-linejoin="miter"
   stroke-width="1.400000"
   transform="scale(1,-1)"
  >
<path id= "1" d=" M -215.177 -236.35 L -217.377 -236.35 " />
<path id= "2" d=" M -217.377 -236.35 L -220.647 -233.08 " />
<path d="M-220.117 -231.8 A0.75 0.75 0 0 1 -220.647 -233.08" /><path id= "4" d=" M -220.117 -231.8 L -217.5 -231.8 " />
<path id= "5" d=" M -217.5 -230.5 L -217.5 -231.8 " />
<path d="M-217.5 -230.5 A0.5 0.5 0 0 1 -218 -230" /><path id= "7" d=" M -218 -230 L -223 -230 " />
<path d="M-223 -230 A2 2 0 0 1 -225 -232" /><path id= "9" d=" M -225 -232 L -225 -237 " />
<path d="M-225 -237 A0.5 0.5 0 0 1 -224.5 -237.5" /><path id= "11" d=" M -224.5 -237.5 L -223.2 -237.5 " />
<path id= "12" d=" M -223.2 -237.5 L -223.2 -234.883 " />
<path d="M-221.92 -234.353 A0.75 0.75 0 0 1 -223.2 -234.883" /><path id= "14" d=" M -221.92 -234.353 L -218.65 -237.623 " />
<path id= "15" d=" M -218.65 -237.623 L -218.65 -239.823 " />
<path id= "16" d=" M -218.65 -239.823 L -218.45 -240 " />
<path id= "17" d=" M -218.65 -240.177 L -218.45 -240 " />
<path id= "18" d=" M -218.65 -242.377 L -218.65 -240.177 " />
<path id= "19" d=" M -221.92 -245.647 L -218.65 -242.377 " />
<path d="M-223.2 -245.117 A0.75 0.75 0 0 1 -221.92 -245.647" /><path id= "21" d=" M -223.2 -242.5 L -223.2 -245.117 " />
<path id= "22" d=" M -224.5 -242.5 L -223.2 -242.5 " />
<path d="M-224.5 -242.5 A0.5 0.5 0 0 1 -225 -243" /><path id= "24" d=" M -225 -248 L -225 -243 " />
<path d="M-225 -248 A2 2 0 0 1 -223 -250" /><path id= "26" d=" M -218 -250 L -223 -250 " />
<path d="M-218 -250 A0.5 0.5 0 0 1 -217.5 -249.5" /><path id= "28" d=" M -217.5 -249.5 L -217.5 -248.2 " />
<path id= "29" d=" M -220.117 -248.2 L -217.5 -248.2 " />
<path d="M-220.647 -246.92 A0.75 0.75 0 0 1 -220.117 -248.2" /><path id= "31" d=" M -217.377 -243.65 L -220.647 -246.92 " />
<path id= "32" d=" M -215.177 -243.65 L -217.377 -243.65 " />
<path id= "33" d=" M -215.177 -243.65 L -215 -243.45 " />
<path id= "34" d=" M -214.823 -243.65 L -215 -243.45 " />
<path id= "35" d=" M -214.823 -243.65 L -212.623 -243.65 " />
<path id= "36" d=" M -212.623 -243.65 L -209.353 -246.92 " />
<path d="M-209.883 -248.2 A0.75 0.75 0 0 1 -209.353 -246.92" /><path id= "38" d=" M -209.883 -248.2 L -212.5 -248.2 " />
<path id= "39" d=" M -212.5 -249.5 L -212.5 -248.2 " />
<path d="M-212.5 -249.5 A0.5 0.5 0 0 1 -212 -250" /><path id= "41" d=" M -212 -250 L -207 -250 " />
<path d="M-207 -250 A2 2 0 0 1 -205 -248" /><path id= "43" d=" M -205 -248 L -205 -243 " />
<path d="M-205 -243 A0.5 0.5 0 0 1 -205.5 -242.5" /><path id= "45" d=" M -205.5 -242.5 L -206.8 -242.5 " />
<path id= "46" d=" M -206.8 -242.5 L -206.8 -245.117 " />
<path d="M-208.08 -245.647 A0.75 0.75 0 0 1 -206.8 -245.117" /><path id= "48" d=" M -208.08 -245.647 L -211.35 -242.377 " />
<path id= "49" d=" M -211.35 -242.377 L -211.35 -240.177 " />
<path id= "50" d=" M -211.35 -240.177 L -211.55 -240 " />
<path id= "51" d=" M -211.35 -239.823 L -211.55 -240 " />
<path id= "52" d=" M -211.35 -237.623 L -211.35 -239.823 " />
<path id= "53" d=" M -208.08 -234.353 L -211.35 -237.623 " />
<path d="M-206.8 -234.883 A0.75 0.75 0 0 1 -208.08 -234.353" /><path id= "55" d=" M -206.8 -237.5 L -206.8 -234.883 " />
<path id= "56" d=" M -205.5 -237.5 L -206.8 -237.5 " />
<path d="M-205.5 -237.5 A0.5 0.5 0 0 1 -205 -237" /><path id= "58" d=" M -205 -232 L -205 -237 " />
<path d="M-205 -232 A2 2 0 0 1 -207 -230" /><path id= "60" d=" M -212 -230 L -207 -230 " />
<path d="M-212 -230 A0.5 0.5 0 0 1 -212.5 -230.5" /><path id= "62" d=" M -212.5 -230.5 L -212.5 -231.8 " />
<path id= "63" d=" M -209.883 -231.8 L -212.5 -231.8 " />
<path d="M-209.353 -233.08 A0.75 0.75 0 0 1 -209.883 -231.8" /><path id= "65" d=" M -212.623 -236.35 L -209.353 -233.08 " />
<path id= "66" d=" M -214.823 -236.35 L -212.623 -236.35 " />
<path id= "67" d=" M -214.823 -236.35 L -215 -236.55 " />
<path id= "68" d=" M -215.177 -236.35 L -215 -236.55 " />
<path d="M-212.85 -240 A2.15 2.15 0 0 1 -215 -237.85" /><path d="M-215 -242.15 A2.15 2.15 0 0 1 -212.85 -240" /><path d="M-217.15 -240 A2.15 2.15 0 0 1 -215 -242.15" /><path d="M-215 -237.85 A2.15 2.15 0 0 1 -217.15 -240" /><path id= "73" d=" M -215.177 218.65 L -217.377 218.65 " />
<path id= "74" d=" M -217.377 218.65 L -220.647 221.92 " />
<path d="M-220.117 223.2 A0.75 0.75 0 0 1 -220.647 221.92" /><path id= "76" d=" M -220.117 223.2 L -217.5 223.2 " />
<path id= "77" d=" M -217.5 224.5 L -217.5 223.2 " />
<path d="M-217.5 224.5 A0.5 0.5 0 0 1 -218 225" /><path id= "79" d=" M -218 225 L -223 225 " />
<path d="M-223 225 A2 2 0 0 1 -225 223" /><path id= "81" d=" M -225 223 L -225 218 " />
<path d="M-225 218 A0.5 0.5 0 0 1 -224.5 217.5" /><path id= "83" d=" M -224.5 217.5 L -223.2 217.5 " />
<path id= "84" d=" M -223.2 217.5 L -223.2 220.117 " />
<path d="M-221.92 220.647 A0.75 0.75 0 0 1 -223.2 220.117" /><path id= "86" d=" M -221.92 220.647 L -218.65 217.377 " />
<path id= "87" d=" M -218.65 217.377 L -218.65 215.177 " />
<path id= "88" d=" M -218.65 215.177 L -218.45 215 " />
<path id= "89" d=" M -218.65 214.823 L -218.45 215 " />
<path id= "90" d=" M -218.65 212.623 L -218.65 214.823 " />
<path id= "91" d=" M -221.92 209.353 L -218.65 212.623 " />
<path d="M-223.2 209.883 A0.75 0.75 0 0 1 -221.92 209.353" /><path id= "93" d=" M -223.2 212.5 L -223.2 209.883 " />
<path id= "94" d=" M -224.5 212.5 L -223.2 212.5 " />
<path d="M-224.5 212.5 A0.5 0.5 0 0 1 -225 212" /><path id= "96" d=" M -225 207 L -225 212 " />
<path d="M-225 207 A2 2 0 0 1 -223 205" /><path id= "98" d=" M -218 205 L -223 205 " />
<path d="M-218 205 A0.5 0.5 0 0 1 -217.5 205.5" /><path id= "100" d=" M -217.5 205.5 L -217.5 206.8 " />
<path id= "101" d=" M -220.117 206.8 L -217.5 206.8 " />
<path d="M-220.647 208.08 A0.75 0.75 0 0 1 -220.117 206.8" /><path id= "103" d=" M -217.377 211.35 L -220.647 208.08 " />
<path id= "104" d=" M -215.177 211.35 L -217.377 211.35 " />
<path id= "105" d=" M -215.177 211.35 L -215 211.55 " />
<path id= "106" d=" M -214.823 211.35 L -215 211.55 " />
<path id= "107" d=" M -214.823 211.35 L -212.623 211.35 " />
<path id= "108" d=" M -212.623 211.35 L -209.353 208.08 " />
<path d="M-209.883 206.8 A0.75 0.75 0 0 1 -209.353 208.08" /><path id= "110" d=" M -209.883 206.8 L -212.5 206.8 " />
<path id= "111" d=" M -212.5 205.5 L -212.5 206.8 " />
<path d="M-212.5 205.5 A0.5 0.5 0 0 1 -212 205" /><path id= "113" d=" M -212 205 L -207 205 " />
<path d="M-207 205 A2 2 0 0 1 -205 207" /><path id= "115" d=" M -205 207 L -205 212 " />
<path d="M-205 212 A0.5 0.5 0 0 1 -205.5 212.5" /><path id= "117" d=" M -205.5 212.5 L -206.8 212.5 " />
<path id= "118" d=" M -206.8 212.5 L -206.8 209.883 " />
<path d="M-208.08 209.353 A0.75 0.75 0 0 1 -206.8 209.883" /><path id= "120" d=" M -208.08 209.353 L -211.35 212.623 " />
<path id= "121" d=" M -211.35 212.623 L -211.35 214.823 " />
<path id= "122" d=" M -211.35 214.823 L -211.55 215 " />
<path id= "123" d=" M -211.35 215.177 L -211.55 215 " />
<path id= "124" d=" M -211.35 217.377 L -211.35 215.177 " />
<path id= "125" d=" M -208.08 220.647 L -211.35 217.377 " />
<path d="M-206.8 220.117 A0.75 0.75 0 0 1 -208.08 220.647" /><path id= "127" d=" M -206.8 217.5 L -206.8 220.117 " />
<path id= "128" d=" M -205.5 217.5 L -206.8 217.5 " />
<path d="M-205.5 217.5 A0.5 0.5 0 0 1 -205 218" /><path id= "130" d=" M -205 223 L -205 218 " />
<path d="M-205 223 A2 2 0 0 1 -207 225" /><path id= "132" d=" M -212 225 L -207 225 " />
<path d="M-212 225 A0.5 0.5 0 0 1 -212.5 224.5" /><path id= "134" d=" M -212.5 224.5 L -212.5 223.2 " />
<path id= "135" d=" M -209.883 223.2 L -212.5 223.2 " />
<path d="M-209.353 221.92 A0.75 0.75 0 0 1 -209.883 223.2" /><path id= "137" d=" M -212.623 218.65 L -209.353 221.92 " />
<path id= "138" d=" M -214.823 218.65 L -212.623 218.65 " />
<path id= "139" d=" M -214.823 218.65 L -215 218.45 " />
<path id= "140" d=" M -215.177 218.65 L -215 218.45 " />
<path d="M-212.85 215 A2.15 2.15 0 0 1 -215 217.15" /><path d="M-215 212.85 A2.15 2.15 0 0 1 -212.85 215" /><path d="M-217.15 215 A2.15 2.15 0 0 1 -215 212.85" /><path d="M-215 217.15 A2.15 2.15 0 0 1 -217.15 215" /><path id= "145" d=" M 144.823 218.65 L 142.623 218.65 " />
<path id= "146" d=" M 142.623 218.65 L 139.353 221.92 " />
<path d="M139.883 223.2 A0.75 0.75 0 0 1 139.353 221.92" /><path id= "148" d=" M 139.883 223.2 L 142.5 223.2 " />
<path id= "149" d=" M 142.5 224.5 L 142.5 223.2 " />
<path d="M142.5 224.5 A0.5 0.5 0 0 1 142 225" /><path id= "151" d=" M 142 225 L 137 225 " />
<path d="M137 225 A2 2 0 0 1 135 223" /><path id= "153" d=" M 135 223 L 135 218 " />
<path d="M135 218 A0.5 0.5 0 0 1 135.5 217.5" /><path id= "155" d=" M 135.5 217.5 L 136.8 217.5 " />
<path id= "156" d=" M 136.8 217.5 L 136.8 220.117 " />
<path d="M138.08 220.647 A0.75 0.75 0 0 1 136.8 220.117" /><path id= "158" d=" M 138.08 220.647 L 141.35 217.377 " />
<path id= "159" d=" M 141.35 217.377 L 141.35 215.177 " />
<path id= "160" d=" M 141.35 215.177 L 141.55 215 " />
<path id= "161" d=" M 141.35 214.823 L 141.55 215 " />
<path id= "162" d=" M 141.35 212.623 L 141.35 214.823 " />
<path id= "163" d=" M 138.08 209.353 L 141.35 212.623 " />
<path d="M136.8 209.883 A0.75 0.75 0 0 1 138.08 209.353" /><path id= "165" d=" M 136.8 212.5 L 136.8 209.883 " />
<path id= "166" d=" M 135.5 212.5 L 136.8 212.5 " />
<path d="M135.5 212.5 A0.5 0.5 0 0 1 135 212" /><path id= "168" d=" M 135 207 L 135 212 " />
<path d="M135 207 A2 2 0 0 1 137 205" /><path id= "170" d=" M 142 205 L 137 205 " />
<path d="M142 205 A0.5 0.5 0 0 1 142.5 205.5" /><path id= "172" d=" M 142.5 205.5 L 142.5 206.8 " />
<path id= "173" d=" M 139.883 206.8 L 142.5 206.8 " />
<path d="M139.353 208.08 A0.75 0.75 0 0 1 139.883 206.8" /><path id= "175" d=" M 142.623 211.35 L 139.353 208.08 " />
<path id= "176" d=" M 144.823 211.35 L 142.623 211.35 " />
<path id= "177" d=" M 144.823 211.35 L 145 211.55 " />
<path id= "178" d=" M 145.177 211.35 L 145 211.55 " />
<path id= "179" d=" M 145.177 211.35 L 147.377 211.35 " />
<path id= "180" d=" M 147.377 211.35 L 150.647 208.08 " />
<path d="M150.117 206.8 A0.75 0.75 0 0 1 150.647 208.08" /><path id= "182" d=" M 150.117 206.8 L 147.5 206.8 " />
<path id= "183" d=" M 147.5 205.5 L 147.5 206.8 " />
<path d="M147.5 205.5 A0.5 0.5 0 0 1 148 205" /><path id= "185" d=" M 148 205 L 153 205 " />
<path d="M153 205 A2 2 0 0 1 155 207" /><path id= "187" d=" M 155 207 L 155 212 " />
<path d="M155 212 A0.5 0.5 0 0 1 154.5 212.5" /><path id= "189" d=" M 154.5 212.5 L 153.2 212.5 " />
<path id= "190" d=" M 153.2 212.5 L 153.2 209.883 " />
<path d="M151.92 209.353 A0.75 0.75 0 0 1 153.2 209.883" /><path id= "192" d=" M 151.92 209.353 L 148.65 212.623 " />
<path id= "193" d=" M 148.65 212.623 L 148.65 214.823 " />
<path id= "194" d=" M 148.65 214.823 L 148.45 215 " />
<path id= "195" d=" M 148.65 215.177 L 148.45 215 " />
<path id= "196" d=" M 148.65 217.377 L 148.65 215.177 " />
<path id= "197" d=" M 151.92 220.647 L 148.65 217.377 " />
<path d="M153.2 220.117 A0.75 0.75 0 0 1 151.92 220.647" /><path id= "199" d=" M 153.2 217.5 L 153.2 220.117 " />
<path id= "200" d=" M 154.5 217.5 L 153.2 217.5 " />
<path d="M154.5 217.5 A0.5 0.5 0 0 1 155 218" /><path id= "202" d=" M 155 223 L 155 218 " />
<path d="M155 223 A2 2 0 0 1 153 225" /><path id= "204" d=" M 148 225 L 153 225 " />
<path d="M148 225 A0.5 0.5 0 0 1 147.5 224.5" /><path id= "206" d=" M 147.5 224.5 L 147.5 223.2 " />
<path id= "207" d=" M 150.117 223.2 L 147.5 223.2 " />
<path d="M150.647 221.92 A0.75 0.75 0 0 1 150.117 223.2" /><path id= "209" d=" M 147.377 218.65 L 150.647 221.92 " />
<path id= "210" d=" M 145.177 218.65 L 147.377 218.65 " />
<path id= "211" d=" M 145.177 218.65 L 145 218.45 " />
<path id= "212" d=" M 144.823 218.65 L 145 218.45 " />
<path d="M147.15 215 A2.15 2.15 0 0 1 145 217.15" /><path d="M145 212.85 A2.15 2.15 0 0 1 147.15 215" /><path d="M142.85 215 A2.15 2.15 0 0 1 145 212.85" /><path d="M145 217.15 A2.15 2.15 0 0 1 142.85 215" /><path id= "217" d=" M 144.823 -61.35 L 142.623 -61.35 " />
<path id= "218" d=" M 142.623 -61.35 L 139.353 -58.0803 " />
<path d="M139.883 -56.8 A0.75 0.75 0 0 1 139.353 -58.0803" /><path id= "220" d=" M 139.883 -56.8 L 142.5 -56.8 " />
<path id= "221" d=" M 142.5 -55.5 L 142.5 -56.8 " />
<path d="M142.5 -55.5 A0.5 0.5 0 0 1 142 -55" /><path id= "223" d=" M 142 -55 L 137 -55 " />
<path d="M137 -55 A2 2 0 0 1 135 -57" /><path id= "225" d=" M 135 -57 L 135 -62 " />
<path d="M135 -62 A0.5 0.5 0 0 1 135.5 -62.5" /><path id= "227" d=" M 135.5 -62.5 L 136.8 -62.5 " />
<path id= "228" d=" M 136.8 -62.5 L 136.8 -59.8835 " />
<path d="M138.08 -59.3531 A0.75 0.75 0 0 1 136.8 -59.8835" /><path id= "230" d=" M 138.08 -59.3531 L 141.35 -62.6228 " />
<path id= "231" d=" M 141.35 -62.6228 L 141.35 -64.8228 " />
<path id= "232" d=" M 141.35 -64.8228 L 141.55 -65 " />
<path id= "233" d=" M 141.35 -65.1772 L 141.55 -65 " />
<path id= "234" d=" M 141.35 -67.3772 L 141.35 -65.1772 " />
<path id= "235" d=" M 138.08 -70.6469 L 141.35 -67.3772 " />
<path d="M136.8 -70.1165 A0.75 0.75 0 0 1 138.08 -70.6469" /><path id= "237" d=" M 136.8 -67.5 L 136.8 -70.1165 " />
<path id= "238" d=" M 135.5 -67.5 L 136.8 -67.5 " />
<path d="M135.5 -67.5 A0.5 0.5 0 0 1 135 -68" /><path id= "240" d=" M 135 -73 L 135 -68 " />
<path d="M135 -73 A2 2 0 0 1 137 -75" /><path id= "242" d=" M 142 -75 L 137 -75 " />
<path d="M142 -75 A0.5 0.5 0 0 1 142.5 -74.5" /><path id= "244" d=" M 142.5 -74.5 L 142.5 -73.2 " />
<path id= "245" d=" M 139.883 -73.2 L 142.5 -73.2 " />
<path d="M139.353 -71.9197 A0.75 0.75 0 0 1 139.883 -73.2" /><path id= "247" d=" M 142.623 -68.65 L 139.353 -71.9197 " />
<path id= "248" d=" M 144.823 -68.65 L 142.623 -68.65 " />
<path id= "249" d=" M 144.823 -68.65 L 145 -68.45 " />
<path id= "250" d=" M 145.177 -68.65 L 145 -68.45 " />
<path id= "251" d=" M 145.177 -68.65 L 147.377 -68.65 " />
<path id= "252" d=" M 147.377 -68.65 L 150.647 -71.9197 " />
<path d="M150.117 -73.2 A0.75 0.75 0 0 1 150.647 -71.9197" /><path id= "254" d=" M 150.117 -73.2 L 147.5 -73.2 " />
<path id= "255" d=" M 147.5 -74.5 L 147.5 -73.2 " />
<path d="M147.5 -74.5 A0.5 0.5 0 0 1 148 -75" /><path id= "257" d=" M 148 -75 L 153 -75 " />
<path d="M153 -75 A2 2 0 0 1 155 -73" /><path id= "259" d=" M 155 -73 L 155 -68 " />
<path d="M155 -68 A0.5 0.5 0 0 1 154.5 -67.5" /><path id= "261" d=" M 154.5 -67.5 L 153.2 -67.5 " />
<path id= "262" d=" M 153.2 -67.5 L 153.2 -70.1165 " />
<path d="M151.92 -70.6469 A0.75 0.75 0 0 1 153.2 -70.1165" /><path id= "264" d=" M 151.92 -70.6469 L 148.65 -67.3772 " />
<path id= "265" d=" M 148.65 -67.3772 L 148.65 -65.1772 " />
<path id= "266" d=" M 148.65 -65.1772 L 148.45 -65 " />
<path id= "267" d=" M 148.65 -64.8228 L 148.45 -65 " />
<path id= "268" d=" M 148.65 -62.6228 L 148.65 -64.8228 " />
<path id= "269" d=" M 151.92 -59.3531 L 148.65 -62.6228 " />
<path d="M153.2 -59.8835 A0.75 0.75 0 0 1 151.92 -59.3531" /><path id= "271" d=" M 153.2 -62.5 L 153.2 -59.8835 " />
<path id= "272" d=" M 154.5 -62.5 L 153.2 -62.5 " />
<path d="M154.5 -62.5 A0.5 0.5 0 0 1 155 -62" /><path id= "274" d=" M 155 -57 L 155 -62 " />
<path d="M155 -57 A2 2 0 0 1 153 -55" /><path id= "276" d=" M 148 -55 L 153 -55 " />
<path d="M148 -55 A0.5 0.5 0 0 1 147.5 -55.5" /><path id= "278" d=" M 147.5 -55.5 L 147.5 -56.8 " />
<path id= "279" d=" M 150.117 -56.8 L 147.5 -56.8 " />
<path d="M150.647 -58.0803 A0.75 0.75 0 0 1 150.117 -56.8" /><path id= "281" d=" M 147.377 -61.35 L 150.647 -58.0803 " />
<path id= "282" d=" M 145.177 -61.35 L 147.377 -61.35 " />
<path id= "283" d=" M 145.177 -61.35 L 145 -61.55 " />
<path id= "284" d=" M 144.823 -61.35 L 145 -61.55 " />
<path d="M147.15 -65 A2.15 2.15 0 0 1 145 -62.85" /><path d="M145 -67.15 A2.15 2.15 0 0 1 147.15 -65" /><path d="M142.85 -65 A2.15 2.15 0 0 1 145 -67.15" /><path d="M145 -62.85 A2.15 2.15 0 0 1 142.85 -65" /></g>
</g>



<g id="View004"
   transform="rotate(0,120,100) translate(120,100) scale(0.25,0.25)"
  >
<g   fill="none"
   stroke="rgb(0, 0, 0)"
   stroke-linecap="butt"
   stroke-linejoin="miter"
   stroke-width="1.400000"
   transform="scale(1,-1)"
  >
<path id= "1" d=" M -205 225 L 135 225 " />
<path id= "2" d=" M -205 225 L 135 225 " />
<path d="M-205,225 Q-205,224.994 -205,224.987  Q-205,224.969 -205,224.95  Q-205,224.919 -205,224.888  Q-205,224.845 -205,224.802  Q-205,224.748 -205,224.693  Q-205,224.629 -205,224.564  Q-205,224.489 -205,224.414  Q-205,224.331 -205,224.247  Q-205,224.156 -205,224.064  Q-205,223.966 -205,223.868  Q-205,223.764 -205,223.661  Q-205,223.553 -205,223.445  Q-205,223.225 -205,223 " /><path d="M135,225 Q135,224.994 135,224.987  Q135,224.969 135,224.95  Q135,224.919 135,224.888  Q135,224.845 135,224.802  Q135,224.748 135,224.693  Q135,224.629 135,224.564  Q135,224.489 135,224.414  Q135,224.331 135,224.247  Q135,224.156 135,224.064  Q135,223.966 135,223.868  Q135,223.764 135,223.661  Q135,223.553 135,223.445  Q135,223.225 135,223 " /><path id= "5" d=" M -205 223 L -205 218 " />
<path id= "6" d=" M 135 223 L 135 218 " />
<path id= "7" d=" M -205 217.5 L 135 217.5 " />
<path d="M-205,218 C-205,217.869 -205,217.74 -205,217.646  C-205,217.554 -205,217.5 -205,217.5 " /><path d="M135,218 C135,217.869 135,217.74 135,217.646  C135,217.554 135,217.5 135,217.5 " /><path id= "10" d=" M -205 217.377 L 135 217.377 " />
<path id= "11" d=" M -205 217.5 L -205 217.377 " />
<path id= "12" d=" M 135 217.5 L 135 217.377 " />
<path id= "13" d=" M -205 215.177 L 135 215.177 " />
<path id= "14" d=" M -205 217.377 L -205 215.177 " />
<path id= "15" d=" M 135 217.377 L 135 215.177 " />
<path id= "16" d=" M -205 215 L 135 215 " />
<path id= "17" d=" M -205 215.177 L -205 215 " />
<path id= "18" d=" M 135 215.177 L 135 215 " />
<path id= "19" d=" M -205 214.823 L 135 214.823 " />
<path id= "20" d=" M -205 214.823 L -205 215 " />
<path id= "21" d=" M 135 214.823 L 135 215 " />
<path id= "22" d=" M -205 212.623 L 135 212.623 " />
<path id= "23" d=" M -205 212.623 L -205 214.823 " />
<path id= "24" d=" M 135 212.623 L 135 214.823 " />
<path id= "25" d=" M -205 212.5 L -205 212.623 " />
<path id= "26" d=" M 135 212.5 L 135 212.623 " />
<path id= "27" d=" M -205 212.5 L 135 212.5 " />
<path d="M-205,212.5 C-205,212.5 -205,212.446 -205,212.354  C-205,212.26 -205,212.131 -205,212 " /><path d="M135,212.5 C135,212.5 135,212.446 135,212.354  C135,212.26 135,212.131 135,212 " /><path id= "30" d=" M -205 207 L -205 212 " />
<path id= "31" d=" M 135 207 L 135 212 " />
<path id= "32" d=" M -205 205 L 135 205 " />
<path d="M-205,207 C-205,206.775 -205,206.553 -205,206.339  C-205,206.27 -205,206.201 -205,206.132  C-205,206.067 -205,206.001 -205,205.936  C-205,205.875 -205,205.814 -205,205.753  C-205,205.697 -205,205.642 -205,205.586  C-205,205.536 -205,205.486 -205,205.436  C-205,205.393 -205,205.35 -205,205.307  C-205,205.27 -205,205.234 -205,205.198  C-205,205.169 -205,205.141 -205,205.112  C-205,205.092 -205,205.071 -205,205.05  C-205,205.038 -205,205.025 -205,205.013  C-205,205.008 -205,205.004 -205,205 " /><path d="M135,207 C135,206.775 135,206.553 135,206.339  C135,206.27 135,206.201 135,206.132  C135,206.067 135,206.001 135,205.936  C135,205.875 135,205.814 135,205.753  C135,205.697 135,205.642 135,205.586  C135,205.536 135,205.486 135,205.436  C135,205.393 135,205.35 135,205.307  C135,205.27 135,205.234 135,205.198  C135,205.169 135,205.141 135,205.112  C135,205.092 135,205.071 135,205.05  C135,205.038 135,205.025 135,205.013  C135,205.008 135,205.004 135,205 " /><path id= "35" d=" M -205 225 L 135 225 " />
<path id= "36" d=" M -205 225 L 135 225 " />
<path id= "37" d=" M 35 -250 L -205 -250 " />
<path id= "38" d=" M 35 -250 L -205 -250 " />
<path d="M35,-250 Q35,-249.994 35,-249.987  Q35,-249.969 35,-249.95  Q35,-249.919 35,-249.888  Q35,-249.845 35,-249.802  Q35,-249.748 35,-249.693  Q35,-249.629 35,-249.564  Q35,-249.489 35,-249.414  Q35,-249.331 35,-249.247  Q35,-249.156 35,-249.064  Q35,-248.966 35,-248.868  Q35,-248.764 35,-248.661  Q35,-248.553 35,-248.445  Q35,-248.225 35,-248 " /><path d="M-205,-250 Q-205,-249.994 -205,-249.987  Q-205,-249.969 -205,-249.95  Q-205,-249.919 -205,-249.888  Q-205,-249.845 -205,-249.802  Q-205,-249.748 -205,-249.693  Q-205,-249.629 -205,-249.564  Q-205,-249.489 -205,-249.414  Q-205,-249.331 -205,-249.247  Q-205,-249.156 -205,-249.064  Q-205,-248.966 -205,-248.868  Q-205,-248.764 -205,-248.661  Q-205,-248.553 -205,-248.445  Q-205,-248.225 -205,-248 " /><path id= "41" d=" M 35 -248 L 35 -243 " />
<path id= "42" d=" M -205 -248 L -205 -243 " />
<path id= "43" d=" M 35 -242.5 L -205 -242.5 " />
<path d="M35,-243 C35,-242.869 35,-242.74 35,-242.646  C35,-242.554 35,-242.5 35,-242.5 " /><path d="M-205,-243 C-205,-242.869 -205,-242.74 -205,-242.646  C-205,-242.554 -205,-242.5 -205,-242.5 " /><path id= "46" d=" M 35 -242.377 L -205 -242.377 " />
<path id= "47" d=" M 35 -242.5 L 35 -242.377 " />
<path id= "48" d=" M -205 -242.5 L -205 -242.377 " />
<path id= "49" d=" M 35 -240.177 L -205 -240.177 " />
<path id= "50" d=" M 35 -242.377 L 35 -240.177 " />
<path id= "51" d=" M -205 -242.377 L -205 -240.177 " />
<path id= "52" d=" M 35 -240 L -205 -240 " />
<path id= "53" d=" M 35 -240.177 L 35 -240 " />
<path id= "54" d=" M -205 -240.177 L -205 -240 " />
<path id= "55" d=" M 35 -239.823 L -205 -239.823 " />
<path id= "56" d=" M 35 -239.823 L 35 -240 " />
<path id= "57" d=" M -205 -239.823 L -205 -240 " />
<path id= "58" d=" M 35 -237.623 L -205 -237.623 " />
<path id= "59" d=" M 35 -237.623 L 35 -239.823 " />
<path id= "60" d=" M -205 -237.623 L -205 -239.823 " />
<path id= "61" d=" M 35 -237.5 L 35 -237.623 " />
<path id= "62" d=" M -205 -237.5 L -205 -237.623 " />
<path id= "63" d=" M 35 -237.5 L -205 -237.5 " />
<path d="M35,-237.5 C35,-237.5 35,-237.446 35,-237.354  C35,-237.26 35,-237.131 35,-237 " /><path d="M-205,-237.5 C-205,-237.5 -205,-237.446 -205,-237.354  C-205,-237.26 -205,-237.131 -205,-237 " /><path id= "66" d=" M 35 -232 L 35 -237 " />
<path id= "67" d=" M -205 -232 L -205 -237 " />
<path id= "68" d=" M 27.5 -230 L 22.5 -230 " />
<path id= "69" d=" M 17 -230 L -205 -230 " />
<path d="M35,-232 C35,-231.775 35,-231.553 35,-231.339  C35,-231.27 35,-231.201 35,-231.132  C35,-231.067 35,-231.001 35,-230.936  C35,-230.875 35,-230.814 35,-230.753  C35,-230.697 35,-230.642 35,-230.586  C35,-230.536 35,-230.486 35,-230.436  C35,-230.393 35,-230.35 35,-230.307  C35,-230.27 35,-230.234 35,-230.198  C35,-230.169 35,-230.141 35,-230.112  C35,-230.092 35,-230.071 35,-230.05  C35,-230.038 35,-230.025 35,-230.013  C35,-230.008 35,-230.004 35,-230 " /><path d="M-205,-232 C-205,-231.775 -205,-231.553 -205,-231.339  C-205,-231.27 -205,-231.201 -205,-231.132  C-205,-231.067 -205,-231.001 -205,-230.936  C-205,-230.875 -205,-230.814 -205,-230.753  C-205,-230.697 -205,-230.642 -205,-230.586  C-205,-230.536 -205,-230.486 -205,-230.436  C-205,-230.393 -205,-230.35 -205,-230.307  C-205,-230.27 -205,-230.234 -205,-230.198  C-205,-230.169 -205,-230.141 -205,-230.112  C-205,-230.092 -205,-230.071 -205,-230.05  C-205,-230.038 -205,-230.025 -205,-230.013  C-205,-230.008 -205,-230.004 -205,-230 " /><path id= "72" d=" M 35 -250 L -205 -250 " />
<path id= "73" d=" M 35 -250 L -205 -250 " />
<path id= "74" d=" M -205 -55 L 135 -55 " />
<path id= "75" d=" M -205 -55 L 135 -55 " />
<path d="M-205,-55 Q-205,-55.0063 -205,-55.0126  Q-205,-55.0314 -205,-55.0501  Q-205,-55.0812 -205,-55.1122  Q-205,-55.1551 -205,-55.1981  Q-205,-55.2523 -205,-55.3066  Q-205,-55.3714 -205,-55.4363  Q-205,-55.5111 -205,-55.5858  Q-205,-55.6694 -205,-55.753  Q-205,-55.8445 -205,-55.9359  Q-205,-56.0341 -205,-56.1322  Q-205,-56.2358 -205,-56.3394  Q-205,-56.4472 -205,-56.555  Q-205,-56.7753 -205,-57 " /><path d="M135,-55 Q135,-55.0063 135,-55.0126  Q135,-55.0314 135,-55.0501  Q135,-55.0812 135,-55.1122  Q135,-55.1551 135,-55.1981  Q135,-55.2523 135,-55.3066  Q135,-55.3714 135,-55.4363  Q135,-55.5111 135,-55.5858  Q135,-55.6694 135,-55.753  Q135,-55.8445 135,-55.9359  Q135,-56.0341 135,-56.1322  Q135,-56.2358 135,-56.3394  Q135,-56.4472 135,-56.555  Q135,-56.7753 135,-57 " /><path id= "78" d=" M -205 -57 L -205 -62 " />
<path id= "79" d=" M 135 -57 L 135 -62 " />
<path id= "80" d=" M -205 -62.5 L 135 -62.5 " />
<path d="M-205,-62 C-205,-62.1312 -205,-62.2605 -205,-62.3536  C-205,-62.446 -205,-62.4996 -205,-62.5 " /><path d="M135,-62 C135,-62.1312 135,-62.2605 135,-62.3536  C135,-62.446 135,-62.4996 135,-62.5 " /><path id= "83" d=" M -205 -62.6228 L 135 -62.6228 " />
<path id= "84" d=" M 135 -62.5 L 135 -62.6228 " />
<path id= "85" d=" M -205 -64.8228 L 135 -64.8228 " />
<path id= "86" d=" M 135 -62.6228 L 135 -64.8228 " />
<path id= "87" d=" M -205 -65 L 135 -65 " />
<path id= "88" d=" M 135 -64.8228 L 135 -65 " />
<path id= "89" d=" M -205 -65.1772 L 135 -65.1772 " />
<path id= "90" d=" M 135 -65.1772 L 135 -65 " />
<path id= "91" d=" M -205 -67.3772 L 135 -67.3772 " />
<path id= "92" d=" M 135 -67.3772 L 135 -65.1772 " />
<path id= "93" d=" M 135 -67.5 L 135 -67.3772 " />
<path id= "94" d=" M -205 -67.5 L 135 -67.5 " />
<path d="M-205,-67.5 C-205,-67.5004 -205,-67.554 -205,-67.6464  C-205,-67.7395 -205,-67.8688 -205,-68 " /><path d="M135,-67.5 C135,-67.5004 135,-67.554 135,-67.6464  C135,-67.7395 135,-67.8688 135,-68 " /><path id= "97" d=" M -205 -73 L -205 -68 " />
<path id= "98" d=" M 135 -73 L 135 -68 " />
<path id= "99" d=" M -205 -75 L 17 -75 " />
<path id= "100" d=" M 22.5 -75 L 27.5 -75 " />
<path id= "101" d=" M 35 -75 L 135 -75 " />
<path d="M-205,-73 C-205,-73.2247 -205,-73.4473 -205,-73.6606  C-205,-73.7296 -205,-73.7987 -205,-73.8678  C-205,-73.9332 -205,-73.9986 -205,-74.0641  C-205,-74.125 -205,-74.186 -205,-74.247  C-205,-74.3027 -205,-74.3585 -205,-74.4142  C-205,-74.464 -205,-74.5138 -205,-74.5637  C-205,-74.6069 -205,-74.6502 -205,-74.6934  C-205,-74.7296 -205,-74.7658 -205,-74.8019  C-205,-74.8305 -205,-74.8592 -205,-74.8878  C-205,-74.9085 -205,-74.9292 -205,-74.9499  C-205,-74.9624 -205,-74.9749 -205,-74.9874  C-205,-74.9916 -205,-74.9958 -205,-75 " /><path d="M135,-73 C135,-73.2247 135,-73.4473 135,-73.6606  C135,-73.7296 135,-73.7987 135,-73.8678  C135,-73.9332 135,-73.9986 135,-74.0641  C135,-74.125 135,-74.186 135,-74.247  C135,-74.3027 135,-74.3585 135,-74.4142  C135,-74.464 135,-74.5138 135,-74.5637  C135,-74.6069 135,-74.6502 135,-74.6934  C135,-74.7296 135,-74.7658 135,-74.8019  C135,-74.8305 135,-74.8592 135,-74.8878  C135,-74.9085 135,-74.9292 135,-74.9499  C135,-74.9624 135,-74.9749 135,-74.9874  C135,-74.9916 135,-74.9958 135,-75 " /><path id= "104" d=" M -205 -55 L 135 -55 " />
<path id= "105" d=" M -205 -55 L 135 -55 " />
<path id= "106" d=" M -225 -230 L -225 205 " />
<path id= "107" d=" M -225 -230 L -225 205 " />
<path d="M-225,-230 Q-224.994,-230 -224.987,-230  Q-224.969,-230 -224.95,-230  Q-224.919,-230 -224.888,-230  Q-224.845,-230 -224.802,-230  Q-224.748,-230 -224.693,-230  Q-224.629,-230 -224.564,-230  Q-224.489,-230 -224.414,-230  Q-224.331,-230 -224.247,-230  Q-224.156,-230 -224.064,-230  Q-223.966,-230 -223.868,-230  Q-223.764,-230 -223.661,-230  Q-223.553,-230 -223.445,-230  Q-223.225,-230 -223,-230 " /><path d="M-225,205 Q-224.994,205 -224.987,205  Q-224.969,205 -224.95,205  Q-224.919,205 -224.888,205  Q-224.845,205 -224.802,205  Q-224.748,205 -224.693,205  Q-224.629,205 -224.564,205  Q-224.489,205 -224.414,205  Q-224.331,205 -224.247,205  Q-224.156,205 -224.064,205  Q-223.966,205 -223.868,205  Q-223.764,205 -223.661,205  Q-223.553,205 -223.445,205  Q-223.225,205 -223,205 " /><path id= "110" d=" M -223 -230 L -218 -230 " />
<path id= "111" d=" M -223 205 L -218 205 " />
<path id= "112" d=" M -217.5 -230 L -217.5 205 " />
<path d="M-218,-230 C-217.869,-230 -217.74,-230 -217.646,-230  C-217.554,-230 -217.5,-230 -217.5,-230 " /><path d="M-218,205 C-217.869,205 -217.74,205 -217.646,205  C-217.554,205 -217.5,205 -217.5,205 " /><path id= "115" d=" M -217.377 -230 L -217.377 205 " />
<path id= "116" d=" M -217.5 -230 L -217.377 -230 " />
<path id= "117" d=" M -217.5 205 L -217.377 205 " />
<path id= "118" d=" M -215.177 -230 L -215.177 205 " />
<path id= "119" d=" M -217.377 -230 L -215.177 -230 " />
<path id= "120" d=" M -217.377 205 L -215.177 205 " />
<path id= "121" d=" M -215 -230 L -215 205 " />
<path id= "122" d=" M -215.177 -230 L -215 -230 " />
<path id= "123" d=" M -215.177 205 L -215 205 " />
<path id= "124" d=" M -214.823 -230 L -214.823 205 " />
<path id= "125" d=" M -214.823 -230 L -215 -230 " />
<path id= "126" d=" M -214.823 205 L -215 205 " />
<path id= "127" d=" M -212.623 -230 L -212.623 205 " />
<path id= "128" d=" M -212.623 -230 L -214.823 -230 " />
<path id= "129" d=" M -212.623 205 L -214.823 205 " />
<path id= "130" d=" M -212.5 -230 L -212.623 -230 " />
<path id= "131" d=" M -212.5 205 L -212.623 205 " />
<path id= "132" d=" M -212.5 -230 L -212.5 205 " />
<path d="M-212.5,-230 C-212.5,-230 -212.446,-230 -212.354,-230  C-212.26,-230 -212.131,-230 -212,-230 " /><path d="M-212.5,205 C-212.5,205 -212.446,205 -212.354,205  C-212.26,205 -212.131,205 -212,205 " /><path id= "135" d=" M -207 -230 L -212 -230 " />
<path id= "136" d=" M -207 205 L -212 205 " />
<path id= "137" d=" M -205 -230 L -205 -75 " />
<path id= "138" d=" M -205 -67.5 L -205 -62.5 " />
<path id= "139" d=" M -205 -55 L -205 205 " />
<path d="M-207,-230 C-206.775,-230 -206.553,-230 -206.339,-230  C-206.27,-230 -206.201,-230 -206.132,-230  C-206.067,-230 -206.001,-230 -205.936,-230  C-205.875,-230 -205.814,-230 -205.753,-230  C-205.697,-230 -205.642,-230 -205.586,-230  C-205.536,-230 -205.486,-230 -205.436,-230  C-205.393,-230 -205.35,-230 -205.307,-230  C-205.27,-230 -205.234,-230 -205.198,-230  C-205.169,-230 -205.141,-230 -205.112,-230  C-205.092,-230 -205.071,-230 -205.05,-230  C-205.038,-230 -205.025,-230 -205.013,-230  C-205.008,-230 -205.004,-230 -205,-230 " /><path d="M-207,205 C-206.775,205 -206.553,205 -206.339,205  C-206.27,205 -206.201,205 -206.132,205  C-206.067,205 -206.001,205 -205.936,205  C-205.875,205 -205.814,205 -205.753,205  C-205.697,205 -205.642,205 -205.586,205  C-205.536,205 -205.486,205 -205.436,205  C-205.393,205 -205.35,205 -205.307,205  C-205.27,205 -205.234,205 -205.198,205  C-205.169,205 -205.141,205 -205.112,205  C-205.092,205 -205.071,205 -205.05,205  C-205.038,205 -205.025,205 -205.013,205  C-205.008,205 -205.004,205 -205,205 " /><path id= "142" d=" M -225 -230 L -225 205 " />
<path id= "143" d=" M -225 -230 L -225 205 " />
<path id= "144" d=" M 135 -55 L 135 205 " />
<path id= "145" d=" M 135 -55 L 135 205 " />
<path d="M135,-55 Q135.006,-55 135.013,-55  Q135.031,-55 135.05,-55  Q135.081,-55 135.112,-55  Q135.155,-55 135.198,-55  Q135.252,-55 135.307,-55  Q135.371,-55 135.436,-55  Q135.511,-55 135.586,-55  Q135.669,-55 135.753,-55  Q135.844,-55 135.936,-55  Q136.034,-55 136.132,-55  Q136.236,-55 136.339,-55  Q136.447,-55 136.555,-55  Q136.775,-55 137,-55 " /><path d="M135,205 Q135.006,205 135.013,205  Q135.031,205 135.05,205  Q135.081,205 135.112,205  Q135.155,205 135.198,205  Q135.252,205 135.307,205  Q135.371,205 135.436,205  Q135.511,205 135.586,205  Q135.669,205 135.753,205  Q135.844,205 135.936,205  Q136.034,205 136.132,205  Q136.236,205 136.339,205  Q136.447,205 136.555,205  Q136.775,205 137,205 " /><path id= "148" d=" M 137 -55 L 142 -55 " />
<path id= "149" d=" M 137 205 L 142 205 " />
<path id= "150" d=" M 142.5 -55 L 142.5 205 " />
<path d="M142,-55 C142.131,-55 142.26,-55 142.354,-55  C142.446,-55 142.5,-55 142.5,-55 " /><path d="M142,205 C142.131,205 142.26,205 142.354,205  C142.446,205 142.5,205 142.5,205 " /><path id= "153" d=" M 142.623 -55 L 142.623 205 " />
<path id= "154" d=" M 142.5 -55 L 142.623 -55 " />
<path id= "155" d=" M 142.5 205 L 142.623 205 " />
<path id= "156" d=" M 144.823 -55 L 144.823 205 " />
<path id= "157" d=" M 142.623 -55 L 144.823 -55 " />
<path id= "158" d=" M 142.623 205 L 144.823 205 " />
<path id= "159" d=" M 145 -55 L 145 205 " />
<path id= "160" d=" M 144.823 -55 L 145 -55 " />
<path id= "161" d=" M 144.823 205 L 145 205 " />
<path id= "162" d=" M 145.177 -55 L 145.177 205 " />
<path id= "163" d=" M 145.177 -55 L 145 -55 " />
<path id= "164" d=" M 145.177 205 L 145 205 " />
<path id= "165" d=" M 147.377 -55 L 147.377 205 " />
<path id= "166" d=" M 147.377 -55 L 145.177 -55 " />
<path id= "167" d=" M 147.377 205 L 145.177 205 " />
<path id= "168" d=" M 147.5 -55 L 147.377 -55 " />
<path id= "169" d=" M 147.5 205 L 147.377 205 " />
<path id= "170" d=" M 147.5 -55 L 147.5 205 " />
<path d="M147.5,-55 C147.5,-55 147.554,-55 147.646,-55  C147.74,-55 147.869,-55 148,-55 " /><path d="M147.5,205 C147.5,205 147.554,205 147.646,205  C147.74,205 147.869,205 148,205 " /><path id= "173" d=" M 153 -55 L 148 -55 " />
<path id= "174" d=" M 153 205 L 148 205 " />
<path id= "175" d=" M 155 -55 L 155 205 " />
<path d="M153,-55 C153.225,-55 153.447,-55 153.661,-55  C153.73,-55 153.799,-55 153.868,-55  C153.933,-55 153.999,-55 154.064,-55  C154.125,-55 154.186,-55 154.247,-55  C154.303,-55 154.358,-55 154.414,-55  C154.464,-55 154.514,-55 154.564,-55  C154.607,-55 154.65,-55 154.693,-55  C154.73,-55 154.766,-55 154.802,-55  C154.831,-55 154.859,-55 154.888,-55  C154.908,-55 154.929,-55 154.95,-55  C154.962,-55 154.975,-55 154.987,-55  C154.992,-55 154.996,-55 155,-55 " /><path d="M153,205 C153.225,205 153.447,205 153.661,205  C153.73,205 153.799,205 153.868,205  C153.933,205 153.999,205 154.064,205  C154.125,205 154.186,205 154.247,205  C154.303,205 154.358,205 154.414,205  C154.464,205 154.514,205 154.564,205  C154.607,205 154.65,205 154.693,205  C154.73,205 154.766,205 154.802,205  C154.831,205 154.859,205 154.888,205  C154.908,205 154.929,205 154.95,205  C154.962,205 154.975,205 154.987,205  C154.992,205 154.996,205 155,205 " /><path id= "178" d=" M 135 -55 L 135 205 " />
<path id= "179" d=" M 135 -55 L 135 205 " />
<path id= "180" d=" M 15 -230 L 15 -75 " />
<path d="M15,-230 Q15.0063,-230 15.0126,-230  Q15.0314,-230 15.0501,-230  Q15.0812,-230 15.1122,-230  Q15.1551,-230 15.1981,-230  Q15.2523,-230 15.3066,-230  Q15.3714,-230 15.4363,-230  Q15.5111,-230 15.5858,-230  Q15.6694,-230 15.753,-230  Q15.8445,-230 15.9359,-230  Q16.0341,-230 16.1322,-230  Q16.2358,-230 16.3394,-230  Q16.4472,-230 16.555,-230  Q16.7753,-230 17,-230 " /><path d="M15,-75 Q15.0063,-75 15.0126,-75  Q15.0314,-75 15.0501,-75  Q15.0812,-75 15.1122,-75  Q15.1551,-75 15.1981,-75  Q15.2523,-75 15.3066,-75  Q15.3714,-75 15.4363,-75  Q15.5111,-75 15.5858,-75  Q15.6694,-75 15.753,-75  Q15.8445,-75 15.9359,-75  Q16.0341,-75 16.1322,-75  Q16.2358,-75 16.3394,-75  Q16.4472,-75 16.555,-75  Q16.7753,-75 17,-75 " /><path id= "183" d=" M 22 -230 L 17 -230 " />
<path id= "184" d=" M 22 -75 L 17 -75 " />
<path id= "185" d=" M 22.5 -230 L 22.5 -75 " />
<path d="M22,-230 C22.1312,-230 22.2605,-230 22.3536,-230  C22.446,-230 22.4996,-230 22.5,-230 " /><path d="M22,-75 C22.1312,-75 22.2605,-75 22.3536,-75  C22.446,-75 22.4996,-75 22.5,-75 " /><path id= "188" d=" M 22.6228 -230 L 22.6228 -75 " />
<path id= "189" d=" M 24.8228 -230 L 24.8228 -75 " />
<path id= "190" d=" M 25 -230 L 25 -75 " />
<path id= "191" d=" M 25.1772 -230 L 25.1772 -75 " />
<path id= "192" d=" M 27.3772 -230 L 27.3772 -75 " />
<path id= "193" d=" M 27.5 -230 L 27.5 -75 " />
<path d="M27.5,-230 C27.5004,-230 27.554,-230 27.6464,-230  C27.7395,-230 27.8688,-230 28,-230 " /><path d="M27.5,-75 C27.5004,-75 27.554,-75 27.6464,-75  C27.7395,-75 27.8688,-75 28,-75 " /><path id= "196" d=" M 28 -230 L 33 -230 " />
<path id= "197" d=" M 28 -75 L 33 -75 " />
<path id= "198" d=" M 35 -230 L 35 -75 " />
<path d="M33,-230 C33.2247,-230 33.4473,-230 33.6606,-230  C33.7296,-230 33.7987,-230 33.8678,-230  C33.9332,-230 33.9986,-230 34.0641,-230  C34.125,-230 34.186,-230 34.247,-230  C34.3027,-230 34.3585,-230 34.4142,-230  C34.464,-230 34.5138,-230 34.5637,-230  C34.6069,-230 34.6502,-230 34.6934,-230  C34.7296,-230 34.7658,-230 34.8019,-230  C34.8305,-230 34.8592,-230 34.8878,-230  C34.9085,-230 34.9292,-230 34.9499,-230  C34.9624,-230 34.9749,-230 34.9874,-230  C34.9916,-230 34.9958,-230 35,-230 " /><path d="M33,-75 C33.2247,-75 33.4473,-75 33.6606,-75  C33.7296,-75 33.7987,-75 33.8678,-75  C33.9332,-75 33.9986,-75 34.0641,-75  C34.125,-75 34.186,-75 34.247,-75  C34.3027,-75 34.3585,-75 34.4142,-75  C34.464,-75 34.5138,-75 34.5637,-75  C34.6069,-75 34.6502,-75 34.6934,-75  C34.7296,-75 34.7658,-75 34.8019,-75  C34.8305,-75 34.8592,-75 34.8878,-75  C34.9085,-75 34.9292,-75 34.9499,-75  C34.9624,-75 34.9749,-75 34.9874,-75  C34.9916,-75 34.9958,-75 35,-75 " /></g>
</g>



<g> 
  <line x1="61.896500" y1="157.500000" x2="39.000000" y2="157.500000" style="stroke:rgb(0,0,255);stroke-width:0.50" />
<line x1="66.750000" y1="116.250000" x2="39.000000" y2="116.250000" style="stroke:rgb(0,0,255);stroke-width:0.50" />
<line x1="40.000000" y1="157.500000" x2="40.000000" y2="116.250000" style="stroke:rgb(0,0,255);stroke-width:0.50" /> 
  <polygon points="40.000000,116.250000 39.000000,119.250000 40.000000,120.250000 41.000000,119.250000" style="fill:rgb(0,0,255);stroke:rgb(0,0,255);stroke-width:0" /><polygon points="40.000000,157.500000 41.000000,154.500000 40.000000,153.500000 39.000000,154.500000" style="fill:rgb(0,0,255);stroke:rgb(0,0,255);stroke-width:0" /> 
  <text x="38.000000" y="136.875000" font-family="inherit" font-size="3.6" fill="rgb(0,0,255)" text-anchor="middle" transform="rotate(-90.000000 38.000000,136.875000)" >165</text> </g>


</svg>

