<?xml version="1.0" encoding="UTF-8"?>

<svg xmlns="http://www.w3.org/2000/svg" version="1.1"
    xmlns:freecad="http://www.freecadweb.org/wiki/index.php?title=Svg_Namespace"
	width="210mm"
	height="297mm"
	viewBox="0 0 210 297">
	<!-- Working space 0 0 210 297 -->
	<defs>
		<radialGradient
			id="radialGradient3661"
			gradientUnits="userSpaceOnUse"
			cy="29.149"
			cx="282.65"
			gradientTransform="matrix(.14777 .23089 -.24680 .15795 -26.318 -62.617)"
			r="19.571">
				<stop stop-color="#71b2f8" offset="0"/>
				<stop stop-color="#002795" offset="1"/>
		</radialGradient>
		<radialGradient
			id="radialGradient3817"
			gradientUnits="userSpaceOnUse"
			cy="33.9"
			cx="270.58"
			gradientTransform="matrix(.26631 .065024 -.17931 .73438 -60.668 -36.938)"
			r="19.571">
				<stop stop-color="#ff6d0f" offset="0"/>
				<stop stop-color="#ff1000" offset="1"/>
		</radialGradient>
	</defs>
	<!-- Set display:none to hide FreeCAD Logo -->
	<g
		style="display:inline"
		id="freecad-logo"
		transform="translate(184, 272) scale(1)"
		fill-rule="evenodd"
		stroke-width=".45621">
		<path d="m0.22811 0.22835v13.256h2.9558v-5.1876h2.09v-2.0452h-2.09v-2.2075h5.1486v-3.8087l-8.1044-0.0075z"
			stroke="#370700"
			fill="url(#radialGradient3817)"/>
		<path d="m13.386 4.1792-1.7193 0.98645-0.75925-0.26348-0.72439-1.8513-1.1395 0.05988-0.51976 1.9144-0.72743 0.34835-1.8143-0.79367-0.76632 0.85156 0.98645 1.7193-0.26957 0.75702-1.8513 0.72439 0.065967 1.1417 1.9144 0.51976 0.34835 0.72743-0.79976 1.8121 0.85156 0.76632 1.7193-0.98645 0.76311 0.27179 0.7183 1.8491 1.1478-0.06375 0.51367-1.9166 0.72743-0.34835 1.8182 0.80198 0.76632-0.85156-0.98645-1.7193 0.2657-0.76533 1.8491-0.7183-0.05766-1.1456-1.9166-0.51367-0.34835-0.72743 0.7959-1.8204-0.85156-0.76632zm-2.5751 2.8195 0.35295 0.20478 0.30579 0.27725 0.24481 0.33087 0.17611 0.36787 0.10354 0.39656 0.01715 0.4064-0.0587 0.4063-0.13396 0.38571-0.2131 0.35681-0.26894 0.30192-0.33087 0.24481-0.36787 0.17611-0.39656 0.10354-0.40863 0.02325-0.4063-0.0587-0.38571-0.13396-0.35681-0.2131-0.2997-0.27503-0.24703-0.32478-0.17611-0.36787-0.10132-0.40264-0.02324-0.40863 0.05869-0.4063 0.13396-0.38571 0.21087-0.35072 0.27116-0.30801 0.33087-0.24481 0.36787-0.17611 0.40264-0.10132 0.40641-0.01715 0.4063 0.05869 0.38571 0.13396z" 
		stroke="#000137"
		fill="url(#radialGradient3661)"/>
	</g>
<g id="View"
   transform="rotate(0,100,120) translate(100,120) scale(5,5)"
  >
<g   fill="none"
   stroke="rgb(0, 0, 0)"
   stroke-linecap="butt"
   stroke-linejoin="miter"
   stroke-width="0.070000"
   transform="scale(1,-1)"
  >
<path id= "1" d=" M 0 3.5 L -2.3 3.5 " />
<path id= "2" d=" M 2.3 3.5 L 1.33227e-15 3.5 " />
<path id= "3" d=" M -2.3 3.5 L -5.71967 6.91967 " />
<path d="M-5.18934 8.2 A0.75 0.75 0 0 1 -5.71967 6.91967" /><path id= "5" d=" M -5.18934 8.2 L -2.85 8.2 " />
<path d="M-2.85 8.2 A0.25 0.25 0 0 1 -2.6 8.45" /><path id= "7" d=" M -2.6 9.25 L -2.6 8.45 " />
<path d="M-2.6 9.25 A0.75 0.75 0 0 1 -3.35 10" /><path id= "9" d=" M -3.35 10 L -8 10 " />
<path d="M-8 10 A2 2 0 0 1 -10 8" /><path id= "11" d=" M -10 8 L -10 3.35 " />
<path d="M-10 3.35 A0.75 0.75 0 0 1 -9.25 2.6" /><path id= "13" d=" M -9.25 2.6 L -8.45 2.6 " />
<path d="M-8.45 2.6 A0.25 0.25 0 0 1 -8.2 2.85" /><path id= "15" d=" M -8.2 2.85 L -8.2 5.18934 " />
<path d="M-6.91967 5.71967 A0.75 0.75 0 0 1 -8.2 5.18934" /><path id= "17" d=" M -6.91967 5.71967 L -3.5 2.3 " />
<path id= "18" d=" M -3.5 2.3 L -3.5 4.44089e-16 " />
<path id= "19" d=" M -3.5 2.63299e-16 L -2.15 2.63299e-16 " />
<path d="M1.3165e-16 2.15 A2.15 2.15 0 0 1 -2.15 2.63299e-16" /><path id= "21" d=" M 0 3.5 L 0 2.15 " />
<path id= "22" d=" M 5.71967 6.91967 L 2.3 3.5 " />
<path id= "23" d=" M 3.5 -7.77156e-16 L 3.5 2.3 " />
<path id= "24" d=" M 3.5 2.3 L 6.91967 5.71967 " />
<path d="M8.2 5.18934 A0.75 0.75 0 0 1 6.91967 5.71967" /><path id= "26" d=" M 8.2 5.18934 L 8.2 2.85 " />
<path d="M8.2 2.85 A0.25 0.25 0 0 1 8.45 2.6" /><path id= "28" d=" M 9.25 2.6 L 8.45 2.6 " />
<path d="M9.25 2.6 A0.75 0.75 0 0 1 10 3.35" /><path id= "30" d=" M 10 3.35 L 10 8 " />
<path d="M10 8 A2 2 0 0 1 8 10" /><path id= "32" d=" M 8 10 L 3.35 10 " />
<path d="M3.35 10 A0.75 0.75 0 0 1 2.6 9.25" /><path id= "34" d=" M 2.6 9.25 L 2.6 8.45 " />
<path d="M2.6 8.45 A0.25 0.25 0 0 1 2.85 8.2" /><path id= "36" d=" M 2.85 8.2 L 5.18934 8.2 " />
<path d="M5.71967 6.91967 A0.75 0.75 0 0 1 5.18934 8.2" /><path d="M2.15 -6.09045e-16 A2.15 2.15 0 0 1 7.40695e-16 2.15" /><path id= "39" d=" M 3.5 -6.91925e-16 L 2.15 -5.26598e-16 " />
<path id= "40" d=" M -3.5 3.88578e-16 L -3.5 -2.3 " />
<path id= "41" d=" M -3.5 -2.3 L -6.91967 -5.71967 " />
<path d="M-8.2 -5.18934 A0.75 0.75 0 0 1 -6.91967 -5.71967" /><path id= "43" d=" M -8.2 -5.18934 L -8.2 -2.85 " />
<path d="M-8.2 -2.85 A0.25 0.25 0 0 1 -8.45 -2.6" /><path id= "45" d=" M -9.25 -2.6 L -8.45 -2.6 " />
<path d="M-9.25 -2.6 A0.75 0.75 0 0 1 -10 -3.35" /><path id= "47" d=" M -10 -3.35 L -10 -8 " />
<path d="M-10 -8 A2 2 0 0 1 -8 -10" /><path id= "49" d=" M -8 -10 L -3.35 -10 " />
<path d="M-3.35 -10 A0.75 0.75 0 0 1 -2.6 -9.25" /><path id= "51" d=" M -2.6 -9.25 L -2.6 -8.45 " />
<path d="M-2.6 -8.45 A0.25 0.25 0 0 1 -2.85 -8.2" /><path id= "53" d=" M -2.85 -8.2 L -5.18934 -8.2 " />
<path d="M-5.71967 -6.91967 A0.75 0.75 0 0 1 -5.18934 -8.2" /><path id= "55" d=" M -5.71967 -6.91967 L -2.3 -3.5 " />
<path id= "56" d=" M -2.3 -3.5 L -8.88178e-16 -3.5 " />
<path id= "57" d=" M -6.51877e-16 -3.5 L -5.01997e-16 -2.15 " />
<path d="M-2.15 3.70347e-16 A2.15 2.15 0 0 1 -5.01997e-16 -2.15" /><path id= "59" d=" M -4.28626e-16 -3.5 L 2.3 -3.5 " />
<path id= "60" d=" M 2.3 -3.5 L 5.71967 -6.91967 " />
<path d="M5.18934 -8.2 A0.75 0.75 0 0 1 5.71967 -6.91967" /><path id= "62" d=" M 5.18934 -8.2 L 2.85 -8.2 " />
<path d="M2.85 -8.2 A0.25 0.25 0 0 1 2.6 -8.45" /><path id= "64" d=" M 2.6 -9.25 L 2.6 -8.45 " />
<path d="M2.6 -9.25 A0.75 0.75 0 0 1 3.35 -10" /><path id= "66" d=" M 3.35 -10 L 8 -10 " />
<path d="M8 -10 A2 2 0 0 1 10 -8" /><path id= "68" d=" M 10 -8 L 10 -3.35 " />
<path d="M10 -3.35 A0.75 0.75 0 0 1 9.25 -2.6" /><path id= "70" d=" M 9.25 -2.6 L 8.45 -2.6 " />
<path d="M8.45 -2.6 A0.25 0.25 0 0 1 8.2 -2.85" /><path id= "72" d=" M 8.2 -2.85 L 8.2 -5.18934 " />
<path d="M6.91967 -5.71967 A0.75 0.75 0 0 1 8.2 -5.18934" /><path id= "74" d=" M 6.91967 -5.71967 L 3.5 -2.3 " />
<path id= "75" d=" M 3.5 -2.3 L 3.5 -8.88178e-16 " />
<path d="M-3.94949e-16 -2.15 A2.15 2.15 0 0 1 2.15 -5.26598e-16" /></g>
</g>



<g> 
  <line x1="58.000000" y1="170.000000" x2="31.236332" y2="170.000000" style="stroke:rgb(0,0,255);stroke-width:0.50" />
<line x1="58.000000" y1="70.000000" x2="31.236332" y2="70.000000" style="stroke:rgb(0,0,255);stroke-width:0.50" />
<line x1="32.236332" y1="170.000000" x2="32.236332" y2="70.000000" style="stroke:rgb(0,0,255);stroke-width:0.50" /> 
  <polygon points="32.236332,70.000000 31.236332,73.000000 32.236332,74.000000 33.236332,73.000000" style="fill:rgb(0,0,255);stroke:rgb(0,0,255);stroke-width:0" /><polygon points="32.236332,170.000000 33.236332,167.000000 32.236332,166.000000 31.236332,167.000000" style="fill:rgb(0,0,255);stroke:rgb(0,0,255);stroke-width:0" /> 
  <text x="30.236332" y="120.000000" font-family="inherit" font-size="3.6" fill="rgb(0,0,255)" text-anchor="middle" transform="rotate(-90.000000 30.236332,120.000000)" >20</text> </g>


<g> 
  <line x1="50.000000" y1="162.000000" x2="50.000000" y2="211.332115" style="stroke:rgb(0,0,255);stroke-width:0.50" />
<line x1="150.000000" y1="162.000000" x2="150.000000" y2="211.332115" style="stroke:rgb(0,0,255);stroke-width:0.50" />
<line x1="50.000000" y1="210.332115" x2="150.000000" y2="210.332115" style="stroke:rgb(0,0,255);stroke-width:0.50" /> 
  <polygon points="150.000000,210.332115 147.000000,209.332115 146.000000,210.332115 147.000000,211.332115" style="fill:rgb(0,0,255);stroke:rgb(0,0,255);stroke-width:0" /><polygon points="50.000000,210.332115 53.000000,211.332115 54.000000,210.332115 53.000000,209.332115" style="fill:rgb(0,0,255);stroke:rgb(0,0,255);stroke-width:0" /> 
  <text x="100.000000" y="208.332115" font-family="inherit" font-size="3.6" fill="rgb(0,0,255)" text-anchor="middle" transform="rotate(0.000000 100.000000,208.332115)" >20</text> </g>


<g> 
  <line x1="87.000000" y1="168.250000" x2="87.000000" y2="194.815970" style="stroke:rgb(0,0,255);stroke-width:0.50" />
<line x1="113.000000" y1="168.250000" x2="113.000000" y2="194.815970" style="stroke:rgb(0,0,255);stroke-width:0.50" />
<line x1="87.000000" y1="193.815970" x2="113.000000" y2="193.815970" style="stroke:rgb(0,0,255);stroke-width:0.50" /> 
  <polygon points="113.000000,193.815970 110.000000,192.815970 109.000000,193.815970 110.000000,194.815970" style="fill:rgb(0,0,255);stroke:rgb(0,0,255);stroke-width:0" /><polygon points="87.000000,193.815970 90.000000,194.815970 91.000000,193.815970 90.000000,192.815970" style="fill:rgb(0,0,255);stroke:rgb(0,0,255);stroke-width:0" /> 
  <text x="100.000000" y="191.815970" font-family="inherit" font-size="3.6" fill="rgb(0,0,255)" text-anchor="middle" transform="rotate(0.000000 100.000000,191.815970)" >5.2</text> </g>


<g> 
  <line x1="141.000000" y1="107.750000" x2="141.000000" y2="121.050050" style="stroke:rgb(0,0,255);stroke-width:0.50" />
<line x1="150.000000" y1="105.250000" x2="150.000000" y2="121.050050" style="stroke:rgb(0,0,255);stroke-width:0.50" />
<line x1="141.000000" y1="120.050050" x2="150.000000" y2="120.050050" style="stroke:rgb(0,0,255);stroke-width:0.50" /> 
  <polygon points="150.000000,120.050050 153.000000,121.050050 154.000000,120.050050 153.000000,119.050050" style="fill:rgb(0,0,255);stroke:rgb(0,0,255);stroke-width:0" /><polygon points="141.000000,120.050050 138.000000,119.050050 137.000000,120.050050 138.000000,121.050050" style="fill:rgb(0,0,255);stroke:rgb(0,0,255);stroke-width:0" /> 
  <text x="145.500000" y="118.050050" font-family="inherit" font-size="3.6" fill="rgb(0,0,255)" text-anchor="middle" transform="rotate(0.000000 145.500000,118.050050)" >1.8</text> </g>


<g> 
  <line x1="89.250000" y1="122.000000" x2="89.250000" y2="152.061227" style="stroke:rgb(0,0,255);stroke-width:0.50" />
<line x1="110.750000" y1="122.000000" x2="110.750000" y2="152.061227" style="stroke:rgb(0,0,255);stroke-width:0.50" />
<line x1="89.250000" y1="151.061227" x2="110.750000" y2="151.061227" style="stroke:rgb(0,0,255);stroke-width:0.50" /> 
  <polygon points="110.750000,151.061227 107.750000,150.061227 106.750000,151.061227 107.750000,152.061227" style="fill:rgb(0,0,255);stroke:rgb(0,0,255);stroke-width:0" /><polygon points="89.250000,151.061227 92.250000,152.061227 93.250000,151.061227 92.250000,150.061227" style="fill:rgb(0,0,255);stroke:rgb(0,0,255);stroke-width:0" /> 
  <text x="100.000000" y="149.061227" font-family="inherit" font-size="3.6" fill="rgb(0,0,255)" text-anchor="middle" transform="rotate(0.000000 100.000000,149.061227)" >4.3</text> </g>


<g transform="scale(5.000000,5.000000)" stroke="rgb(0,0,255)"  stroke-width="0.064000" > <path d="M 20.000000,24.000000 L 20.000000,23.400000 M 20.000000,23.000000 L 20.000000,21.800000 M 20.000000,21.400000 L 20.000000,20.800000 M 20.000000,20.400000 L 20.000000,19.200000 M 20.000000,18.800000 L 20.000000,18.200000 M 20.000000,17.800000 L 20.000000,16.600000 M 20.000000,16.200000 L 20.000000,15.600000 M 20.000000,15.200000 L 20.000000,14.000000 M 20.000000,13.600000 L 20.000000,13.000000 M 20.000000,12.600000 L 20.000000,11.400000 M 20.000000,11.000000 L 20.000000,10.400000 M 20.000000,10.000000 L 20.000000,9.547625 "/>
<path d="M 20.000000,24.000000 L 20.000000,24.600000 M 20.000000,25.000000 L 20.000000,26.200000 M 20.000000,26.600000 L 20.000000,27.200000 M 20.000000,27.600000 L 20.000000,28.555681 "/> </g> 


<g transform="scale(5.000000,5.000000)" stroke="rgb(0,0,255)"  stroke-width="0.064000" > <path d="M 20.000000,24.000000 L 19.400000,24.000000 M 19.000000,24.000000 L 17.800000,24.000000 M 17.400000,24.000000 L 16.800000,24.000000 M 16.400000,24.000000 L 15.200000,24.000000 M 14.800000,24.000000 L 14.200000,24.000000 M 13.800000,24.000000 L 12.600000,24.000000 M 12.200000,24.000000 L 11.600000,24.000000 M 11.200000,24.000000 L 10.000000,24.000000 M 9.600000,24.000000 L 9.000000,24.000000 M 8.600000,24.000000 L 7.556720,24.000000 "/>
<path d="M 20.000000,24.000000 L 20.600000,24.000000 M 21.000000,24.000000 L 22.200000,24.000000 M 22.600000,24.000000 L 23.200000,24.000000 M 23.600000,24.000000 L 24.800000,24.000000 M 25.200000,24.000000 L 25.800000,24.000000 M 26.200000,24.000000 L 27.400000,24.000000 M 27.800000,24.000000 L 28.400000,24.000000 M 28.800000,24.000000 L 30.000000,24.000000 M 30.400000,24.000000 L 31.000000,24.000000 M 31.400000,24.000000 L 32.600000,24.000000 M 33.000000,24.000000 L 33.600000,24.000000 "/> </g> 


<g>  <circle cx ="140.000000" cy ="80.000000" r="0.250000" stroke="none" fill="rgb(0,0,255)" /> 
<line x1="156.005570" y1="61.523323" x2="140.000000" y2="80.000000" style="stroke:rgb(0,0,255);stroke-width:0.50" />
<polygon points="146.547542,72.441581 143.827437,74.054352 143.928525,75.464949 145.339121,75.363861" style="fill:rgb(0,0,255);stroke:rgb(0,0,255);stroke-width:0" />
<line x1="156.005570" y1="61.523323" x2="137.485794" y2="61.523323" style="stroke:rgb(0,0,255);stroke-width:0.50" />
<text x="146.745682" y="59.523323" font-family="inherit" font-size="3.6" fill="rgb(0,0,255)" text-anchor="middle" transform="rotate(0.000000 146.745682,59.523323)" >R2</text> </g>


<g> <text x="91.971091" y="235.734775" font-family="inherit" font-size="5" fill="rgb(0,0,0)" text-anchor="inherit" transform="rotate(0.000000 91.971091,235.734775)" >ISP5-L20</text> </g>


</svg>

