solid MiniBaseFixtureFR (Meshed)
  facet normal 0.000000 1.000000 0.000000
    outer loop
      vertex 11.500000 10.000000 5.000000
      vertex 0.000000 10.000000 0.000000
      vertex 0.000000 10.000000 5.000000
    endloop
  endfacet
  facet normal 0.000000 1.000000 -0.000000
    outer loop
      vertex 40.000000 10.000000 0.000000
      vertex 18.500000 10.000000 5.000000
      vertex 40.000000 10.000000 5.000000
    endloop
  endfacet
  facet normal 0.000000 1.000000 0.000000
    outer loop
      vertex 40.000000 10.000000 0.000000
      vertex 0.000000 10.000000 0.000000
      vertex 11.500000 10.000000 5.000000
    endloop
  endfacet
  facet normal 0.000000 1.000000 0.000000
    outer loop
      vertex 40.000000 10.000000 0.000000
      vertex 11.500000 10.000000 5.000000
      vertex 18.500000 10.000000 5.000000
    endloop
  endfacet
  facet normal -1.000000 0.000000 0.000000
    outer loop
      vertex 0.000000 10.000000 0.000000
      vertex 0.000000 -10.000000 0.000000
      vertex 0.000000 -10.000000 5.000000
    endloop
  endfacet
  facet normal -1.000000 0.000000 0.000000
    outer loop
      vertex 0.000000 10.000000 0.000000
      vertex 0.000000 -10.000000 5.000000
      vertex 0.000000 10.000000 5.000000
    endloop
  endfacet
  facet normal 1.000000 0.000000 0.000000
    outer loop
      vertex 40.000000 -10.000000 0.000000
      vertex 40.000000 10.000000 0.000000
      vertex 40.000000 10.000000 5.000000
    endloop
  endfacet
  facet normal 1.000000 0.000000 0.000000
    outer loop
      vertex 40.000000 -10.000000 0.000000
      vertex 40.000000 10.000000 5.000000
      vertex 40.000000 -10.000000 5.000000
    endloop
  endfacet
  facet normal 0.000000 0.000000 -1.000000
    outer loop
      vertex 15.825000 -1.428942 0.000000
      vertex 34.150002 -1.472243 0.000000
      vertex 40.000000 -10.000000 0.000000
    endloop
  endfacet
  facet normal 0.000000 0.000000 -1.000000
    outer loop
      vertex 15.825000 -1.428942 0.000000
      vertex 16.166727 -1.166726 0.000000
      vertex 33.797920 -1.202082 0.000000
    endloop
  endfacet
  facet normal 0.000000 0.000000 -1.000000
    outer loop
      vertex 16.428942 -0.825000 0.000000
      vertex 33.357925 -0.439992 0.000000
      vertex 33.527756 -0.850000 0.000000
    endloop
  endfacet
  facet normal 0.000000 -0.000000 -1.000000
    outer loop
      vertex 16.428942 -0.825000 0.000000
      vertex 33.527756 -0.850000 0.000000
      vertex 16.166727 -1.166726 0.000000
    endloop
  endfacet
  facet normal 0.000000 -0.000000 -1.000000
    outer loop
      vertex 36.472244 -0.850000 0.000000
      vertex 40.000000 -10.000000 0.000000
      vertex 36.202080 -1.202082 0.000000
    endloop
  endfacet
  facet normal 0.000000 0.000000 -1.000000
    outer loop
      vertex 15.427052 -1.593778 0.000000
      vertex 15.825000 -1.428942 0.000000
      vertex 40.000000 -10.000000 0.000000
    endloop
  endfacet
  facet normal 0.000000 0.000000 -1.000000
    outer loop
      vertex 35.849998 -1.472243 0.000000
      vertex 36.202080 -1.202082 0.000000
      vertex 40.000000 -10.000000 0.000000
    endloop
  endfacet
  facet normal 0.000000 -0.000000 -1.000000
    outer loop
      vertex 36.642075 -0.439992 0.000000
      vertex 40.000000 -10.000000 0.000000
      vertex 36.472244 -0.850000 0.000000
    endloop
  endfacet
  facet normal 0.000000 0.000000 -1.000000
    outer loop
      vertex 16.593777 -0.427051 0.000000
      vertex 33.299999 -0.000000 0.000000
      vertex 33.357925 -0.439992 0.000000
    endloop
  endfacet
  facet normal 0.000000 -0.000000 -1.000000
    outer loop
      vertex 16.593777 -0.427051 0.000000
      vertex 33.357925 -0.439992 0.000000
      vertex 16.428942 -0.825000 0.000000
    endloop
  endfacet
  facet normal 0.000000 0.000000 -1.000000
    outer loop
      vertex 35.439991 -1.642074 0.000000
      vertex 35.849998 -1.472243 0.000000
      vertex 40.000000 -10.000000 0.000000
    endloop
  endfacet
  facet normal 0.000000 -0.000000 -1.000000
    outer loop
      vertex 36.700001 0.000000 0.000000
      vertex 40.000000 -10.000000 0.000000
      vertex 36.642075 -0.439992 0.000000
    endloop
  endfacet
  facet normal 0.000000 -0.000000 -1.000000
    outer loop
      vertex 16.650000 0.000000 0.000000
      vertex 33.299999 -0.000000 0.000000
      vertex 16.593777 -0.427051 0.000000
    endloop
  endfacet
  facet normal 0.000000 0.000000 -1.000000
    outer loop
      vertex 35.000000 -1.700000 0.000000
      vertex 35.439991 -1.642074 0.000000
      vertex 40.000000 -10.000000 0.000000
    endloop
  endfacet
  facet normal 0.000000 0.000000 -1.000000
    outer loop
      vertex 34.560009 -1.642074 0.000000
      vertex 35.000000 -1.700000 0.000000
      vertex 40.000000 -10.000000 0.000000
    endloop
  endfacet
  facet normal 0.000000 0.000000 -1.000000
    outer loop
      vertex 16.593777 0.427051 0.000000
      vertex 33.357925 0.439992 0.000000
      vertex 33.299999 -0.000000 0.000000
    endloop
  endfacet
  facet normal 0.000000 0.000000 -1.000000
    outer loop
      vertex 16.593777 0.427051 0.000000
      vertex 33.299999 -0.000000 0.000000
      vertex 16.650000 0.000000 0.000000
    endloop
  endfacet
  facet normal 0.000000 0.000000 -1.000000
    outer loop
      vertex 34.150002 -1.472243 0.000000
      vertex 34.560009 -1.642074 0.000000
      vertex 40.000000 -10.000000 0.000000
    endloop
  endfacet
  facet normal 0.000000 0.000000 -1.000000
    outer loop
      vertex 16.428942 0.825000 0.000000
      vertex 33.357925 0.439992 0.000000
      vertex 16.593777 0.427051 0.000000
    endloop
  endfacet
  facet normal 0.000000 0.000000 -1.000000
    outer loop
      vertex 16.428942 0.825000 0.000000
      vertex 33.527756 0.850000 0.000000
      vertex 33.357925 0.439992 0.000000
    endloop
  endfacet
  facet normal 0.000000 0.000000 -1.000000
    outer loop
      vertex 16.166727 1.166726 0.000000
      vertex 33.797920 1.202082 0.000000
      vertex 33.527756 0.850000 0.000000
    endloop
  endfacet
  facet normal 0.000000 0.000000 -1.000000
    outer loop
      vertex 16.166727 1.166726 0.000000
      vertex 33.527756 0.850000 0.000000
      vertex 16.428942 0.825000 0.000000
    endloop
  endfacet
  facet normal 0.000000 0.000000 -1.000000
    outer loop
      vertex 15.825000 1.428942 0.000000
      vertex 40.000000 10.000000 0.000000
      vertex 34.150002 1.472243 0.000000
    endloop
  endfacet
  facet normal 0.000000 0.000000 -1.000000
    outer loop
      vertex 15.825000 1.428942 0.000000
      vertex 34.150002 1.472243 0.000000
      vertex 33.797920 1.202082 0.000000
    endloop
  endfacet
  facet normal 0.000000 0.000000 -1.000000
    outer loop
      vertex 15.825000 1.428942 0.000000
      vertex 33.797920 1.202082 0.000000
      vertex 16.166727 1.166726 0.000000
    endloop
  endfacet
  facet normal 0.000000 0.000000 -1.000000
    outer loop
      vertex 15.427052 1.593778 0.000000
      vertex 40.000000 10.000000 0.000000
      vertex 15.825000 1.428942 0.000000
    endloop
  endfacet
  facet normal 0.000000 0.000000 -1.000000
    outer loop
      vertex 0.000000 -10.000000 0.000000
      vertex 15.427052 -1.593778 0.000000
      vertex 40.000000 -10.000000 0.000000
    endloop
  endfacet
  facet normal 0.000000 0.000000 -1.000000
    outer loop
      vertex 0.000000 -10.000000 0.000000
      vertex 15.000000 -1.650000 0.000000
      vertex 15.427052 -1.593778 0.000000
    endloop
  endfacet
  facet normal 0.000000 0.000000 -1.000000
    outer loop
      vertex 0.000000 -10.000000 0.000000
      vertex 14.572948 -1.593778 0.000000
      vertex 15.000000 -1.650000 0.000000
    endloop
  endfacet
  facet normal 0.000000 0.000000 -1.000000
    outer loop
      vertex 0.000000 -10.000000 0.000000
      vertex 14.175000 -1.428942 0.000000
      vertex 14.572948 -1.593778 0.000000
    endloop
  endfacet
  facet normal 0.000000 0.000000 -1.000000
    outer loop
      vertex 0.000000 -10.000000 0.000000
      vertex 13.833274 -1.166726 0.000000
      vertex 14.175000 -1.428942 0.000000
    endloop
  endfacet
  facet normal 0.000000 0.000000 -1.000000
    outer loop
      vertex 0.000000 -10.000000 0.000000
      vertex 13.571058 -0.825000 0.000000
      vertex 13.833274 -1.166726 0.000000
    endloop
  endfacet
  facet normal 0.000000 0.000000 -1.000000
    outer loop
      vertex 0.000000 -10.000000 0.000000
      vertex 13.406222 -0.427051 0.000000
      vertex 13.571058 -0.825000 0.000000
    endloop
  endfacet
  facet normal 0.000000 0.000000 -1.000000
    outer loop
      vertex 0.000000 -10.000000 0.000000
      vertex 13.350000 0.000000 0.000000
      vertex 13.406222 -0.427051 0.000000
    endloop
  endfacet
  facet normal 0.000000 0.000000 -1.000000
    outer loop
      vertex 0.000000 10.000000 0.000000
      vertex 13.406222 0.427051 0.000000
      vertex 13.350000 0.000000 0.000000
    endloop
  endfacet
  facet normal 0.000000 0.000000 -1.000000
    outer loop
      vertex 0.000000 10.000000 0.000000
      vertex 13.571058 0.825000 0.000000
      vertex 13.406222 0.427051 0.000000
    endloop
  endfacet
  facet normal 0.000000 0.000000 -1.000000
    outer loop
      vertex 0.000000 10.000000 0.000000
      vertex 13.833274 1.166726 0.000000
      vertex 13.571058 0.825000 0.000000
    endloop
  endfacet
  facet normal 0.000000 0.000000 -1.000000
    outer loop
      vertex 0.000000 10.000000 0.000000
      vertex 14.175000 1.428942 0.000000
      vertex 13.833274 1.166726 0.000000
    endloop
  endfacet
  facet normal 0.000000 0.000000 -1.000000
    outer loop
      vertex 0.000000 10.000000 0.000000
      vertex 14.572948 1.593778 0.000000
      vertex 14.175000 1.428942 0.000000
    endloop
  endfacet
  facet normal 0.000000 0.000000 -1.000000
    outer loop
      vertex 0.000000 10.000000 0.000000
      vertex 15.000000 1.650000 0.000000
      vertex 14.572948 1.593778 0.000000
    endloop
  endfacet
  facet normal 0.000000 0.000000 -1.000000
    outer loop
      vertex 0.000000 10.000000 0.000000
      vertex 15.427052 1.593778 0.000000
      vertex 15.000000 1.650000 0.000000
    endloop
  endfacet
  facet normal 0.000000 0.000000 -1.000000
    outer loop
      vertex 40.000000 10.000000 0.000000
      vertex 36.700001 0.000000 0.000000
      vertex 36.642075 0.439992 0.000000
    endloop
  endfacet
  facet normal 0.000000 0.000000 -1.000000
    outer loop
      vertex 0.000000 10.000000 0.000000
      vertex 13.350000 0.000000 0.000000
      vertex 0.000000 -10.000000 0.000000
    endloop
  endfacet
  facet normal 0.000000 0.000000 -1.000000
    outer loop
      vertex 40.000000 10.000000 0.000000
      vertex 36.642075 0.439992 0.000000
      vertex 36.472244 0.850000 0.000000
    endloop
  endfacet
  facet normal 0.000000 0.000000 -1.000000
    outer loop
      vertex 40.000000 10.000000 0.000000
      vertex 36.472244 0.850000 0.000000
      vertex 36.202080 1.202082 0.000000
    endloop
  endfacet
  facet normal 0.000000 0.000000 -1.000000
    outer loop
      vertex 40.000000 10.000000 0.000000
      vertex 36.202080 1.202082 0.000000
      vertex 35.849998 1.472243 0.000000
    endloop
  endfacet
  facet normal 0.000000 0.000000 -1.000000
    outer loop
      vertex 0.000000 10.000000 0.000000
      vertex 40.000000 10.000000 0.000000
      vertex 15.427052 1.593778 0.000000
    endloop
  endfacet
  facet normal 0.000000 0.000000 -1.000000
    outer loop
      vertex 40.000000 10.000000 0.000000
      vertex 35.849998 1.472243 0.000000
      vertex 35.439991 1.642074 0.000000
    endloop
  endfacet
  facet normal 0.000000 0.000000 -1.000000
    outer loop
      vertex 40.000000 10.000000 0.000000
      vertex 35.439991 1.642074 0.000000
      vertex 35.000000 1.700000 0.000000
    endloop
  endfacet
  facet normal 0.000000 0.000000 -1.000000
    outer loop
      vertex 40.000000 10.000000 0.000000
      vertex 35.000000 1.700000 0.000000
      vertex 34.560009 1.642074 0.000000
    endloop
  endfacet
  facet normal 0.000000 0.000000 -1.000000
    outer loop
      vertex 40.000000 10.000000 0.000000
      vertex 34.560009 1.642074 0.000000
      vertex 34.150002 1.472243 0.000000
    endloop
  endfacet
  facet normal 0.000000 -0.000000 -1.000000
    outer loop
      vertex 40.000000 10.000000 0.000000
      vertex 40.000000 -10.000000 0.000000
      vertex 36.700001 0.000000 0.000000
    endloop
  endfacet
  facet normal 0.000000 0.000000 -1.000000
    outer loop
      vertex 16.166727 -1.166726 0.000000
      vertex 33.527756 -0.850000 0.000000
      vertex 33.797920 -1.202082 0.000000
    endloop
  endfacet
  facet normal 0.000000 0.000000 -1.000000
    outer loop
      vertex 15.825000 -1.428942 0.000000
      vertex 33.797920 -1.202082 0.000000
      vertex 34.150002 -1.472243 0.000000
    endloop
  endfacet
  facet normal 0.000000 0.000000 1.000000
    outer loop
      vertex 11.500000 -10.000000 5.000000
      vertex 0.000000 10.000000 5.000000
      vertex 0.000000 -10.000000 5.000000
    endloop
  endfacet
  facet normal 0.000000 0.000000 1.000000
    outer loop
      vertex 11.500000 10.000000 5.000000
      vertex 0.000000 10.000000 5.000000
      vertex 11.500000 -10.000000 5.000000
    endloop
  endfacet
  facet normal 0.000000 1.000000 0.000000
    outer loop
      vertex 18.500000 10.000000 5.000000
      vertex 11.500000 10.000000 5.000000
      vertex 11.500000 10.000000 8.000000
    endloop
  endfacet
  facet normal 0.000000 1.000000 -0.000000
    outer loop
      vertex 18.500000 10.000000 5.000000
      vertex 11.500000 10.000000 8.000000
      vertex 18.500000 10.000000 8.000000
    endloop
  endfacet
  facet normal 0.000000 0.000000 1.000000
    outer loop
      vertex 40.000000 -10.000000 5.000000
      vertex 36.472244 -0.850000 5.000000
      vertex 36.202080 -1.202082 5.000000
    endloop
  endfacet
  facet normal 0.000000 0.000000 1.000000
    outer loop
      vertex 36.202080 -1.202082 5.000000
      vertex 35.849998 -1.472243 5.000000
      vertex 40.000000 -10.000000 5.000000
    endloop
  endfacet
  facet normal 0.000000 0.000000 1.000000
    outer loop
      vertex 40.000000 -10.000000 5.000000
      vertex 36.642075 -0.439992 5.000000
      vertex 36.472244 -0.850000 5.000000
    endloop
  endfacet
  facet normal 0.000000 0.000000 1.000000
    outer loop
      vertex 35.849998 -1.472243 5.000000
      vertex 35.439991 -1.642074 5.000000
      vertex 40.000000 -10.000000 5.000000
    endloop
  endfacet
  facet normal 0.000000 0.000000 1.000000
    outer loop
      vertex 35.439991 -1.642074 5.000000
      vertex 35.000000 -1.700000 5.000000
      vertex 40.000000 -10.000000 5.000000
    endloop
  endfacet
  facet normal 0.000000 0.000000 1.000000
    outer loop
      vertex 40.000000 -10.000000 5.000000
      vertex 36.700001 0.000000 5.000000
      vertex 36.642075 -0.439992 5.000000
    endloop
  endfacet
  facet normal 0.000000 0.000000 1.000000
    outer loop
      vertex 35.000000 -1.700000 5.000000
      vertex 34.560009 -1.642074 5.000000
      vertex 40.000000 -10.000000 5.000000
    endloop
  endfacet
  facet normal 0.000000 0.000000 1.000000
    outer loop
      vertex 34.560009 -1.642074 5.000000
      vertex 34.150002 -1.472243 5.000000
      vertex 40.000000 -10.000000 5.000000
    endloop
  endfacet
  facet normal 0.000000 -0.000000 1.000000
    outer loop
      vertex 36.700001 0.000000 5.000000
      vertex 40.000000 10.000000 5.000000
      vertex 36.642075 0.439992 5.000000
    endloop
  endfacet
  facet normal 0.000000 -0.000000 1.000000
    outer loop
      vertex 36.642075 0.439992 5.000000
      vertex 40.000000 10.000000 5.000000
      vertex 36.472244 0.850000 5.000000
    endloop
  endfacet
  facet normal 0.000000 -0.000000 1.000000
    outer loop
      vertex 36.472244 0.850000 5.000000
      vertex 40.000000 10.000000 5.000000
      vertex 36.202080 1.202082 5.000000
    endloop
  endfacet
  facet normal 0.000000 -0.000000 1.000000
    outer loop
      vertex 36.202080 1.202082 5.000000
      vertex 40.000000 10.000000 5.000000
      vertex 35.849998 1.472243 5.000000
    endloop
  endfacet
  facet normal 0.000000 -0.000000 1.000000
    outer loop
      vertex 35.849998 1.472243 5.000000
      vertex 40.000000 10.000000 5.000000
      vertex 35.439991 1.642074 5.000000
    endloop
  endfacet
  facet normal 0.000000 -0.000000 1.000000
    outer loop
      vertex 35.439991 1.642074 5.000000
      vertex 40.000000 10.000000 5.000000
      vertex 35.000000 1.700000 5.000000
    endloop
  endfacet
  facet normal 0.000000 -0.000000 1.000000
    outer loop
      vertex 35.000000 1.700000 5.000000
      vertex 40.000000 10.000000 5.000000
      vertex 34.560009 1.642074 5.000000
    endloop
  endfacet
  facet normal 0.000000 -0.000000 1.000000
    outer loop
      vertex 34.560009 1.642074 5.000000
      vertex 40.000000 10.000000 5.000000
      vertex 34.150002 1.472243 5.000000
    endloop
  endfacet
  facet normal 0.000000 -0.000000 1.000000
    outer loop
      vertex 40.000000 -10.000000 5.000000
      vertex 40.000000 10.000000 5.000000
      vertex 36.700001 0.000000 5.000000
    endloop
  endfacet
  facet normal 0.000000 0.000000 1.000000
    outer loop
      vertex 33.299999 -0.000000 5.000000
      vertex 18.500000 -10.000000 5.000000
      vertex 33.357925 -0.439992 5.000000
    endloop
  endfacet
  facet normal 0.000000 0.000000 1.000000
    outer loop
      vertex 33.357925 -0.439992 5.000000
      vertex 18.500000 -10.000000 5.000000
      vertex 33.527756 -0.850000 5.000000
    endloop
  endfacet
  facet normal 0.000000 0.000000 1.000000
    outer loop
      vertex 33.527756 -0.850000 5.000000
      vertex 18.500000 -10.000000 5.000000
      vertex 33.797920 -1.202082 5.000000
    endloop
  endfacet
  facet normal 0.000000 0.000000 1.000000
    outer loop
      vertex 33.797920 -1.202082 5.000000
      vertex 18.500000 -10.000000 5.000000
      vertex 34.150002 -1.472243 5.000000
    endloop
  endfacet
  facet normal 0.000000 0.000000 1.000000
    outer loop
      vertex 34.150002 -1.472243 5.000000
      vertex 18.500000 -10.000000 5.000000
      vertex 40.000000 -10.000000 5.000000
    endloop
  endfacet
  facet normal 0.000000 0.000000 1.000000
    outer loop
      vertex 34.150002 1.472243 5.000000
      vertex 18.500000 10.000000 5.000000
      vertex 33.797920 1.202082 5.000000
    endloop
  endfacet
  facet normal 0.000000 0.000000 1.000000
    outer loop
      vertex 33.797920 1.202082 5.000000
      vertex 18.500000 10.000000 5.000000
      vertex 33.527756 0.850000 5.000000
    endloop
  endfacet
  facet normal 0.000000 0.000000 1.000000
    outer loop
      vertex 33.527756 0.850000 5.000000
      vertex 18.500000 10.000000 5.000000
      vertex 33.357925 0.439992 5.000000
    endloop
  endfacet
  facet normal 0.000000 0.000000 1.000000
    outer loop
      vertex 33.357925 0.439992 5.000000
      vertex 18.500000 10.000000 5.000000
      vertex 33.299999 -0.000000 5.000000
    endloop
  endfacet
  facet normal 0.000000 0.000000 1.000000
    outer loop
      vertex 40.000000 10.000000 5.000000
      vertex 18.500000 10.000000 5.000000
      vertex 34.150002 1.472243 5.000000
    endloop
  endfacet
  facet normal 0.000000 0.000000 1.000000
    outer loop
      vertex 33.299999 -0.000000 5.000000
      vertex 18.500000 10.000000 5.000000
      vertex 18.500000 -10.000000 5.000000
    endloop
  endfacet
  facet normal 0.000000 -1.000000 0.000000
    outer loop
      vertex 18.500000 -10.000000 5.000000
      vertex 40.000000 -10.000000 0.000000
      vertex 40.000000 -10.000000 5.000000
    endloop
  endfacet
  facet normal 0.000000 -1.000000 0.000000
    outer loop
      vertex 0.000000 -10.000000 0.000000
      vertex 11.500000 -10.000000 5.000000
      vertex 0.000000 -10.000000 5.000000
    endloop
  endfacet
  facet normal 0.000000 -1.000000 0.000000
    outer loop
      vertex 0.000000 -10.000000 0.000000
      vertex 40.000000 -10.000000 0.000000
      vertex 18.500000 -10.000000 5.000000
    endloop
  endfacet
  facet normal 0.000000 -1.000000 0.000000
    outer loop
      vertex 0.000000 -10.000000 0.000000
      vertex 18.500000 -10.000000 5.000000
      vertex 11.500000 -10.000000 5.000000
    endloop
  endfacet
  facet normal 0.130527 0.991445 0.000000
    outer loop
      vertex 35.000000 -1.700000 0.000000
      vertex 34.560009 -1.642074 0.000000
      vertex 34.560009 -1.642074 5.000000
    endloop
  endfacet
  facet normal 0.130527 0.991445 -0.000000
    outer loop
      vertex 35.000000 -1.700000 0.000000
      vertex 34.560009 -1.642074 5.000000
      vertex 35.000000 -1.700000 5.000000
    endloop
  endfacet
  facet normal -0.130527 0.991445 0.000000
    outer loop
      vertex 35.439991 -1.642074 0.000000
      vertex 35.000000 -1.700000 0.000000
      vertex 35.000000 -1.700000 5.000000
    endloop
  endfacet
  facet normal -0.130527 0.991445 0.000000
    outer loop
      vertex 35.439991 -1.642074 0.000000
      vertex 35.000000 -1.700000 5.000000
      vertex 35.439991 -1.642074 5.000000
    endloop
  endfacet
  facet normal -0.991445 -0.130526 0.000000
    outer loop
      vertex 36.642075 0.439992 0.000000
      vertex 36.700001 0.000000 0.000000
      vertex 36.700001 0.000000 5.000000
    endloop
  endfacet
  facet normal -0.991445 -0.130526 0.000000
    outer loop
      vertex 36.642075 0.439992 0.000000
      vertex 36.700001 0.000000 5.000000
      vertex 36.642075 0.439992 5.000000
    endloop
  endfacet
  facet normal -0.382683 0.923880 0.000000
    outer loop
      vertex 35.849998 -1.472243 0.000000
      vertex 35.439991 -1.642074 0.000000
      vertex 35.439991 -1.642074 5.000000
    endloop
  endfacet
  facet normal -0.382683 0.923880 0.000000
    outer loop
      vertex 35.849998 -1.472243 0.000000
      vertex 35.439991 -1.642074 5.000000
      vertex 35.849998 -1.472243 5.000000
    endloop
  endfacet
  facet normal -0.923880 -0.382683 0.000000
    outer loop
      vertex 36.472244 0.850000 0.000000
      vertex 36.642075 0.439992 5.000000
      vertex 36.472244 0.850000 5.000000
    endloop
  endfacet
  facet normal -0.608762 0.793353 0.000000
    outer loop
      vertex 36.202080 -1.202082 0.000000
      vertex 35.849998 -1.472243 0.000000
      vertex 35.849998 -1.472243 5.000000
    endloop
  endfacet
  facet normal -0.923880 -0.382683 0.000000
    outer loop
      vertex 36.472244 0.850000 0.000000
      vertex 36.642075 0.439992 0.000000
      vertex 36.642075 0.439992 5.000000
    endloop
  endfacet
  facet normal -0.608762 0.793353 0.000000
    outer loop
      vertex 36.202080 -1.202082 0.000000
      vertex 35.849998 -1.472243 5.000000
      vertex 36.202080 -1.202082 5.000000
    endloop
  endfacet
  facet normal -0.793350 -0.608765 0.000000
    outer loop
      vertex 36.202080 1.202082 0.000000
      vertex 36.472244 0.850000 5.000000
      vertex 36.202080 1.202082 5.000000
    endloop
  endfacet
  facet normal -0.793350 0.608765 0.000000
    outer loop
      vertex 36.472244 -0.850000 0.000000
      vertex 36.202080 -1.202082 0.000000
      vertex 36.202080 -1.202082 5.000000
    endloop
  endfacet
  facet normal -0.793350 -0.608765 0.000000
    outer loop
      vertex 36.202080 1.202082 0.000000
      vertex 36.472244 0.850000 0.000000
      vertex 36.472244 0.850000 5.000000
    endloop
  endfacet
  facet normal -0.793350 0.608765 0.000000
    outer loop
      vertex 36.472244 -0.850000 0.000000
      vertex 36.202080 -1.202082 5.000000
      vertex 36.472244 -0.850000 5.000000
    endloop
  endfacet
  facet normal -0.923880 0.382683 0.000000
    outer loop
      vertex 36.642075 -0.439992 0.000000
      vertex 36.472244 -0.850000 0.000000
      vertex 36.472244 -0.850000 5.000000
    endloop
  endfacet
  facet normal -0.923880 0.382683 0.000000
    outer loop
      vertex 36.642075 -0.439992 0.000000
      vertex 36.472244 -0.850000 5.000000
      vertex 36.642075 -0.439992 5.000000
    endloop
  endfacet
  facet normal -0.608762 -0.793353 0.000000
    outer loop
      vertex 35.849998 1.472243 0.000000
      vertex 36.202080 1.202082 5.000000
      vertex 35.849998 1.472243 5.000000
    endloop
  endfacet
  facet normal -0.608762 -0.793353 0.000000
    outer loop
      vertex 35.849998 1.472243 0.000000
      vertex 36.202080 1.202082 0.000000
      vertex 36.202080 1.202082 5.000000
    endloop
  endfacet
  facet normal -0.991445 0.130526 0.000000
    outer loop
      vertex 36.700001 0.000000 0.000000
      vertex 36.642075 -0.439992 5.000000
      vertex 36.700001 0.000000 5.000000
    endloop
  endfacet
  facet normal -0.991445 0.130526 0.000000
    outer loop
      vertex 36.700001 0.000000 0.000000
      vertex 36.642075 -0.439992 0.000000
      vertex 36.642075 -0.439992 5.000000
    endloop
  endfacet
  facet normal -0.382683 -0.923880 0.000000
    outer loop
      vertex 35.439991 1.642074 0.000000
      vertex 35.849998 1.472243 5.000000
      vertex 35.439991 1.642074 5.000000
    endloop
  endfacet
  facet normal -0.382683 -0.923880 0.000000
    outer loop
      vertex 35.439991 1.642074 0.000000
      vertex 35.849998 1.472243 0.000000
      vertex 35.849998 1.472243 5.000000
    endloop
  endfacet
  facet normal -0.130527 -0.991445 0.000000
    outer loop
      vertex 35.000000 1.700000 0.000000
      vertex 35.439991 1.642074 5.000000
      vertex 35.000000 1.700000 5.000000
    endloop
  endfacet
  facet normal -0.130527 -0.991445 0.000000
    outer loop
      vertex 35.000000 1.700000 0.000000
      vertex 35.439991 1.642074 0.000000
      vertex 35.439991 1.642074 5.000000
    endloop
  endfacet
  facet normal 0.130527 -0.991445 0.000000
    outer loop
      vertex 34.560009 1.642074 0.000000
      vertex 35.000000 1.700000 5.000000
      vertex 34.560009 1.642074 5.000000
    endloop
  endfacet
  facet normal 0.130527 -0.991445 0.000000
    outer loop
      vertex 34.560009 1.642074 0.000000
      vertex 35.000000 1.700000 0.000000
      vertex 35.000000 1.700000 5.000000
    endloop
  endfacet
  facet normal 0.382683 -0.923880 0.000000
    outer loop
      vertex 34.150002 1.472243 0.000000
      vertex 34.560009 1.642074 5.000000
      vertex 34.150002 1.472243 5.000000
    endloop
  endfacet
  facet normal 0.382683 -0.923880 0.000000
    outer loop
      vertex 34.150002 1.472243 0.000000
      vertex 34.560009 1.642074 0.000000
      vertex 34.560009 1.642074 5.000000
    endloop
  endfacet
  facet normal 0.608762 -0.793353 0.000000
    outer loop
      vertex 33.797920 1.202082 0.000000
      vertex 34.150002 1.472243 5.000000
      vertex 33.797920 1.202082 5.000000
    endloop
  endfacet
  facet normal 0.608762 -0.793353 0.000000
    outer loop
      vertex 33.797920 1.202082 0.000000
      vertex 34.150002 1.472243 0.000000
      vertex 34.150002 1.472243 5.000000
    endloop
  endfacet
  facet normal 0.793350 -0.608765 0.000000
    outer loop
      vertex 33.527756 0.850000 0.000000
      vertex 33.797920 1.202082 5.000000
      vertex 33.527756 0.850000 5.000000
    endloop
  endfacet
  facet normal 0.793350 -0.608765 0.000000
    outer loop
      vertex 33.527756 0.850000 0.000000
      vertex 33.797920 1.202082 0.000000
      vertex 33.797920 1.202082 5.000000
    endloop
  endfacet
  facet normal 0.923880 -0.382683 0.000000
    outer loop
      vertex 33.357925 0.439992 0.000000
      vertex 33.527756 0.850000 5.000000
      vertex 33.357925 0.439992 5.000000
    endloop
  endfacet
  facet normal 0.923880 -0.382683 0.000000
    outer loop
      vertex 33.357925 0.439992 0.000000
      vertex 33.527756 0.850000 0.000000
      vertex 33.527756 0.850000 5.000000
    endloop
  endfacet
  facet normal 0.991445 -0.130526 0.000000
    outer loop
      vertex 33.299999 -0.000000 0.000000
      vertex 33.357925 0.439992 0.000000
      vertex 33.357925 0.439992 5.000000
    endloop
  endfacet
  facet normal 0.991445 -0.130526 0.000000
    outer loop
      vertex 33.299999 -0.000000 0.000000
      vertex 33.357925 0.439992 5.000000
      vertex 33.299999 -0.000000 5.000000
    endloop
  endfacet
  facet normal 0.991445 0.130526 0.000000
    outer loop
      vertex 33.357925 -0.439992 0.000000
      vertex 33.299999 -0.000000 0.000000
      vertex 33.299999 -0.000000 5.000000
    endloop
  endfacet
  facet normal 0.991445 0.130526 -0.000000
    outer loop
      vertex 33.357925 -0.439992 0.000000
      vertex 33.299999 -0.000000 5.000000
      vertex 33.357925 -0.439992 5.000000
    endloop
  endfacet
  facet normal 0.923880 0.382683 0.000000
    outer loop
      vertex 33.527756 -0.850000 0.000000
      vertex 33.357925 -0.439992 0.000000
      vertex 33.357925 -0.439992 5.000000
    endloop
  endfacet
  facet normal 0.923880 0.382683 -0.000000
    outer loop
      vertex 33.527756 -0.850000 0.000000
      vertex 33.357925 -0.439992 5.000000
      vertex 33.527756 -0.850000 5.000000
    endloop
  endfacet
  facet normal 0.793350 0.608765 0.000000
    outer loop
      vertex 33.797920 -1.202082 0.000000
      vertex 33.527756 -0.850000 0.000000
      vertex 33.527756 -0.850000 5.000000
    endloop
  endfacet
  facet normal 0.793350 0.608765 -0.000000
    outer loop
      vertex 33.797920 -1.202082 0.000000
      vertex 33.527756 -0.850000 5.000000
      vertex 33.797920 -1.202082 5.000000
    endloop
  endfacet
  facet normal 0.608762 0.793353 0.000000
    outer loop
      vertex 34.150002 -1.472243 0.000000
      vertex 33.797920 -1.202082 0.000000
      vertex 33.797920 -1.202082 5.000000
    endloop
  endfacet
  facet normal 0.608762 0.793353 -0.000000
    outer loop
      vertex 34.150002 -1.472243 0.000000
      vertex 33.797920 -1.202082 5.000000
      vertex 34.150002 -1.472243 5.000000
    endloop
  endfacet
  facet normal 0.382683 0.923880 0.000000
    outer loop
      vertex 34.560009 -1.642074 0.000000
      vertex 34.150002 -1.472243 0.000000
      vertex 34.150002 -1.472243 5.000000
    endloop
  endfacet
  facet normal 0.382683 0.923880 -0.000000
    outer loop
      vertex 34.560009 -1.642074 0.000000
      vertex 34.150002 -1.472243 5.000000
      vertex 34.560009 -1.642074 5.000000
    endloop
  endfacet
  facet normal 0.130526 0.991445 -0.000000
    outer loop
      vertex 15.000000 -1.650000 0.000000
      vertex 14.572948 -1.593778 5.000000
      vertex 15.000000 -1.650000 5.000000
    endloop
  endfacet
  facet normal -0.130526 0.991445 0.000000
    outer loop
      vertex 15.427052 -1.593778 0.000000
      vertex 15.000000 -1.650000 0.000000
      vertex 15.000000 -1.650000 5.000000
    endloop
  endfacet
  facet normal -0.130526 0.991445 0.000000
    outer loop
      vertex 15.427052 -1.593778 0.000000
      vertex 15.000000 -1.650000 5.000000
      vertex 15.427052 -1.593778 5.000000
    endloop
  endfacet
  facet normal -0.382684 0.923880 0.000000
    outer loop
      vertex 15.427052 -1.593778 0.000000
      vertex 15.427052 -1.593778 5.000000
      vertex 15.825000 -1.428942 5.000000
    endloop
  endfacet
  facet normal -0.991445 -0.130527 0.000000
    outer loop
      vertex 16.650000 0.000000 0.000000
      vertex 16.650000 0.000000 5.000000
      vertex 16.593777 0.427051 5.000000
    endloop
  endfacet
  facet normal -0.382684 0.923880 0.000000
    outer loop
      vertex 15.825000 -1.428942 0.000000
      vertex 15.427052 -1.593778 0.000000
      vertex 15.825000 -1.428942 5.000000
    endloop
  endfacet
  facet normal -0.608760 0.793354 0.000000
    outer loop
      vertex 15.825000 -1.428942 0.000000
      vertex 15.825000 -1.428942 5.000000
      vertex 16.166727 -1.166726 5.000000
    endloop
  endfacet
  facet normal -0.923880 -0.382682 0.000000
    outer loop
      vertex 16.593777 0.427051 0.000000
      vertex 16.593777 0.427051 5.000000
      vertex 16.428942 0.825000 5.000000
    endloop
  endfacet
  facet normal -0.991445 -0.130527 0.000000
    outer loop
      vertex 16.593777 0.427051 0.000000
      vertex 16.650000 0.000000 0.000000
      vertex 16.593777 0.427051 5.000000
    endloop
  endfacet
  facet normal -0.608760 0.793354 0.000000
    outer loop
      vertex 16.166727 -1.166726 0.000000
      vertex 15.825000 -1.428942 0.000000
      vertex 16.166727 -1.166726 5.000000
    endloop
  endfacet
  facet normal -0.793355 0.608760 0.000000
    outer loop
      vertex 16.166727 -1.166726 0.000000
      vertex 16.166727 -1.166726 5.000000
      vertex 16.428942 -0.825000 5.000000
    endloop
  endfacet
  facet normal -0.793355 -0.608760 0.000000
    outer loop
      vertex 16.428942 0.825000 0.000000
      vertex 16.428942 0.825000 5.000000
      vertex 16.166727 1.166726 5.000000
    endloop
  endfacet
  facet normal -0.923880 -0.382682 0.000000
    outer loop
      vertex 16.428942 0.825000 0.000000
      vertex 16.593777 0.427051 0.000000
      vertex 16.428942 0.825000 5.000000
    endloop
  endfacet
  facet normal -0.793355 0.608760 0.000000
    outer loop
      vertex 16.428942 -0.825000 0.000000
      vertex 16.166727 -1.166726 0.000000
      vertex 16.428942 -0.825000 5.000000
    endloop
  endfacet
  facet normal -0.923880 0.382682 0.000000
    outer loop
      vertex 16.428942 -0.825000 0.000000
      vertex 16.428942 -0.825000 5.000000
      vertex 16.593777 -0.427051 5.000000
    endloop
  endfacet
  facet normal -0.608760 -0.793354 0.000000
    outer loop
      vertex 16.166727 1.166726 0.000000
      vertex 16.166727 1.166726 5.000000
      vertex 15.825000 1.428942 5.000000
    endloop
  endfacet
  facet normal -0.793355 -0.608760 0.000000
    outer loop
      vertex 16.166727 1.166726 0.000000
      vertex 16.428942 0.825000 0.000000
      vertex 16.166727 1.166726 5.000000
    endloop
  endfacet
  facet normal -0.923880 0.382682 0.000000
    outer loop
      vertex 16.593777 -0.427051 0.000000
      vertex 16.428942 -0.825000 0.000000
      vertex 16.593777 -0.427051 5.000000
    endloop
  endfacet
  facet normal -0.991445 0.130527 0.000000
    outer loop
      vertex 16.593777 -0.427051 0.000000
      vertex 16.593777 -0.427051 5.000000
      vertex 16.650000 0.000000 5.000000
    endloop
  endfacet
  facet normal -0.991445 0.130527 0.000000
    outer loop
      vertex 16.650000 0.000000 0.000000
      vertex 16.593777 -0.427051 0.000000
      vertex 16.650000 0.000000 5.000000
    endloop
  endfacet
  facet normal -0.382684 -0.923880 0.000000
    outer loop
      vertex 15.825000 1.428942 0.000000
      vertex 15.825000 1.428942 5.000000
      vertex 15.427052 1.593778 5.000000
    endloop
  endfacet
  facet normal -0.608760 -0.793354 0.000000
    outer loop
      vertex 15.825000 1.428942 0.000000
      vertex 16.166727 1.166726 0.000000
      vertex 15.825000 1.428942 5.000000
    endloop
  endfacet
  facet normal -0.130526 -0.991445 0.000000
    outer loop
      vertex 15.427052 1.593778 0.000000
      vertex 15.427052 1.593778 5.000000
      vertex 15.000000 1.650000 5.000000
    endloop
  endfacet
  facet normal -0.382684 -0.923880 0.000000
    outer loop
      vertex 15.427052 1.593778 0.000000
      vertex 15.825000 1.428942 0.000000
      vertex 15.427052 1.593778 5.000000
    endloop
  endfacet
  facet normal -0.130526 -0.991445 0.000000
    outer loop
      vertex 15.000000 1.650000 0.000000
      vertex 15.427052 1.593778 0.000000
      vertex 15.000000 1.650000 5.000000
    endloop
  endfacet
  facet normal 0.130526 -0.991445 0.000000
    outer loop
      vertex 14.572948 1.593778 0.000000
      vertex 15.000000 1.650000 5.000000
      vertex 14.572948 1.593778 5.000000
    endloop
  endfacet
  facet normal 0.130526 -0.991445 0.000000
    outer loop
      vertex 14.572948 1.593778 0.000000
      vertex 15.000000 1.650000 0.000000
      vertex 15.000000 1.650000 5.000000
    endloop
  endfacet
  facet normal 0.382684 -0.923880 0.000000
    outer loop
      vertex 14.175000 1.428942 0.000000
      vertex 14.572948 1.593778 5.000000
      vertex 14.175000 1.428942 5.000000
    endloop
  endfacet
  facet normal 0.382684 -0.923880 0.000000
    outer loop
      vertex 14.175000 1.428942 0.000000
      vertex 14.572948 1.593778 0.000000
      vertex 14.572948 1.593778 5.000000
    endloop
  endfacet
  facet normal 0.608761 -0.793353 0.000000
    outer loop
      vertex 13.833274 1.166726 0.000000
      vertex 14.175000 1.428942 5.000000
      vertex 13.833274 1.166726 5.000000
    endloop
  endfacet
  facet normal 0.608761 -0.793353 0.000000
    outer loop
      vertex 13.833274 1.166726 0.000000
      vertex 14.175000 1.428942 0.000000
      vertex 14.175000 1.428942 5.000000
    endloop
  endfacet
  facet normal 0.793353 -0.608761 0.000000
    outer loop
      vertex 13.571058 0.825000 0.000000
      vertex 13.833274 1.166726 5.000000
      vertex 13.571058 0.825000 5.000000
    endloop
  endfacet
  facet normal 0.793353 -0.608761 0.000000
    outer loop
      vertex 13.571058 0.825000 0.000000
      vertex 13.833274 1.166726 0.000000
      vertex 13.833274 1.166726 5.000000
    endloop
  endfacet
  facet normal 0.923879 -0.382684 0.000000
    outer loop
      vertex 13.406222 0.427051 0.000000
      vertex 13.571058 0.825000 5.000000
      vertex 13.406222 0.427051 5.000000
    endloop
  endfacet
  facet normal 0.923879 -0.382684 0.000000
    outer loop
      vertex 13.406222 0.427051 0.000000
      vertex 13.571058 0.825000 0.000000
      vertex 13.571058 0.825000 5.000000
    endloop
  endfacet
  facet normal 0.991445 -0.130525 0.000000
    outer loop
      vertex 13.350000 0.000000 0.000000
      vertex 13.406222 0.427051 0.000000
      vertex 13.406222 0.427051 5.000000
    endloop
  endfacet
  facet normal 0.991445 -0.130525 -0.000000
    outer loop
      vertex 13.350000 0.000000 0.000000
      vertex 13.406222 0.427051 5.000000
      vertex 13.350000 -0.000000 5.000000
    endloop
  endfacet
  facet normal 0.991445 0.130525 0.000000
    outer loop
      vertex 13.406222 -0.427051 0.000000
      vertex 13.350000 0.000000 0.000000
      vertex 13.350000 -0.000000 5.000000
    endloop
  endfacet
  facet normal 0.991445 0.130525 -0.000000
    outer loop
      vertex 13.406222 -0.427051 0.000000
      vertex 13.350000 -0.000000 5.000000
      vertex 13.406222 -0.427051 5.000000
    endloop
  endfacet
  facet normal 0.923879 0.382684 0.000000
    outer loop
      vertex 13.571058 -0.825000 0.000000
      vertex 13.406222 -0.427051 0.000000
      vertex 13.406222 -0.427051 5.000000
    endloop
  endfacet
  facet normal 0.923879 0.382684 -0.000000
    outer loop
      vertex 13.571058 -0.825000 0.000000
      vertex 13.406222 -0.427051 5.000000
      vertex 13.571058 -0.825000 5.000000
    endloop
  endfacet
  facet normal 0.793353 0.608761 0.000000
    outer loop
      vertex 13.833274 -1.166726 0.000000
      vertex 13.571058 -0.825000 0.000000
      vertex 13.571058 -0.825000 5.000000
    endloop
  endfacet
  facet normal 0.793353 0.608761 -0.000000
    outer loop
      vertex 13.833274 -1.166726 0.000000
      vertex 13.571058 -0.825000 5.000000
      vertex 13.833274 -1.166726 5.000000
    endloop
  endfacet
  facet normal 0.608761 0.793353 0.000000
    outer loop
      vertex 14.175000 -1.428942 0.000000
      vertex 13.833274 -1.166726 0.000000
      vertex 13.833274 -1.166726 5.000000
    endloop
  endfacet
  facet normal 0.608761 0.793353 -0.000000
    outer loop
      vertex 14.175000 -1.428942 0.000000
      vertex 13.833274 -1.166726 5.000000
      vertex 14.175000 -1.428942 5.000000
    endloop
  endfacet
  facet normal 0.382684 0.923880 0.000000
    outer loop
      vertex 14.572948 -1.593778 0.000000
      vertex 14.175000 -1.428942 0.000000
      vertex 14.175000 -1.428942 5.000000
    endloop
  endfacet
  facet normal 0.382684 0.923880 -0.000000
    outer loop
      vertex 14.572948 -1.593778 0.000000
      vertex 14.175000 -1.428942 5.000000
      vertex 14.572948 -1.593778 5.000000
    endloop
  endfacet
  facet normal 0.130526 0.991445 0.000000
    outer loop
      vertex 15.000000 -1.650000 0.000000
      vertex 14.572948 -1.593778 0.000000
      vertex 14.572948 -1.593778 5.000000
    endloop
  endfacet
  facet normal -1.000000 0.000000 0.000000
    outer loop
      vertex 11.500000 10.000000 5.000000
      vertex 11.500000 -10.000000 5.000000
      vertex 11.500000 -10.000000 8.000000
    endloop
  endfacet
  facet normal -1.000000 0.000000 0.000000
    outer loop
      vertex 11.500000 10.000000 5.000000
      vertex 11.500000 -10.000000 8.000000
      vertex 11.500000 10.000000 8.000000
    endloop
  endfacet
  facet normal 1.000000 0.000000 0.000000
    outer loop
      vertex 18.500000 -10.000000 5.000000
      vertex 18.500000 10.000000 5.000000
      vertex 18.500000 10.000000 8.000000
    endloop
  endfacet
  facet normal 1.000000 0.000000 0.000000
    outer loop
      vertex 18.500000 -10.000000 5.000000
      vertex 18.500000 10.000000 8.000000
      vertex 18.500000 -10.000000 8.000000
    endloop
  endfacet
  facet normal 0.000000 0.000000 1.000000
    outer loop
      vertex 18.500000 -10.000000 8.000000
      vertex 17.598076 -1.500000 8.000000
      vertex 17.121321 -2.121320 8.000000
    endloop
  endfacet
  facet normal 0.000000 0.000000 1.000000
    outer loop
      vertex 17.121321 -2.121320 8.000000
      vertex 16.500000 -2.598076 8.000000
      vertex 18.500000 -10.000000 8.000000
    endloop
  endfacet
  facet normal 0.000000 0.000000 1.000000
    outer loop
      vertex 18.500000 -10.000000 8.000000
      vertex 17.897778 -0.776457 8.000000
      vertex 17.598076 -1.500000 8.000000
    endloop
  endfacet
  facet normal 0.000000 0.000000 1.000000
    outer loop
      vertex 16.500000 -2.598076 8.000000
      vertex 15.776457 -2.897778 8.000000
      vertex 18.500000 -10.000000 8.000000
    endloop
  endfacet
  facet normal 0.000000 0.000000 1.000000
    outer loop
      vertex 18.500000 -10.000000 8.000000
      vertex 15.000000 -3.000000 8.000000
      vertex 11.500000 -10.000000 8.000000
    endloop
  endfacet
  facet normal 0.000000 0.000000 1.000000
    outer loop
      vertex 15.776457 -2.897778 8.000000
      vertex 15.000000 -3.000000 8.000000
      vertex 18.500000 -10.000000 8.000000
    endloop
  endfacet
  facet normal 0.000000 0.000000 1.000000
    outer loop
      vertex 15.000000 -3.000000 8.000000
      vertex 14.223543 -2.897778 8.000000
      vertex 11.500000 -10.000000 8.000000
    endloop
  endfacet
  facet normal 0.000000 0.000000 1.000000
    outer loop
      vertex 14.223543 -2.897778 8.000000
      vertex 13.500000 -2.598076 8.000000
      vertex 11.500000 -10.000000 8.000000
    endloop
  endfacet
  facet normal 0.000000 0.000000 1.000000
    outer loop
      vertex 13.500000 -2.598076 8.000000
      vertex 12.878679 -2.121320 8.000000
      vertex 11.500000 -10.000000 8.000000
    endloop
  endfacet
  facet normal 0.000000 0.000000 1.000000
    outer loop
      vertex 12.878679 -2.121320 8.000000
      vertex 12.401924 -1.500000 8.000000
      vertex 11.500000 -10.000000 8.000000
    endloop
  endfacet
  facet normal 0.000000 0.000000 1.000000
    outer loop
      vertex 12.401924 -1.500000 8.000000
      vertex 12.102222 -0.776457 8.000000
      vertex 11.500000 -10.000000 8.000000
    endloop
  endfacet
  facet normal 0.000000 -0.000000 1.000000
    outer loop
      vertex 17.897778 0.776457 8.000000
      vertex 18.500000 10.000000 8.000000
      vertex 17.598076 1.500000 8.000000
    endloop
  endfacet
  facet normal 0.000000 -0.000000 1.000000
    outer loop
      vertex 17.598076 1.500000 8.000000
      vertex 18.500000 10.000000 8.000000
      vertex 17.121321 2.121320 8.000000
    endloop
  endfacet
  facet normal 0.000000 -0.000000 1.000000
    outer loop
      vertex 17.121321 2.121320 8.000000
      vertex 18.500000 10.000000 8.000000
      vertex 16.500000 2.598076 8.000000
    endloop
  endfacet
  facet normal 0.000000 -0.000000 1.000000
    outer loop
      vertex 16.500000 2.598076 8.000000
      vertex 18.500000 10.000000 8.000000
      vertex 15.776457 2.897778 8.000000
    endloop
  endfacet
  facet normal 0.000000 -0.000000 1.000000
    outer loop
      vertex 15.776457 2.897778 8.000000
      vertex 18.500000 10.000000 8.000000
      vertex 15.000000 3.000000 8.000000
    endloop
  endfacet
  facet normal 0.000000 0.000000 1.000000
    outer loop
      vertex 15.000000 3.000000 8.000000
      vertex 11.500000 10.000000 8.000000
      vertex 14.223543 2.897778 8.000000
    endloop
  endfacet
  facet normal 0.000000 0.000000 1.000000
    outer loop
      vertex 14.223543 2.897778 8.000000
      vertex 11.500000 10.000000 8.000000
      vertex 13.500000 2.598076 8.000000
    endloop
  endfacet
  facet normal 0.000000 0.000000 1.000000
    outer loop
      vertex 13.500000 2.598076 8.000000
      vertex 11.500000 10.000000 8.000000
      vertex 12.878679 2.121320 8.000000
    endloop
  endfacet
  facet normal 0.000000 0.000000 1.000000
    outer loop
      vertex 12.878679 2.121320 8.000000
      vertex 11.500000 10.000000 8.000000
      vertex 12.401924 1.500000 8.000000
    endloop
  endfacet
  facet normal 0.000000 0.000000 1.000000
    outer loop
      vertex 12.401924 1.500000 8.000000
      vertex 11.500000 10.000000 8.000000
      vertex 12.102222 0.776457 8.000000
    endloop
  endfacet
  facet normal 0.000000 0.000000 1.000000
    outer loop
      vertex 18.500000 10.000000 8.000000
      vertex 11.500000 10.000000 8.000000
      vertex 15.000000 3.000000 8.000000
    endloop
  endfacet
  facet normal 0.000000 0.000000 1.000000
    outer loop
      vertex 11.500000 10.000000 8.000000
      vertex 11.500000 -10.000000 8.000000
      vertex 12.000000 -0.000000 8.000000
    endloop
  endfacet
  facet normal 0.000000 0.000000 1.000000
    outer loop
      vertex 11.500000 10.000000 8.000000
      vertex 12.000000 -0.000000 8.000000
      vertex 12.102222 0.776457 8.000000
    endloop
  endfacet
  facet normal 0.000000 0.000000 1.000000
    outer loop
      vertex 12.000000 -0.000000 8.000000
      vertex 11.500000 -10.000000 8.000000
      vertex 12.102222 -0.776457 8.000000
    endloop
  endfacet
  facet normal 0.000000 -0.000000 1.000000
    outer loop
      vertex 18.500000 -10.000000 8.000000
      vertex 18.500000 10.000000 8.000000
      vertex 18.000000 0.000000 8.000000
    endloop
  endfacet
  facet normal 0.000000 0.000000 1.000000
    outer loop
      vertex 18.500000 -10.000000 8.000000
      vertex 18.000000 0.000000 8.000000
      vertex 17.897778 -0.776457 8.000000
    endloop
  endfacet
  facet normal 0.000000 -0.000000 1.000000
    outer loop
      vertex 18.000000 0.000000 8.000000
      vertex 18.500000 10.000000 8.000000
      vertex 17.897778 0.776457 8.000000
    endloop
  endfacet
  facet normal 0.000000 -1.000000 0.000000
    outer loop
      vertex 11.500000 -10.000000 5.000000
      vertex 18.500000 -10.000000 5.000000
      vertex 18.500000 -10.000000 8.000000
    endloop
  endfacet
  facet normal 0.000000 -1.000000 0.000000
    outer loop
      vertex 11.500000 -10.000000 5.000000
      vertex 18.500000 -10.000000 8.000000
      vertex 11.500000 -10.000000 8.000000
    endloop
  endfacet
  facet normal 0.000000 0.000000 1.000000
    outer loop
      vertex 17.897778 -0.776457 5.000000
      vertex 16.593777 -0.427051 5.000000
      vertex 16.428942 -0.825000 5.000000
    endloop
  endfacet
  facet normal 0.000000 0.000000 1.000000
    outer loop
      vertex 13.571058 -0.825000 5.000000
      vertex 12.401924 -1.500000 5.000000
      vertex 12.878679 -2.121320 5.000000
    endloop
  endfacet
  facet normal 0.000000 0.000000 1.000000
    outer loop
      vertex 17.897778 -0.776457 5.000000
      vertex 16.428942 -0.825000 5.000000
      vertex 17.598076 -1.500000 5.000000
    endloop
  endfacet
  facet normal 0.000000 0.000000 1.000000
    outer loop
      vertex 13.571058 -0.825000 5.000000
      vertex 12.878679 -2.121320 5.000000
      vertex 13.833274 -1.166726 5.000000
    endloop
  endfacet
  facet normal 0.000000 0.000000 1.000000
    outer loop
      vertex 14.223543 2.897778 5.000000
      vertex 13.500000 2.598076 5.000000
      vertex 14.175000 1.428942 5.000000
    endloop
  endfacet
  facet normal 0.000000 0.000000 1.000000
    outer loop
      vertex 14.175000 -1.428942 5.000000
      vertex 12.878679 -2.121320 5.000000
      vertex 13.500000 -2.598076 5.000000
    endloop
  endfacet
  facet normal 0.000000 0.000000 1.000000
    outer loop
      vertex 14.223543 2.897778 5.000000
      vertex 14.572948 1.593778 5.000000
      vertex 15.000000 1.650000 5.000000
    endloop
  endfacet
  facet normal 0.000000 0.000000 1.000000
    outer loop
      vertex 14.223543 2.897778 5.000000
      vertex 14.175000 1.428942 5.000000
      vertex 14.572948 1.593778 5.000000
    endloop
  endfacet
  facet normal 0.000000 0.000000 1.000000
    outer loop
      vertex 14.175000 -1.428942 5.000000
      vertex 13.833274 -1.166726 5.000000
      vertex 12.878679 -2.121320 5.000000
    endloop
  endfacet
  facet normal 0.000000 0.000000 1.000000
    outer loop
      vertex 13.406222 -0.427051 5.000000
      vertex 12.102222 -0.776457 5.000000
      vertex 12.401924 -1.500000 5.000000
    endloop
  endfacet
  facet normal 0.000000 0.000000 1.000000
    outer loop
      vertex 13.406222 -0.427051 5.000000
      vertex 12.401924 -1.500000 5.000000
      vertex 13.571058 -0.825000 5.000000
    endloop
  endfacet
  facet normal 0.000000 0.000000 1.000000
    outer loop
      vertex 14.572948 -1.593778 5.000000
      vertex 13.500000 -2.598076 5.000000
      vertex 14.223543 -2.897778 5.000000
    endloop
  endfacet
  facet normal 0.000000 0.000000 1.000000
    outer loop
      vertex 14.572948 -1.593778 5.000000
      vertex 14.175000 -1.428942 5.000000
      vertex 13.500000 -2.598076 5.000000
    endloop
  endfacet
  facet normal 0.000000 0.000000 1.000000
    outer loop
      vertex 15.000000 -1.650000 5.000000
      vertex 14.223543 -2.897778 5.000000
      vertex 15.000000 -3.000000 5.000000
    endloop
  endfacet
  facet normal 0.000000 0.000000 1.000000
    outer loop
      vertex 18.000000 0.000000 5.000000
      vertex 16.593777 -0.427051 5.000000
      vertex 17.897778 -0.776457 5.000000
    endloop
  endfacet
  facet normal 0.000000 0.000000 1.000000
    outer loop
      vertex 15.000000 -1.650000 5.000000
      vertex 14.572948 -1.593778 5.000000
      vertex 14.223543 -2.897778 5.000000
    endloop
  endfacet
  facet normal 0.000000 0.000000 1.000000
    outer loop
      vertex 13.350000 -0.000000 5.000000
      vertex 12.000000 -0.000000 5.000000
      vertex 12.102222 -0.776457 5.000000
    endloop
  endfacet
  facet normal 0.000000 0.000000 1.000000
    outer loop
      vertex 18.000000 0.000000 5.000000
      vertex 16.650000 0.000000 5.000000
      vertex 16.593777 -0.427051 5.000000
    endloop
  endfacet
  facet normal 0.000000 0.000000 1.000000
    outer loop
      vertex 13.350000 -0.000000 5.000000
      vertex 12.102222 -0.776457 5.000000
      vertex 13.406222 -0.427051 5.000000
    endloop
  endfacet
  facet normal 0.000000 0.000000 1.000000
    outer loop
      vertex 15.000000 3.000000 5.000000
      vertex 14.223543 2.897778 5.000000
      vertex 15.000000 1.650000 5.000000
    endloop
  endfacet
  facet normal 0.000000 0.000000 1.000000
    outer loop
      vertex 15.427052 -1.593778 5.000000
      vertex 15.000000 -3.000000 5.000000
      vertex 15.776457 -2.897778 5.000000
    endloop
  endfacet
  facet normal 0.000000 0.000000 1.000000
    outer loop
      vertex 17.897778 0.776457 5.000000
      vertex 16.593777 0.427051 5.000000
      vertex 16.650000 0.000000 5.000000
    endloop
  endfacet
  facet normal 0.000000 0.000000 1.000000
    outer loop
      vertex 15.427052 -1.593778 5.000000
      vertex 15.000000 -1.650000 5.000000
      vertex 15.000000 -3.000000 5.000000
    endloop
  endfacet
  facet normal 0.000000 0.000000 1.000000
    outer loop
      vertex 17.897778 0.776457 5.000000
      vertex 16.650000 0.000000 5.000000
      vertex 18.000000 0.000000 5.000000
    endloop
  endfacet
  facet normal 0.000000 0.000000 1.000000
    outer loop
      vertex 13.406222 0.427051 5.000000
      vertex 12.102222 0.776457 5.000000
      vertex 12.000000 -0.000000 5.000000
    endloop
  endfacet
  facet normal 0.000000 0.000000 1.000000
    outer loop
      vertex 15.776457 2.897778 5.000000
      vertex 15.000000 3.000000 5.000000
      vertex 15.000000 1.650000 5.000000
    endloop
  endfacet
  facet normal 0.000000 0.000000 1.000000
    outer loop
      vertex 15.776457 2.897778 5.000000
      vertex 15.000000 1.650000 5.000000
      vertex 15.427052 1.593778 5.000000
    endloop
  endfacet
  facet normal 0.000000 0.000000 1.000000
    outer loop
      vertex 13.406222 0.427051 5.000000
      vertex 12.000000 -0.000000 5.000000
      vertex 13.350000 -0.000000 5.000000
    endloop
  endfacet
  facet normal 0.000000 0.000000 1.000000
    outer loop
      vertex 16.500000 2.598076 5.000000
      vertex 15.427052 1.593778 5.000000
      vertex 15.825000 1.428942 5.000000
    endloop
  endfacet
  facet normal 0.000000 0.000000 1.000000
    outer loop
      vertex 16.500000 2.598076 5.000000
      vertex 15.776457 2.897778 5.000000
      vertex 15.427052 1.593778 5.000000
    endloop
  endfacet
  facet normal 0.000000 0.000000 1.000000
    outer loop
      vertex 17.598076 1.500000 5.000000
      vertex 16.428942 0.825000 5.000000
      vertex 16.593777 0.427051 5.000000
    endloop
  endfacet
  facet normal 0.000000 0.000000 1.000000
    outer loop
      vertex 15.825000 -1.428942 5.000000
      vertex 15.776457 -2.897778 5.000000
      vertex 16.500000 -2.598076 5.000000
    endloop
  endfacet
  facet normal 0.000000 0.000000 1.000000
    outer loop
      vertex 17.598076 1.500000 5.000000
      vertex 16.593777 0.427051 5.000000
      vertex 17.897778 0.776457 5.000000
    endloop
  endfacet
  facet normal 0.000000 0.000000 1.000000
    outer loop
      vertex 17.121321 2.121320 5.000000
      vertex 16.166727 1.166726 5.000000
      vertex 16.428942 0.825000 5.000000
    endloop
  endfacet
  facet normal 0.000000 0.000000 1.000000
    outer loop
      vertex 17.121321 2.121320 5.000000
      vertex 15.825000 1.428942 5.000000
      vertex 16.166727 1.166726 5.000000
    endloop
  endfacet
  facet normal 0.000000 0.000000 1.000000
    outer loop
      vertex 15.825000 -1.428942 5.000000
      vertex 15.427052 -1.593778 5.000000
      vertex 15.776457 -2.897778 5.000000
    endloop
  endfacet
  facet normal 0.000000 0.000000 1.000000
    outer loop
      vertex 17.121321 2.121320 5.000000
      vertex 16.428942 0.825000 5.000000
      vertex 17.598076 1.500000 5.000000
    endloop
  endfacet
  facet normal 0.000000 0.000000 1.000000
    outer loop
      vertex 17.121321 2.121320 5.000000
      vertex 16.500000 2.598076 5.000000
      vertex 15.825000 1.428942 5.000000
    endloop
  endfacet
  facet normal 0.000000 0.000000 1.000000
    outer loop
      vertex 13.571058 0.825000 5.000000
      vertex 12.401924 1.500000 5.000000
      vertex 12.102222 0.776457 5.000000
    endloop
  endfacet
  facet normal 0.000000 0.000000 1.000000
    outer loop
      vertex 13.571058 0.825000 5.000000
      vertex 12.102222 0.776457 5.000000
      vertex 13.406222 0.427051 5.000000
    endloop
  endfacet
  facet normal 0.000000 0.000000 1.000000
    outer loop
      vertex 16.166727 -1.166726 5.000000
      vertex 16.500000 -2.598076 5.000000
      vertex 17.121321 -2.121320 5.000000
    endloop
  endfacet
  facet normal 0.000000 0.000000 1.000000
    outer loop
      vertex 16.166727 -1.166726 5.000000
      vertex 15.825000 -1.428942 5.000000
      vertex 16.500000 -2.598076 5.000000
    endloop
  endfacet
  facet normal 0.000000 0.000000 1.000000
    outer loop
      vertex 12.878679 2.121320 5.000000
      vertex 13.571058 0.825000 5.000000
      vertex 13.833274 1.166726 5.000000
    endloop
  endfacet
  facet normal 0.000000 0.000000 1.000000
    outer loop
      vertex 12.878679 2.121320 5.000000
      vertex 12.401924 1.500000 5.000000
      vertex 13.571058 0.825000 5.000000
    endloop
  endfacet
  facet normal 0.000000 0.000000 1.000000
    outer loop
      vertex 17.598076 -1.500000 5.000000
      vertex 16.428942 -0.825000 5.000000
      vertex 16.166727 -1.166726 5.000000
    endloop
  endfacet
  facet normal 0.000000 0.000000 1.000000
    outer loop
      vertex 17.598076 -1.500000 5.000000
      vertex 16.166727 -1.166726 5.000000
      vertex 17.121321 -2.121320 5.000000
    endloop
  endfacet
  facet normal 0.000000 0.000000 1.000000
    outer loop
      vertex 13.500000 2.598076 5.000000
      vertex 12.878679 2.121320 5.000000
      vertex 13.833274 1.166726 5.000000
    endloop
  endfacet
  facet normal 0.000000 0.000000 1.000000
    outer loop
      vertex 13.500000 2.598076 5.000000
      vertex 13.833274 1.166726 5.000000
      vertex 14.175000 1.428942 5.000000
    endloop
  endfacet
  facet normal -0.130526 0.991445 0.000000
    outer loop
      vertex 15.776457 -2.897778 5.000000
      vertex 15.000000 -3.000000 8.000000
      vertex 15.776457 -2.897778 8.000000
    endloop
  endfacet
  facet normal -0.130526 0.991445 0.000000
    outer loop
      vertex 15.776457 -2.897778 5.000000
      vertex 15.000000 -3.000000 5.000000
      vertex 15.000000 -3.000000 8.000000
    endloop
  endfacet
  facet normal -0.382683 0.923880 0.000000
    outer loop
      vertex 16.500000 -2.598076 5.000000
      vertex 15.776457 -2.897778 8.000000
      vertex 16.500000 -2.598076 8.000000
    endloop
  endfacet
  facet normal -0.382683 0.923880 0.000000
    outer loop
      vertex 16.500000 -2.598076 5.000000
      vertex 15.776457 -2.897778 5.000000
      vertex 15.776457 -2.897778 8.000000
    endloop
  endfacet
  facet normal -0.608761 0.793354 0.000000
    outer loop
      vertex 17.121321 -2.121320 5.000000
      vertex 16.500000 -2.598076 8.000000
      vertex 17.121321 -2.121320 8.000000
    endloop
  endfacet
  facet normal -0.608761 0.793354 0.000000
    outer loop
      vertex 17.121321 -2.121320 5.000000
      vertex 16.500000 -2.598076 5.000000
      vertex 16.500000 -2.598076 8.000000
    endloop
  endfacet
  facet normal -0.991445 -0.130526 0.000000
    outer loop
      vertex 17.897778 0.776457 5.000000
      vertex 18.000000 0.000000 8.000000
      vertex 17.897778 0.776457 8.000000
    endloop
  endfacet
  facet normal -0.991445 -0.130526 0.000000
    outer loop
      vertex 17.897778 0.776457 5.000000
      vertex 18.000000 0.000000 5.000000
      vertex 18.000000 0.000000 8.000000
    endloop
  endfacet
  facet normal -0.793354 0.608761 0.000000
    outer loop
      vertex 17.598076 -1.500000 5.000000
      vertex 17.121321 -2.121320 8.000000
      vertex 17.598076 -1.500000 8.000000
    endloop
  endfacet
  facet normal -0.793354 0.608761 0.000000
    outer loop
      vertex 17.598076 -1.500000 5.000000
      vertex 17.121321 -2.121320 5.000000
      vertex 17.121321 -2.121320 8.000000
    endloop
  endfacet
  facet normal -0.923879 -0.382684 0.000000
    outer loop
      vertex 17.598076 1.500000 5.000000
      vertex 17.897778 0.776457 8.000000
      vertex 17.598076 1.500000 8.000000
    endloop
  endfacet
  facet normal -0.923879 -0.382684 0.000000
    outer loop
      vertex 17.598076 1.500000 5.000000
      vertex 17.897778 0.776457 5.000000
      vertex 17.897778 0.776457 8.000000
    endloop
  endfacet
  facet normal -0.923879 0.382684 0.000000
    outer loop
      vertex 17.897778 -0.776457 5.000000
      vertex 17.598076 -1.500000 8.000000
      vertex 17.897778 -0.776457 8.000000
    endloop
  endfacet
  facet normal -0.923879 0.382684 0.000000
    outer loop
      vertex 17.897778 -0.776457 5.000000
      vertex 17.598076 -1.500000 5.000000
      vertex 17.598076 -1.500000 8.000000
    endloop
  endfacet
  facet normal -0.793354 -0.608761 0.000000
    outer loop
      vertex 17.121321 2.121320 5.000000
      vertex 17.598076 1.500000 8.000000
      vertex 17.121321 2.121320 8.000000
    endloop
  endfacet
  facet normal -0.991445 0.130526 0.000000
    outer loop
      vertex 18.000000 0.000000 5.000000
      vertex 17.897778 -0.776457 8.000000
      vertex 18.000000 0.000000 8.000000
    endloop
  endfacet
  facet normal -0.793354 -0.608761 0.000000
    outer loop
      vertex 17.121321 2.121320 5.000000
      vertex 17.598076 1.500000 5.000000
      vertex 17.598076 1.500000 8.000000
    endloop
  endfacet
  facet normal -0.991445 0.130526 0.000000
    outer loop
      vertex 18.000000 0.000000 5.000000
      vertex 17.897778 -0.776457 5.000000
      vertex 17.897778 -0.776457 8.000000
    endloop
  endfacet
  facet normal -0.608761 -0.793354 0.000000
    outer loop
      vertex 16.500000 2.598076 5.000000
      vertex 17.121321 2.121320 8.000000
      vertex 16.500000 2.598076 8.000000
    endloop
  endfacet
  facet normal -0.608761 -0.793354 0.000000
    outer loop
      vertex 16.500000 2.598076 5.000000
      vertex 17.121321 2.121320 5.000000
      vertex 17.121321 2.121320 8.000000
    endloop
  endfacet
  facet normal -0.382683 -0.923880 0.000000
    outer loop
      vertex 15.776457 2.897778 5.000000
      vertex 16.500000 2.598076 8.000000
      vertex 15.776457 2.897778 8.000000
    endloop
  endfacet
  facet normal -0.382683 -0.923880 0.000000
    outer loop
      vertex 15.776457 2.897778 5.000000
      vertex 16.500000 2.598076 5.000000
      vertex 16.500000 2.598076 8.000000
    endloop
  endfacet
  facet normal -0.130526 -0.991445 0.000000
    outer loop
      vertex 15.000000 3.000000 5.000000
      vertex 15.776457 2.897778 8.000000
      vertex 15.000000 3.000000 8.000000
    endloop
  endfacet
  facet normal -0.130526 -0.991445 0.000000
    outer loop
      vertex 15.000000 3.000000 5.000000
      vertex 15.776457 2.897778 5.000000
      vertex 15.776457 2.897778 8.000000
    endloop
  endfacet
  facet normal 0.130526 -0.991445 0.000000
    outer loop
      vertex 14.223543 2.897778 5.000000
      vertex 15.000000 3.000000 8.000000
      vertex 14.223543 2.897778 8.000000
    endloop
  endfacet
  facet normal 0.130526 -0.991445 0.000000
    outer loop
      vertex 14.223543 2.897778 5.000000
      vertex 15.000000 3.000000 5.000000
      vertex 15.000000 3.000000 8.000000
    endloop
  endfacet
  facet normal 0.382683 -0.923880 0.000000
    outer loop
      vertex 13.500000 2.598076 5.000000
      vertex 14.223543 2.897778 8.000000
      vertex 13.500000 2.598076 8.000000
    endloop
  endfacet
  facet normal 0.382683 -0.923880 0.000000
    outer loop
      vertex 13.500000 2.598076 5.000000
      vertex 14.223543 2.897778 5.000000
      vertex 14.223543 2.897778 8.000000
    endloop
  endfacet
  facet normal 0.608761 -0.793354 0.000000
    outer loop
      vertex 12.878679 2.121320 5.000000
      vertex 13.500000 2.598076 8.000000
      vertex 12.878679 2.121320 8.000000
    endloop
  endfacet
  facet normal 0.608761 -0.793354 0.000000
    outer loop
      vertex 12.878679 2.121320 5.000000
      vertex 13.500000 2.598076 5.000000
      vertex 13.500000 2.598076 8.000000
    endloop
  endfacet
  facet normal 0.793354 -0.608761 0.000000
    outer loop
      vertex 12.401924 1.500000 5.000000
      vertex 12.878679 2.121320 8.000000
      vertex 12.401924 1.500000 8.000000
    endloop
  endfacet
  facet normal 0.793354 -0.608761 0.000000
    outer loop
      vertex 12.401924 1.500000 5.000000
      vertex 12.878679 2.121320 5.000000
      vertex 12.878679 2.121320 8.000000
    endloop
  endfacet
  facet normal 0.923879 -0.382684 0.000000
    outer loop
      vertex 12.102222 0.776457 5.000000
      vertex 12.401924 1.500000 8.000000
      vertex 12.102222 0.776457 8.000000
    endloop
  endfacet
  facet normal 0.923879 -0.382684 0.000000
    outer loop
      vertex 12.102222 0.776457 5.000000
      vertex 12.401924 1.500000 5.000000
      vertex 12.401924 1.500000 8.000000
    endloop
  endfacet
  facet normal 0.991445 -0.130526 0.000000
    outer loop
      vertex 12.000000 -0.000000 5.000000
      vertex 12.102222 0.776457 5.000000
      vertex 12.102222 0.776457 8.000000
    endloop
  endfacet
  facet normal 0.991445 -0.130526 0.000000
    outer loop
      vertex 12.000000 -0.000000 5.000000
      vertex 12.102222 0.776457 8.000000
      vertex 12.000000 -0.000000 8.000000
    endloop
  endfacet
  facet normal 0.991445 0.130526 0.000000
    outer loop
      vertex 12.102222 -0.776457 5.000000
      vertex 12.000000 -0.000000 5.000000
      vertex 12.000000 -0.000000 8.000000
    endloop
  endfacet
  facet normal 0.991445 0.130526 -0.000000
    outer loop
      vertex 12.102222 -0.776457 5.000000
      vertex 12.000000 -0.000000 8.000000
      vertex 12.102222 -0.776457 8.000000
    endloop
  endfacet
  facet normal 0.923879 0.382684 0.000000
    outer loop
      vertex 12.401924 -1.500000 5.000000
      vertex 12.102222 -0.776457 5.000000
      vertex 12.102222 -0.776457 8.000000
    endloop
  endfacet
  facet normal 0.923879 0.382684 -0.000000
    outer loop
      vertex 12.401924 -1.500000 5.000000
      vertex 12.102222 -0.776457 8.000000
      vertex 12.401924 -1.500000 8.000000
    endloop
  endfacet
  facet normal 0.793354 0.608761 -0.000000
    outer loop
      vertex 12.878679 -2.121320 5.000000
      vertex 12.401924 -1.500000 8.000000
      vertex 12.878679 -2.121320 8.000000
    endloop
  endfacet
  facet normal 0.793354 0.608761 0.000000
    outer loop
      vertex 12.878679 -2.121320 5.000000
      vertex 12.401924 -1.500000 5.000000
      vertex 12.401924 -1.500000 8.000000
    endloop
  endfacet
  facet normal 0.608761 0.793354 -0.000000
    outer loop
      vertex 13.500000 -2.598076 5.000000
      vertex 12.878679 -2.121320 8.000000
      vertex 13.500000 -2.598076 8.000000
    endloop
  endfacet
  facet normal 0.608761 0.793354 0.000000
    outer loop
      vertex 13.500000 -2.598076 5.000000
      vertex 12.878679 -2.121320 5.000000
      vertex 12.878679 -2.121320 8.000000
    endloop
  endfacet
  facet normal 0.382683 0.923880 -0.000000
    outer loop
      vertex 14.223543 -2.897778 5.000000
      vertex 13.500000 -2.598076 8.000000
      vertex 14.223543 -2.897778 8.000000
    endloop
  endfacet
  facet normal 0.382683 0.923880 0.000000
    outer loop
      vertex 14.223543 -2.897778 5.000000
      vertex 13.500000 -2.598076 5.000000
      vertex 13.500000 -2.598076 8.000000
    endloop
  endfacet
  facet normal 0.130526 0.991445 -0.000000
    outer loop
      vertex 15.000000 -3.000000 5.000000
      vertex 14.223543 -2.897778 8.000000
      vertex 15.000000 -3.000000 8.000000
    endloop
  endfacet
  facet normal 0.130526 0.991445 0.000000
    outer loop
      vertex 15.000000 -3.000000 5.000000
      vertex 14.223543 -2.897778 5.000000
      vertex 14.223543 -2.897778 8.000000
    endloop
  endfacet
endsolid Mesh
