solid MiniBaseFixtureR (Meshed)
  facet normal 0.000000 -1.000000 0.000000
    outer loop
      vertex 15.000000 -75.000000 3.000000
      vertex 15.000000 -75.000000 -22.000000
      vertex 20.000000 -75.000000 3.000000
    endloop
  endfacet
  facet normal 0.000000 -1.000000 0.000000
    outer loop
      vertex 15.000000 -75.000000 -22.000000
      vertex 35.000000 -75.000000 -12.000000
      vertex 20.000000 -75.000000 3.000000
    endloop
  endfacet
  facet normal 0.000000 -1.000000 0.000000
    outer loop
      vertex 15.000000 -75.000000 -22.000000
      vertex 35.000000 -75.000000 -22.000000
      vertex 35.000000 -75.000000 -12.000000
    endloop
  endfacet
  facet normal 1.000000 0.000000 0.000000
    outer loop
      vertex 35.000000 -75.000000 -22.000000
      vertex 35.000000 -70.000000 -22.000000
      vertex 35.000000 -75.000000 -12.000000
    endloop
  endfacet
  facet normal 1.000000 -0.000000 0.000000
    outer loop
      vertex 35.000000 -75.000000 -12.000000
      vertex 35.000000 -70.000000 -22.000000
      vertex 35.000000 -70.000000 -12.000000
    endloop
  endfacet
  facet normal 0.707107 0.000000 0.707107
    outer loop
      vertex 20.000000 -70.000000 3.000000
      vertex 20.000000 -75.000000 3.000000
      vertex 35.000000 -75.000000 -12.000000
    endloop
  endfacet
  facet normal 0.707107 0.000000 0.707107
    outer loop
      vertex 20.000000 -70.000000 3.000000
      vertex 35.000000 -75.000000 -12.000000
      vertex 35.000000 -70.000000 -12.000000
    endloop
  endfacet
  facet normal 0.000000 -1.000000 0.000000
    outer loop
      vertex 15.000000 -75.000000 -22.000000
      vertex 35.000000 -75.000000 -27.000000
      vertex 35.000000 -75.000000 -22.000000
    endloop
  endfacet
  facet normal 0.000000 -1.000000 0.000000
    outer loop
      vertex -15.000000 -75.000000 -27.000000
      vertex 3.500000 -75.000000 -22.000000
      vertex -3.500000 -75.000000 -22.000000
    endloop
  endfacet
  facet normal 0.000000 -1.000000 0.000000
    outer loop
      vertex -15.000000 -75.000000 -27.000000
      vertex -3.500000 -75.000000 -22.000000
      vertex -15.000000 -75.000000 -22.000000
    endloop
  endfacet
  facet normal 0.000000 -1.000000 0.000000
    outer loop
      vertex -15.000000 -75.000000 -27.000000
      vertex 35.000000 -75.000000 -27.000000
      vertex 15.000000 -75.000000 -22.000000
    endloop
  endfacet
  facet normal 0.000000 -1.000000 0.000000
    outer loop
      vertex -15.000000 -75.000000 -27.000000
      vertex 15.000000 -75.000000 -22.000000
      vertex 3.500000 -75.000000 -22.000000
    endloop
  endfacet
  facet normal -0.000000 0.000000 1.000000
    outer loop
      vertex 15.000000 -30.000000 3.000000
      vertex 20.000000 -35.000000 3.000000
      vertex 20.000000 -30.000000 3.000000
    endloop
  endfacet
  facet normal 0.000000 0.000000 1.000000
    outer loop
      vertex 15.000000 -75.000000 3.000000
      vertex 20.000000 -70.000000 3.000000
      vertex 20.000000 -35.000000 3.000000
    endloop
  endfacet
  facet normal 0.000000 0.000000 1.000000
    outer loop
      vertex 15.000000 -75.000000 3.000000
      vertex 20.000000 -75.000000 3.000000
      vertex 20.000000 -70.000000 3.000000
    endloop
  endfacet
  facet normal 0.000000 0.000000 1.000000
    outer loop
      vertex 15.000000 -75.000000 3.000000
      vertex 20.000000 -35.000000 3.000000
      vertex 15.000000 -30.000000 3.000000
    endloop
  endfacet
  facet normal -1.000000 0.000000 0.000000
    outer loop
      vertex 15.000000 -48.005325 -4.878680
      vertex 15.000000 -48.626644 -4.401924
      vertex 15.000000 -30.000000 3.000000
    endloop
  endfacet
  facet normal -1.000000 0.000000 0.000000
    outer loop
      vertex 15.000000 -30.000000 3.000000
      vertex 15.000000 -47.528568 -5.500000
      vertex 15.000000 -48.005325 -4.878680
    endloop
  endfacet
  facet normal -1.000000 0.000000 0.000000
    outer loop
      vertex 15.000000 -30.000000 3.000000
      vertex 15.000000 -47.228867 -6.223543
      vertex 15.000000 -47.528568 -5.500000
    endloop
  endfacet
  facet normal -1.000000 0.000000 0.000000
    outer loop
      vertex 15.000000 -48.626644 -4.401924
      vertex 15.000000 -49.350185 -4.102222
      vertex 15.000000 -30.000000 3.000000
    endloop
  endfacet
  facet normal -1.000000 0.000000 0.000000
    outer loop
      vertex 15.000000 -30.000000 3.000000
      vertex 15.000000 -47.126644 -7.000000
      vertex 15.000000 -47.228867 -6.223543
    endloop
  endfacet
  facet normal -1.000000 0.000000 0.000000
    outer loop
      vertex 15.000000 -49.350185 -4.102222
      vertex 15.000000 -50.126644 -4.000000
      vertex 15.000000 -30.000000 3.000000
    endloop
  endfacet
  facet normal -1.000000 0.000000 0.000000
    outer loop
      vertex 15.000000 -30.000000 -22.000000
      vertex 15.000000 -47.228867 -7.776457
      vertex 15.000000 -30.000000 3.000000
    endloop
  endfacet
  facet normal -1.000000 0.000000 0.000000
    outer loop
      vertex 15.000000 -30.000000 3.000000
      vertex 15.000000 -47.228867 -7.776457
      vertex 15.000000 -47.126644 -7.000000
    endloop
  endfacet
  facet normal -1.000000 0.000000 0.000000
    outer loop
      vertex 15.000000 -30.000000 -22.000000
      vertex 15.000000 -47.528568 -8.500000
      vertex 15.000000 -47.228867 -7.776457
    endloop
  endfacet
  facet normal -1.000000 0.000000 0.000000
    outer loop
      vertex 15.000000 -30.000000 -22.000000
      vertex 15.000000 -48.005325 -9.121321
      vertex 15.000000 -47.528568 -8.500000
    endloop
  endfacet
  facet normal -1.000000 0.000000 0.000000
    outer loop
      vertex 15.000000 -30.000000 -22.000000
      vertex 15.000000 -48.626644 -9.598076
      vertex 15.000000 -48.005325 -9.121321
    endloop
  endfacet
  facet normal -1.000000 0.000000 0.000000
    outer loop
      vertex 15.000000 -30.000000 -22.000000
      vertex 15.000000 -49.350185 -9.897778
      vertex 15.000000 -48.626644 -9.598076
    endloop
  endfacet
  facet normal -1.000000 0.000000 0.000000
    outer loop
      vertex 15.000000 -30.000000 -22.000000
      vertex 15.000000 -50.126644 -10.000000
      vertex 15.000000 -49.350185 -9.897778
    endloop
  endfacet
  facet normal -1.000000 0.000000 0.000000
    outer loop
      vertex 15.000000 -50.903103 -4.102222
      vertex 15.000000 -75.000000 3.000000
      vertex 15.000000 -50.126644 -4.000000
    endloop
  endfacet
  facet normal -1.000000 0.000000 0.000000
    outer loop
      vertex 15.000000 -51.626644 -4.401924
      vertex 15.000000 -75.000000 3.000000
      vertex 15.000000 -50.903103 -4.102222
    endloop
  endfacet
  facet normal -1.000000 0.000000 0.000000
    outer loop
      vertex 15.000000 -52.247963 -4.878680
      vertex 15.000000 -75.000000 3.000000
      vertex 15.000000 -51.626644 -4.401924
    endloop
  endfacet
  facet normal -1.000000 0.000000 0.000000
    outer loop
      vertex 15.000000 -52.724720 -5.500000
      vertex 15.000000 -75.000000 3.000000
      vertex 15.000000 -52.247963 -4.878680
    endloop
  endfacet
  facet normal -1.000000 0.000000 0.000000
    outer loop
      vertex 15.000000 -53.024422 -6.223543
      vertex 15.000000 -75.000000 3.000000
      vertex 15.000000 -52.724720 -5.500000
    endloop
  endfacet
  facet normal -1.000000 0.000000 0.000000
    outer loop
      vertex 15.000000 -53.126644 -7.000000
      vertex 15.000000 -75.000000 3.000000
      vertex 15.000000 -53.024422 -6.223543
    endloop
  endfacet
  facet normal -1.000000 0.000000 0.000000
    outer loop
      vertex 15.000000 -53.024422 -7.776457
      vertex 15.000000 -75.000000 3.000000
      vertex 15.000000 -53.126644 -7.000000
    endloop
  endfacet
  facet normal -1.000000 0.000000 0.000000
    outer loop
      vertex 15.000000 -50.126644 -4.000000
      vertex 15.000000 -75.000000 3.000000
      vertex 15.000000 -30.000000 3.000000
    endloop
  endfacet
  facet normal -1.000000 -0.000000 0.000000
    outer loop
      vertex 15.000000 -52.724720 -8.500000
      vertex 15.000000 -75.000000 -22.000000
      vertex 15.000000 -53.024422 -7.776457
    endloop
  endfacet
  facet normal -1.000000 -0.000000 0.000000
    outer loop
      vertex 15.000000 -52.247963 -9.121321
      vertex 15.000000 -75.000000 -22.000000
      vertex 15.000000 -52.724720 -8.500000
    endloop
  endfacet
  facet normal -1.000000 -0.000000 0.000000
    outer loop
      vertex 15.000000 -51.626644 -9.598076
      vertex 15.000000 -75.000000 -22.000000
      vertex 15.000000 -52.247963 -9.121321
    endloop
  endfacet
  facet normal -1.000000 -0.000000 0.000000
    outer loop
      vertex 15.000000 -50.903103 -9.897778
      vertex 15.000000 -75.000000 -22.000000
      vertex 15.000000 -51.626644 -9.598076
    endloop
  endfacet
  facet normal -1.000000 -0.000000 0.000000
    outer loop
      vertex 15.000000 -50.126644 -10.000000
      vertex 15.000000 -75.000000 -22.000000
      vertex 15.000000 -50.903103 -9.897778
    endloop
  endfacet
  facet normal -1.000000 -0.000000 0.000000
    outer loop
      vertex 15.000000 -53.024422 -7.776457
      vertex 15.000000 -75.000000 -22.000000
      vertex 15.000000 -75.000000 3.000000
    endloop
  endfacet
  facet normal -1.000000 0.000000 0.000000
    outer loop
      vertex 15.000000 -30.000000 -22.000000
      vertex 15.000000 -75.000000 -22.000000
      vertex 15.000000 -50.126644 -10.000000
    endloop
  endfacet
  facet normal 1.000000 -0.000000 0.000000
    outer loop
      vertex 35.000000 -75.000000 -22.000000
      vertex 35.000000 -75.000000 -27.000000
      vertex 35.000000 -70.000000 -22.000000
    endloop
  endfacet
  facet normal 1.000000 -0.000000 0.000000
    outer loop
      vertex 35.000000 -35.000000 -22.000000
      vertex 35.000000 -30.000000 -27.000000
      vertex 35.000000 -30.000000 -22.000000
    endloop
  endfacet
  facet normal 1.000000 0.000000 0.000000
    outer loop
      vertex 35.000000 -75.000000 -27.000000
      vertex 35.000000 -30.000000 -27.000000
      vertex 35.000000 -70.000000 -22.000000
    endloop
  endfacet
  facet normal 1.000000 -0.000000 0.000000
    outer loop
      vertex 35.000000 -70.000000 -22.000000
      vertex 35.000000 -30.000000 -27.000000
      vertex 35.000000 -35.000000 -22.000000
    endloop
  endfacet
  facet normal 0.000000 1.000000 -0.000000
    outer loop
      vertex 35.000000 -70.000000 -22.000000
      vertex 20.000000 -70.000000 -22.000000
      vertex 35.000000 -70.000000 -12.000000
    endloop
  endfacet
  facet normal 0.000000 1.000000 0.000000
    outer loop
      vertex 35.000000 -70.000000 -12.000000
      vertex 20.000000 -70.000000 -22.000000
      vertex 20.000000 -70.000000 3.000000
    endloop
  endfacet
  facet normal -1.000000 0.000000 0.000000
    outer loop
      vertex -15.000000 -30.000000 -27.000000
      vertex -15.000000 -75.000000 -27.000000
      vertex -15.000000 -75.000000 -22.000000
    endloop
  endfacet
  facet normal -1.000000 0.000000 0.000000
    outer loop
      vertex -15.000000 -30.000000 -27.000000
      vertex -15.000000 -75.000000 -22.000000
      vertex -15.000000 -30.000000 -22.000000
    endloop
  endfacet
  facet normal 0.000000 0.000000 -1.000000
    outer loop
      vertex 25.850000 -41.472244 -27.000000
      vertex 25.439993 -63.357925 -27.000000
      vertex 25.439993 -41.642075 -27.000000
    endloop
  endfacet
  facet normal 0.000000 0.000000 -1.000000
    outer loop
      vertex 35.000000 -30.000000 -27.000000
      vertex 26.472242 -39.150002 -27.000000
      vertex 26.202082 -38.797920 -27.000000
    endloop
  endfacet
  facet normal 0.000000 0.000000 -1.000000
    outer loop
      vertex 25.439993 -63.357925 -27.000000
      vertex 25.000000 -63.299999 -27.000000
      vertex 25.439993 -41.642075 -27.000000
    endloop
  endfacet
  facet normal 0.000000 0.000000 -1.000000
    outer loop
      vertex 26.202082 -38.797920 -27.000000
      vertex 25.850000 -38.527756 -27.000000
      vertex 35.000000 -30.000000 -27.000000
    endloop
  endfacet
  facet normal 0.000000 0.000000 -1.000000
    outer loop
      vertex 25.439993 -41.642075 -27.000000
      vertex 25.000000 -63.299999 -27.000000
      vertex 25.000000 -41.700001 -27.000000
    endloop
  endfacet
  facet normal 0.000000 0.000000 -1.000000
    outer loop
      vertex 35.000000 -30.000000 -27.000000
      vertex 26.642075 -39.560009 -27.000000
      vertex 26.472242 -39.150002 -27.000000
    endloop
  endfacet
  facet normal 0.000000 0.000000 -1.000000
    outer loop
      vertex 25.850000 -38.527756 -27.000000
      vertex 25.439993 -38.357925 -27.000000
      vertex 35.000000 -30.000000 -27.000000
    endloop
  endfacet
  facet normal -0.000000 0.000000 -1.000000
    outer loop
      vertex 25.000000 -63.299999 -27.000000
      vertex 24.560007 -63.357925 -27.000000
      vertex 25.000000 -41.700001 -27.000000
    endloop
  endfacet
  facet normal 0.000000 0.000000 -1.000000
    outer loop
      vertex 35.000000 -30.000000 -27.000000
      vertex 26.700001 -40.000000 -27.000000
      vertex 26.642075 -39.560009 -27.000000
    endloop
  endfacet
  facet normal -0.000000 -0.000000 -1.000000
    outer loop
      vertex 24.560007 -41.642075 -27.000000
      vertex 24.560007 -63.357925 -27.000000
      vertex 24.150000 -41.472244 -27.000000
    endloop
  endfacet
  facet normal -0.000000 0.000000 -1.000000
    outer loop
      vertex 25.000000 -41.700001 -27.000000
      vertex 24.560007 -63.357925 -27.000000
      vertex 24.560007 -41.642075 -27.000000
    endloop
  endfacet
  facet normal 0.000000 0.000000 -1.000000
    outer loop
      vertex 25.439993 -38.357925 -27.000000
      vertex 25.000000 -38.299999 -27.000000
      vertex 35.000000 -30.000000 -27.000000
    endloop
  endfacet
  facet normal 0.000000 0.000000 -1.000000
    outer loop
      vertex 35.000000 -30.000000 -27.000000
      vertex 26.642075 -40.439991 -27.000000
      vertex 26.700001 -40.000000 -27.000000
    endloop
  endfacet
  facet normal -0.000000 0.000000 -1.000000
    outer loop
      vertex 24.560007 -63.357925 -27.000000
      vertex 24.150000 -63.527756 -27.000000
      vertex 24.150000 -41.472244 -27.000000
    endloop
  endfacet
  facet normal -0.000000 0.000000 -1.000000
    outer loop
      vertex 25.000000 -38.299999 -27.000000
      vertex 24.560007 -38.357925 -27.000000
      vertex 35.000000 -30.000000 -27.000000
    endloop
  endfacet
  facet normal 0.000000 0.000000 -1.000000
    outer loop
      vertex 26.472242 -40.849998 -27.000000
      vertex 35.000000 -75.000000 -27.000000
      vertex 26.472242 -64.150002 -27.000000
    endloop
  endfacet
  facet normal 0.000000 -0.000000 -1.000000
    outer loop
      vertex 26.642075 -65.439995 -27.000000
      vertex 35.000000 -75.000000 -27.000000
      vertex 26.472242 -65.849998 -27.000000
    endloop
  endfacet
  facet normal 0.000000 -0.000000 -1.000000
    outer loop
      vertex 26.700001 -65.000000 -27.000000
      vertex 35.000000 -75.000000 -27.000000
      vertex 26.642075 -65.439995 -27.000000
    endloop
  endfacet
  facet normal 0.000000 0.000000 -1.000000
    outer loop
      vertex 26.642075 -64.560005 -27.000000
      vertex 35.000000 -75.000000 -27.000000
      vertex 26.700001 -65.000000 -27.000000
    endloop
  endfacet
  facet normal 0.000000 0.000000 -1.000000
    outer loop
      vertex 26.472242 -64.150002 -27.000000
      vertex 35.000000 -75.000000 -27.000000
      vertex 26.642075 -64.560005 -27.000000
    endloop
  endfacet
  facet normal 0.000000 0.000000 -1.000000
    outer loop
      vertex 35.000000 -30.000000 -27.000000
      vertex 26.472242 -40.849998 -27.000000
      vertex 26.642075 -40.439991 -27.000000
    endloop
  endfacet
  facet normal 0.000000 -0.000000 -1.000000
    outer loop
      vertex 35.000000 -30.000000 -27.000000
      vertex 35.000000 -75.000000 -27.000000
      vertex 26.472242 -40.849998 -27.000000
    endloop
  endfacet
  facet normal -0.000000 0.000000 -1.000000
    outer loop
      vertex 24.150000 -63.527756 -27.000000
      vertex 23.797918 -63.797920 -27.000000
      vertex 24.150000 -41.472244 -27.000000
    endloop
  endfacet
  facet normal -0.000000 0.000000 -1.000000
    outer loop
      vertex 24.560007 -38.357925 -27.000000
      vertex 24.150000 -38.527756 -27.000000
      vertex 35.000000 -30.000000 -27.000000
    endloop
  endfacet
  facet normal -0.000000 0.000000 -1.000000
    outer loop
      vertex 24.150000 -41.472244 -27.000000
      vertex 23.797918 -63.797920 -27.000000
      vertex 23.797918 -41.202080 -27.000000
    endloop
  endfacet
  facet normal 0.000000 0.000000 -1.000000
    outer loop
      vertex 35.000000 -75.000000 -27.000000
      vertex 26.202082 -66.202080 -27.000000
      vertex 26.472242 -65.849998 -27.000000
    endloop
  endfacet
  facet normal 0.000000 0.000000 -1.000000
    outer loop
      vertex 35.000000 -75.000000 -27.000000
      vertex 25.850000 -66.472244 -27.000000
      vertex 26.202082 -66.202080 -27.000000
    endloop
  endfacet
  facet normal -0.000000 0.000000 -1.000000
    outer loop
      vertex 23.797918 -41.202080 -27.000000
      vertex 23.527758 -64.150002 -27.000000
      vertex 23.527758 -40.849998 -27.000000
    endloop
  endfacet
  facet normal -0.000000 0.000000 -1.000000
    outer loop
      vertex 23.797918 -63.797920 -27.000000
      vertex 23.527758 -64.150002 -27.000000
      vertex 23.797918 -41.202080 -27.000000
    endloop
  endfacet
  facet normal 0.000000 0.000000 -1.000000
    outer loop
      vertex 35.000000 -75.000000 -27.000000
      vertex 25.439993 -66.642075 -27.000000
      vertex 25.850000 -66.472244 -27.000000
    endloop
  endfacet
  facet normal 0.000000 0.000000 -1.000000
    outer loop
      vertex 35.000000 -75.000000 -27.000000
      vertex 25.000000 -66.699997 -27.000000
      vertex 25.439993 -66.642075 -27.000000
    endloop
  endfacet
  facet normal 0.000000 0.000000 -1.000000
    outer loop
      vertex 35.000000 -75.000000 -27.000000
      vertex 24.560007 -66.642075 -27.000000
      vertex 25.000000 -66.699997 -27.000000
    endloop
  endfacet
  facet normal 0.000000 0.000000 -1.000000
    outer loop
      vertex 35.000000 -75.000000 -27.000000
      vertex 24.150000 -66.472244 -27.000000
      vertex 24.560007 -66.642075 -27.000000
    endloop
  endfacet
  facet normal 0.000000 0.000000 -1.000000
    outer loop
      vertex 23.357925 -40.439991 -27.000000
      vertex -15.000000 -30.000000 -27.000000
      vertex 23.299999 -40.000000 -27.000000
    endloop
  endfacet
  facet normal 0.000000 0.000000 -1.000000
    outer loop
      vertex 23.527758 -40.849998 -27.000000
      vertex -15.000000 -30.000000 -27.000000
      vertex 23.357925 -40.439991 -27.000000
    endloop
  endfacet
  facet normal 0.000000 0.000000 -1.000000
    outer loop
      vertex 23.797918 -38.797920 -27.000000
      vertex -15.000000 -30.000000 -27.000000
      vertex 24.150000 -38.527756 -27.000000
    endloop
  endfacet
  facet normal 0.000000 0.000000 -1.000000
    outer loop
      vertex 23.527758 -39.150002 -27.000000
      vertex -15.000000 -30.000000 -27.000000
      vertex 23.797918 -38.797920 -27.000000
    endloop
  endfacet
  facet normal 0.000000 0.000000 -1.000000
    outer loop
      vertex 23.357925 -39.560009 -27.000000
      vertex -15.000000 -30.000000 -27.000000
      vertex 23.527758 -39.150002 -27.000000
    endloop
  endfacet
  facet normal 0.000000 0.000000 -1.000000
    outer loop
      vertex 23.299999 -40.000000 -27.000000
      vertex -15.000000 -30.000000 -27.000000
      vertex 23.357925 -39.560009 -27.000000
    endloop
  endfacet
  facet normal 0.000000 0.000000 -1.000000
    outer loop
      vertex 24.150000 -38.527756 -27.000000
      vertex -15.000000 -30.000000 -27.000000
      vertex 35.000000 -30.000000 -27.000000
    endloop
  endfacet
  facet normal -0.000000 0.000000 -1.000000
    outer loop
      vertex 23.357925 -65.439995 -27.000000
      vertex -15.000000 -75.000000 -27.000000
      vertex 23.299999 -65.000000 -27.000000
    endloop
  endfacet
  facet normal -0.000000 0.000000 -1.000000
    outer loop
      vertex 23.527758 -65.849998 -27.000000
      vertex -15.000000 -75.000000 -27.000000
      vertex 23.357925 -65.439995 -27.000000
    endloop
  endfacet
  facet normal -0.000000 0.000000 -1.000000
    outer loop
      vertex 23.797918 -66.202080 -27.000000
      vertex -15.000000 -75.000000 -27.000000
      vertex 23.527758 -65.849998 -27.000000
    endloop
  endfacet
  facet normal -0.000000 0.000000 -1.000000
    outer loop
      vertex 24.150000 -66.472244 -27.000000
      vertex -15.000000 -75.000000 -27.000000
      vertex 23.797918 -66.202080 -27.000000
    endloop
  endfacet
  facet normal -0.000000 0.000000 -1.000000
    outer loop
      vertex 23.357925 -64.560005 -27.000000
      vertex -15.000000 -75.000000 -27.000000
      vertex 23.527758 -64.150002 -27.000000
    endloop
  endfacet
  facet normal -0.000000 0.000000 -1.000000
    outer loop
      vertex 23.299999 -65.000000 -27.000000
      vertex -15.000000 -75.000000 -27.000000
      vertex 23.357925 -64.560005 -27.000000
    endloop
  endfacet
  facet normal -0.000000 0.000000 -1.000000
    outer loop
      vertex 23.527758 -64.150002 -27.000000
      vertex -15.000000 -75.000000 -27.000000
      vertex 23.527758 -40.849998 -27.000000
    endloop
  endfacet
  facet normal -0.000000 0.000000 -1.000000
    outer loop
      vertex 23.527758 -40.849998 -27.000000
      vertex -15.000000 -75.000000 -27.000000
      vertex -15.000000 -30.000000 -27.000000
    endloop
  endfacet
  facet normal 0.000000 0.000000 -1.000000
    outer loop
      vertex 35.000000 -75.000000 -27.000000
      vertex -15.000000 -75.000000 -27.000000
      vertex 24.150000 -66.472244 -27.000000
    endloop
  endfacet
  facet normal 0.000000 -0.000000 -1.000000
    outer loop
      vertex 26.472242 -40.849998 -27.000000
      vertex 26.472242 -64.150002 -27.000000
      vertex 26.202082 -41.202080 -27.000000
    endloop
  endfacet
  facet normal 0.000000 0.000000 -1.000000
    outer loop
      vertex 26.202082 -41.202080 -27.000000
      vertex 26.472242 -64.150002 -27.000000
      vertex 26.202082 -63.797920 -27.000000
    endloop
  endfacet
  facet normal 0.000000 0.000000 -1.000000
    outer loop
      vertex 26.202082 -41.202080 -27.000000
      vertex 25.850000 -63.527756 -27.000000
      vertex 25.850000 -41.472244 -27.000000
    endloop
  endfacet
  facet normal 0.000000 0.000000 -1.000000
    outer loop
      vertex 26.202082 -63.797920 -27.000000
      vertex 25.850000 -63.527756 -27.000000
      vertex 26.202082 -41.202080 -27.000000
    endloop
  endfacet
  facet normal 0.000000 0.000000 -1.000000
    outer loop
      vertex 25.850000 -63.527756 -27.000000
      vertex 25.439993 -63.357925 -27.000000
      vertex 25.850000 -41.472244 -27.000000
    endloop
  endfacet
  facet normal 0.000000 0.000000 1.000000
    outer loop
      vertex 3.500000 -75.000000 -22.000000
      vertex 15.000000 -30.000000 -22.000000
      vertex 3.500000 -30.000000 -22.000000
    endloop
  endfacet
  facet normal 0.000000 0.000000 1.000000
    outer loop
      vertex 3.500000 -75.000000 -22.000000
      vertex 15.000000 -75.000000 -22.000000
      vertex 15.000000 -30.000000 -22.000000
    endloop
  endfacet
  facet normal 0.000000 -1.000000 0.000000
    outer loop
      vertex -3.500000 -75.000000 -22.000000
      vertex 3.500000 -75.000000 -22.000000
      vertex 3.500000 -75.000000 -19.000000
    endloop
  endfacet
  facet normal 0.000000 -1.000000 0.000000
    outer loop
      vertex -3.500000 -75.000000 -22.000000
      vertex 3.500000 -75.000000 -19.000000
      vertex -3.500000 -75.000000 -19.000000
    endloop
  endfacet
  facet normal 0.000000 0.000000 1.000000
    outer loop
      vertex -15.000000 -75.000000 -22.000000
      vertex -3.500000 -30.000000 -22.000000
      vertex -15.000000 -30.000000 -22.000000
    endloop
  endfacet
  facet normal 0.000000 0.000000 1.000000
    outer loop
      vertex -15.000000 -75.000000 -22.000000
      vertex -3.500000 -75.000000 -22.000000
      vertex -3.500000 -30.000000 -22.000000
    endloop
  endfacet
  facet normal 0.000000 1.000000 -0.000000
    outer loop
      vertex 35.000000 -30.000000 -22.000000
      vertex 15.000000 -30.000000 -22.000000
      vertex 35.000000 -30.000000 -12.000000
    endloop
  endfacet
  facet normal 0.000000 1.000000 0.000000
    outer loop
      vertex 35.000000 -30.000000 -12.000000
      vertex 15.000000 -30.000000 -22.000000
      vertex 20.000000 -30.000000 3.000000
    endloop
  endfacet
  facet normal 0.000000 1.000000 0.000000
    outer loop
      vertex 20.000000 -30.000000 3.000000
      vertex 15.000000 -30.000000 -22.000000
      vertex 15.000000 -30.000000 3.000000
    endloop
  endfacet
  facet normal 0.707107 0.000000 0.707107
    outer loop
      vertex 20.000000 -30.000000 3.000000
      vertex 20.000000 -35.000000 3.000000
      vertex 35.000000 -35.000000 -12.000000
    endloop
  endfacet
  facet normal 0.707107 0.000000 0.707107
    outer loop
      vertex 20.000000 -30.000000 3.000000
      vertex 35.000000 -35.000000 -12.000000
      vertex 35.000000 -30.000000 -12.000000
    endloop
  endfacet
  facet normal 1.000000 0.000000 -0.000000
    outer loop
      vertex 20.000000 -47.528568 -5.500000
      vertex 20.000000 -35.000000 3.000000
      vertex 20.000000 -48.005325 -4.878680
    endloop
  endfacet
  facet normal 1.000000 -0.000000 0.000000
    outer loop
      vertex 20.000000 -48.626644 -4.401924
      vertex 20.000000 -48.005325 -4.878680
      vertex 20.000000 -35.000000 3.000000
    endloop
  endfacet
  facet normal 1.000000 0.000000 -0.000000
    outer loop
      vertex 20.000000 -47.228867 -6.223543
      vertex 20.000000 -35.000000 3.000000
      vertex 20.000000 -47.528568 -5.500000
    endloop
  endfacet
  facet normal 1.000000 -0.000000 0.000000
    outer loop
      vertex 20.000000 -49.350185 -4.102222
      vertex 20.000000 -48.626644 -4.401924
      vertex 20.000000 -35.000000 3.000000
    endloop
  endfacet
  facet normal 1.000000 0.000000 -0.000000
    outer loop
      vertex 20.000000 -47.126644 -7.000000
      vertex 20.000000 -35.000000 3.000000
      vertex 20.000000 -47.228867 -6.223543
    endloop
  endfacet
  facet normal 1.000000 -0.000000 0.000000
    outer loop
      vertex 20.000000 -50.126644 -4.000000
      vertex 20.000000 -49.350185 -4.102222
      vertex 20.000000 -35.000000 3.000000
    endloop
  endfacet
  facet normal 1.000000 0.000000 0.000000
    outer loop
      vertex 20.000000 -47.228867 -7.776457
      vertex 20.000000 -35.000000 3.000000
      vertex 20.000000 -47.126644 -7.000000
    endloop
  endfacet
  facet normal 1.000000 0.000000 0.000000
    outer loop
      vertex 20.000000 -35.000000 -22.000000
      vertex 20.000000 -47.228867 -7.776457
      vertex 20.000000 -47.528568 -8.500000
    endloop
  endfacet
  facet normal 1.000000 0.000000 -0.000000
    outer loop
      vertex 20.000000 -35.000000 -22.000000
      vertex 20.000000 -35.000000 3.000000
      vertex 20.000000 -47.228867 -7.776457
    endloop
  endfacet
  facet normal 1.000000 -0.000000 0.000000
    outer loop
      vertex 20.000000 -48.005325 -9.121321
      vertex 20.000000 -35.000000 -22.000000
      vertex 20.000000 -47.528568 -8.500000
    endloop
  endfacet
  facet normal 1.000000 -0.000000 0.000000
    outer loop
      vertex 20.000000 -48.626644 -9.598076
      vertex 20.000000 -35.000000 -22.000000
      vertex 20.000000 -48.005325 -9.121321
    endloop
  endfacet
  facet normal 1.000000 -0.000000 0.000000
    outer loop
      vertex 20.000000 -49.350185 -9.897778
      vertex 20.000000 -35.000000 -22.000000
      vertex 20.000000 -48.626644 -9.598076
    endloop
  endfacet
  facet normal 1.000000 -0.000000 0.000000
    outer loop
      vertex 20.000000 -50.126644 -10.000000
      vertex 20.000000 -35.000000 -22.000000
      vertex 20.000000 -49.350185 -9.897778
    endloop
  endfacet
  facet normal 1.000000 0.000000 0.000000
    outer loop
      vertex 20.000000 -70.000000 3.000000
      vertex 20.000000 -50.903103 -4.102222
      vertex 20.000000 -50.126644 -4.000000
    endloop
  endfacet
  facet normal 1.000000 0.000000 0.000000
    outer loop
      vertex 20.000000 -70.000000 3.000000
      vertex 20.000000 -51.626644 -4.401924
      vertex 20.000000 -50.903103 -4.102222
    endloop
  endfacet
  facet normal 1.000000 0.000000 0.000000
    outer loop
      vertex 20.000000 -70.000000 3.000000
      vertex 20.000000 -52.247963 -4.878680
      vertex 20.000000 -51.626644 -4.401924
    endloop
  endfacet
  facet normal 1.000000 0.000000 0.000000
    outer loop
      vertex 20.000000 -70.000000 3.000000
      vertex 20.000000 -52.724720 -5.500000
      vertex 20.000000 -52.247963 -4.878680
    endloop
  endfacet
  facet normal 1.000000 0.000000 0.000000
    outer loop
      vertex 20.000000 -70.000000 3.000000
      vertex 20.000000 -53.024422 -6.223543
      vertex 20.000000 -52.724720 -5.500000
    endloop
  endfacet
  facet normal 1.000000 0.000000 0.000000
    outer loop
      vertex 20.000000 -70.000000 3.000000
      vertex 20.000000 -53.126644 -7.000000
      vertex 20.000000 -53.024422 -6.223543
    endloop
  endfacet
  facet normal 1.000000 0.000000 0.000000
    outer loop
      vertex 20.000000 -70.000000 3.000000
      vertex 20.000000 -53.024422 -7.776457
      vertex 20.000000 -53.126644 -7.000000
    endloop
  endfacet
  facet normal 1.000000 -0.000000 0.000000
    outer loop
      vertex 20.000000 -70.000000 3.000000
      vertex 20.000000 -50.126644 -4.000000
      vertex 20.000000 -35.000000 3.000000
    endloop
  endfacet
  facet normal 1.000000 0.000000 0.000000
    outer loop
      vertex 20.000000 -70.000000 -22.000000
      vertex 20.000000 -52.724720 -8.500000
      vertex 20.000000 -53.024422 -7.776457
    endloop
  endfacet
  facet normal 1.000000 0.000000 0.000000
    outer loop
      vertex 20.000000 -70.000000 -22.000000
      vertex 20.000000 -52.247963 -9.121321
      vertex 20.000000 -52.724720 -8.500000
    endloop
  endfacet
  facet normal 1.000000 0.000000 0.000000
    outer loop
      vertex 20.000000 -70.000000 -22.000000
      vertex 20.000000 -51.626644 -9.598076
      vertex 20.000000 -52.247963 -9.121321
    endloop
  endfacet
  facet normal 1.000000 0.000000 0.000000
    outer loop
      vertex 20.000000 -70.000000 -22.000000
      vertex 20.000000 -50.903103 -9.897778
      vertex 20.000000 -51.626644 -9.598076
    endloop
  endfacet
  facet normal 1.000000 0.000000 0.000000
    outer loop
      vertex 20.000000 -70.000000 -22.000000
      vertex 20.000000 -50.126644 -10.000000
      vertex 20.000000 -50.903103 -9.897778
    endloop
  endfacet
  facet normal 1.000000 0.000000 0.000000
    outer loop
      vertex 20.000000 -70.000000 -22.000000
      vertex 20.000000 -53.024422 -7.776457
      vertex 20.000000 -70.000000 3.000000
    endloop
  endfacet
  facet normal 1.000000 0.000000 0.000000
    outer loop
      vertex 20.000000 -70.000000 -22.000000
      vertex 20.000000 -35.000000 -22.000000
      vertex 20.000000 -50.126644 -10.000000
    endloop
  endfacet
  facet normal 0.000000 -0.130526 0.991445
    outer loop
      vertex 20.000000 -50.126644 -10.000000
      vertex 20.000000 -49.350185 -9.897778
      vertex 15.000000 -50.126644 -10.000000
    endloop
  endfacet
  facet normal 0.000000 -0.130526 0.991445
    outer loop
      vertex 15.000000 -50.126644 -10.000000
      vertex 20.000000 -49.350185 -9.897778
      vertex 15.000000 -49.350185 -9.897778
    endloop
  endfacet
  facet normal 0.000000 -0.382685 0.923879
    outer loop
      vertex 20.000000 -49.350185 -9.897778
      vertex 20.000000 -48.626644 -9.598076
      vertex 15.000000 -49.350185 -9.897778
    endloop
  endfacet
  facet normal 0.000000 -0.382685 0.923879
    outer loop
      vertex 15.000000 -49.350185 -9.897778
      vertex 20.000000 -48.626644 -9.598076
      vertex 15.000000 -48.626644 -9.598076
    endloop
  endfacet
  facet normal 0.000000 -0.608762 0.793353
    outer loop
      vertex 20.000000 -48.626644 -9.598076
      vertex 20.000000 -48.005325 -9.121321
      vertex 15.000000 -48.626644 -9.598076
    endloop
  endfacet
  facet normal -0.000000 -0.991445 -0.130526
    outer loop
      vertex 20.000000 -47.126644 -7.000000
      vertex 20.000000 -47.228867 -6.223543
      vertex 15.000000 -47.126644 -7.000000
    endloop
  endfacet
  facet normal 0.000000 -0.608762 0.793353
    outer loop
      vertex 15.000000 -48.626644 -9.598076
      vertex 20.000000 -48.005325 -9.121321
      vertex 15.000000 -48.005325 -9.121321
    endloop
  endfacet
  facet normal 0.000000 -0.991445 -0.130526
    outer loop
      vertex 15.000000 -47.126644 -7.000000
      vertex 20.000000 -47.228867 -6.223543
      vertex 15.000000 -47.228867 -6.223543
    endloop
  endfacet
  facet normal 0.000000 -0.793353 0.608762
    outer loop
      vertex 20.000000 -48.005325 -9.121321
      vertex 20.000000 -47.528568 -8.500000
      vertex 15.000000 -48.005325 -9.121321
    endloop
  endfacet
  facet normal 0.000000 -0.793353 0.608762
    outer loop
      vertex 15.000000 -48.005325 -9.121321
      vertex 20.000000 -47.528568 -8.500000
      vertex 15.000000 -47.528568 -8.500000
    endloop
  endfacet
  facet normal 0.000000 -0.923879 -0.382684
    outer loop
      vertex 15.000000 -47.228867 -6.223543
      vertex 20.000000 -47.528568 -5.500000
      vertex 15.000000 -47.528568 -5.500000
    endloop
  endfacet
  facet normal -0.000000 -0.923879 -0.382684
    outer loop
      vertex 20.000000 -47.228867 -6.223543
      vertex 20.000000 -47.528568 -5.500000
      vertex 15.000000 -47.228867 -6.223543
    endloop
  endfacet
  facet normal 0.000000 -0.923879 0.382684
    outer loop
      vertex 20.000000 -47.528568 -8.500000
      vertex 20.000000 -47.228867 -7.776457
      vertex 15.000000 -47.528568 -8.500000
    endloop
  endfacet
  facet normal 0.000000 -0.923879 0.382684
    outer loop
      vertex 15.000000 -47.528568 -8.500000
      vertex 20.000000 -47.228867 -7.776457
      vertex 15.000000 -47.228867 -7.776457
    endloop
  endfacet
  facet normal 0.000000 -0.793353 -0.608762
    outer loop
      vertex 15.000000 -47.528568 -5.500000
      vertex 20.000000 -48.005325 -4.878680
      vertex 15.000000 -48.005325 -4.878680
    endloop
  endfacet
  facet normal -0.000000 -0.793353 -0.608762
    outer loop
      vertex 20.000000 -47.528568 -5.500000
      vertex 20.000000 -48.005325 -4.878680
      vertex 15.000000 -47.528568 -5.500000
    endloop
  endfacet
  facet normal 0.000000 -0.991445 0.130526
    outer loop
      vertex 15.000000 -47.228867 -7.776457
      vertex 20.000000 -47.126644 -7.000000
      vertex 15.000000 -47.126644 -7.000000
    endloop
  endfacet
  facet normal 0.000000 -0.991445 0.130526
    outer loop
      vertex 20.000000 -47.228867 -7.776457
      vertex 20.000000 -47.126644 -7.000000
      vertex 15.000000 -47.228867 -7.776457
    endloop
  endfacet
  facet normal 0.000000 -0.608763 -0.793352
    outer loop
      vertex 15.000000 -48.005325 -4.878680
      vertex 20.000000 -48.626644 -4.401924
      vertex 15.000000 -48.626644 -4.401924
    endloop
  endfacet
  facet normal -0.000000 -0.608763 -0.793352
    outer loop
      vertex 20.000000 -48.005325 -4.878680
      vertex 20.000000 -48.626644 -4.401924
      vertex 15.000000 -48.005325 -4.878680
    endloop
  endfacet
  facet normal 0.000000 -0.382684 -0.923879
    outer loop
      vertex 15.000000 -48.626644 -4.401924
      vertex 20.000000 -49.350185 -4.102222
      vertex 15.000000 -49.350185 -4.102222
    endloop
  endfacet
  facet normal -0.000000 -0.382684 -0.923879
    outer loop
      vertex 20.000000 -48.626644 -4.401924
      vertex 20.000000 -49.350185 -4.102222
      vertex 15.000000 -48.626644 -4.401924
    endloop
  endfacet
  facet normal 0.000000 -0.130526 -0.991445
    outer loop
      vertex 15.000000 -49.350185 -4.102222
      vertex 20.000000 -50.126644 -4.000000
      vertex 15.000000 -50.126644 -4.000000
    endloop
  endfacet
  facet normal -0.000000 -0.130526 -0.991445
    outer loop
      vertex 20.000000 -49.350185 -4.102222
      vertex 20.000000 -50.126644 -4.000000
      vertex 15.000000 -49.350185 -4.102222
    endloop
  endfacet
  facet normal 0.000000 0.130526 -0.991445
    outer loop
      vertex 15.000000 -50.126644 -4.000000
      vertex 20.000000 -50.903103 -4.102222
      vertex 15.000000 -50.903103 -4.102222
    endloop
  endfacet
  facet normal 0.000000 0.130526 -0.991445
    outer loop
      vertex 20.000000 -50.126644 -4.000000
      vertex 20.000000 -50.903103 -4.102222
      vertex 15.000000 -50.126644 -4.000000
    endloop
  endfacet
  facet normal 0.000000 0.382684 -0.923879
    outer loop
      vertex 15.000000 -50.903103 -4.102222
      vertex 20.000000 -51.626644 -4.401924
      vertex 15.000000 -51.626644 -4.401924
    endloop
  endfacet
  facet normal 0.000000 0.382684 -0.923879
    outer loop
      vertex 20.000000 -50.903103 -4.102222
      vertex 20.000000 -51.626644 -4.401924
      vertex 15.000000 -50.903103 -4.102222
    endloop
  endfacet
  facet normal 0.000000 0.608763 -0.793352
    outer loop
      vertex 15.000000 -51.626644 -4.401924
      vertex 20.000000 -52.247963 -4.878680
      vertex 15.000000 -52.247963 -4.878680
    endloop
  endfacet
  facet normal 0.000000 0.608763 -0.793352
    outer loop
      vertex 20.000000 -51.626644 -4.401924
      vertex 20.000000 -52.247963 -4.878680
      vertex 15.000000 -51.626644 -4.401924
    endloop
  endfacet
  facet normal 0.000000 0.793353 -0.608762
    outer loop
      vertex 15.000000 -52.247963 -4.878680
      vertex 20.000000 -52.724720 -5.500000
      vertex 15.000000 -52.724720 -5.500000
    endloop
  endfacet
  facet normal 0.000000 0.793353 -0.608762
    outer loop
      vertex 20.000000 -52.247963 -4.878680
      vertex 20.000000 -52.724720 -5.500000
      vertex 15.000000 -52.247963 -4.878680
    endloop
  endfacet
  facet normal 0.000000 0.923879 -0.382684
    outer loop
      vertex 15.000000 -52.724720 -5.500000
      vertex 20.000000 -53.024422 -6.223543
      vertex 15.000000 -53.024422 -6.223543
    endloop
  endfacet
  facet normal 0.000000 0.923879 -0.382684
    outer loop
      vertex 20.000000 -52.724720 -5.500000
      vertex 20.000000 -53.024422 -6.223543
      vertex 15.000000 -52.724720 -5.500000
    endloop
  endfacet
  facet normal 0.000000 0.991445 -0.130526
    outer loop
      vertex 20.000000 -53.024422 -6.223543
      vertex 20.000000 -53.126644 -7.000000
      vertex 15.000000 -53.024422 -6.223543
    endloop
  endfacet
  facet normal 0.000000 0.991445 -0.130526
    outer loop
      vertex 15.000000 -53.024422 -6.223543
      vertex 20.000000 -53.126644 -7.000000
      vertex 15.000000 -53.126644 -7.000000
    endloop
  endfacet
  facet normal 0.000000 0.991445 0.130526
    outer loop
      vertex 20.000000 -53.126644 -7.000000
      vertex 20.000000 -53.024422 -7.776457
      vertex 15.000000 -53.126644 -7.000000
    endloop
  endfacet
  facet normal 0.000000 0.991445 0.130526
    outer loop
      vertex 15.000000 -53.126644 -7.000000
      vertex 20.000000 -53.024422 -7.776457
      vertex 15.000000 -53.024422 -7.776457
    endloop
  endfacet
  facet normal 0.000000 0.923879 0.382684
    outer loop
      vertex 20.000000 -53.024422 -7.776457
      vertex 20.000000 -52.724720 -8.500000
      vertex 15.000000 -53.024422 -7.776457
    endloop
  endfacet
  facet normal 0.000000 0.923879 0.382684
    outer loop
      vertex 15.000000 -53.024422 -7.776457
      vertex 20.000000 -52.724720 -8.500000
      vertex 15.000000 -52.724720 -8.500000
    endloop
  endfacet
  facet normal 0.000000 0.793353 0.608762
    outer loop
      vertex 20.000000 -52.724720 -8.500000
      vertex 20.000000 -52.247963 -9.121321
      vertex 15.000000 -52.724720 -8.500000
    endloop
  endfacet
  facet normal 0.000000 0.793353 0.608762
    outer loop
      vertex 15.000000 -52.724720 -8.500000
      vertex 20.000000 -52.247963 -9.121321
      vertex 15.000000 -52.247963 -9.121321
    endloop
  endfacet
  facet normal 0.000000 0.608762 0.793353
    outer loop
      vertex 20.000000 -52.247963 -9.121321
      vertex 20.000000 -51.626644 -9.598076
      vertex 15.000000 -52.247963 -9.121321
    endloop
  endfacet
  facet normal 0.000000 0.608762 0.793353
    outer loop
      vertex 15.000000 -52.247963 -9.121321
      vertex 20.000000 -51.626644 -9.598076
      vertex 15.000000 -51.626644 -9.598076
    endloop
  endfacet
  facet normal 0.000000 0.382685 0.923879
    outer loop
      vertex 20.000000 -51.626644 -9.598076
      vertex 20.000000 -50.903103 -9.897778
      vertex 15.000000 -51.626644 -9.598076
    endloop
  endfacet
  facet normal 0.000000 0.382685 0.923879
    outer loop
      vertex 15.000000 -51.626644 -9.598076
      vertex 20.000000 -50.903103 -9.897778
      vertex 15.000000 -50.903103 -9.897778
    endloop
  endfacet
  facet normal 0.000000 0.130526 0.991445
    outer loop
      vertex 20.000000 -50.903103 -9.897778
      vertex 20.000000 -50.126644 -10.000000
      vertex 15.000000 -50.903103 -9.897778
    endloop
  endfacet
  facet normal 0.000000 0.130526 0.991445
    outer loop
      vertex 15.000000 -50.903103 -9.897778
      vertex 20.000000 -50.126644 -10.000000
      vertex 15.000000 -50.126644 -10.000000
    endloop
  endfacet
  facet normal 0.000000 1.000000 0.000000
    outer loop
      vertex -3.500000 -30.000000 -22.000000
      vertex -15.000000 -30.000000 -27.000000
      vertex -15.000000 -30.000000 -22.000000
    endloop
  endfacet
  facet normal 0.000000 1.000000 0.000000
    outer loop
      vertex 3.500000 -30.000000 -22.000000
      vertex -15.000000 -30.000000 -27.000000
      vertex -3.500000 -30.000000 -22.000000
    endloop
  endfacet
  facet normal 0.000000 1.000000 -0.000000
    outer loop
      vertex 35.000000 -30.000000 -27.000000
      vertex 15.000000 -30.000000 -22.000000
      vertex 35.000000 -30.000000 -22.000000
    endloop
  endfacet
  facet normal 0.000000 1.000000 0.000000
    outer loop
      vertex 35.000000 -30.000000 -27.000000
      vertex -15.000000 -30.000000 -27.000000
      vertex 3.500000 -30.000000 -22.000000
    endloop
  endfacet
  facet normal 0.000000 1.000000 0.000000
    outer loop
      vertex 35.000000 -30.000000 -27.000000
      vertex 3.500000 -30.000000 -22.000000
      vertex 15.000000 -30.000000 -22.000000
    endloop
  endfacet
  facet normal -0.000000 -0.000000 1.000000
    outer loop
      vertex 26.642075 -64.560005 -22.000000
      vertex 35.000000 -70.000000 -22.000000
      vertex 26.472242 -64.150002 -22.000000
    endloop
  endfacet
  facet normal -0.000000 0.000000 1.000000
    outer loop
      vertex 25.850000 -38.527756 -22.000000
      vertex 26.202082 -38.797920 -22.000000
      vertex 35.000000 -35.000000 -22.000000
    endloop
  endfacet
  facet normal 0.000000 -0.000000 1.000000
    outer loop
      vertex 26.472242 -39.150002 -22.000000
      vertex 35.000000 -35.000000 -22.000000
      vertex 26.202082 -38.797920 -22.000000
    endloop
  endfacet
  facet normal -0.000000 0.000000 1.000000
    outer loop
      vertex 25.439993 -38.357925 -22.000000
      vertex 25.850000 -38.527756 -22.000000
      vertex 35.000000 -35.000000 -22.000000
    endloop
  endfacet
  facet normal 0.000000 0.000000 1.000000
    outer loop
      vertex 25.439993 -63.357925 -22.000000
      vertex 25.850000 -41.472244 -22.000000
      vertex 25.439993 -41.642075 -22.000000
    endloop
  endfacet
  facet normal -0.000000 0.000000 1.000000
    outer loop
      vertex 25.439993 -63.357925 -22.000000
      vertex 25.850000 -63.527756 -22.000000
      vertex 25.850000 -41.472244 -22.000000
    endloop
  endfacet
  facet normal 0.000000 -0.000000 1.000000
    outer loop
      vertex 26.642075 -39.560009 -22.000000
      vertex 35.000000 -35.000000 -22.000000
      vertex 26.472242 -39.150002 -22.000000
    endloop
  endfacet
  facet normal -0.000000 -0.000000 1.000000
    outer loop
      vertex 26.700001 -65.000000 -22.000000
      vertex 35.000000 -70.000000 -22.000000
      vertex 26.642075 -64.560005 -22.000000
    endloop
  endfacet
  facet normal -0.000000 0.000000 1.000000
    outer loop
      vertex 25.000000 -63.299999 -22.000000
      vertex 25.439993 -63.357925 -22.000000
      vertex 25.439993 -41.642075 -22.000000
    endloop
  endfacet
  facet normal 0.000000 -0.000000 1.000000
    outer loop
      vertex 26.700001 -40.000000 -22.000000
      vertex 35.000000 -35.000000 -22.000000
      vertex 26.642075 -39.560009 -22.000000
    endloop
  endfacet
  facet normal 0.000000 0.000000 1.000000
    outer loop
      vertex 25.000000 -63.299999 -22.000000
      vertex 25.439993 -41.642075 -22.000000
      vertex 25.000000 -41.700001 -22.000000
    endloop
  endfacet
  facet normal -0.000000 0.000000 1.000000
    outer loop
      vertex 26.642075 -65.439995 -22.000000
      vertex 35.000000 -70.000000 -22.000000
      vertex 26.700001 -65.000000 -22.000000
    endloop
  endfacet
  facet normal 0.000000 0.000000 1.000000
    outer loop
      vertex 26.642075 -40.439991 -22.000000
      vertex 35.000000 -35.000000 -22.000000
      vertex 26.700001 -40.000000 -22.000000
    endloop
  endfacet
  facet normal 0.000000 0.000000 1.000000
    outer loop
      vertex 24.560007 -63.357925 -22.000000
      vertex 25.000000 -63.299999 -22.000000
      vertex 25.000000 -41.700001 -22.000000
    endloop
  endfacet
  facet normal 0.000000 0.000000 1.000000
    outer loop
      vertex 24.560007 -63.357925 -22.000000
      vertex 25.000000 -41.700001 -22.000000
      vertex 24.560007 -41.642075 -22.000000
    endloop
  endfacet
  facet normal 0.000000 0.000000 1.000000
    outer loop
      vertex 24.150000 -63.527756 -22.000000
      vertex 24.560007 -63.357925 -22.000000
      vertex 24.560007 -41.642075 -22.000000
    endloop
  endfacet
  facet normal 0.000000 0.000000 1.000000
    outer loop
      vertex 26.472242 -40.849998 -22.000000
      vertex 35.000000 -35.000000 -22.000000
      vertex 26.642075 -40.439991 -22.000000
    endloop
  endfacet
  facet normal 0.000000 0.000000 1.000000
    outer loop
      vertex 24.150000 -63.527756 -22.000000
      vertex 24.560007 -41.642075 -22.000000
      vertex 24.150000 -41.472244 -22.000000
    endloop
  endfacet
  facet normal -0.000000 0.000000 1.000000
    outer loop
      vertex 26.472242 -65.849998 -22.000000
      vertex 35.000000 -70.000000 -22.000000
      vertex 26.642075 -65.439995 -22.000000
    endloop
  endfacet
  facet normal 0.000000 0.000000 1.000000
    outer loop
      vertex 23.797918 -63.797920 -22.000000
      vertex 24.150000 -63.527756 -22.000000
      vertex 24.150000 -41.472244 -22.000000
    endloop
  endfacet
  facet normal 0.000000 -0.000000 1.000000
    outer loop
      vertex 23.797918 -63.797920 -22.000000
      vertex 23.797918 -41.202080 -22.000000
      vertex 23.527758 -40.849998 -22.000000
    endloop
  endfacet
  facet normal 0.000000 0.000000 1.000000
    outer loop
      vertex 23.797918 -63.797920 -22.000000
      vertex 24.150000 -41.472244 -22.000000
      vertex 23.797918 -41.202080 -22.000000
    endloop
  endfacet
  facet normal 0.000000 0.000000 1.000000
    outer loop
      vertex 26.202082 -41.202080 -22.000000
      vertex 35.000000 -35.000000 -22.000000
      vertex 26.472242 -40.849998 -22.000000
    endloop
  endfacet
  facet normal 0.000000 0.000000 1.000000
    outer loop
      vertex 20.000000 -35.000000 -22.000000
      vertex 25.000000 -38.299999 -22.000000
      vertex 25.439993 -38.357925 -22.000000
    endloop
  endfacet
  facet normal 0.000000 0.000000 1.000000
    outer loop
      vertex 20.000000 -35.000000 -22.000000
      vertex 24.560007 -38.357925 -22.000000
      vertex 25.000000 -38.299999 -22.000000
    endloop
  endfacet
  facet normal 0.000000 0.000000 1.000000
    outer loop
      vertex 20.000000 -35.000000 -22.000000
      vertex 24.150000 -38.527756 -22.000000
      vertex 24.560007 -38.357925 -22.000000
    endloop
  endfacet
  facet normal 0.000000 0.000000 1.000000
    outer loop
      vertex 20.000000 -35.000000 -22.000000
      vertex 23.797918 -38.797920 -22.000000
      vertex 24.150000 -38.527756 -22.000000
    endloop
  endfacet
  facet normal -0.000000 0.000000 1.000000
    outer loop
      vertex 26.202082 -66.202080 -22.000000
      vertex 35.000000 -70.000000 -22.000000
      vertex 26.472242 -65.849998 -22.000000
    endloop
  endfacet
  facet normal -0.000000 0.000000 1.000000
    outer loop
      vertex 20.000000 -35.000000 -22.000000
      vertex 25.439993 -38.357925 -22.000000
      vertex 35.000000 -35.000000 -22.000000
    endloop
  endfacet
  facet normal 0.000000 0.000000 1.000000
    outer loop
      vertex 23.527758 -64.150002 -22.000000
      vertex 23.797918 -63.797920 -22.000000
      vertex 23.527758 -40.849998 -22.000000
    endloop
  endfacet
  facet normal 0.000000 -0.000000 1.000000
    outer loop
      vertex 23.527758 -39.150002 -22.000000
      vertex 23.797918 -38.797920 -22.000000
      vertex 20.000000 -35.000000 -22.000000
    endloop
  endfacet
  facet normal -0.000000 0.000000 1.000000
    outer loop
      vertex 25.850000 -66.472244 -22.000000
      vertex 35.000000 -70.000000 -22.000000
      vertex 26.202082 -66.202080 -22.000000
    endloop
  endfacet
  facet normal 0.000000 -0.000000 1.000000
    outer loop
      vertex 23.357925 -39.560009 -22.000000
      vertex 23.527758 -39.150002 -22.000000
      vertex 20.000000 -35.000000 -22.000000
    endloop
  endfacet
  facet normal -0.000000 0.000000 1.000000
    outer loop
      vertex 25.439993 -66.642075 -22.000000
      vertex 35.000000 -70.000000 -22.000000
      vertex 25.850000 -66.472244 -22.000000
    endloop
  endfacet
  facet normal 0.000000 -0.000000 1.000000
    outer loop
      vertex 23.299999 -40.000000 -22.000000
      vertex 23.357925 -39.560009 -22.000000
      vertex 20.000000 -35.000000 -22.000000
    endloop
  endfacet
  facet normal 0.000000 0.000000 1.000000
    outer loop
      vertex 23.357925 -40.439991 -22.000000
      vertex 23.299999 -40.000000 -22.000000
      vertex 20.000000 -35.000000 -22.000000
    endloop
  endfacet
  facet normal 0.000000 0.000000 1.000000
    outer loop
      vertex 23.527758 -40.849998 -22.000000
      vertex 23.357925 -40.439991 -22.000000
      vertex 20.000000 -35.000000 -22.000000
    endloop
  endfacet
  facet normal 0.000000 0.000000 1.000000
    outer loop
      vertex 20.000000 -70.000000 -22.000000
      vertex 23.527758 -40.849998 -22.000000
      vertex 20.000000 -35.000000 -22.000000
    endloop
  endfacet
  facet normal 0.000000 0.000000 1.000000
    outer loop
      vertex 20.000000 -70.000000 -22.000000
      vertex 23.357925 -65.439995 -22.000000
      vertex 23.299999 -65.000000 -22.000000
    endloop
  endfacet
  facet normal 0.000000 0.000000 1.000000
    outer loop
      vertex 20.000000 -70.000000 -22.000000
      vertex 23.527758 -65.849998 -22.000000
      vertex 23.357925 -65.439995 -22.000000
    endloop
  endfacet
  facet normal 0.000000 0.000000 1.000000
    outer loop
      vertex 20.000000 -70.000000 -22.000000
      vertex 23.797918 -66.202080 -22.000000
      vertex 23.527758 -65.849998 -22.000000
    endloop
  endfacet
  facet normal 0.000000 0.000000 1.000000
    outer loop
      vertex 20.000000 -70.000000 -22.000000
      vertex 24.150000 -66.472244 -22.000000
      vertex 23.797918 -66.202080 -22.000000
    endloop
  endfacet
  facet normal 0.000000 0.000000 1.000000
    outer loop
      vertex 20.000000 -70.000000 -22.000000
      vertex 24.560007 -66.642075 -22.000000
      vertex 24.150000 -66.472244 -22.000000
    endloop
  endfacet
  facet normal 0.000000 0.000000 1.000000
    outer loop
      vertex 20.000000 -70.000000 -22.000000
      vertex 25.000000 -66.699997 -22.000000
      vertex 24.560007 -66.642075 -22.000000
    endloop
  endfacet
  facet normal 0.000000 0.000000 1.000000
    outer loop
      vertex 20.000000 -70.000000 -22.000000
      vertex 25.439993 -66.642075 -22.000000
      vertex 25.000000 -66.699997 -22.000000
    endloop
  endfacet
  facet normal 0.000000 0.000000 1.000000
    outer loop
      vertex 20.000000 -70.000000 -22.000000
      vertex 23.357925 -64.560005 -22.000000
      vertex 23.527758 -64.150002 -22.000000
    endloop
  endfacet
  facet normal 0.000000 0.000000 1.000000
    outer loop
      vertex 20.000000 -70.000000 -22.000000
      vertex 23.299999 -65.000000 -22.000000
      vertex 23.357925 -64.560005 -22.000000
    endloop
  endfacet
  facet normal 0.000000 0.000000 1.000000
    outer loop
      vertex 20.000000 -70.000000 -22.000000
      vertex 23.527758 -64.150002 -22.000000
      vertex 23.527758 -40.849998 -22.000000
    endloop
  endfacet
  facet normal 0.000000 0.000000 1.000000
    outer loop
      vertex 20.000000 -70.000000 -22.000000
      vertex 35.000000 -70.000000 -22.000000
      vertex 25.439993 -66.642075 -22.000000
    endloop
  endfacet
  facet normal -0.000000 0.000000 1.000000
    outer loop
      vertex 26.202082 -63.797920 -22.000000
      vertex 35.000000 -70.000000 -22.000000
      vertex 35.000000 -35.000000 -22.000000
    endloop
  endfacet
  facet normal 0.000000 -0.000000 1.000000
    outer loop
      vertex 26.202082 -63.797920 -22.000000
      vertex 26.202082 -41.202080 -22.000000
      vertex 25.850000 -41.472244 -22.000000
    endloop
  endfacet
  facet normal 0.000000 0.000000 1.000000
    outer loop
      vertex 26.202082 -63.797920 -22.000000
      vertex 35.000000 -35.000000 -22.000000
      vertex 26.202082 -41.202080 -22.000000
    endloop
  endfacet
  facet normal -0.000000 -0.000000 1.000000
    outer loop
      vertex 26.472242 -64.150002 -22.000000
      vertex 35.000000 -70.000000 -22.000000
      vertex 26.202082 -63.797920 -22.000000
    endloop
  endfacet
  facet normal -0.000000 0.000000 1.000000
    outer loop
      vertex 25.850000 -63.527756 -22.000000
      vertex 26.202082 -63.797920 -22.000000
      vertex 25.850000 -41.472244 -22.000000
    endloop
  endfacet
  facet normal 1.000000 0.000000 0.000000
    outer loop
      vertex 35.000000 -35.000000 -22.000000
      vertex 35.000000 -30.000000 -22.000000
      vertex 35.000000 -35.000000 -12.000000
    endloop
  endfacet
  facet normal 1.000000 -0.000000 0.000000
    outer loop
      vertex 35.000000 -35.000000 -12.000000
      vertex 35.000000 -30.000000 -22.000000
      vertex 35.000000 -30.000000 -12.000000
    endloop
  endfacet
  facet normal -0.130526 -0.991445 0.000000
    outer loop
      vertex 25.000000 -63.299999 -27.000000
      vertex 25.439993 -63.357925 -27.000000
      vertex 25.439993 -63.357925 -22.000000
    endloop
  endfacet
  facet normal -0.130526 -0.991445 0.000000
    outer loop
      vertex 25.000000 -63.299999 -27.000000
      vertex 25.439993 -63.357925 -22.000000
      vertex 25.000000 -63.299999 -22.000000
    endloop
  endfacet
  facet normal 0.130526 -0.991445 0.000000
    outer loop
      vertex 24.560007 -63.357925 -27.000000
      vertex 25.000000 -63.299999 -27.000000
      vertex 25.000000 -63.299999 -22.000000
    endloop
  endfacet
  facet normal 0.130526 -0.991445 0.000000
    outer loop
      vertex 24.560007 -63.357925 -27.000000
      vertex 25.000000 -63.299999 -22.000000
      vertex 24.560007 -63.357925 -22.000000
    endloop
  endfacet
  facet normal 0.991445 0.130526 0.000000
    outer loop
      vertex 23.357925 -65.439995 -27.000000
      vertex 23.299999 -65.000000 -27.000000
      vertex 23.299999 -65.000000 -22.000000
    endloop
  endfacet
  facet normal 0.991445 0.130526 -0.000000
    outer loop
      vertex 23.357925 -65.439995 -27.000000
      vertex 23.299999 -65.000000 -22.000000
      vertex 23.357925 -65.439995 -22.000000
    endloop
  endfacet
  facet normal 0.382683 -0.923880 0.000000
    outer loop
      vertex 24.150000 -63.527756 -27.000000
      vertex 24.560007 -63.357925 -27.000000
      vertex 24.560007 -63.357925 -22.000000
    endloop
  endfacet
  facet normal 0.382683 -0.923880 0.000000
    outer loop
      vertex 24.150000 -63.527756 -27.000000
      vertex 24.560007 -63.357925 -22.000000
      vertex 24.150000 -63.527756 -22.000000
    endloop
  endfacet
  facet normal 0.923877 0.382690 -0.000000
    outer loop
      vertex 23.527758 -65.849998 -27.000000
      vertex 23.357925 -65.439995 -22.000000
      vertex 23.527758 -65.849998 -22.000000
    endloop
  endfacet
  facet normal 0.608766 -0.793350 0.000000
    outer loop
      vertex 23.797918 -63.797920 -27.000000
      vertex 24.150000 -63.527756 -27.000000
      vertex 24.150000 -63.527756 -22.000000
    endloop
  endfacet
  facet normal 0.923877 0.382690 0.000000
    outer loop
      vertex 23.527758 -65.849998 -27.000000
      vertex 23.357925 -65.439995 -27.000000
      vertex 23.357925 -65.439995 -22.000000
    endloop
  endfacet
  facet normal 0.608766 -0.793350 0.000000
    outer loop
      vertex 23.797918 -63.797920 -27.000000
      vertex 24.150000 -63.527756 -22.000000
      vertex 23.797918 -63.797920 -22.000000
    endloop
  endfacet
  facet normal 0.793354 0.608760 -0.000000
    outer loop
      vertex 23.797918 -66.202080 -27.000000
      vertex 23.527758 -65.849998 -22.000000
      vertex 23.797918 -66.202080 -22.000000
    endloop
  endfacet
  facet normal 0.793354 -0.608760 0.000000
    outer loop
      vertex 23.527758 -64.150002 -27.000000
      vertex 23.797918 -63.797920 -27.000000
      vertex 23.797918 -63.797920 -22.000000
    endloop
  endfacet
  facet normal 0.793354 0.608760 0.000000
    outer loop
      vertex 23.797918 -66.202080 -27.000000
      vertex 23.527758 -65.849998 -27.000000
      vertex 23.527758 -65.849998 -22.000000
    endloop
  endfacet
  facet normal 0.793354 -0.608760 0.000000
    outer loop
      vertex 23.527758 -64.150002 -27.000000
      vertex 23.797918 -63.797920 -22.000000
      vertex 23.527758 -64.150002 -22.000000
    endloop
  endfacet
  facet normal 0.923877 -0.382690 0.000000
    outer loop
      vertex 23.357925 -64.560005 -27.000000
      vertex 23.527758 -64.150002 -27.000000
      vertex 23.527758 -64.150002 -22.000000
    endloop
  endfacet
  facet normal 0.923877 -0.382690 0.000000
    outer loop
      vertex 23.357925 -64.560005 -27.000000
      vertex 23.527758 -64.150002 -22.000000
      vertex 23.357925 -64.560005 -22.000000
    endloop
  endfacet
  facet normal 0.608766 0.793350 -0.000000
    outer loop
      vertex 24.150000 -66.472244 -27.000000
      vertex 23.797918 -66.202080 -22.000000
      vertex 24.150000 -66.472244 -22.000000
    endloop
  endfacet
  facet normal 0.608766 0.793350 0.000000
    outer loop
      vertex 24.150000 -66.472244 -27.000000
      vertex 23.797918 -66.202080 -27.000000
      vertex 23.797918 -66.202080 -22.000000
    endloop
  endfacet
  facet normal 0.991445 -0.130526 0.000000
    outer loop
      vertex 23.299999 -65.000000 -27.000000
      vertex 23.357925 -64.560005 -22.000000
      vertex 23.299999 -65.000000 -22.000000
    endloop
  endfacet
  facet normal 0.991445 -0.130526 0.000000
    outer loop
      vertex 23.299999 -65.000000 -27.000000
      vertex 23.357925 -64.560005 -27.000000
      vertex 23.357925 -64.560005 -22.000000
    endloop
  endfacet
  facet normal 0.382683 0.923880 -0.000000
    outer loop
      vertex 24.560007 -66.642075 -27.000000
      vertex 24.150000 -66.472244 -22.000000
      vertex 24.560007 -66.642075 -22.000000
    endloop
  endfacet
  facet normal 0.382683 0.923880 0.000000
    outer loop
      vertex 24.560007 -66.642075 -27.000000
      vertex 24.150000 -66.472244 -27.000000
      vertex 24.150000 -66.472244 -22.000000
    endloop
  endfacet
  facet normal 0.130518 0.991446 -0.000000
    outer loop
      vertex 25.000000 -66.699997 -27.000000
      vertex 24.560007 -66.642075 -22.000000
      vertex 25.000000 -66.699997 -22.000000
    endloop
  endfacet
  facet normal 0.130518 0.991446 0.000000
    outer loop
      vertex 25.000000 -66.699997 -27.000000
      vertex 24.560007 -66.642075 -27.000000
      vertex 24.560007 -66.642075 -22.000000
    endloop
  endfacet
  facet normal -0.130518 0.991446 0.000000
    outer loop
      vertex 25.439993 -66.642075 -27.000000
      vertex 25.000000 -66.699997 -22.000000
      vertex 25.439993 -66.642075 -22.000000
    endloop
  endfacet
  facet normal -0.130518 0.991446 0.000000
    outer loop
      vertex 25.439993 -66.642075 -27.000000
      vertex 25.000000 -66.699997 -27.000000
      vertex 25.000000 -66.699997 -22.000000
    endloop
  endfacet
  facet normal -0.382683 0.923880 0.000000
    outer loop
      vertex 25.850000 -66.472244 -27.000000
      vertex 25.439993 -66.642075 -22.000000
      vertex 25.850000 -66.472244 -22.000000
    endloop
  endfacet
  facet normal -0.382683 0.923880 0.000000
    outer loop
      vertex 25.850000 -66.472244 -27.000000
      vertex 25.439993 -66.642075 -27.000000
      vertex 25.439993 -66.642075 -22.000000
    endloop
  endfacet
  facet normal -0.608766 0.793350 0.000000
    outer loop
      vertex 26.202082 -66.202080 -27.000000
      vertex 25.850000 -66.472244 -22.000000
      vertex 26.202082 -66.202080 -22.000000
    endloop
  endfacet
  facet normal -0.608766 0.793350 0.000000
    outer loop
      vertex 26.202082 -66.202080 -27.000000
      vertex 25.850000 -66.472244 -27.000000
      vertex 25.850000 -66.472244 -22.000000
    endloop
  endfacet
  facet normal -0.793354 0.608760 0.000000
    outer loop
      vertex 26.472242 -65.849998 -27.000000
      vertex 26.202082 -66.202080 -22.000000
      vertex 26.472242 -65.849998 -22.000000
    endloop
  endfacet
  facet normal -0.793354 0.608760 0.000000
    outer loop
      vertex 26.472242 -65.849998 -27.000000
      vertex 26.202082 -66.202080 -27.000000
      vertex 26.202082 -66.202080 -22.000000
    endloop
  endfacet
  facet normal -0.923877 0.382690 0.000000
    outer loop
      vertex 26.642075 -65.439995 -27.000000
      vertex 26.472242 -65.849998 -22.000000
      vertex 26.642075 -65.439995 -22.000000
    endloop
  endfacet
  facet normal -0.923877 0.382690 0.000000
    outer loop
      vertex 26.642075 -65.439995 -27.000000
      vertex 26.472242 -65.849998 -27.000000
      vertex 26.472242 -65.849998 -22.000000
    endloop
  endfacet
  facet normal -0.991445 0.130526 0.000000
    outer loop
      vertex 26.700001 -65.000000 -27.000000
      vertex 26.642075 -65.439995 -27.000000
      vertex 26.642075 -65.439995 -22.000000
    endloop
  endfacet
  facet normal -0.991445 0.130526 0.000000
    outer loop
      vertex 26.700001 -65.000000 -27.000000
      vertex 26.642075 -65.439995 -22.000000
      vertex 26.700001 -65.000000 -22.000000
    endloop
  endfacet
  facet normal -0.991445 -0.130526 0.000000
    outer loop
      vertex 26.642075 -64.560005 -27.000000
      vertex 26.700001 -65.000000 -27.000000
      vertex 26.700001 -65.000000 -22.000000
    endloop
  endfacet
  facet normal -0.991445 -0.130526 0.000000
    outer loop
      vertex 26.642075 -64.560005 -27.000000
      vertex 26.700001 -65.000000 -22.000000
      vertex 26.642075 -64.560005 -22.000000
    endloop
  endfacet
  facet normal -0.923877 -0.382690 0.000000
    outer loop
      vertex 26.472242 -64.150002 -27.000000
      vertex 26.642075 -64.560005 -27.000000
      vertex 26.642075 -64.560005 -22.000000
    endloop
  endfacet
  facet normal -0.923877 -0.382690 0.000000
    outer loop
      vertex 26.472242 -64.150002 -27.000000
      vertex 26.642075 -64.560005 -22.000000
      vertex 26.472242 -64.150002 -22.000000
    endloop
  endfacet
  facet normal -0.793354 -0.608760 0.000000
    outer loop
      vertex 26.202082 -63.797920 -27.000000
      vertex 26.472242 -64.150002 -27.000000
      vertex 26.472242 -64.150002 -22.000000
    endloop
  endfacet
  facet normal -0.793354 -0.608760 0.000000
    outer loop
      vertex 26.202082 -63.797920 -27.000000
      vertex 26.472242 -64.150002 -22.000000
      vertex 26.202082 -63.797920 -22.000000
    endloop
  endfacet
  facet normal -0.608766 -0.793350 0.000000
    outer loop
      vertex 25.850000 -63.527756 -27.000000
      vertex 26.202082 -63.797920 -27.000000
      vertex 26.202082 -63.797920 -22.000000
    endloop
  endfacet
  facet normal -0.608766 -0.793350 0.000000
    outer loop
      vertex 25.850000 -63.527756 -27.000000
      vertex 26.202082 -63.797920 -22.000000
      vertex 25.850000 -63.527756 -22.000000
    endloop
  endfacet
  facet normal -0.382683 -0.923880 0.000000
    outer loop
      vertex 25.439993 -63.357925 -27.000000
      vertex 25.850000 -63.527756 -27.000000
      vertex 25.850000 -63.527756 -22.000000
    endloop
  endfacet
  facet normal -0.382683 -0.923880 0.000000
    outer loop
      vertex 25.439993 -63.357925 -27.000000
      vertex 25.850000 -63.527756 -22.000000
      vertex 25.439993 -63.357925 -22.000000
    endloop
  endfacet
  facet normal -0.130526 -0.991445 0.000000
    outer loop
      vertex 25.000000 -38.299999 -27.000000
      vertex 25.439993 -38.357925 -27.000000
      vertex 25.439993 -38.357925 -22.000000
    endloop
  endfacet
  facet normal -0.130526 -0.991445 0.000000
    outer loop
      vertex 25.000000 -38.299999 -27.000000
      vertex 25.439993 -38.357925 -22.000000
      vertex 25.000000 -38.299999 -22.000000
    endloop
  endfacet
  facet normal 0.130526 -0.991445 0.000000
    outer loop
      vertex 24.560007 -38.357925 -27.000000
      vertex 25.000000 -38.299999 -27.000000
      vertex 25.000000 -38.299999 -22.000000
    endloop
  endfacet
  facet normal 0.130526 -0.991445 0.000000
    outer loop
      vertex 24.560007 -38.357925 -27.000000
      vertex 25.000000 -38.299999 -22.000000
      vertex 24.560007 -38.357925 -22.000000
    endloop
  endfacet
  facet normal 0.991445 0.130527 0.000000
    outer loop
      vertex 23.357925 -40.439991 -27.000000
      vertex 23.299999 -40.000000 -27.000000
      vertex 23.299999 -40.000000 -22.000000
    endloop
  endfacet
  facet normal 0.991445 0.130527 -0.000000
    outer loop
      vertex 23.357925 -40.439991 -27.000000
      vertex 23.299999 -40.000000 -22.000000
      vertex 23.357925 -40.439991 -22.000000
    endloop
  endfacet
  facet normal 0.382683 -0.923880 0.000000
    outer loop
      vertex 24.150000 -38.527756 -27.000000
      vertex 24.560007 -38.357925 -27.000000
      vertex 24.560007 -38.357925 -22.000000
    endloop
  endfacet
  facet normal 0.382683 -0.923880 0.000000
    outer loop
      vertex 24.150000 -38.527756 -27.000000
      vertex 24.560007 -38.357925 -22.000000
      vertex 24.150000 -38.527756 -22.000000
    endloop
  endfacet
  facet normal 0.923878 0.382686 -0.000000
    outer loop
      vertex 23.527758 -40.849998 -27.000000
      vertex 23.357925 -40.439991 -22.000000
      vertex 23.527758 -40.849998 -22.000000
    endloop
  endfacet
  facet normal 0.608766 -0.793350 0.000000
    outer loop
      vertex 23.797918 -38.797920 -27.000000
      vertex 24.150000 -38.527756 -27.000000
      vertex 24.150000 -38.527756 -22.000000
    endloop
  endfacet
  facet normal 0.923878 0.382686 0.000000
    outer loop
      vertex 23.527758 -40.849998 -27.000000
      vertex 23.357925 -40.439991 -27.000000
      vertex 23.357925 -40.439991 -22.000000
    endloop
  endfacet
  facet normal 0.608766 -0.793350 0.000000
    outer loop
      vertex 23.797918 -38.797920 -27.000000
      vertex 24.150000 -38.527756 -22.000000
      vertex 23.797918 -38.797920 -22.000000
    endloop
  endfacet
  facet normal 0.793354 0.608760 -0.000000
    outer loop
      vertex 23.797918 -41.202080 -27.000000
      vertex 23.527758 -40.849998 -22.000000
      vertex 23.797918 -41.202080 -22.000000
    endloop
  endfacet
  facet normal 0.793354 -0.608760 0.000000
    outer loop
      vertex 23.527758 -39.150002 -27.000000
      vertex 23.797918 -38.797920 -27.000000
      vertex 23.797918 -38.797920 -22.000000
    endloop
  endfacet
  facet normal 0.793354 0.608760 0.000000
    outer loop
      vertex 23.797918 -41.202080 -27.000000
      vertex 23.527758 -40.849998 -27.000000
      vertex 23.527758 -40.849998 -22.000000
    endloop
  endfacet
  facet normal 0.793354 -0.608760 0.000000
    outer loop
      vertex 23.527758 -39.150002 -27.000000
      vertex 23.797918 -38.797920 -22.000000
      vertex 23.527758 -39.150002 -22.000000
    endloop
  endfacet
  facet normal 0.923878 -0.382686 0.000000
    outer loop
      vertex 23.357925 -39.560009 -27.000000
      vertex 23.527758 -39.150002 -27.000000
      vertex 23.527758 -39.150002 -22.000000
    endloop
  endfacet
  facet normal 0.923878 -0.382686 0.000000
    outer loop
      vertex 23.357925 -39.560009 -27.000000
      vertex 23.527758 -39.150002 -22.000000
      vertex 23.357925 -39.560009 -22.000000
    endloop
  endfacet
  facet normal 0.608766 0.793350 -0.000000
    outer loop
      vertex 24.150000 -41.472244 -27.000000
      vertex 23.797918 -41.202080 -22.000000
      vertex 24.150000 -41.472244 -22.000000
    endloop
  endfacet
  facet normal 0.608766 0.793350 0.000000
    outer loop
      vertex 24.150000 -41.472244 -27.000000
      vertex 23.797918 -41.202080 -27.000000
      vertex 23.797918 -41.202080 -22.000000
    endloop
  endfacet
  facet normal 0.991445 -0.130527 0.000000
    outer loop
      vertex 23.299999 -40.000000 -27.000000
      vertex 23.357925 -39.560009 -22.000000
      vertex 23.299999 -40.000000 -22.000000
    endloop
  endfacet
  facet normal 0.991445 -0.130527 0.000000
    outer loop
      vertex 23.299999 -40.000000 -27.000000
      vertex 23.357925 -39.560009 -27.000000
      vertex 23.357925 -39.560009 -22.000000
    endloop
  endfacet
  facet normal 0.382683 0.923880 -0.000000
    outer loop
      vertex 24.560007 -41.642075 -27.000000
      vertex 24.150000 -41.472244 -22.000000
      vertex 24.560007 -41.642075 -22.000000
    endloop
  endfacet
  facet normal 0.382683 0.923880 0.000000
    outer loop
      vertex 24.560007 -41.642075 -27.000000
      vertex 24.150000 -41.472244 -27.000000
      vertex 24.150000 -41.472244 -22.000000
    endloop
  endfacet
  facet normal 0.130526 0.991445 -0.000000
    outer loop
      vertex 25.000000 -41.700001 -27.000000
      vertex 24.560007 -41.642075 -22.000000
      vertex 25.000000 -41.700001 -22.000000
    endloop
  endfacet
  facet normal 0.130526 0.991445 0.000000
    outer loop
      vertex 25.000000 -41.700001 -27.000000
      vertex 24.560007 -41.642075 -27.000000
      vertex 24.560007 -41.642075 -22.000000
    endloop
  endfacet
  facet normal -0.130526 0.991445 0.000000
    outer loop
      vertex 25.439993 -41.642075 -27.000000
      vertex 25.000000 -41.700001 -22.000000
      vertex 25.439993 -41.642075 -22.000000
    endloop
  endfacet
  facet normal -0.130526 0.991445 0.000000
    outer loop
      vertex 25.439993 -41.642075 -27.000000
      vertex 25.000000 -41.700001 -27.000000
      vertex 25.000000 -41.700001 -22.000000
    endloop
  endfacet
  facet normal -0.382683 0.923880 0.000000
    outer loop
      vertex 25.850000 -41.472244 -27.000000
      vertex 25.439993 -41.642075 -22.000000
      vertex 25.850000 -41.472244 -22.000000
    endloop
  endfacet
  facet normal -0.382683 0.923880 0.000000
    outer loop
      vertex 25.850000 -41.472244 -27.000000
      vertex 25.439993 -41.642075 -27.000000
      vertex 25.439993 -41.642075 -22.000000
    endloop
  endfacet
  facet normal -0.608766 0.793350 0.000000
    outer loop
      vertex 26.202082 -41.202080 -27.000000
      vertex 25.850000 -41.472244 -22.000000
      vertex 26.202082 -41.202080 -22.000000
    endloop
  endfacet
  facet normal -0.608766 0.793350 0.000000
    outer loop
      vertex 26.202082 -41.202080 -27.000000
      vertex 25.850000 -41.472244 -27.000000
      vertex 25.850000 -41.472244 -22.000000
    endloop
  endfacet
  facet normal -0.793354 0.608760 0.000000
    outer loop
      vertex 26.472242 -40.849998 -27.000000
      vertex 26.202082 -41.202080 -22.000000
      vertex 26.472242 -40.849998 -22.000000
    endloop
  endfacet
  facet normal -0.793354 0.608760 0.000000
    outer loop
      vertex 26.472242 -40.849998 -27.000000
      vertex 26.202082 -41.202080 -27.000000
      vertex 26.202082 -41.202080 -22.000000
    endloop
  endfacet
  facet normal -0.923878 0.382686 0.000000
    outer loop
      vertex 26.642075 -40.439991 -27.000000
      vertex 26.472242 -40.849998 -22.000000
      vertex 26.642075 -40.439991 -22.000000
    endloop
  endfacet
  facet normal -0.923878 0.382686 0.000000
    outer loop
      vertex 26.642075 -40.439991 -27.000000
      vertex 26.472242 -40.849998 -27.000000
      vertex 26.472242 -40.849998 -22.000000
    endloop
  endfacet
  facet normal -0.991445 0.130527 0.000000
    outer loop
      vertex 26.700001 -40.000000 -27.000000
      vertex 26.642075 -40.439991 -27.000000
      vertex 26.642075 -40.439991 -22.000000
    endloop
  endfacet
  facet normal -0.991445 0.130527 0.000000
    outer loop
      vertex 26.700001 -40.000000 -27.000000
      vertex 26.642075 -40.439991 -22.000000
      vertex 26.700001 -40.000000 -22.000000
    endloop
  endfacet
  facet normal -0.991445 -0.130527 0.000000
    outer loop
      vertex 26.642075 -39.560009 -27.000000
      vertex 26.700001 -40.000000 -27.000000
      vertex 26.700001 -40.000000 -22.000000
    endloop
  endfacet
  facet normal -0.991445 -0.130527 0.000000
    outer loop
      vertex 26.642075 -39.560009 -27.000000
      vertex 26.700001 -40.000000 -22.000000
      vertex 26.642075 -39.560009 -22.000000
    endloop
  endfacet
  facet normal -0.923878 -0.382686 0.000000
    outer loop
      vertex 26.472242 -39.150002 -27.000000
      vertex 26.642075 -39.560009 -27.000000
      vertex 26.642075 -39.560009 -22.000000
    endloop
  endfacet
  facet normal -0.923878 -0.382686 0.000000
    outer loop
      vertex 26.472242 -39.150002 -27.000000
      vertex 26.642075 -39.560009 -22.000000
      vertex 26.472242 -39.150002 -22.000000
    endloop
  endfacet
  facet normal -0.793354 -0.608760 0.000000
    outer loop
      vertex 26.202082 -38.797920 -27.000000
      vertex 26.472242 -39.150002 -27.000000
      vertex 26.472242 -39.150002 -22.000000
    endloop
  endfacet
  facet normal -0.793354 -0.608760 0.000000
    outer loop
      vertex 26.202082 -38.797920 -27.000000
      vertex 26.472242 -39.150002 -22.000000
      vertex 26.202082 -38.797920 -22.000000
    endloop
  endfacet
  facet normal -0.608766 -0.793350 0.000000
    outer loop
      vertex 25.850000 -38.527756 -27.000000
      vertex 26.202082 -38.797920 -27.000000
      vertex 26.202082 -38.797920 -22.000000
    endloop
  endfacet
  facet normal -0.608766 -0.793350 0.000000
    outer loop
      vertex 25.850000 -38.527756 -27.000000
      vertex 26.202082 -38.797920 -22.000000
      vertex 25.850000 -38.527756 -22.000000
    endloop
  endfacet
  facet normal -0.382683 -0.923880 0.000000
    outer loop
      vertex 25.439993 -38.357925 -27.000000
      vertex 25.850000 -38.527756 -27.000000
      vertex 25.850000 -38.527756 -22.000000
    endloop
  endfacet
  facet normal -0.382683 -0.923880 0.000000
    outer loop
      vertex 25.439993 -38.357925 -27.000000
      vertex 25.850000 -38.527756 -22.000000
      vertex 25.439993 -38.357925 -22.000000
    endloop
  endfacet
  facet normal 1.000000 -0.000000 0.000000
    outer loop
      vertex 3.500000 -75.000000 -19.000000
      vertex 3.500000 -30.000000 -22.000000
      vertex 3.500000 -30.000000 -19.000000
    endloop
  endfacet
  facet normal 1.000000 0.000000 0.000000
    outer loop
      vertex 3.500000 -75.000000 -22.000000
      vertex 3.500000 -30.000000 -22.000000
      vertex 3.500000 -75.000000 -19.000000
    endloop
  endfacet
  facet normal -1.000000 -0.000000 0.000000
    outer loop
      vertex -3.500000 -30.000000 -19.000000
      vertex -3.500000 -75.000000 -22.000000
      vertex -3.500000 -75.000000 -19.000000
    endloop
  endfacet
  facet normal -1.000000 0.000000 0.000000
    outer loop
      vertex -3.500000 -30.000000 -22.000000
      vertex -3.500000 -75.000000 -22.000000
      vertex -3.500000 -30.000000 -19.000000
    endloop
  endfacet
  facet normal 0.000000 0.000000 1.000000
    outer loop
      vertex -3.500000 -75.000000 -19.000000
      vertex 3.500000 -75.000000 -19.000000
      vertex -3.500000 -30.000000 -19.000000
    endloop
  endfacet
  facet normal -0.000000 0.000000 1.000000
    outer loop
      vertex -3.500000 -30.000000 -19.000000
      vertex 3.500000 -75.000000 -19.000000
      vertex 3.500000 -30.000000 -19.000000
    endloop
  endfacet
  facet normal 0.000000 -1.000000 0.000000
    outer loop
      vertex 20.000000 -35.000000 -22.000000
      vertex 35.000000 -35.000000 -12.000000
      vertex 20.000000 -35.000000 3.000000
    endloop
  endfacet
  facet normal 0.000000 -1.000000 0.000000
    outer loop
      vertex 20.000000 -35.000000 -22.000000
      vertex 35.000000 -35.000000 -22.000000
      vertex 35.000000 -35.000000 -12.000000
    endloop
  endfacet
  facet normal 0.000000 1.000000 0.000000
    outer loop
      vertex 3.500000 -30.000000 -22.000000
      vertex -3.500000 -30.000000 -22.000000
      vertex -3.500000 -30.000000 -19.000000
    endloop
  endfacet
  facet normal 0.000000 1.000000 -0.000000
    outer loop
      vertex 3.500000 -30.000000 -22.000000
      vertex -3.500000 -30.000000 -19.000000
      vertex 3.500000 -30.000000 -19.000000
    endloop
  endfacet
endsolid Mesh
